<svg width="44" height="53" viewBox="0 0 44 53" fill="none" xmlns="http://www.w3.org/2000/svg">
<path d="M38.5 9.61627H5.25C2.83375 9.61627 0.875 11.575 0.875 13.9913V47.2413C0.875 49.6575 2.83375 51.6163 5.25 51.6163H38.5C40.9162 51.6163 42.875 49.6575 42.875 47.2413V13.9913C42.875 11.575 40.9162 9.61627 38.5 9.61627Z" fill="#E6F3FF"/>
<path d="M38.5 52.4913H5.25C2.35498 52.4913 0 50.1363 0 47.2413V13.9913C0 11.0963 2.35498 8.74133 5.25 8.74133H38.5C41.395 8.74133 43.75 11.0963 43.75 13.9913V47.2413C43.75 50.1363 41.395 52.4913 38.5 52.4913ZM5.25 10.4913C3.32013 10.4913 1.75 12.061 1.75 13.9913V47.2413C1.75 49.1716 3.32013 50.7413 5.25 50.7413H38.5C40.4299 50.7413 42 49.1716 42 47.2413V13.9913C42 12.061 40.4299 10.4913 38.5 10.4913H5.25Z" fill="#21257C"/>
<path d="M5.25 30.6163C5.25 21.4346 12.6933 13.9913 21.875 13.9913C43.9277 14.867 43.9215 46.369 21.8749 47.2414C12.6933 47.2413 5.25 39.7981 5.25 30.6163Z" fill="#E6F3FF"/>
<path d="M21.875 48.1163C12.2256 48.1163 4.375 40.2661 4.375 30.6163C5.33621 7.4002 38.4173 7.40696 39.375 30.6165C39.375 40.2661 31.5244 48.1163 21.875 48.1163ZM21.875 14.8663C13.1904 14.8663 6.125 21.9321 6.125 30.6163C6.99041 51.5108 36.7628 51.5047 37.625 30.6162C37.625 21.9321 30.5596 14.8663 21.875 14.8663Z" fill="#21257C"/>
<path d="M21.875 17.4913C22.8415 17.4913 23.625 18.2748 23.625 19.2413V41.9913C23.625 42.9578 22.8415 43.7413 21.875 43.7413C20.9085 43.7413 20.125 42.9578 20.125 41.9913V19.2413C20.125 18.2748 20.9085 17.4913 21.875 17.4913Z" fill="#4AA5FF"/>
<path d="M28.875 20.1163C29.8415 20.1163 30.625 20.8998 30.625 21.8663V39.3663C30.625 40.3328 29.8415 41.1163 28.875 41.1163C27.9085 41.1163 27.125 40.3328 27.125 39.3663V21.8663C27.125 20.8998 27.9085 20.1163 28.875 20.1163Z" fill="#4AA5FF"/>
<path d="M14.875 20.1163C15.8415 20.1163 16.625 20.8998 16.625 21.8663V39.3663C16.625 40.3328 15.8415 41.1163 14.875 41.1163C13.9085 41.1163 13.125 40.3328 13.125 39.3663V21.8663C13.125 20.8998 13.9085 20.1163 14.875 20.1163Z" fill="#4AA5FF"/>
<path d="M34.125 35.8663C33.6418 35.8663 33.25 35.475 33.25 34.9913V26.2413C33.25 25.7577 33.6418 25.3663 34.125 25.3663C34.6082 25.3663 35 25.7577 35 26.2413V34.9913C35 35.475 34.6082 35.8663 34.125 35.8663Z" fill="#4AA5FF"/>
<path d="M9.625 35.8663C9.14178 35.8663 8.75 35.475 8.75 34.9913V26.2413C8.75 25.7577 9.14178 25.3663 9.625 25.3663C10.1082 25.3663 10.5 25.7577 10.5 26.2413V34.9913C10.5 35.475 10.1082 35.8663 9.625 35.8663Z" fill="#4AA5FF"/>
<path d="M10.5 18.3823C10.5 13.4288 17.572 4.86288 20.5636 1.46089C21.2607 0.668148 22.4893 0.668148 23.1864 1.46089C26.178 4.86288 33.25 13.4288 33.25 18.3823C33.25 24.6646 28.1572 29.7573 21.875 29.7573C15.5928 29.7573 10.5 24.6646 10.5 18.3823Z" fill="#4AA5FF"/>
<path d="M21.875 30.6326C15.1202 30.6326 9.625 25.1373 9.625 18.3826C9.625 13.3291 16.067 5.24989 19.9067 0.883435C20.8956 -0.293641 22.8545 -0.29533 23.8433 0.883479C27.683 5.24989 34.125 13.3291 34.125 18.3826C34.125 25.1373 28.6298 30.6326 21.875 30.6326ZM21.875 1.74135C21.6216 1.74135 21.3896 1.8473 21.2209 2.03871C15.0557 9.04896 11.375 15.1594 11.375 18.3826C11.375 24.1726 16.0854 28.8826 21.875 28.8826C27.6646 28.8826 32.375 24.1726 32.375 18.3826C32.375 15.1594 28.6943 9.04896 22.5291 2.03871C22.3604 1.8473 22.1284 1.74135 21.875 1.74135Z" fill="#21257C"/>
<path d="M27.5373 24.81C26.7894 24.8348 26.3603 23.8374 26.9187 23.3164C28.2508 21.9834 28.9848 20.2112 28.9848 18.327C28.9848 17.4964 28.6024 16.3275 27.8787 14.9466C27.6544 14.5185 27.8193 13.9905 28.2474 13.7657C28.6764 13.5427 29.2044 13.7068 29.4287 14.1349C30.3076 15.8114 30.7348 17.1829 30.7348 18.327C30.7348 20.6786 29.8192 22.89 28.156 24.5537C27.9851 24.7246 27.7612 24.81 27.5373 24.81Z" fill="#E6F3FF"/>
</svg>
