<svg width="56" height="56" viewBox="0 0 56 56" fill="none" xmlns="http://www.w3.org/2000/svg">
<path d="M24.0015 0.644928H48.2717V5.79456H24.0015V0.644928Z" fill="#FFDB94"/>
<path d="M48.2717 6.43839H24.0015C23.8304 6.43839 23.6664 6.37044 23.5455 6.2495C23.4245 6.12855 23.3566 5.96452 23.3566 5.79347V0.644914C23.3566 0.473872 23.4245 0.309836 23.5455 0.188891C23.6664 0.0679461 23.8304 0 24.0015 0L48.2717 0C48.4428 0 48.6068 0.0679461 48.7278 0.188891C48.8487 0.309836 48.9166 0.473872 48.9166 0.644914V5.79347C48.9166 5.96452 48.8487 6.12855 48.7278 6.2495C48.6068 6.37044 48.4428 6.43839 48.2717 6.43839ZM24.6464 5.14856H47.6268V1.28983H24.6464V5.14856Z" fill="black"/>
<path d="M4.82605 45.2085H36.9642V50.1797H4.82605V45.2085Z" fill="#FFDB94"/>
<path d="M36.975 50.8299H4.82607C4.65502 50.8299 4.49099 50.762 4.37004 50.6411C4.2491 50.5201 4.18115 50.3561 4.18115 50.185V45.2085C4.18115 45.0374 4.2491 44.8734 4.37004 44.7524C4.49099 44.6315 4.65502 44.5635 4.82607 44.5635H36.975C37.1461 44.5635 37.3101 44.6315 37.431 44.7524C37.552 44.8734 37.6199 45.0374 37.6199 45.2085V50.185C37.6199 50.3561 37.552 50.5201 37.431 50.6411C37.3101 50.762 37.1461 50.8299 36.975 50.8299ZM5.47098 49.5401H36.3301V45.8534H5.47098V49.5401Z" fill="black"/>
<path d="M0.644897 50.185H12.4361V54.8693H0.644897V50.185Z" fill="#FFDB94"/>
<path d="M12.4361 55.5163H0.644914C0.473872 55.5163 0.309836 55.4484 0.188891 55.3274C0.0679461 55.2065 0 55.0424 0 54.8714L0 50.185C0 50.014 0.0679461 49.8499 0.188891 49.729C0.309836 49.608 0.473872 49.5401 0.644914 49.5401H12.4361C12.6071 49.5401 12.7712 49.608 12.8921 49.729C13.0131 49.8499 13.081 50.014 13.081 50.185V54.8714C13.081 55.0424 13.0131 55.2065 12.8921 55.3274C12.7712 55.4484 12.6071 55.5163 12.4361 55.5163ZM1.28983 54.2265H11.7912V50.8299H1.28983V54.2265Z" fill="black"/>
<path d="M9.01807 50.185H36.9751V54.8693H9.01807V50.185Z" fill="#FFDB94"/>
<path d="M36.9751 55.5163H9.01808C8.84704 55.5163 8.683 55.4484 8.56206 55.3274C8.44111 55.2065 8.37317 55.0424 8.37317 54.8714V50.185C8.37317 50.014 8.44111 49.8499 8.56206 49.729C8.683 49.608 8.84704 49.5401 9.01808 49.5401H36.9751C37.1461 49.5401 37.3102 49.608 37.4311 49.729C37.5521 49.8499 37.62 50.014 37.62 50.185V54.8714C37.62 55.0424 37.5521 55.2065 37.4311 55.3274C37.3102 55.4484 37.1461 55.5163 36.9751 55.5163ZM9.663 54.2265H36.3302V50.8299H9.663V54.2265Z" fill="black"/>
<path d="M0.644897 40.2426H36.975V45.2128H0.644897V40.2426Z" fill="#FFDB94"/>
<path d="M36.975 45.8534H0.644914C0.473872 45.8534 0.309836 45.7854 0.188891 45.6645C0.0679461 45.5435 0 45.3795 0 45.2084L0 40.2426C0 40.0716 0.0679461 39.9075 0.188891 39.7866C0.309836 39.6656 0.473872 39.5977 0.644914 39.5977H36.975C37.1461 39.5977 37.3101 39.6656 37.4311 39.7866C37.552 39.9075 37.62 40.0716 37.62 40.2426V45.2084C37.62 45.3795 37.552 45.5435 37.4311 45.6645C37.3101 45.7854 37.1461 45.8534 36.975 45.8534ZM1.28983 44.5635H36.3301V40.8875H1.28983V44.5635Z" fill="black"/>
<path d="M4.91211 35.2661H36.9751V40.2362H4.91211V35.2661Z" fill="#FFDB94"/>
<path d="M36.9751 40.8875H4.91213C4.74108 40.8875 4.57705 40.8196 4.4561 40.6986C4.33516 40.5777 4.26721 40.4137 4.26721 40.2426V35.266C4.26721 35.095 4.33516 34.931 4.4561 34.81C4.57705 34.6891 4.74108 34.6211 4.91213 34.6211H36.9751C37.1461 34.6211 37.3102 34.6891 37.4311 34.81C37.552 34.931 37.62 35.095 37.62 35.266V40.2426C37.62 40.4137 37.552 40.5777 37.4311 40.6986C37.3102 40.8196 37.1461 40.8875 36.9751 40.8875ZM5.55704 39.5977H36.3302V35.911H5.55704V39.5977Z" fill="black"/>
<path d="M0.644897 30.3002H36.975V35.2703H0.644897V30.3002Z" fill="#FFDB94"/>
<path d="M36.975 35.9109H0.644914C0.473872 35.9109 0.309836 35.843 0.188891 35.722C0.0679461 35.6011 0 35.4371 0 35.266L0 30.3002C0 30.1291 0.0679461 29.9651 0.188891 29.8442C0.309836 29.7232 0.473872 29.6553 0.644914 29.6553H36.975C37.1461 29.6553 37.3101 29.7232 37.4311 29.8442C37.552 29.9651 37.62 30.1291 37.62 30.3002V35.266C37.62 35.4371 37.552 35.6011 37.4311 35.722C37.3101 35.843 37.1461 35.9109 36.975 35.9109ZM1.28983 34.6211H36.3301V30.9451H1.28983V34.6211Z" fill="black"/>
<path d="M6.53516 25.3344H36.9643V30.3045H6.53516V25.3344Z" fill="#FFDB94"/>
<path d="M36.9751 30.9451H6.53517C6.36413 30.9451 6.20009 30.8772 6.07915 30.7562C5.9582 30.6353 5.89026 30.4712 5.89026 30.3002V25.3344C5.89026 25.1633 5.9582 24.9993 6.07915 24.8783C6.20009 24.7574 6.36413 24.6895 6.53517 24.6895H36.9751C37.1461 24.6895 37.3102 24.7574 37.4311 24.8783C37.5521 24.9993 37.62 25.1633 37.62 25.3344V30.3002C37.62 30.4712 37.5521 30.6353 37.4311 30.7562C37.3102 30.8772 37.1461 30.9451 36.9751 30.9451ZM7.18009 29.6553H36.3302V25.9793H7.18009V29.6553Z" fill="black"/>
<path d="M12.436 20.3578H36.975V25.3279H12.436V20.3578Z" fill="#FFDB94"/>
<path d="M36.975 25.9793H12.4361C12.265 25.9793 12.101 25.9113 11.98 25.7904C11.8591 25.6694 11.7911 25.5054 11.7911 25.3344V20.3578C11.7911 20.1867 11.8591 20.0227 11.98 19.9018C12.101 19.7808 12.265 19.7129 12.4361 19.7129H36.975C37.1461 19.7129 37.3101 19.7808 37.431 19.9018C37.552 20.0227 37.6199 20.1867 37.6199 20.3578V25.3344C37.6199 25.5054 37.552 25.6694 37.431 25.7904C37.3101 25.9113 37.1461 25.9793 36.975 25.9793ZM13.081 24.6894H36.3301V21.0027H13.081V24.6894Z" fill="black"/>
<path d="M6.65332 15.3919H43.0909V20.3621H6.65332V15.3919Z" fill="#FFDB94"/>
<path d="M43.091 21.0027H6.65334C6.48229 21.0027 6.31826 20.9347 6.19731 20.8138C6.07637 20.6928 6.00842 20.5288 6.00842 20.3578V15.3919C6.00842 15.2209 6.07637 15.0568 6.19731 14.9359C6.31826 14.815 6.48229 14.747 6.65334 14.747H43.091C43.262 14.747 43.426 14.815 43.547 14.9359C43.6679 15.0568 43.7359 15.2209 43.7359 15.3919V20.3578C43.7359 20.5288 43.6679 20.6928 43.547 20.8138C43.426 20.9347 43.262 21.0027 43.091 21.0027ZM7.29825 19.7128H42.446V16.0368H7.29825V19.7128Z" fill="black"/>
<path d="M0.644897 10.4154H43.091V15.3855H0.644897V10.4154Z" fill="#FFDB94"/>
<path d="M43.091 16.0369H0.644914C0.473872 16.0369 0.309836 15.9689 0.188891 15.848C0.0679461 15.727 0 15.563 0 15.3919L0 10.4154C0 10.2443 0.0679461 10.0803 0.188891 9.95934C0.309836 9.83839 0.473872 9.77045 0.644914 9.77045H43.091C43.262 9.77045 43.4261 9.83839 43.547 9.95934C43.6679 10.0803 43.7359 10.2443 43.7359 10.4154V15.3919C43.7359 15.563 43.6679 15.727 43.547 15.848C43.4261 15.9689 43.262 16.0369 43.091 16.0369ZM1.28983 14.747H42.4461V11.0603H1.28983V14.747Z" fill="black"/>
<path d="M6.53516 5.79349H51.7866V10.4175H6.53516V5.79349Z" fill="#FFDB94"/>
<path d="M51.7974 11.0603H6.53517C6.36413 11.0603 6.20009 10.9923 6.07915 10.8714C5.9582 10.7504 5.89026 10.5864 5.89026 10.4154V5.79347C5.89026 5.62243 5.9582 5.4584 6.07915 5.33745C6.20009 5.21651 6.36413 5.14856 6.53517 5.14856H51.7974C51.9684 5.14856 52.1324 5.21651 52.2534 5.33745C52.3743 5.4584 52.4423 5.62243 52.4423 5.79347V10.4154C52.4423 10.5864 52.3743 10.7504 52.2534 10.8714C52.1324 10.9923 51.9684 11.0603 51.7974 11.0603ZM7.18009 9.77044H51.1524V6.43839H7.18009V9.77044Z" fill="black"/>
<path d="M11.7911 54.8714H13.081V55.2336H11.7911V54.8714Z" fill="black"/>
<path d="M23.3566 50.185H24.6464V55.2315H23.3566V50.185Z" fill="black"/>
<path d="M17.5739 44.929H18.8637V49.9754H17.5739V44.929Z" fill="black"/>
<path d="M11.7911 39.8879H13.081V44.9344H11.7911V39.8879Z" fill="black"/>
<path d="M23.3566 39.8879H24.6464V44.9344H23.3566V39.8879Z" fill="black"/>
<path d="M17.5739 34.6319H18.8637V39.6783H17.5739V34.6319Z" fill="black"/>
<path d="M11.7911 30.4292H13.081V35.4756H11.7911V30.4292Z" fill="black"/>
<path d="M23.3566 30.4292H24.6464V35.4756H23.3566V30.4292Z" fill="black"/>
<path d="M17.5739 25.1839H18.8637V30.2303H17.5739V25.1839Z" fill="black"/>
<path d="M11.7911 20.132H13.081V25.1785H11.7911V20.132Z" fill="black"/>
<path d="M23.3566 20.132H24.6464V25.1785H23.3566V20.132Z" fill="black"/>
<path d="M17.5739 14.8867H18.8637V19.9332H17.5739V14.8867Z" fill="black"/>
<path d="M11.7911 10.5228H13.081V15.5693H11.7911V10.5228Z" fill="black"/>
<path d="M23.3566 10.5228H24.6464V15.5693H23.3566V10.5228Z" fill="black"/>
<path d="M6.00842 5.26678H7.29825V10.3132H6.00842V5.26678Z" fill="black"/>
<path d="M17.5739 5.26678H18.8637V10.3132H17.5739V5.26678Z" fill="black"/>
<path d="M30.2787 44.9075H31.5685V49.9539H30.2787V44.9075Z" fill="black"/>
<path d="M30.2787 34.6104H31.5685V39.6568H30.2787V34.6104Z" fill="black"/>
<path d="M30.2787 25.1624H31.5685V30.2088H30.2787V25.1624Z" fill="black"/>
<path d="M30.2787 14.8653H31.5685V19.9117H30.2787V14.8653Z" fill="black"/>
<path d="M36.0614 10.5013H37.3512V15.5478H36.0614V10.5013Z" fill="black"/>
<path d="M30.2787 5.2453H31.5685V10.2917H30.2787V5.2453Z" fill="black"/>
<path d="M36.0614 0.698669H37.3512V5.74512H36.0614V0.698669Z" fill="black"/>
<path d="M41.8441 5.2453H43.1339V10.2917H41.8441V5.2453Z" fill="black"/>
<path d="M54.0437 23.6791V40.7478C54.0437 41.1355 53.8897 41.5073 53.6156 41.7815C53.3414 42.0556 52.9696 42.2096 52.5819 42.2096H51.7221C51.3476 42.2012 50.9917 42.045 50.732 41.7752C50.4722 41.5054 50.3297 41.1438 50.3355 40.7693V28.516C50.3383 28.331 50.3047 28.1474 50.2366 27.9755C50.1684 27.8035 50.0671 27.6467 49.9383 27.514C49.8096 27.3812 49.6559 27.2751 49.4862 27.2018C49.3164 27.1284 49.1338 27.0892 48.9489 27.0864H48.1535C47.9686 27.0892 47.7861 27.1284 47.6163 27.2018C47.4465 27.2751 47.2929 27.3812 47.1641 27.514C47.0354 27.6467 46.934 27.8035 46.8659 27.9755C46.7977 28.1474 46.7641 28.331 46.767 28.516V36.5344C46.7698 36.7207 46.7359 36.9058 46.6672 37.079C46.5985 37.2522 46.4964 37.4102 46.3667 37.544C46.2369 37.6777 46.0821 37.7846 45.911 37.8585C45.7399 37.9324 45.556 37.9719 45.3697 37.9747C45.1869 37.9739 45.0061 37.9363 44.8381 37.8643C44.67 37.7923 44.5182 37.6873 44.3915 37.5555C44.1257 37.2826 43.9788 36.9154 43.9831 36.5344V30.9881C43.9889 30.6137 43.8463 30.2521 43.5866 29.9823C43.3268 29.7125 42.9709 29.5563 42.5965 29.5478H41.8334C41.459 29.5563 41.1031 29.7125 40.8433 29.9823C40.5836 30.2521 40.441 30.6137 40.4468 30.9881V31.5686C40.4497 31.7535 40.416 31.9371 40.3479 32.1091C40.2798 32.281 40.1784 32.4378 40.0497 32.5705C39.9209 32.7033 39.7672 32.8094 39.5975 32.8827C39.4277 32.9561 39.2452 32.9953 39.0602 32.9981H38.3616C38.0252 32.9981 37.7026 32.8645 37.4647 32.6266C37.2269 32.3888 37.0933 32.0662 37.0933 31.7298V23.6791H54.0437Z" fill="#FA5753"/>
<path d="M52.582 42.8545H51.7221C51.1766 42.846 50.6567 42.6219 50.276 42.2311C49.8953 41.8404 49.6848 41.3148 49.6906 40.7693V28.5159C49.6934 28.4157 49.6765 28.3159 49.6408 28.2222C49.6051 28.1285 49.5512 28.0428 49.4824 27.9699C49.4135 27.8971 49.3309 27.8385 49.2394 27.7975C49.1479 27.7566 49.0492 27.7341 48.9489 27.7313H48.1535C48.0533 27.7341 47.9546 27.7566 47.8631 27.7975C47.7716 27.8385 47.689 27.8971 47.6201 27.9699C47.5512 28.0428 47.4974 28.1285 47.4617 28.2222C47.4259 28.3159 47.409 28.4157 47.4119 28.5159V36.5344C47.4147 36.8054 47.3642 37.0743 47.2631 37.3258C47.162 37.5772 47.0123 37.8063 46.8227 38C46.633 38.1936 46.4071 38.348 46.1578 38.4543C45.9085 38.5606 45.6407 38.6168 45.3697 38.6196C45.0998 38.6195 44.8327 38.5641 44.585 38.4569C44.3373 38.3497 44.1142 38.1929 43.9294 37.9962C43.7389 37.8039 43.5885 37.5756 43.487 37.3246C43.3855 37.0737 43.3349 36.805 43.3382 36.5344V30.9881C43.344 30.7846 43.2694 30.5871 43.1306 30.4382C42.9918 30.2893 42.7999 30.2011 42.5965 30.1927H41.8334C41.63 30.2011 41.4381 30.2893 41.2993 30.4382C41.1605 30.5871 41.0859 30.7846 41.0917 30.9881V31.5685C41.0946 31.8381 41.0443 32.1057 40.9437 32.3558C40.8432 32.606 40.6943 32.8339 40.5057 33.0265C40.317 33.2192 40.0923 33.3728 39.8443 33.4785C39.5963 33.5843 39.3299 33.6402 39.0603 33.643H38.3616C37.8542 33.643 37.3675 33.4414 37.0087 33.0826C36.6499 32.7238 36.4484 32.2372 36.4484 31.7298V23.6791C36.4484 23.5081 36.5163 23.344 36.6373 23.2231C36.7582 23.1021 36.9222 23.0342 37.0933 23.0342H54.0438C54.2148 23.0342 54.3788 23.1021 54.4998 23.2231C54.6207 23.344 54.6887 23.5081 54.6887 23.6791V40.7478C54.6887 41.3065 54.4667 41.8424 54.0716 42.2375C53.6765 42.6326 53.1407 42.8545 52.582 42.8545ZM48.1535 26.4415H48.9489C49.4925 26.45 50.0108 26.6726 50.3912 27.061C50.7716 27.4495 50.9833 27.9723 50.9804 28.5159V40.7693C50.9746 40.9728 51.0492 41.1704 51.188 41.3192C51.3268 41.4681 51.5187 41.5563 51.7221 41.5647H52.582C52.7986 41.5647 53.0064 41.4786 53.1596 41.3254C53.3128 41.1722 53.3988 40.9645 53.3988 40.7478V24.324H37.7382V31.7298C37.7382 31.8951 37.8039 32.0537 37.9208 32.1706C38.0377 32.2875 38.1963 32.3532 38.3616 32.3532H39.0603C39.1605 32.3504 39.2592 32.3279 39.3507 32.2869C39.4422 32.246 39.5248 32.1874 39.5937 32.1145C39.6626 32.0417 39.7164 31.9559 39.7521 31.8623C39.7879 31.7686 39.8048 31.6688 39.8019 31.5685V30.9881C39.7962 30.4426 40.0066 29.917 40.3873 29.5263C40.768 29.1355 41.2879 28.9114 41.8334 28.9029H42.5965C43.142 28.9114 43.6619 29.1355 44.0426 29.5263C44.4233 29.917 44.6338 30.4426 44.628 30.9881V36.5344C44.6261 36.6395 44.6451 36.744 44.6838 36.8418C44.7226 36.9396 44.7803 37.0287 44.8537 37.104C44.9205 37.1739 45.0005 37.2298 45.0891 37.2686C45.1777 37.3073 45.273 37.3281 45.3697 37.3298C45.4713 37.327 45.5714 37.3042 45.6642 37.2627C45.7571 37.2212 45.8408 37.1618 45.9107 37.088C45.9806 37.0141 46.0352 36.9272 46.0715 36.8322C46.1077 36.7372 46.1249 36.636 46.1221 36.5344V28.5159C46.1192 28.2463 46.1695 27.9788 46.2701 27.7287C46.3706 27.4785 46.5195 27.2506 46.7081 27.0579C46.8968 26.8653 47.1215 26.7117 47.3695 26.6059C47.6175 26.5002 47.8839 26.4443 48.1535 26.4415Z" fill="black"/>
<path d="M54.0437 40.7478V52.2702H37.0933V31.7297C37.0933 32.0661 37.2269 32.3887 37.4647 32.6266C37.7026 32.8644 38.0252 32.9981 38.3616 32.9981H39.0602C39.2452 32.9953 39.4277 32.9561 39.5975 32.8827C39.7672 32.8093 39.9209 32.7033 40.0497 32.5705C40.1784 32.4378 40.2798 32.2809 40.3479 32.109C40.416 31.9371 40.4497 31.7534 40.4468 31.5685V30.9881C40.441 30.6136 40.5836 30.252 40.8433 29.9822C41.1031 29.7124 41.459 29.5563 41.8334 29.5478H42.5965C42.9709 29.5563 43.3268 29.7124 43.5866 29.9822C43.8463 30.252 43.9889 30.6136 43.9831 30.9881V36.5343C43.9788 36.9153 44.1257 37.2825 44.3915 37.5555C44.5182 37.6873 44.67 37.7923 44.8381 37.8643C45.0061 37.9363 45.1869 37.9738 45.3697 37.9747C45.556 37.9719 45.7399 37.9324 45.911 37.8585C46.0821 37.7846 46.2369 37.6777 46.3667 37.5439C46.4964 37.4102 46.5985 37.2522 46.6672 37.079C46.7359 36.9057 46.7698 36.7207 46.767 36.5343V28.5159C46.7641 28.331 46.7977 28.1473 46.8659 27.9754C46.934 27.8035 47.0354 27.6467 47.1641 27.5139C47.2929 27.3812 47.4465 27.2751 47.6163 27.2017C47.7861 27.1284 47.9686 27.0892 48.1535 27.0864H48.9489C49.1338 27.0892 49.3164 27.1284 49.4862 27.2017C49.6559 27.2751 49.8096 27.3812 49.9383 27.5139C50.0671 27.6467 50.1684 27.8035 50.2366 27.9754C50.3047 28.1473 50.3383 28.331 50.3355 28.5159V40.7693C50.3297 41.1438 50.4722 41.5053 50.732 41.7751C50.9917 42.045 51.3476 42.2011 51.7221 42.2096H52.5819C52.9696 42.2096 53.3414 42.0556 53.6156 41.7814C53.8897 41.5073 54.0437 41.1355 54.0437 40.7478Z" fill="#7367DB"/>
<path d="M54.0438 52.9152H37.0933C36.9222 52.9152 36.7582 52.8472 36.6373 52.7263C36.5163 52.6053 36.4484 52.4413 36.4484 52.2703V31.7298C36.4484 31.5587 36.5163 31.3947 36.6373 31.2737C36.7582 31.1528 36.9222 31.0848 37.0933 31.0848C37.2643 31.0848 37.4284 31.1528 37.5493 31.2737C37.6702 31.3947 37.7382 31.5587 37.7382 31.7298C37.7382 31.8951 37.8039 32.0537 37.9208 32.1706C38.0377 32.2875 38.1963 32.3532 38.3616 32.3532H39.0603C39.1605 32.3504 39.2592 32.3279 39.3507 32.2869C39.4422 32.246 39.5248 32.1874 39.5937 32.1145C39.6626 32.0417 39.7164 31.9559 39.7521 31.8623C39.7879 31.7686 39.8048 31.6688 39.8019 31.5685V30.9881C39.7962 30.4426 40.0066 29.917 40.3873 29.5263C40.768 29.1355 41.2879 28.9114 41.8334 28.9029H42.5965C43.142 28.9114 43.6619 29.1355 44.0426 29.5263C44.4233 29.917 44.6338 30.4426 44.628 30.9881V36.5344C44.6261 36.6395 44.6451 36.744 44.6838 36.8418C44.7226 36.9396 44.7803 37.0287 44.8537 37.104C44.9205 37.1739 45.0005 37.2298 45.0891 37.2686C45.1777 37.3073 45.273 37.3281 45.3697 37.3298C45.4713 37.327 45.5714 37.3042 45.6642 37.2627C45.7571 37.2212 45.8408 37.1618 45.9107 37.088C45.9806 37.0141 46.0352 36.9272 46.0715 36.8322C46.1077 36.7372 46.1249 36.636 46.1221 36.5344V28.5159C46.1192 28.2463 46.1695 27.9788 46.2701 27.7286C46.3706 27.4785 46.5195 27.2506 46.7081 27.0579C46.8968 26.8653 47.1215 26.7117 47.3695 26.6059C47.6175 26.5002 47.8839 26.4443 48.1535 26.4415H48.9489C49.4925 26.45 50.0108 26.6726 50.3912 27.061C50.7716 27.4495 50.9833 27.9723 50.9804 28.5159V40.7693C50.9746 40.9728 51.0492 41.1703 51.188 41.3192C51.3268 41.4681 51.5187 41.5563 51.7221 41.5647H52.582C52.7986 41.5647 53.0064 41.4786 53.1596 41.3254C53.3128 41.1722 53.3988 40.9645 53.3988 40.7478C53.3988 40.5768 53.4668 40.4127 53.5877 40.2918C53.7087 40.1708 53.8727 40.1029 54.0438 40.1029C54.2148 40.1029 54.3788 40.1708 54.4998 40.2918C54.6207 40.4127 54.6887 40.5768 54.6887 40.7478V52.2703C54.6887 52.4413 54.6207 52.6053 54.4998 52.7263C54.3788 52.8472 54.2148 52.9152 54.0438 52.9152ZM37.7382 51.6253H53.3988V42.6825C53.1412 42.7952 52.8632 42.8537 52.582 42.8545H51.7221C51.1766 42.846 50.6567 42.6219 50.276 42.2311C49.8953 41.8404 49.6848 41.3148 49.6906 40.7693V28.5159C49.6934 28.4157 49.6765 28.3159 49.6408 28.2222C49.6051 28.1285 49.5512 28.0428 49.4824 27.9699C49.4135 27.8971 49.3309 27.8385 49.2394 27.7975C49.1479 27.7566 49.0492 27.7341 48.9489 27.7313H48.1535C48.0533 27.7341 47.9546 27.7566 47.8631 27.7975C47.7716 27.8385 47.689 27.8971 47.6201 27.9699C47.5512 28.0428 47.4974 28.1285 47.4617 28.2222C47.4259 28.3159 47.409 28.4157 47.4119 28.5159V36.5344C47.4147 36.8054 47.3642 37.0743 47.2631 37.3258C47.162 37.5772 47.0123 37.8063 46.8227 38C46.633 38.1936 46.4071 38.348 46.1578 38.4543C45.9085 38.5606 45.6407 38.6168 45.3697 38.6196C45.0998 38.6195 44.8327 38.5641 44.585 38.4569C44.3373 38.3496 44.1142 38.1929 43.9294 37.9962C43.7389 37.8039 43.5885 37.5756 43.487 37.3246C43.3855 37.0737 43.3349 36.805 43.3382 36.5344V30.9881C43.344 30.7846 43.2694 30.5871 43.1306 30.4382C42.9918 30.2893 42.7999 30.2011 42.5965 30.1927H41.8334C41.63 30.2011 41.4381 30.2893 41.2993 30.4382C41.1605 30.5871 41.0859 30.7846 41.0917 30.9881V31.5685C41.0946 31.8381 41.0443 32.1057 40.9437 32.3558C40.8432 32.606 40.6943 32.8339 40.5057 33.0265C40.317 33.2192 40.0923 33.3728 39.8443 33.4785C39.5963 33.5843 39.3299 33.6402 39.0603 33.643H38.3616C38.15 33.6441 37.9395 33.6115 37.7382 33.5463V51.6253Z" fill="black"/>
<path d="M48.9059 15.6821H42.2311C40.8684 15.6821 39.5616 16.2234 38.5981 17.187C37.6346 18.1505 37.0933 19.4573 37.0933 20.8199V21.0994H54.0437V20.8199C54.0437 19.4573 53.5024 18.1505 52.5389 17.187C51.5754 16.2234 50.2686 15.6821 48.9059 15.6821Z" fill="#7367DB"/>
<path d="M54.0438 21.7443H37.0933C36.9222 21.7443 36.7582 21.6764 36.6373 21.5554C36.5163 21.4345 36.4484 21.2705 36.4484 21.0994V20.82C36.4512 19.2872 37.0614 17.8179 38.1452 16.7341C39.2291 15.6502 40.6983 15.0401 42.2311 15.0372H48.9059C50.4396 15.0372 51.9105 15.6465 52.9949 16.731C54.0794 17.8154 54.6887 19.2863 54.6887 20.82V21.0994C54.6887 21.2705 54.6207 21.4345 54.4998 21.5554C54.3788 21.6764 54.2148 21.7443 54.0438 21.7443ZM37.7597 20.4545H53.3881C53.2938 19.3301 52.781 18.2821 51.951 17.5178C51.1209 16.7534 50.0343 16.3285 48.9059 16.3271H42.2311C41.1032 16.3262 40.0164 16.7507 39.1876 17.5157C38.3588 18.2807 37.8489 19.3301 37.7597 20.4545Z" fill="black"/>
<path d="M54.8499 21.0994H36.2979C36.013 21.0994 35.782 21.3304 35.782 21.6154V23.1664C35.782 23.4513 36.013 23.6823 36.2979 23.6823H54.8499C55.1349 23.6823 55.3659 23.4513 55.3659 23.1664V21.6154C55.3659 21.3304 55.1349 21.0994 54.8499 21.0994Z" fill="#E0E0E0"/>
<path d="M54.8392 24.324H36.2979C35.9901 24.324 35.6948 24.2017 35.4771 23.984C35.2594 23.7663 35.1371 23.471 35.1371 23.1632V21.6154C35.1371 21.4629 35.1671 21.312 35.2255 21.1711C35.2838 21.0303 35.3693 20.9023 35.4771 20.7945C35.5849 20.6867 35.7129 20.6012 35.8537 20.5429C35.9945 20.4846 36.1455 20.4545 36.2979 20.4545H54.8392C54.9916 20.4545 55.1426 20.4846 55.2834 20.5429C55.4243 20.6012 55.5522 20.6867 55.66 20.7945C55.7678 20.9023 55.8533 21.0303 55.9117 21.1711C55.97 21.312 56 21.4629 56 21.6154V23.1632C56 23.471 55.8777 23.7663 55.66 23.984C55.4423 24.2017 55.1471 24.324 54.8392 24.324ZM36.4269 23.0342H54.7102V21.7444H36.4269V23.0342Z" fill="black"/>
<path d="M54.8499 52.2703H36.2979C36.013 52.2703 35.782 52.5013 35.782 52.7862V54.3372C35.782 54.6222 36.013 54.8531 36.2979 54.8531H54.8499C55.1349 54.8531 55.3659 54.6222 55.3659 54.3372V52.7862C55.3659 52.5013 55.1349 52.2703 54.8499 52.2703Z" fill="#E0E0E0"/>
<path d="M54.8392 55.4948H36.2979C35.9901 55.4948 35.6948 55.3725 35.4771 55.1548C35.2594 54.9371 35.1371 54.6418 35.1371 54.334V52.7862C35.1371 52.4783 35.2594 52.183 35.4771 51.9653C35.6948 51.7476 35.9901 51.6253 36.2979 51.6253H54.8392C55.1471 51.6253 55.4423 51.7476 55.66 51.9653C55.8777 52.183 56 52.4783 56 52.7862V54.334C56 54.6418 55.8777 54.9371 55.66 55.1548C55.4423 55.3725 55.1471 55.4948 54.8392 55.4948ZM36.4269 54.205H54.7102V52.9152H36.4269V54.205Z" fill="black"/>
<path d="M43.3168 10.4154H47.8419V15.68H43.3168V10.4154Z" fill="#E0E0E0"/>
<path d="M47.8312 16.3271H43.3168C43.1457 16.3271 42.9817 16.2591 42.8608 16.1382C42.7398 16.0172 42.6719 15.8532 42.6719 15.6822V10.4154C42.6719 10.2443 42.7398 10.0803 42.8608 9.95934C42.9817 9.83839 43.1457 9.77045 43.3168 9.77045H47.8312C48.0022 9.77045 48.1663 9.83839 48.2872 9.95934C48.4082 10.0803 48.4761 10.2443 48.4761 10.4154V15.6822C48.4761 15.8532 48.4082 16.0172 48.2872 16.1382C48.1663 16.2591 48.0022 16.3271 47.8312 16.3271ZM43.9617 15.0372H47.1863V11.0603H43.9617V15.0372Z" fill="black"/>
<path d="M44.9075 12.1781H46.1113V13.468H44.9075V12.1781Z" fill="black"/>
<path d="M37.0933 40.952H45.2084V49.0661H37.0933V40.952Z" fill="#E0E0E0"/>
<path d="M45.2084 49.7121H37.0933C36.9222 49.7121 36.7582 49.6441 36.6373 49.5232C36.5163 49.4023 36.4484 49.2382 36.4484 49.0672V40.952C36.4484 40.781 36.5163 40.6169 36.6373 40.496C36.7582 40.375 36.9222 40.3071 37.0933 40.3071H45.2084C45.3795 40.3071 45.5435 40.375 45.6645 40.496C45.7854 40.6169 45.8534 40.781 45.8534 40.952V49.0672C45.8534 49.2382 45.7854 49.4023 45.6645 49.5232C45.5435 49.6441 45.3795 49.7121 45.2084 49.7121ZM37.7382 48.4223H44.5635V41.5969H37.7382V48.4223Z" fill="black"/>
<path d="M43.5855 44.628H42.2956V43.7144H41.296V42.4246H42.9405C43.1116 42.4246 43.2756 42.4925 43.3966 42.6135C43.5175 42.7344 43.5855 42.8984 43.5855 43.0695V44.628Z" fill="black"/>
<path d="M16.585 42.9405C17.7458 42.9405 18.681 41.8119 18.681 40.4254V29.2683C18.681 27.5808 19.8203 26.2158 21.2284 26.2158C23.4318 26.1405 24.109 25.2484 24.0015 21.2822C24.0015 21.2822 24.0015 18.2188 26.6241 18.466C27.8817 18.466 28.9028 19.6914 28.9028 21.2069V31.2461C28.9028 32.8154 29.9669 34.0944 31.2783 34.0944C32.5896 34.0944 33.6429 32.8154 33.6429 31.2461V16.2841C33.6429 12.6296 31.1815 9.67372 28.1397 9.67372H24.066C24.066 7.64224 22.6902 5.99771 21.0026 5.99771H20.8414C19.1431 5.99771 17.7781 7.64224 17.7781 9.67372C15.9616 9.67372 14.489 11.4365 14.489 13.6077V40.4254C14.489 41.8119 15.4241 42.9405 16.585 42.9405Z" fill="#FA5753"/>
<path d="M16.585 43.5854C15.0695 43.5854 13.8441 42.1666 13.8441 40.4253V13.6077C13.8441 11.329 15.2844 9.42649 17.1654 9.08253C17.4126 6.98656 18.9712 5.35278 20.8414 5.35278H21.0027C22.8622 5.35278 24.3992 6.95432 24.6679 9.02879H28.1397C31.5255 9.02879 34.2879 12.2856 34.2879 16.2841V31.2461C34.2879 33.1701 32.9336 34.7394 31.2783 34.7394C29.623 34.7394 28.2579 33.1701 28.2579 31.2461V21.2069C28.2579 20.0568 27.527 19.1109 26.6242 19.1109H26.5597C26.033 19.0572 25.6353 19.1754 25.3343 19.4441C24.6894 20.0353 24.6464 21.1854 24.6464 21.2822C24.7109 23.4749 24.5282 24.7002 24.0338 25.5386C23.3781 26.6349 22.2602 26.8284 21.2499 26.8607H21.2284C20.1858 26.8607 19.3259 27.9463 19.3259 29.2683V40.4253C19.3259 42.1666 18.1005 43.5854 16.585 43.5854ZM20.8414 6.64261C19.5086 6.64261 18.423 8.00768 18.423 9.6737C18.423 9.84475 18.3551 10.0088 18.2341 10.1297C18.1132 10.2507 17.9491 10.3186 17.7781 10.3186C16.3163 10.3186 15.1339 11.8019 15.1339 13.6077V40.4253C15.1339 41.4572 15.7896 42.2956 16.585 42.2956C17.3804 42.2956 18.0361 41.4572 18.0361 40.4253V29.2683C18.0361 27.2369 19.4656 25.5816 21.2176 25.5708C22.7439 25.5171 23.4748 25.3021 23.3566 21.3036V21.2822C23.3566 21.2177 23.3673 19.4871 24.4637 18.4875C25.0334 17.9716 25.775 17.7459 26.6564 17.8211C28.2579 17.8426 29.5478 19.3582 29.5478 21.2069V31.2461C29.5478 32.4607 30.3217 33.4495 31.2783 33.4495C32.2349 33.4495 32.998 32.4607 32.998 31.2461V16.2841C32.998 12.995 30.8161 10.3186 28.1397 10.3186H24.066C23.895 10.3186 23.7309 10.2507 23.61 10.1297C23.489 10.0088 23.4211 9.84475 23.4211 9.6737C23.4211 8.00768 22.3355 6.64261 21.0027 6.64261H20.8414Z" fill="black"/>
</svg>
