<svg width="40" height="59" viewBox="0 0 40 59" fill="none" xmlns="http://www.w3.org/2000/svg">
<path fill-rule="evenodd" clip-rule="evenodd" d="M9.89234 6.0215C6.10739 6.0215 3.01062 9.11827 3.01062 12.9032H36.9892C36.9892 9.11827 33.8925 6.0215 30.1075 6.0215H9.89234Z" fill="#A1C5E4"/>
<path fill-rule="evenodd" clip-rule="evenodd" d="M19.9679 0.860336C17.1322 0.877655 14.8386 3.18177 14.8386 6.02151H25.1612C25.1612 3.18166 22.8678 0.877541 20.032 0.860336H19.9679Z" fill="#FFEE88"/>
<path fill-rule="evenodd" clip-rule="evenodd" d="M36.9894 12.9032H3.01065C1.82803 12.9032 0.860229 13.8709 0.860229 15.0538C0.860229 16.2365 1.82814 17.2043 3.01065 17.2043H36.9893C38.1718 17.2043 39.1397 16.2366 39.1397 15.0538C39.1398 13.871 38.1721 12.9032 36.9894 12.9032Z" fill="#A1C5E4"/>
<path fill-rule="evenodd" clip-rule="evenodd" d="M6.4844 17.2043H3.01062L7.09676 46.6811H10.5705L6.4844 17.2043Z" fill="#A1C5E4"/>
<path fill-rule="evenodd" clip-rule="evenodd" d="M7.4508 24.1755L9.4606 38.6748L12.7989 36.5427L13.3062 39.5458L15.7932 40.2589L18.2795 43.3556V38.6635L20.8182 35.194L23.595 37.226L21.7204 39.7878V46.6811H29.4294L30.7203 37.3687L29.8802 33.3843L31.6462 30.6895L28.8092 24.6598H26.2286L24.9462 29.9628L21.7204 25.2221L17.8819 30.4678L15.105 28.4358L18.2795 24.0976V17.2043H6.48438L7.4508 24.1755Z" fill="#FFEE88"/>
<path fill-rule="evenodd" clip-rule="evenodd" d="M20.8182 35.194L18.2795 38.6634V46.6811H21.7204V39.7878L23.595 37.226L20.8182 35.194Z" fill="#A1C5E4"/>
<path fill-rule="evenodd" clip-rule="evenodd" d="M17.882 30.4678L21.7205 25.2221V17.2043H18.2796V24.0976L15.1051 28.4358L17.882 30.4678Z" fill="#A1C5E4"/>
<path fill-rule="evenodd" clip-rule="evenodd" d="M21.7205 25.2221L24.9463 29.9628L26.2287 24.6598H28.8093L31.6463 30.6895L33.5156 17.2043H21.7205V25.2221Z" fill="#FFEE88"/>
<path fill-rule="evenodd" clip-rule="evenodd" d="M33.5156 17.2043L31.6463 30.6895L29.8802 33.3843L30.7203 37.3687L29.4294 46.6811H32.9032L34.2111 37.2463L33.5422 34.0739L34.9482 31.9283L36.9894 17.2043H33.5156Z" fill="#A1C5E4"/>
<path fill-rule="evenodd" clip-rule="evenodd" d="M18.2796 43.3556L15.7933 40.2589L13.3063 39.5458L12.799 36.5427L9.46069 38.6748L10.5706 46.6811H18.2796V43.3556Z" fill="#FFEE88"/>
<path fill-rule="evenodd" clip-rule="evenodd" d="M7.0968 46.6811V49.2618C7.0968 50.208 7.87122 50.9822 8.81723 50.9822H31.1828C32.1288 50.9822 32.9033 50.2077 32.9033 49.2618V46.6811H7.0968Z" fill="#A1C5E4"/>
<path fill-rule="evenodd" clip-rule="evenodd" d="M28.6021 50.9822H11.3977L13.1181 54.4231H26.8818L28.6021 50.9822Z" fill="#A1C5E4"/>
<path fill-rule="evenodd" clip-rule="evenodd" d="M16.5591 54.4231H23.4408V57.8639H16.5591V54.4231Z" fill="#A1C5E4"/>
<path fill-rule="evenodd" clip-rule="evenodd" d="M19.9679 0.860336C17.1322 0.877655 14.8386 3.18177 14.8386 6.02151H17.4193C17.4193 3.61658 19.0642 1.59611 21.2902 1.02309C20.8877 0.919519 20.4663 0.862974 20.032 0.860336H19.9679Z" fill="#FFE000"/>
<path fill-rule="evenodd" clip-rule="evenodd" d="M9.89234 6.0215C6.10739 6.0215 3.01062 9.11827 3.01062 12.9032H5.59127C5.59127 9.11827 8.68804 6.0215 12.473 6.0215H9.89234Z" fill="#4796C6"/>
<path fill-rule="evenodd" clip-rule="evenodd" d="M5.5913 12.9032H3.01065C1.82803 12.9032 0.860229 13.8709 0.860229 15.0538C0.860229 16.2365 1.82814 17.2043 3.01065 17.2043H5.5913C4.40867 17.2043 3.44076 16.2365 3.44076 15.0538C3.44087 13.871 4.40867 12.9032 5.5913 12.9032Z" fill="#4796C6"/>
<path fill-rule="evenodd" clip-rule="evenodd" d="M9.4606 38.6748L11.8314 37.1607L9.06502 17.2043H6.48438L9.4606 38.6748Z" fill="#FFE000"/>
<path fill-rule="evenodd" clip-rule="evenodd" d="M11.8314 37.1607L9.46069 38.6748L10.5706 46.6811H13.1511L11.8314 37.1607Z" fill="#FFE000"/>
<path fill-rule="evenodd" clip-rule="evenodd" d="M7.0968 46.6811V49.2618C7.0968 50.208 7.87122 50.9822 8.81723 50.9822H11.3979C10.4519 50.9822 9.67745 50.208 9.67745 49.2618V46.6811H7.0968Z" fill="#4796C6"/>
<path fill-rule="evenodd" clip-rule="evenodd" d="M14.0819 50.9822H11.3977L13.1181 54.4231H15.8024L14.0819 50.9822Z" fill="#4796C6"/>
<path fill-rule="evenodd" clip-rule="evenodd" d="M16.5591 54.4231H19.1397V57.8639H16.5591V54.4231Z" fill="#4796C6"/>
<path d="M30.1076 10.3226H28.3871V8.60216H30.1076V10.3226ZM26.6666 10.3226H24.9462V8.60216H26.6666V10.3226Z" fill="white"/>
<path d="M40 15.0538C40 13.6793 39.0738 12.5177 37.813 12.1585C37.4369 8.23776 34.1252 5.16129 30.1076 5.16129H25.9591C25.5404 2.24723 23.0282 0 20 0C16.9718 0 14.4598 2.24723 14.0409 5.16129H9.89236C5.8747 5.16129 2.56298 8.23776 2.18701 12.1585C0.926165 12.5177 0 13.6793 0 15.0538C0 16.4504 0.955986 17.6278 2.24791 17.9663L3.14391 24.4302L4.84806 24.1938L3.99851 18.0645H5.73534L9.58291 45.8209H7.84608L5.08215 25.8821L3.37801 26.1184L6.23667 46.7406V49.2618C6.23667 50.6847 7.39429 51.8424 8.81732 51.8424H10.8662L12.5867 55.2833H15.699V58.7242H19.1399V57.0038H17.4195V55.2833H22.5808V57.0038H20.8603V58.7242H24.3012V55.2833H27.4136L29.134 51.8424H31.1829C32.6059 51.8424 33.7636 50.6847 33.7636 49.2618V46.7406L35.0839 37.2158L34.4578 34.2463L35.7739 32.238L37.7523 17.9663C39.044 17.6278 40 16.4504 40 15.0538ZM20 1.72043C22.0771 1.72043 23.8149 3.20046 24.2145 5.16129H15.7854C16.1851 3.20046 17.9229 1.72043 20 1.72043ZM9.89236 6.88172H30.1075C33.1356 6.88172 35.6478 9.12895 36.0665 12.043H3.93336C4.35211 9.12895 6.86429 6.88172 9.89236 6.88172ZM31.1919 27.7031L29.3552 23.7996H25.5517L24.5661 27.8751L22.5806 24.9571V18.0645H32.5278L31.1919 27.7031ZM19.1398 18.0645H20.8602V24.941L17.6957 29.2655L16.3073 28.2496L19.1398 24.3787V18.0645ZM17.4194 23.8164L13.9029 28.622L18.0681 31.6698L21.6949 26.7136L24.086 30.2276V33.6524H25.8065V30.0652L26.9056 25.5199H28.2632L30.663 30.6202L28.9647 33.2118L29.8476 37.3991L28.6803 45.8208H22.5805V40.0689L24.7971 37.0397L20.632 33.9919L17.4194 38.3822V40.9102L16.2929 39.5073L14.3695 38.9557L13.325 36.897L15.5572 33.5061L14.1201 32.5601L11.7143 36.2148L10.1285 37.2276L8.41199 24.8439L11.126 24.2437L12.9069 26.0058L14.1169 24.7829L12.6674 23.3486L15.3981 21.0124L14.2797 19.7051L11.0021 22.5092L8.17502 23.1344L7.47229 18.0645H17.4195V23.8164H17.4194ZM20.8602 39.5067V45.8209H19.1398V38.9446L21.0044 36.3963L22.3928 37.4122L20.8602 39.5067ZM10.3884 39.1031L11.9945 38.0774L13.1745 40.4029L15.2935 41.0105L17.4194 43.6582V45.8209H11.3196L10.3884 39.1031ZM26.3501 53.5628H13.6499L12.7897 51.8424H27.2103L26.3501 53.5628ZM32.043 49.2618C32.043 49.7361 31.6572 50.122 31.1828 50.122H8.81721C8.34282 50.122 7.95699 49.7361 7.95699 49.2618V47.5413H32.043V49.2618ZM34.1228 31.6186L32.6267 33.9015L33.3384 37.2769L32.154 45.8209H30.4172L31.5931 37.338L30.7957 33.5566L32.4717 30.9991L34.2648 18.0645H36.0016L34.1228 31.6186ZM36.9892 16.3441H3.01064C2.29918 16.3441 1.72032 15.7652 1.72032 15.0538C1.72032 14.3423 2.29907 13.7634 3.01064 13.7634H36.9892C37.7007 13.7634 38.2796 14.3423 38.2796 15.0538C38.2796 15.7652 37.7008 16.3441 36.9892 16.3441Z" fill="black"/>
</svg>
