<svg width="30" height="7" viewBox="0 0 55 14" fill="none" xmlns="http://www.w3.org/2000/svg">
<path d="M6.89062 -1.90735e-05V13.7812C10.6962 13.7812 13.7812 10.6962 13.7812 6.89058C13.7812 3.085 10.6962 -1.90735e-05 6.89062 -1.90735e-05Z" fill="white"/>
<path d="M10.5 6.89058C10.5 3.085 8.88407 -1.90735e-05 6.8906 -1.90735e-05C3.08502 -1.90735e-05 0 3.085 0 6.89058C0 10.6962 3.08502 13.7812 6.8906 13.7812C8.88407 13.7812 10.5 10.6962 10.5 6.89058Z" fill="#D3D3D3"/>
<path d="M27.1796 -1.90735e-05V13.7812C30.9851 13.7812 34.0702 10.6962 34.0702 6.89058C34.0702 3.085 30.9851 -1.90735e-05 27.1796 -1.90735e-05Z" fill="white"/>
<path d="M30.789 6.89058C30.789 3.085 29.1731 -1.90735e-05 27.1797 -1.90735e-05C23.3741 -1.90735e-05 20.2891 3.085 20.2891 6.89058C20.2891 10.6962 23.3741 13.7812 27.1797 13.7812C29.1731 13.7812 30.789 10.6962 30.789 6.89058Z" fill="#D3D3D3"/>
<path d="M47.4686 -1.90735e-05V13.7812C51.2742 13.7812 54.3592 10.6962 54.3592 6.89058C54.3592 3.085 51.2742 -1.90735e-05 47.4686 -1.90735e-05Z" fill="white"/>
<path d="M51.078 6.89058C51.078 3.085 49.4621 -1.90735e-05 47.4686 -1.90735e-05C43.663 -1.90735e-05 40.578 3.085 40.578 6.89058C40.578 10.6962 43.663 13.7812 47.4686 13.7812C49.4621 13.7812 51.078 10.6962 51.078 6.89058Z" fill="#D3D3D3"/>
</svg>
