<svg width="55" height="55" viewBox="0 0 55 55" fill="none" xmlns="http://www.w3.org/2000/svg">
<path fill-rule="evenodd" clip-rule="evenodd" d="M15.2347 53.9879H7.44163L11.5679 40.2819H17.671L15.2347 53.9879ZM30.9109 53.9879H23.1177L23.9627 40.2819H30.0658L30.9109 53.9879ZM46.5869 53.9879H38.7938L36.3575 40.2819H42.4607L46.5869 53.9879ZM0.764282 53.9879V40.2819H5.388L0.764282 53.9879ZM53.2643 40.2819V53.9879L48.6405 40.2819H53.2643Z" fill="#636C77"/>
<path fill-rule="evenodd" clip-rule="evenodd" d="M29.485 12.1781L28.3291 19.3501H30.2962L35.3741 24.4509C36.2204 25.3019 37.5964 25.3057 38.4475 24.4594C39.2985 23.613 39.3024 22.237 38.456 21.3858L29.485 12.1781Z" fill="#4FC0E8"/>
<path d="M31.0305 7.63577C32.4362 6.23006 32.4362 3.95096 31.0305 2.54526C29.6248 1.13955 27.3457 1.13955 25.94 2.54526C24.5343 3.95097 24.5343 6.23006 25.94 7.63577C27.3457 9.04148 29.6248 9.04148 31.0305 7.63577Z" fill="#EFC7A4"/>
<path fill-rule="evenodd" clip-rule="evenodd" d="M14.0381 41.5303C13.3295 42.692 13.6966 44.2083 14.8583 44.9171C16.02 45.6257 17.5373 45.257 18.2451 44.0969C21.796 38.2428 25.4334 32.4165 28.8565 26.4875L25.9134 21.7871C22.0743 28.4363 18.0275 34.9701 14.0381 41.5303Z" fill="#4FC0E8"/>
<path fill-rule="evenodd" clip-rule="evenodd" d="M40.1926 41.3154C40.6722 42.5889 40.0285 44.0103 38.7549 44.4899C37.4814 44.9695 36.06 44.3258 35.5804 43.0523L32.1092 33.858L25.2636 26.4951C24.5611 25.6351 24.3981 25.6834 24.3981 24.4115V17.574L21.6045 19.0414L20.448 25.6504C20.2411 26.8352 19.1128 27.6281 17.928 27.4213C16.7431 27.2143 15.9502 26.0861 16.1571 24.9011L17.4976 17.2407C17.626 16.5054 18.1093 15.9211 18.7408 15.633L25.9673 11.6009C26.1535 11.5028 26.5611 11.2568 27.3472 11.2568C28.9712 11.2568 30.2964 12.5818 30.2964 14.2059V24.5135L35.9713 30.796C36.2242 31.0411 36.4284 31.3445 36.5608 31.6961L40.1926 41.3154Z" fill="#66D4F1"/>
<path fill-rule="evenodd" clip-rule="evenodd" d="M28.4899 2.25343C30.053 2.25343 31.3236 3.52568 31.3236 5.08876C31.3236 6.65129 30.0529 7.92256 28.4899 7.92256C26.9268 7.92256 25.6561 6.65129 25.6561 5.08876C25.6561 3.52568 26.9268 2.25343 28.4899 2.25343ZM28.4899 9.45359C30.897 9.45359 32.8553 7.49479 32.8553 5.08865C32.8553 2.68109 30.897 0.72229 28.4899 0.72229C26.0828 0.72229 24.1245 2.68109 24.1245 5.08865C24.1245 7.49479 26.0828 9.45359 28.4899 9.45359ZM23.9335 53.2224L24.6834 41.048H29.3463L30.0977 53.2224H23.9335ZM30.8306 40.2353C30.8065 39.8318 30.4709 39.5168 30.0674 39.5168H23.964C23.5594 39.5168 23.2249 39.8318 23.1996 40.2353L22.3541 53.9409C22.3417 54.1519 22.4163 54.3588 22.5605 54.5127C22.705 54.666 22.9073 54.7535 23.1184 54.7535H30.9115C31.1224 54.7535 31.3252 54.666 31.4694 54.5127C31.6151 54.3588 31.6891 54.1519 31.6763 53.9409L30.8306 40.2353ZM39.4364 53.2224L38.0473 45.4097C38.3741 45.3932 38.7035 45.3279 39.0262 45.2064C39.8332 44.9022 40.4729 44.3017 40.8296 43.5162C41.1853 42.7309 41.2135 41.8539 40.9104 41.048H41.8929L45.5579 53.2224H39.4364ZM32.8264 33.5873L36.2984 42.7814C36.6283 43.6589 37.6098 44.1035 38.4857 43.7736C38.9103 43.6135 39.2469 43.2975 39.4353 42.8843C39.6221 42.472 39.6365 42.0104 39.4764 41.5858L35.8455 31.9667C35.7559 31.7289 35.6191 31.52 35.4395 31.3454C35.4277 31.3342 35.4157 31.3222 35.4045 31.3089L29.7292 25.0264C29.6021 24.8864 29.531 24.7027 29.531 24.5138V14.206C29.531 13.6198 29.298 13.0882 28.9212 12.6955L28.8836 12.6563C28.4889 12.2646 27.9464 12.0228 27.3479 12.0228C26.8023 12.0228 26.5301 12.1684 26.3669 12.2559L26.335 12.2724L19.1143 16.3017C19.0968 16.3115 19.0783 16.3212 19.0597 16.33C18.6341 16.5235 18.3335 16.9131 18.2527 17.3722L16.9124 25.0331C16.7781 25.7999 17.2933 26.5328 18.0601 26.6671C18.4317 26.7314 18.8069 26.6486 19.1151 26.4309C19.4239 26.2142 19.6293 25.8905 19.6952 25.5184L20.8511 18.9091C20.8913 18.6754 21.0395 18.4742 21.2489 18.3635L24.0426 16.8967C24.2798 16.7721 24.5655 16.7799 24.795 16.9183C25.025 17.0573 25.165 17.3058 25.165 17.5735V24.4118C25.165 25.1992 25.165 25.1992 25.5521 25.6475C25.6365 25.7474 25.7322 25.8585 25.8418 25.9913L32.6714 33.3366C32.7379 33.4092 32.7915 33.4942 32.8264 33.5873ZM17.5929 43.6979L26.5444 28.9959L24.7034 27.016C24.6926 27.0042 24.6813 26.9919 24.6715 26.9801C24.5655 26.8498 24.4723 26.7428 24.3915 26.6476C24.304 26.5467 24.2273 26.4541 24.1573 26.3639L14.6931 41.928C14.4559 42.3166 14.3848 42.7726 14.4919 43.2136C14.5978 43.6542 14.8706 44.0272 15.2577 44.2635C15.6447 44.4997 16.1008 44.5707 16.5418 44.4647C16.9835 44.3572 17.3566 44.085 17.5929 43.6979ZM14.5939 53.2224H8.47241L12.1383 41.048H13.4363L13.3853 41.1319C12.9365 41.8683 12.8002 42.7355 13.0035 43.5734C13.2068 44.4124 13.724 45.1211 14.4605 45.5703C14.9041 45.8405 15.3869 45.9903 15.8722 46.0299L14.5939 53.2224ZM38.3241 22.9225C38.3226 23.2982 38.1748 23.6518 37.9083 23.9164C37.6422 24.1814 37.2845 24.3234 36.9119 24.3255C36.5367 24.3255 36.1837 24.1778 35.9175 23.9112L31.0627 19.0296V14.8942L37.9134 21.9261C38.1795 22.1926 38.3251 22.5457 38.3241 22.9225ZM43.1944 40.0613C43.0971 39.7376 42.7996 39.5168 42.4615 39.5168H40.3318L37.2783 31.4263C37.112 30.9851 36.8583 30.5946 36.5244 30.2657L31.0627 24.2194V21.2009L34.8327 24.9904C35.3859 25.5472 36.123 25.8545 36.9088 25.8566H36.916C37.6983 25.8566 38.4343 25.5539 38.9886 25.0027C39.5454 24.4489 39.8528 23.7119 39.8553 22.9265C39.8573 22.1411 39.5532 21.4031 39.0051 20.8513L30.02 11.6291C29.3443 10.9281 28.3957 10.4917 27.3479 10.4917C26.4173 10.4917 25.875 10.7825 25.6429 10.9065L25.6115 10.924C25.6058 10.9271 25.6001 10.9292 25.595 10.9322L18.3938 14.9508C17.525 15.359 16.9095 16.1628 16.7443 17.1087L15.4031 24.7696C15.1246 26.3686 16.1982 27.8967 17.7973 28.1756C18.5719 28.311 19.3531 28.136 19.9959 27.6841C20.6393 27.2327 21.068 26.5564 21.2033 25.7824L22.2949 19.5446L23.6335 18.8416V24.2796L14.3675 39.5168H11.5687C11.2306 39.5168 10.9331 39.7376 10.8358 40.0613L6.70873 53.7669C6.64027 53.999 6.68402 54.2506 6.82817 54.4452C6.97277 54.6387 7.20027 54.7535 7.44319 54.7535H15.2357C15.6068 54.7535 15.9249 54.488 15.9892 54.1226L17.477 45.752C18.0479 45.4941 18.5497 45.0695 18.9001 44.4952L27.6283 30.1617L31.4477 34.2687L34.8656 43.3217C35.1605 44.1081 35.7338 44.7107 36.4306 45.0628L38.0405 54.1215C38.1064 54.4879 38.4234 54.7534 38.795 54.7534H46.5881C46.83 54.7534 47.0574 54.6387 47.2031 54.4451C47.3472 54.2505 47.3909 53.9989 47.3209 53.7668L43.1944 40.0613ZM52.5001 49.3233L49.7055 41.048H52.5001V49.3233ZM53.2669 39.5168H48.64C48.393 39.5168 48.1614 39.6346 48.0224 39.8349C47.8731 40.0362 47.8371 40.293 47.9143 40.5271L52.5412 54.2332C52.6442 54.5482 52.9426 54.7535 53.2669 54.7535C53.3081 54.7535 53.3493 54.7505 53.3904 54.7437C53.761 54.6824 54.0286 54.3629 54.0286 53.9877V40.2821C54.0286 39.8591 53.6889 39.5168 53.2669 39.5168ZM1.53114 49.3233V41.048H4.32217L1.53114 49.3233ZM5.38902 39.5168H0.765297C0.342234 39.5168 0 39.8591 0 40.2821V53.9877C0 54.3629 0.27125 54.6824 0.640719 54.7437C0.682391 54.7504 0.724063 54.7535 0.765297 54.7535C1.08948 54.7535 1.38447 54.5481 1.49045 54.2332L6.11428 40.5271C6.19248 40.293 6.15442 40.0362 6.01136 39.8349C5.86666 39.6346 5.63609 39.5168 5.38902 39.5168Z" fill="black"/>
</svg>
