<svg width="56" height="51" viewBox="0 0 56 51" fill="none" xmlns="http://www.w3.org/2000/svg">
<path d="M19.5218 14.7482L16.6748 14.7633C16.436 13.4706 15.3003 12.4942 13.9395 12.5014C13.4258 12.5042 12.9458 12.6472 12.5348 12.8933C11.9354 11.8767 10.8275 11.1967 9.56228 11.2034C9.04599 11.2061 8.55736 11.3236 8.11926 11.5304C7.37811 10.6224 6.24863 10.0446 4.98539 10.0514C2.76721 10.0632 0.978604 11.8708 0.990415 14.089C0.990743 14.1439 0.992055 14.1991 0.99457 14.2546C1.07943 16.1549 2.6958 17.6275 4.59792 17.6175L12.143 17.5774L15.9092 17.5574L19.583 17.538C20.3621 17.5338 20.9886 16.8917 20.9701 16.1095C20.952 15.3415 20.2899 14.7441 19.5218 14.7482Z" fill="#26A6FE"/>
<path d="M55.109 33.9832C53.5345 33.4203 51.8368 33.1177 50.0679 33.1271C44.4686 33.1569 39.6152 36.3031 37.1421 40.9129C36.238 40.5243 35.242 40.3098 34.195 40.3153C30.213 40.3364 26.9854 43.51 26.8638 47.4581L55.1798 47.3077L55.109 33.9832Z" fill="#00C27A"/>
<path d="M40.294 36.865C41.6932 38.1816 43.5807 38.9841 45.6537 38.973C49.9409 38.9503 53.3978 35.4564 53.375 31.1692C53.3523 26.882 49.8584 23.4251 45.5712 23.4479C41.284 23.4706 37.8271 26.9645 37.8498 31.2517C37.8539 32.0204 37.9696 32.7624 38.1814 33.4624" fill="#46CC8D"/>
<path d="M38.1814 33.4625C38.5797 34.7789 39.3181 35.947 40.2939 36.865L38.1814 33.4625Z" fill="#46CC8D"/>
<path d="M45.5712 23.448C45.0216 23.4509 44.4861 23.5117 43.9695 23.6231C47.4536 24.3719 50.0745 27.4587 50.0942 31.1693C50.114 34.9069 47.4887 38.0408 43.9746 38.7981C44.5159 38.9144 45.0773 38.9761 45.6538 38.9732C49.941 38.9504 53.3979 35.4565 53.3751 31.1695C53.3523 26.8822 49.8584 23.4251 45.5712 23.448Z" fill="#00C27A"/>
<path d="M52.6493 46.6421L43.6429 46.6899C42.0968 46.6981 40.6812 45.9362 39.9483 44.7016L32.2807 31.7851C31.6763 30.7669 30.5044 30.1325 29.2293 30.1333L24.6533 30.1365L24.6545 26.1441L31.4355 26.1395C32.9726 26.1384 34.3802 26.9003 35.1087 28.1279L42.7702 41.0342C43.3777 42.0575 44.5579 42.6928 45.8393 42.6859L52.628 42.6498L52.6493 46.6421Z" fill="#60B7FF"/>
<path d="M16.2691 7.69358L10.272 15.3445L24.5855 15.2685L18.5074 7.68177C17.9319 6.96338 16.8371 6.96917 16.2691 7.69358L10.272 15.3445L24.5855 15.2685L18.5074 7.68177C17.9319 6.96338 16.8371 6.96917 16.2691 7.69358Z" fill="#FD4755"/>
<path d="M10.3236 26.7599L24.6374 26.6883L24.653 29.8142L10.3392 29.8858L10.3236 26.7599Z" fill="#593636"/>
<path d="M10.2666 15.348L24.5804 15.2764L24.6374 26.6883L10.3237 26.7598L10.2666 15.348Z" fill="#AE6C6C"/>
<path d="M24.5855 15.2685L21.3048 15.2859L21.3653 26.6802L10.3324 26.7388L10.3325 26.7562L24.6462 26.6802L24.5855 15.2685Z" fill="#9B5E5E"/>
<path d="M20.2307 21.5153C20.6017 19.9938 19.669 18.4596 18.1475 18.0886C16.626 17.7176 15.0918 18.6503 14.7208 20.1719C14.3498 21.6934 15.2825 23.2276 16.804 23.5986C18.3256 23.9695 19.8597 23.0369 20.2307 21.5153Z" fill="#0172FB"/>
<path d="M20.2307 21.5153C20.6017 19.9938 19.669 18.4596 18.1475 18.0886C16.626 17.7176 15.0918 18.6503 14.7208 20.1719C14.3498 21.6934 15.2825 23.2276 16.804 23.5986C18.3256 23.9695 19.8597 23.0369 20.2307 21.5153Z" fill="#593636"/>
<path d="M54.362 49.7915L1.65407 50.0715C1.20011 50.0739 0.830141 49.7079 0.827735 49.2539L0.82008 47.8227C0.817674 47.3687 1.18371 46.9988 1.63767 46.9963L54.3456 46.7164C54.7995 46.714 55.1695 47.08 55.1719 47.534L55.1794 48.9652C55.1821 49.4191 54.8159 49.7891 54.362 49.7915Z" fill="#D9E7EC"/>
<path d="M4.93962 42.5279C4.9581 46.0163 6.49441 46.0586 8.3891 46.0485C10.2839 46.0385 11.8196 45.98 11.8011 42.4915C11.7826 39.003 10.2173 33.4953 8.3225 33.5053C6.42781 33.5154 4.92114 39.0395 4.93962 42.5279Z" fill="#08B865"/>
<path d="M12.3079 42.9548C11.9928 42.9564 11.6925 43.0193 11.4172 43.1309C10.8971 42.5242 10.1241 42.141 9.26244 42.1456C8.8543 42.1478 8.46727 42.2373 8.11797 42.3953C7.49461 41.243 6.27304 40.4628 4.87146 40.4704C2.8462 40.4811 1.21321 42.1316 1.22393 44.1569C1.23005 45.3199 1.77774 46.3528 2.62583 47.0202L14.1167 46.9591C14.4982 46.531 14.729 45.9657 14.7257 45.347C14.7187 44.0188 13.6362 42.9478 12.3079 42.9548Z" fill="#6ED5A1"/>
<path d="M48.7933 6.39049L46.5444 6.40241C46.0342 5.54174 45.0944 4.96639 44.0215 4.97218C43.8947 4.97284 43.7707 4.98443 43.6483 5.00073C43.254 2.61807 41.1784 0.806602 38.686 0.819835C36.202 0.833068 34.1515 2.65438 33.7725 5.0296C32.192 5.07072 30.9269 6.36654 30.9353 7.95513C30.9353 7.96191 30.9355 7.96858 30.9356 7.97536C30.9475 8.95819 31.7728 9.7375 32.7558 9.73225L40.1259 9.6931L46.3444 9.66008L48.8106 9.64695C49.7099 9.64214 50.4351 8.90931 50.4302 8.01003C50.4254 7.11086 49.6926 6.38568 48.7933 6.39049Z" fill="#8AC9FE"/>
<path d="M48.7472 6.39071L46.5444 6.40241C46.0342 5.54174 45.0943 4.9665 44.0215 4.97218C43.8946 4.97284 43.7706 4.98432 43.6483 5.00073C43.254 2.61796 41.1783 0.806602 38.686 0.819835C37.2752 0.827381 36.0047 1.41859 35.1003 2.36282C35.2013 2.35615 35.3027 2.35144 35.4051 2.3509C37.7609 2.33843 39.7444 3.95611 40.2876 6.14552C40.3365 6.34281 40.5374 6.50456 40.7406 6.50325C41.5579 6.49887 42.298 6.83177 42.8298 7.37114C43.1785 7.72492 43.6494 7.9314 44.1462 7.92877L45.5123 7.92156C46.4116 7.91674 47.1445 8.64192 47.1492 9.5412C47.1495 9.57991 47.1465 9.61786 47.1441 9.65592L48.8105 9.64717C49.7358 9.64225 50.4768 8.86644 50.4278 7.93162C50.3821 7.05585 49.6241 6.38601 48.7472 6.39071Z" fill="#60B7FF"/>
<path d="M17.4775 24.4922C19.4926 24.4815 21.1233 22.8335 21.1127 20.8183C21.1074 19.8422 20.7225 18.9265 20.0286 18.2399C19.3394 17.5579 18.4275 17.1832 17.4587 17.1832C17.4521 17.1832 17.4454 17.1833 17.4387 17.1833C16.4625 17.1884 15.5469 17.5735 14.8602 18.2674C14.1736 18.9613 13.7984 19.881 13.8035 20.8573C13.8088 21.8334 14.1937 22.7491 14.8876 23.4357C15.5768 24.1176 16.4887 24.4925 17.4574 24.4925C17.4641 24.4923 17.4708 24.4922 17.4775 24.4922ZM15.4439 20.8484C15.4411 20.3105 15.6479 19.8036 16.0263 19.4211C16.4048 19.0387 16.9094 18.8265 17.4474 18.8237C17.4512 18.8236 17.4548 18.8236 17.4585 18.8236C17.9924 18.8236 18.495 19.0302 18.8748 19.4059C19.2573 19.7843 19.4695 20.289 19.4723 20.827C19.4751 21.3649 19.2683 21.8719 18.8899 22.2544C18.5115 22.6368 18.0068 22.849 17.4689 22.8518C17.4652 22.8519 17.4616 22.8519 17.4578 22.8519C16.9239 22.8519 16.4213 22.6453 16.0415 22.2696C15.6591 21.8911 15.4468 21.3864 15.4439 20.8484Z" fill="black"/>
<path d="M55.9292 33.9787C55.9272 33.6338 55.7099 33.3271 55.3851 33.2109C54.9477 33.0545 54.4995 32.9176 54.0481 32.8009C54.1477 32.267 54.1982 31.72 54.1952 31.1649C54.1702 26.4477 50.3247 22.6276 45.6131 22.6276C45.5978 22.6276 45.5821 22.6276 45.5668 22.6277C43.2743 22.6398 41.1238 23.544 39.5113 25.1737C38.2164 26.4823 37.3945 28.1333 37.1265 29.9199L35.8141 27.7089C34.9389 26.2345 33.2627 25.319 31.4387 25.319C31.4375 25.319 31.4362 25.319 31.4349 25.319L31.2107 25.3191L31.1908 21.5849L32.5482 21.5777C33.0012 21.5753 33.3664 21.2061 33.364 20.7531C33.3616 20.3 32.9874 19.9349 32.5395 19.9373L25.4307 19.975C25.4307 19.975 25.3933 15.1302 25.3921 15.1234C25.3848 15.0826 25.3747 15.0429 25.3617 15.0045C25.3602 14.9999 25.3583 14.9954 25.3567 14.9908C25.3268 14.9077 25.2841 14.831 25.2306 14.7628C25.2287 14.7605 25.2275 14.7578 25.2257 14.7555L19.1476 7.16876C18.7157 6.62961 18.0721 6.32088 17.3811 6.32624C17.344 6.32646 17.3069 6.32755 17.2701 6.32952C16.629 6.36397 16.0396 6.66646 15.6368 7.17084C15.6324 7.17631 15.6279 7.18189 15.6236 7.18746L12.328 11.3919C11.5658 10.7441 10.5968 10.3832 9.58075 10.3832C9.5732 10.3832 9.56544 10.3832 9.558 10.3833C9.14155 10.3855 8.73506 10.447 8.34332 10.5667C7.44787 9.71098 6.26239 9.23121 5.00736 9.23121C4.99861 9.23121 4.98975 9.23121 4.98111 9.23121C2.31433 9.24543 0.156191 11.4266 0.170299 14.0939C0.170627 14.1592 0.172377 14.2249 0.17522 14.2913C0.279333 16.621 2.21088 18.4378 4.57779 18.4377C4.58588 18.4377 4.59419 18.4377 4.60239 18.4376L9.47894 18.4117L9.49534 20.2703C9.49928 20.7232 9.871 21.0894 10.3228 21.0832C10.7757 21.0791 11.1397 20.7087 11.1357 20.2557L11.0995 16.1602L23.7698 16.093L23.8217 25.8643L11.1484 25.9316L11.1358 23.5395C11.1334 23.0881 10.7666 22.7237 10.3157 22.7237C10.3141 22.7237 10.3127 22.7237 10.3112 22.7237C9.8582 22.7261 9.49293 23.0953 9.49534 23.5483L9.5124 26.7606L9.52902 29.8864C9.52902 29.888 9.52924 29.8894 9.52924 29.8908C9.52924 29.8921 9.52902 29.8934 9.52913 29.8947L9.57966 33.1367C9.18617 32.8362 8.76885 32.685 8.32867 32.685C8.32528 32.685 8.32178 32.685 8.31839 32.685C5.70421 32.6988 4.62591 38.0578 4.35917 39.6825C2.12481 39.9477 0.391647 41.8589 0.403786 44.1613C0.407832 44.9311 0.605886 45.67 0.969185 46.3211C0.787207 46.403 0.619447 46.5172 0.474871 46.6633C0.166362 46.9751 -0.00227344 47.3883 2.31517e-05 47.827L0.0075691 49.2582C0.0124904 50.1608 0.748165 50.8917 1.64963 50.8916H1.65849L54.3664 50.6116C55.2718 50.6067 56.0046 49.8661 55.9998 48.9607L55.9292 33.9787ZM54.292 34.5748L54.3541 45.8966C54.3499 45.8966 54.3457 45.896 54.3414 45.8961L53.4656 45.9008L53.4483 42.6453C53.4471 42.4278 53.3596 42.2197 53.205 42.0666C53.0503 41.9136 52.8377 41.8252 52.6237 41.8295L46.4021 41.8626L46.391 39.7566C48.406 39.5765 50.2744 38.7019 51.7136 37.2472C52.5393 36.4127 53.1718 35.4385 53.5923 34.3792C53.8267 34.4389 54.0606 34.5028 54.292 34.5748ZM23.8303 27.5048L23.8337 28.142L23.8335 28.9902L20.3405 29.0088C20.339 29.0088 20.3376 29.0088 20.336 29.0088C20.3358 29.0088 20.3357 29.0088 20.3355 29.0088L14.2958 29.041C14.2955 29.041 14.2954 29.041 14.2952 29.041C14.295 29.041 14.2949 29.041 14.2947 29.041L11.1651 29.0576L11.1572 27.572L23.8303 27.5048ZM19.5526 35.9502L15.1603 35.9735L15.1485 34.1454L19.5428 34.1221L19.5526 35.9502ZM15.1709 37.614L19.5612 37.5907L19.5709 39.4188L15.1827 39.442L15.1709 37.614ZM19.5341 32.4817L15.1378 32.505L15.126 30.6769L19.5244 30.6536L19.5341 32.4817ZM12.6151 42.1486C12.5609 40.3538 12.1579 38.1919 11.5401 36.4168C11.4491 36.1554 11.3555 35.9083 11.2597 35.674L11.1821 30.6979L13.4855 30.6856L13.5612 42.3831C13.2655 42.2593 12.9473 42.1788 12.6151 42.1486ZM15.2085 43.9255C15.21 43.9044 15.2114 43.8833 15.2113 43.8619L15.1933 41.0824L19.5796 41.0592L19.6063 46.0807L15.459 46.1028C15.5174 45.8558 15.5473 45.601 15.546 45.3428C15.5433 44.8338 15.4216 44.3529 15.2085 43.9255ZM21.2468 46.0719L21.1649 30.6449L23.847 30.6306L23.9289 46.0577L21.2468 46.0719ZM25.5693 46.049L25.4891 30.956L29.2298 30.9535H29.2319C30.2197 30.9535 31.1176 31.4325 31.5754 32.2038L36.0213 39.6932C35.4249 39.5603 34.8143 39.4937 34.1906 39.4952C30.3112 39.5158 26.9779 42.2621 26.207 46.0456L25.5693 46.049ZM34.1992 41.1356C35.1057 41.1336 35.9873 41.3095 36.818 41.6665C36.9519 41.7241 37.0929 41.7424 37.229 41.7278L39.2429 45.1203C39.4274 45.4311 39.6491 45.7152 39.8982 45.9729L27.8917 46.0366C28.6309 43.1865 31.2127 41.1514 34.1992 41.1356ZM44.7606 41.6722C44.2178 41.464 43.7614 41.097 43.4755 40.6153L42.6818 39.2782C43.3453 39.519 44.0389 39.6788 44.7504 39.7496L44.7606 41.6722ZM46.4108 43.503L51.8122 43.4743L51.8247 45.8263L46.4232 45.855L46.4108 43.503ZM38.67 31.2474C38.6602 29.3931 39.373 27.6458 40.6773 26.3277C41.9815 25.0095 43.7211 24.278 45.5755 24.2682C45.588 24.2681 45.6002 24.2681 45.6129 24.2681C49.4237 24.2681 52.5344 27.3583 52.5547 31.1736C52.5645 33.0281 51.8517 34.7752 50.5474 36.0934C49.4166 37.2363 47.9585 37.9371 46.3821 38.11L46.3573 33.4439L48.4623 31.3163C48.7808 30.9944 48.7781 30.475 48.456 30.1564C48.1342 29.838 47.6148 29.8405 47.2962 30.1627L46.3449 31.124L46.3387 29.9451C46.3363 29.4921 45.9629 29.1293 45.5141 29.1292C45.0611 29.1316 44.6959 29.5008 44.6983 29.9538L44.7159 33.2717L43.8285 32.3938C43.5065 32.0752 42.9872 32.078 42.6686 32.4C42.3501 32.722 42.3528 33.2413 42.6749 33.5599L44.7282 35.5916L44.7416 38.0971C43.327 37.92 42.0046 37.3135 40.9386 36.3418L38.8648 32.8484C38.7388 32.3273 38.6729 31.7892 38.67 31.2474ZM31.436 26.9596H31.4386C32.6863 26.9596 33.8223 27.5675 34.4033 28.5465L39.5713 37.2524C39.5811 37.2707 39.592 37.2886 39.6032 37.3063L42.0647 41.4529C42.6449 42.4303 43.6311 43.1183 44.7695 43.3838L44.7826 45.8638L43.6382 45.8699C43.6313 45.8699 43.6247 45.8699 43.6179 45.8699C42.3697 45.8699 41.2351 45.2632 40.6533 44.283L32.9858 31.3665C32.2338 30.0998 30.7956 29.3133 29.2316 29.3133C29.2306 29.3133 29.2294 29.3133 29.2285 29.3133L25.4802 29.3158L25.4739 28.1384L25.4743 26.9637L31.436 26.9596ZM29.5702 25.3204L28.3395 25.3212L28.3197 21.6003L29.5504 21.5938L29.5702 25.3204ZM26.6793 21.6091L26.699 25.3224L25.4591 25.3233L25.4394 21.6157L26.6793 21.6091ZM16.9146 8.1996C17.0723 7.99838 17.2799 7.96732 17.3897 7.96677C17.5009 7.96929 17.7074 7.9951 17.8673 8.19457L22.8846 14.4573L11.9641 14.5152L16.9146 8.1996ZM4.59365 16.7972C3.12076 16.8055 1.87787 15.648 1.814 14.2183C1.81203 14.1735 1.81094 14.1287 1.81061 14.0848C1.80132 12.3224 3.2275 10.881 4.98975 10.8716H5.00703C5.97062 10.8716 6.87252 11.3002 7.48396 12.0491C7.72226 12.3411 8.12876 12.4332 8.46953 12.2722C8.81456 12.1094 9.18366 12.0258 9.56675 12.0238C10.2177 12.0188 10.8361 12.258 11.3144 12.6853L9.62636 14.8385C9.62428 14.8412 9.62286 14.8443 9.62078 14.847C9.59672 14.8785 9.57506 14.9116 9.55593 14.946C9.55363 14.9502 9.551 14.954 9.54871 14.9581C9.5299 14.9933 9.51437 15.0299 9.50092 15.0674C9.49818 15.0749 9.49545 15.0825 9.49293 15.09C9.48079 15.1271 9.46428 16.7714 9.46428 16.7714L4.59365 16.7972ZM7.06981 35.9859C7.60437 34.7696 8.11454 34.3266 8.32703 34.3254H8.3279C8.61738 34.3254 9.32364 35.0388 9.99086 36.9559C10.4968 38.4095 10.853 40.2056 10.9523 41.7344C10.4408 41.4688 9.86815 41.3254 9.27749 41.3254C9.27104 41.3254 9.26448 41.3255 9.25803 41.3255C8.98692 41.327 8.72029 41.3579 8.46034 41.418C7.84496 40.6096 6.97718 40.0397 6.00211 39.791C6.2368 38.3781 6.61782 37.0141 7.06981 35.9859ZM4.87569 41.2907H4.891C5.93792 41.2907 6.89702 41.8625 7.39647 42.7856C7.6012 43.1641 8.06347 43.32 8.45586 43.1428C8.71209 43.027 8.98495 42.9674 9.26688 42.966C9.85579 42.9645 10.4111 43.2176 10.7946 43.6649C11.0241 43.9325 11.399 44.0235 11.7257 43.8911C11.9129 43.8152 12.1102 43.7761 12.3124 43.7751H12.321C13.191 43.7751 13.9012 44.4806 13.9058 45.3516C13.9072 45.6196 13.8405 45.8803 13.7153 46.1121L2.8992 46.1695C2.35687 45.6392 2.04837 44.9201 2.04421 44.1528C2.03568 42.5829 3.30602 41.299 4.87569 41.2907ZM54.3576 48.9713L1.64799 49.2495L1.6422 47.8166L2.42424 47.8124C2.48997 47.8292 2.55722 47.8405 2.6259 47.8405H2.63028L54.3519 47.5384L54.3589 48.9713C54.3589 48.9713 54.3585 48.9713 54.3576 48.9713Z" fill="black"/>
<path d="M32.7457 10.5526H32.76L37.284 10.5287C37.737 10.5263 38.1023 10.1572 38.0999 9.70409C38.0975 9.25253 37.7307 8.88825 37.2798 8.88825C37.2782 8.88825 37.2768 8.88825 37.2754 8.88825L32.7512 8.9122C32.7494 8.9122 32.7476 8.9122 32.7458 8.9122C32.2057 8.9122 31.7619 8.48853 31.7556 7.9624L31.7555 7.95091C31.7495 6.82164 32.6638 5.87906 33.7938 5.84975C34.1887 5.83947 34.5203 5.54911 34.5824 5.15902C34.9059 3.13102 36.6335 1.65114 38.6903 1.6402H38.7134C40.7703 1.6402 42.5033 3.10652 42.8391 5.13485C42.9115 5.57208 43.3182 5.87293 43.7572 5.81388C43.8629 5.79977 43.9483 5.79299 44.026 5.79255H44.037C44.7728 5.79255 45.4624 6.18593 45.839 6.82088C45.9867 7.07011 46.255 7.22289 46.5446 7.22289H46.5489L48.7978 7.21097H48.8022C49.2458 7.21097 49.6079 7.57066 49.6102 8.01478C49.6126 8.46043 49.2519 8.82482 48.8064 8.82723L40.1216 8.87338C39.6751 8.87578 39.3125 9.23504 39.3059 9.68156C39.2994 10.1281 39.6512 10.4978 40.0975 10.5134L40.5323 10.5285C40.602 10.5308 40.6692 10.5246 40.7342 10.5106L48.8151 10.4678C50.1652 10.4605 51.2577 9.35632 51.2506 8.00625C51.2434 6.66045 50.1465 5.57077 48.8023 5.57077C48.798 5.57077 48.7934 5.57077 48.789 5.57077L46.9727 5.58039C46.3231 4.75592 45.3469 4.23546 44.2962 4.16143C43.5746 1.70823 41.3329 0 38.7138 0C38.7033 0 38.6924 -6.00793e-08 38.6818 0.000109301C36.0304 0.0142169 33.7719 1.78227 33.0944 4.28654C31.3931 4.6413 30.1058 6.16941 30.1153 7.96218L30.1156 7.9858C30.1326 9.40389 31.3113 10.5526 32.7457 10.5526Z" fill="black"/>
</svg>
