<svg width="50" height="47" viewBox="0 0 50 47" fill="none" xmlns="http://www.w3.org/2000/svg">
<path d="M44.3367 4.10544V18.7306H29.2194C28.6958 18.7306 28.2819 18.2776 28.3288 17.7619L28.6725 14.0431C28.7114 13.5744 28.1335 13.3165 27.8209 13.6759L25.7272 16.051C25.6333 16.1524 25.5006 16.215 25.36 16.215H22.9927C22.8131 16.215 22.649 16.3165 22.563 16.4729L21.6177 18.254C21.4615 18.551 21.1645 18.7306 20.8286 18.7306H5.17212V4.10544H44.3367Z" fill="#108BE1"/>
<path d="M44.3367 11.4179V18.7306H29.2194C28.6958 18.7306 28.2819 18.2776 28.3288 17.7619L28.6725 14.0431C28.7114 13.5744 28.1335 13.3165 27.8209 13.6759L25.7272 16.051C25.6333 16.1524 25.5006 16.215 25.36 16.215H22.9927C22.8131 16.215 22.649 16.3165 22.563 16.4729L21.6177 18.254C21.4615 18.551 21.1645 18.7306 20.8286 18.7306H5.17212V11.4179H44.3367Z" fill="#0C6BC3"/>
<path d="M5.17224 4.10903H9.75825V18.7264H5.17224V4.10903Z" fill="#085BB6"/>
<path d="M8.19562 4.10162V19.5392C8.19562 21.805 6.3674 23.6408 4.10162 23.6408C1.83604 23.6408 0 21.805 0 19.5392V4.10162C0 1.83585 1.83604 0 4.10162 0C5.23461 0 6.25811 0.460823 7.00027 1.20298C7.74243 1.94514 8.19562 2.96864 8.19562 4.10162Z" fill="#108BE1"/>
<path d="M7.00035 1.20298C6.34498 0.547608 5.46434 0.132181 4.48853 0.0391006V23.6019C6.56909 23.4041 8.1957 21.6724 8.1957 19.5392V4.10162C8.1957 2.96864 7.74251 1.94514 7.00035 1.20298Z" fill="#0C6BC3"/>
<path d="M40.2432 4.10903H44.337V18.7264H40.2432V4.10903Z" fill="#085BB6"/>
<path d="M49.9999 4.10162V19.5392C49.9999 21.805 48.1717 23.6408 45.9059 23.6408C43.6404 23.6408 41.8043 21.805 41.8043 19.5392V4.10162C41.8043 1.83585 43.6404 0 45.9059 0C47.0389 0 48.0624 0.460823 48.8046 1.20298C49.5467 1.94514 49.9999 2.96864 49.9999 4.10162Z" fill="#108BE1"/>
<path d="M48.8046 1.20298C48.0624 0.460822 47.0389 0 45.9059 0C45.9023 0 45.8989 0.00114443 45.8953 0.00114443V23.6397C45.8989 23.6397 45.9023 23.6408 45.9059 23.6408C48.1717 23.6408 49.9999 21.805 49.9999 19.5392V4.10162C49.9999 2.96864 49.5467 1.94514 48.8046 1.20298Z" fill="#0C6BC3"/>
<path d="M31.2787 31.1354C31.2787 34.6011 28.4661 37.4067 25.0004 37.4067C21.5349 37.4067 18.722 34.6011 18.722 31.1354C18.722 28.7964 21.5708 24.3979 23.429 21.7719C24.1968 20.6884 25.7969 20.6884 26.5647 21.7719C28.4303 24.3979 31.2787 28.7964 31.2787 31.1354Z" fill="#E8EDF2"/>
<path d="M22.2434 35.1068C21.947 35.1068 21.6506 34.995 21.4225 34.7711C20.4368 33.8037 19.8939 32.5124 19.8939 31.1353C19.8939 30.4879 20.4184 29.9634 21.0658 29.9634C21.7132 29.9634 22.2377 30.4879 22.2377 31.1353C22.2377 31.878 22.5314 32.5753 23.0644 33.0987C23.5263 33.5519 23.5332 34.2939 23.0796 34.7559C22.8504 34.9897 22.5471 35.1068 22.2434 35.1068Z" fill="white"/>
<path d="M26.5648 21.772C26.202 21.26 25.6529 20.9987 25.0942 20.9705V37.402C28.5163 37.3514 31.2787 34.5695 31.2787 31.1355C31.2787 28.7964 28.4304 24.398 26.5648 21.772Z" fill="#C4D3E4"/>
<path d="M19.3316 40.7777C19.3316 43.1896 17.3741 45.1422 14.9622 45.1422C12.5504 45.1422 10.5929 43.1896 10.5929 40.7777C10.5929 39.1499 12.5754 36.0888 13.8687 34.2613C14.403 33.5072 15.5166 33.5072 16.0509 34.2613C17.3493 36.0888 19.3316 39.1499 19.3316 40.7777Z" fill="#E8EDF2"/>
<path d="M16.051 34.2613C15.8109 33.9225 15.4532 33.7446 15.0844 33.71V45.136C17.4394 45.071 19.3317 43.1483 19.3317 40.7778C19.3317 39.1499 17.3494 36.0887 16.051 34.2613Z" fill="#C4D3E4"/>
<path d="M37.348 42.626C37.348 44.9024 35.5006 46.7452 33.2242 46.7452C30.9479 46.7452 29.1003 44.9024 29.1003 42.626C29.1003 41.0896 30.9715 38.2005 32.1921 36.4756C32.6964 35.7639 33.7474 35.7639 34.2517 36.4756C35.4771 38.2005 37.348 41.0896 37.348 42.626Z" fill="#E8EDF2"/>
<path d="M34.2517 36.4755C34.0267 36.158 33.6919 35.9903 33.3463 35.9562V46.7329C35.565 46.6669 37.348 44.8606 37.348 42.6259C37.348 41.0897 35.4772 38.2006 34.2517 36.4755Z" fill="#C4D3E4"/>
<path d="M29.2436 7.28406H22.6498C22.0013 7.28406 21.4779 6.76048 21.4779 6.11216C21.4779 5.46365 22.0013 4.94027 22.6498 4.94027H29.236C29.8841 4.94027 30.4079 5.46365 30.4079 6.11216C30.4155 6.76048 29.8841 7.28406 29.2436 7.28406Z" fill="#4DB6FF"/>
<path d="M18.4154 7.28406H17.2511C16.9387 7.28406 16.6419 7.15894 16.4309 6.94798C16.22 6.73702 16.0792 6.44024 16.0792 6.11217C16.0792 5.46366 16.6106 4.94027 17.2511 4.94027H18.4154C19.0639 4.94027 19.5873 5.46366 19.5873 6.11217C19.5873 6.76048 19.0639 7.28406 18.4154 7.28406Z" fill="#4DB6FF"/>
</svg>
