<svg width="53" height="46" viewBox="0 0 53 46" fill="none" xmlns="http://www.w3.org/2000/svg">
<path d="M3.13138 16.0988C2.72023 16.098 2.32245 15.9527 2.00757 15.6883C1.69269 15.424 1.48076 15.0573 1.40883 14.6525L1.22945 13.6353C1.16017 13.237 1.23054 12.827 1.42868 12.4746C1.62681 12.1222 1.94055 11.849 2.31686 11.7011L4.81061 10.7277C5.05182 10.6336 5.31091 10.5942 5.56918 10.6124C5.82746 10.6305 6.07849 10.7058 6.30418 10.8327C6.52986 10.9595 6.72458 11.1349 6.87429 11.3462C7.02401 11.5574 7.12498 11.7992 7.16994 12.0542L7.59245 14.4495C7.61241 14.5627 7.60988 14.6787 7.585 14.7909C7.56012 14.9031 7.51338 15.0093 7.44745 15.1034C7.38153 15.1976 7.2977 15.2778 7.20077 15.3395C7.10383 15.4012 6.99568 15.4433 6.8825 15.4632L3.43577 16.0709C3.33531 16.089 3.23346 16.0984 3.13138 16.0988Z" fill="#42A5F5"/>
<path d="M49.4079 24.847L37.3438 26.9742L35.4684 26.4164L21.6813 28.8474L20.1098 30.013L8.04577 32.1403L6.09726 21.0885C5.88572 19.8887 6.15947 18.654 6.85829 17.656L9.31562 14.1463L42.0605 8.37254L45.57 10.83C46.0642 11.176 46.4854 11.6159 46.8095 12.1247C47.1337 12.6335 47.3544 13.2012 47.4592 13.7952L49.4079 24.847Z" fill="#42A5F5"/>
<path d="M1.28296 37.5691V34.0691H5.65796L6.97046 37.5691L8.28296 41.0691L17.908 39.3191L19.075 37.5691L21.408 34.0691H52.033V37.5691V44.5691H1.28296V37.5691Z" fill="#607D8B"/>
<path d="M34.9884 20.1628C34.1452 20.9683 33.0825 21.5061 31.9342 21.7086L30.7595 21.9157C29.8565 22.0749 28.9289 22.0217 28.05 21.7603L27.5111 21.6004L27.0595 21.9354C26.3231 22.4816 25.4696 22.8489 24.5666 23.0081L23.3923 23.2152C22.2439 23.4176 21.0614 23.2757 19.9935 22.8072C19.1884 22.4537 18.5438 21.8129 18.1858 21.0097L17.2729 18.9629L23.2229 17.9138C23.8482 17.8035 24.4871 17.7948 25.1151 17.888L26.9042 18.1533L28.4945 17.2921C29.0527 16.9898 29.6561 16.7795 30.2812 16.6693L36.2312 15.6202L36.0734 17.8558C36.0113 18.733 35.6245 19.5556 34.9884 20.1628Z" fill="#258ADB"/>
<path d="M42.0601 8.37254L30.2389 10.4572H30.2378L28.0317 10.8466L25.9306 11.2163L23.7234 11.6057L9.31543 14.1464L11.4111 7.1016C11.6195 6.40088 12.019 5.77206 12.5647 5.28562C13.1105 4.79919 13.7809 4.47436 14.5009 4.34754L29.0959 1.77395L31.3042 1.38457L33.4064 1.01379L33.8362 0.938323C34.3605 0.846046 34.8981 0.860556 35.4167 0.98098H35.4178C36.3249 1.1935 37.1272 1.72099 37.6818 2.46957L42.0601 8.37254Z" fill="#3D5966"/>
<path d="M10.3413 19.4062L17.2729 18.9628L18.7425 22.2577L16.1573 22.7135L13.7241 24.031L11.2689 23.3008C10.8795 23.185 10.53 22.9629 10.2597 22.6596C9.98932 22.3563 9.80879 21.9838 9.7383 21.5836L9.53509 20.431C9.51376 20.3098 9.51824 20.1855 9.54824 20.0662C9.57823 19.9468 9.63306 19.8351 9.70914 19.7384C9.78522 19.6417 9.88085 19.5621 9.98978 19.5049C10.0987 19.4476 10.2185 19.414 10.3413 19.4062Z" fill="#FED500"/>
<path d="M42.8957 13.666L36.2305 15.6201L35.9766 19.2185L38.5616 18.7627L41.2988 19.1685L43.3558 17.6427C43.6821 17.4007 43.9345 17.0726 44.0848 16.6953C44.2352 16.3179 44.2774 15.906 44.2069 15.506L44.0037 14.3533C43.9823 14.2321 43.9356 14.1168 43.8666 14.0149C43.7976 13.9131 43.7079 13.8269 43.6033 13.762C43.4988 13.6972 43.3817 13.6551 43.2598 13.6385C43.1378 13.622 43.0138 13.6313 42.8957 13.666Z" fill="#FED500"/>
<path d="M8.92395 31.9922L15.8189 30.7742L16.4279 34.2217C16.5087 34.6789 16.4046 35.1494 16.1384 35.5298C15.8722 35.9102 15.4659 36.1692 15.0087 36.25L11.5612 36.859C11.104 36.9398 10.6335 36.8356 10.2531 36.5694C9.87277 36.3033 9.61371 35.8969 9.53295 35.4397L8.92395 31.9922Z" fill="#3D5966"/>
<path d="M41.673 26.2058L48.568 24.9878L49.177 28.4353C49.2577 28.8925 49.1536 29.363 48.8874 29.7434C48.6213 30.1238 48.2149 30.3828 47.7577 30.4636L44.3102 31.0726C43.8531 31.1533 43.3825 31.0492 43.0022 30.783C42.6218 30.5169 42.3627 30.1105 42.282 29.6533L41.673 26.2058Z" fill="#3D5966"/>
<path d="M44.6445 8.79189C44.439 8.79164 44.2401 8.71903 44.0827 8.58679C43.9253 8.45456 43.8195 8.27114 43.7839 8.0687L43.3615 5.67339C43.3164 5.41834 43.3284 5.15646 43.3968 4.90664C43.4652 4.65683 43.5882 4.4253 43.7569 4.22878C43.9256 4.03225 44.1358 3.87562 44.3724 3.77019C44.6089 3.66476 44.866 3.61316 45.1249 3.61911L47.8012 3.68036C48.2054 3.69053 48.5937 3.84001 48.9005 4.1035C49.2072 4.36699 49.4135 4.72833 49.4845 5.1264L49.6639 6.14359C49.7438 6.60061 49.6393 7.0707 49.3732 7.45074C49.107 7.83079 48.701 8.08976 48.2442 8.17086L44.7973 8.77865C44.7469 8.78751 44.6958 8.79194 44.6445 8.79189Z" fill="#42A5F5"/>
<path d="M52.0329 34.0691V37.5691H19.075L21.4079 34.0691H52.0329Z" fill="#A7C2CF"/>
<path d="M5.65796 34.0691L6.97046 37.5691H1.28296V34.0691H5.65796Z" fill="#A7C2CF"/>
<path d="M52.908 44.5691V34.0691C52.908 33.837 52.8158 33.6145 52.6517 33.4504C52.4876 33.2863 52.265 33.1941 52.033 33.1941H21.408C21.2639 33.1941 21.1221 33.2297 20.9951 33.2977C20.8681 33.3657 20.7599 33.4639 20.68 33.5838L17.386 38.5247L8.84569 40.0778L6.47718 33.7619C6.41464 33.5951 6.3027 33.4514 6.15631 33.3499C6.00993 33.2485 5.83607 33.1941 5.65796 33.1941H1.28296C1.05089 33.1941 0.828335 33.2863 0.664241 33.4504C0.500146 33.6145 0.407959 33.837 0.407959 34.0691V44.5691C0.407959 44.8012 0.500146 45.0237 0.664241 45.1878C0.828335 45.3519 1.05089 45.4441 1.28296 45.4441H52.033C52.265 45.4441 52.4876 45.3519 52.6517 45.1878C52.8158 45.0237 52.908 44.8012 52.908 44.5691ZM21.8762 34.9441H51.158V36.6941H20.7096L21.8762 34.9441ZM5.05158 34.9441L5.70783 36.6941H2.15796V34.9441H5.05158ZM2.15796 43.6941V38.4441H6.36408L7.46374 41.3763C7.53574 41.5683 7.67287 41.7289 7.8512 41.8301C8.02953 41.9313 8.23774 41.9667 8.43947 41.93L18.0645 40.18C18.1801 40.159 18.2902 40.1149 18.3884 40.0504C18.4866 39.9859 18.5708 39.9023 18.636 39.8045L19.5429 38.4441H51.158V43.6941H2.15796Z" fill="black"/>
<path d="M0 30.4699L0.78225 28.9054L4.28057 30.6545L3.49832 32.219L0 30.4699Z" fill="black"/>
<path d="M0.00158691 26.9706L0.783837 25.4061L4.28216 27.1553L3.49991 28.7198L0.00158691 26.9706Z" fill="black"/>
<path d="M0.00305176 23.4713L0.785302 21.9068L4.28362 23.6559L3.50137 25.2204L0.00305176 23.4713Z" fill="black"/>
<path d="M5.23552 21.2404L7.18426 32.2922C7.20408 32.4054 7.24604 32.5136 7.30774 32.6106C7.36943 32.7076 7.44965 32.7914 7.54381 32.8573C7.63796 32.9233 7.74419 32.97 7.85642 32.9948C7.96864 33.0196 8.08466 33.022 8.19783 33.0019L8.65382 35.5871C8.71347 35.9267 8.83947 36.2511 9.02461 36.5419C9.20975 36.8328 9.4504 37.0842 9.73279 37.282C10.0152 37.4797 10.3338 37.6199 10.6704 37.6944C11.007 37.7689 11.355 37.7764 11.6944 37.7163L15.1414 37.1086C15.8265 36.9869 16.4354 36.5985 16.8346 36.0285C17.2337 35.4585 17.3906 34.7535 17.2707 34.068L16.8148 31.4829L20.2616 30.8751C20.3953 30.8516 20.5218 30.7972 20.6308 30.7162L22.0365 29.6738L35.417 27.3144L37.0945 27.8129C37.2247 27.8516 37.3622 27.8595 37.496 27.8359L40.9427 27.2281L41.3985 29.8132C41.5057 30.42 41.8228 30.9698 42.2943 31.3665C42.7658 31.7631 43.3618 31.9814 43.978 31.9831C44.1327 31.983 44.2871 31.9695 44.4395 31.9425L47.8865 31.3347C48.5717 31.2131 49.1806 30.8246 49.5797 30.2546C49.9789 29.6846 50.1357 28.9796 50.0157 28.2941L49.5598 25.709C49.673 25.6891 49.7812 25.647 49.8781 25.5853C49.975 25.5236 50.0588 25.4433 50.1247 25.3492C50.1906 25.2551 50.2374 25.1489 50.2622 25.0367C50.2871 24.9245 50.2896 24.8085 50.2697 24.6953L48.3211 13.6433C48.1982 12.9354 47.9361 12.259 47.5501 11.653C47.164 11.0471 46.6616 10.5237 46.072 10.1132L44.2928 8.86747L48.2444 8.17064C48.7012 8.08954 49.1072 7.83057 49.3734 7.45052C49.6395 7.07048 49.7441 6.60039 49.6641 6.14337L49.4847 5.12618C49.4136 4.72815 49.2072 4.36689 48.9005 4.10348C48.5937 3.84007 48.2054 3.69068 47.8012 3.68057L45.1249 3.61932C44.8661 3.6134 44.6091 3.66499 44.3726 3.77037C44.1361 3.87575 43.9259 4.03229 43.7573 4.22872C43.5886 4.42514 43.4656 4.65655 43.3971 4.90626C43.3287 5.15596 43.3165 5.41775 43.3615 5.67273L43.6319 7.20671L42.4412 7.41671L38.3851 1.94796C37.8547 1.2278 37.1332 0.670661 36.3023 0.339716C35.4714 0.00877093 34.5643 -0.0827347 33.6841 0.0755745L14.3495 3.48479C13.4682 3.63708 12.6471 4.03327 11.9795 4.62845C11.3119 5.22363 10.8244 5.99397 10.5724 6.85212L8.63118 13.3785L7.44074 13.5885L7.17026 12.0545C7.12526 11.7995 7.02423 11.5577 6.87447 11.3465C6.7247 11.1353 6.52993 10.9599 6.3042 10.833C6.07846 10.7062 5.82739 10.631 5.56909 10.6129C5.31079 10.5949 5.05169 10.6343 4.81049 10.7285L2.31674 11.7019C1.94043 11.8497 1.62669 12.1229 1.42855 12.4753C1.23042 12.8278 1.16005 13.2378 1.22933 13.6361L1.40871 14.6533C1.44846 14.8797 1.53245 15.096 1.65589 15.2899C1.77932 15.4838 1.93977 15.6515 2.12806 15.7833C2.31634 15.9152 2.52878 16.0086 2.7532 16.0582C2.97763 16.1079 3.20964 16.1128 3.43597 16.0728L7.38769 15.376L6.14191 17.1551C5.72829 17.7424 5.43521 18.4058 5.27963 19.107C5.12405 19.8082 5.10906 20.5333 5.23552 21.2404ZM3.13136 14.3488L2.9521 13.3316L5.44585 12.3587L5.71633 13.8928L3.13136 14.3488ZM15.5474 34.3714C15.5875 34.5999 15.5352 34.835 15.4022 35.0251C15.2691 35.2152 15.0661 35.3447 14.8377 35.3852L11.3908 35.9929C11.1623 36.0328 10.9273 35.9806 10.7373 35.8475C10.5473 35.7145 10.4178 35.5115 10.3771 35.2832L9.92136 32.6981L15.0915 31.7864L15.5474 34.3714ZM47.5827 29.6114L44.1361 30.2191C43.9075 30.2594 43.6724 30.2072 43.4823 30.0741C43.2922 29.941 43.1628 29.7379 43.1225 29.5094L42.6667 26.9243L47.8369 26.0125L48.2927 28.5976C48.3328 28.8262 48.2805 29.0613 48.1474 29.2514C48.0142 29.4414 47.8112 29.5709 47.5827 29.6114ZM45.0843 5.36911H45.085L47.7612 5.43025L47.9407 6.44743L45.3547 6.90331L45.0829 5.36911H45.0843ZM36.9796 2.99097L40.5144 7.75676L30.776 9.47395L34.9775 1.78686C35.3741 1.84589 35.7551 1.98265 36.0986 2.18928C36.4422 2.39591 36.7415 2.66835 36.9795 2.99097H36.9796ZM26.4674 10.2337L30.7668 2.36753L32.8685 1.99686L28.569 9.86311L26.4674 10.2337ZM12.2498 7.35164C12.4102 6.80553 12.7204 6.3153 13.1453 5.93655C13.5701 5.55779 14.0926 5.30566 14.6535 5.20876L28.5598 2.75668L24.2604 10.6227L10.5579 13.0389L12.2498 7.35164ZM7.57505 18.1579L9.82511 14.9452L41.8556 9.29731L45.0681 11.5468C45.4691 11.8259 45.8108 12.1818 46.0733 12.5938C46.3358 13.0058 46.514 13.4658 46.5975 13.9472L48.3942 24.1372L46.6709 24.4412L46.0631 20.9943C46.0414 20.8708 45.9933 20.7535 45.9223 20.6502C45.8512 20.5469 45.7588 20.4601 45.6512 20.3957C45.5437 20.3312 45.4236 20.2906 45.299 20.2767C45.1744 20.2627 45.0483 20.2756 44.9291 20.3147L39.1082 22.2206L36.5844 22.6657L36.8881 24.3891L39.4733 23.9332C39.514 23.926 39.5542 23.9159 39.5936 23.9031L44.5148 22.2917L44.9473 24.745L37.3954 26.0766L35.7181 25.5777C35.5879 25.539 35.4504 25.5311 35.3166 25.5547L21.5293 27.9858C21.3956 28.0094 21.2692 28.0638 21.1601 28.1447L19.7545 29.1871L12.2026 30.5188L11.77 28.0655L16.9455 27.8965C16.987 27.8952 17.0282 27.8909 17.069 27.8837L19.6541 27.4279L19.3501 25.7044L16.8263 26.1496L10.7046 26.3494C10.5793 26.3535 10.4563 26.3844 10.344 26.4402C10.2317 26.4959 10.1327 26.5751 10.0537 26.6725C9.97463 26.7698 9.91745 26.883 9.88598 27.0044C9.85452 27.1257 9.8495 27.2524 9.87127 27.3759L10.4792 30.8227L8.75575 31.1269L6.95949 20.9367C6.87322 20.4558 6.8832 19.9626 6.98884 19.4856C7.09448 19.0086 7.2937 18.5573 7.57494 18.1578L7.57505 18.1579Z" fill="black"/>
<path d="M8.87695 21.7359C8.97387 22.2967 9.22601 22.8192 9.60476 23.244C9.98352 23.6689 10.4737 23.9791 11.0198 24.1395L13.4747 24.8697C13.6972 24.9358 13.9368 24.9109 14.1408 24.8004L16.4487 23.5505L18.8165 23.133C19.0737 23.3206 19.3504 23.4798 19.6417 23.6079C20.8675 24.1468 22.2256 24.3099 23.544 24.0765L24.7184 23.8693C25.7548 23.6854 26.7345 23.2638 27.5806 22.6377L27.6809 22.5634L27.8005 22.5989C28.8098 22.8979 29.8746 22.9589 30.9114 22.7773L32.0858 22.5703C33.4046 22.3391 34.625 21.7214 35.5922 20.7956C35.8222 20.5755 36.0277 20.3312 36.2053 20.0669L38.5731 19.6494L41.1698 20.0344C41.3993 20.0685 41.633 20.0099 41.8194 19.8717L43.8765 18.3459C44.3348 18.0084 44.6894 17.5493 44.9 17.0205C45.1107 16.4918 45.1689 15.9146 45.0681 15.3544L44.8648 14.2016C44.8221 13.9593 44.7287 13.7287 44.5908 13.5249C44.4529 13.3212 44.2736 13.1488 44.0645 13.019C43.8555 12.8892 43.6214 12.805 43.3776 12.7718C43.1338 12.7386 42.8858 12.7571 42.6497 12.8263L36.0314 14.7668L30.1293 15.8075C29.4114 15.9339 28.7187 16.1753 28.0778 16.5225L26.7435 17.2444L25.2431 17.0219C24.5221 16.9147 23.7885 16.9247 23.0707 17.0516L17.1689 18.0923L10.2855 18.5325C10.0398 18.5482 9.80022 18.6155 9.58235 18.7301C9.36448 18.8447 9.17324 19.004 9.02112 19.1975C8.86899 19.391 8.75941 19.6145 8.69953 19.8533C8.63966 20.092 8.63083 20.3407 8.67362 20.5832L8.87695 21.7359ZM43.1419 14.5055L43.3452 15.6582C43.3884 15.8983 43.3634 16.1457 43.2731 16.3723C43.1829 16.5989 43.0309 16.7957 42.8345 16.9403L41.0685 18.2502L38.6901 17.8975C38.597 17.8836 38.5023 17.8849 38.4096 17.9013L36.9205 18.1638C36.9309 18.082 36.9397 17.9997 36.9456 17.9171L37.0605 16.2884L43.1419 14.5055ZM23.3745 18.7754C23.9071 18.6815 24.4514 18.6741 24.9864 18.7535L26.7753 19.0188C26.9626 19.0464 27.1539 19.0127 27.3204 18.9226L28.9106 18.0615C29.3862 17.8039 29.9002 17.6248 30.4328 17.5309L35.2788 16.6765L35.2001 17.7941C35.1541 18.4542 34.8631 19.0734 34.3843 19.5301C33.6666 20.217 32.7611 20.6753 31.7826 20.8469L30.608 21.0535C29.8388 21.1881 29.0489 21.1428 28.3002 20.9211L27.7613 20.7609C27.6311 20.7222 27.4937 20.7143 27.3599 20.7379C27.2262 20.7614 27.0998 20.8158 26.9907 20.8967L26.539 21.2318C25.9112 21.6963 25.1843 22.009 24.4153 22.1455L23.2411 22.3526C22.2628 22.526 21.2552 22.405 20.3458 22.005C19.7396 21.7396 19.2544 21.2573 18.9854 20.6527L18.529 19.6294L23.3745 18.7754ZM16.7217 19.8749L17.3867 21.366C17.4204 21.4418 17.4569 21.5159 17.4946 21.5892L16.0048 21.8519C15.9122 21.8682 15.8228 21.8994 15.7401 21.9442L13.6262 23.0889L11.5187 22.4621C11.2846 22.3934 11.0744 22.2605 10.912 22.0785C10.7496 21.8964 10.6415 21.6724 10.5999 21.432L10.3967 20.2794L16.7217 19.8749Z" fill="black"/>
</svg>
