<svg width="50" height="50" viewBox="0 0 50 50" fill="none" xmlns="http://www.w3.org/2000/svg">
<path fill-rule="evenodd" clip-rule="evenodd" d="M19.0952 11.4277H1.76263V14.6298H19.0952V11.4277ZM44.6827 0H44.7121H49.1481C49.6181 0 50 0.411281 50 0.881316V44.7415V44.7709V49.1481C50 49.6181 49.6181 50 49.1481 50H0.881316C0.411281 50 0 49.6181 0 49.1481V44.8002V44.7709V0.881316C0 0.411281 0.411281 0 0.881316 0H19.9471H19.9765H24.4125H24.4418H44.6827ZM48.2667 43.8895V1.76263H45.564V43.8895H48.2667ZM1.76263 4.84724H19.0952V1.76263H1.76263V4.84724ZM1.76263 43.8895H19.0952V40.8049H1.76263V43.8895ZM1.76263 34.2244H19.0952V31.0223H1.76263V34.2244ZM1.76263 24.4125H19.0952V21.2103H1.76263V24.4125ZM44.7121 45.6522H24.4125H19.9765H1.76263V48.2667H48.2667V45.6522H44.7121ZM25.2938 1.76263V43.8895H43.8308V1.76263H25.2938ZM23.5311 43.8895V1.76263H20.8578V43.8895H23.5311ZM34.5476 9.69448C34.0776 9.69448 33.6663 9.31257 33.6663 8.81316V5.69918C33.6663 5.19977 34.0776 4.81786 34.5476 4.81786C35.047 4.81786 35.4289 5.19977 35.4289 5.69918V8.81316C35.4289 9.31257 35.047 9.69448 34.5476 9.69448ZM34.5476 17.4794C34.0776 17.4794 33.6663 17.0975 33.6663 16.5981V13.4841C33.6663 12.9847 34.0776 12.6028 34.5476 12.6028C35.047 12.6028 35.4289 12.9847 35.4289 13.4841V16.5981C35.4289 17.0975 35.047 17.4794 34.5476 17.4794ZM34.5476 25.2644C34.0776 25.2644 33.6663 24.8825 33.6663 24.3831V21.2691C33.6663 20.7697 34.0776 20.3878 34.5476 20.3878C35.047 20.3878 35.4289 20.7697 35.4289 21.2691V24.3831C35.4289 24.8825 35.047 25.2644 34.5476 25.2644ZM34.5476 33.0494C34.0776 33.0494 33.6663 32.6674 33.6663 32.168V29.0541C33.6663 28.5546 34.0776 28.1727 34.5476 28.1727C35.047 28.1727 35.4289 28.5546 35.4289 29.0541V32.168C35.4289 32.6674 35.047 33.0494 34.5476 33.0494ZM34.5476 40.8343C34.0776 40.8343 33.6663 40.4524 33.6663 39.953V36.839C33.6663 36.3396 34.0776 35.9577 34.5476 35.9577C35.047 35.9577 35.4289 36.3396 35.4289 36.839V39.953C35.4289 40.4524 35.047 40.8343 34.5476 40.8343ZM1.76263 39.0423H19.0952V35.9871H1.76263V39.0423ZM1.76263 29.2597H19.0952V26.1751H1.76263V29.2597ZM1.76263 19.4771H19.0952V16.3925H1.76263V19.4771ZM1.76263 9.6651H19.0952V6.60987H1.76263V9.6651Z" fill="black"/>
<path fill-rule="evenodd" clip-rule="evenodd" d="M19.9766 45.6522H1.7627V48.2668H48.2668V45.6522H44.7122H24.4125H19.9766Z" fill="#7ED63F"/>
<path fill-rule="evenodd" clip-rule="evenodd" d="M20.8578 1.76263V43.8895H23.5311V1.76263H20.8578Z" fill="#FFA721"/>
<path fill-rule="evenodd" clip-rule="evenodd" d="M25.2938 1.76263V43.8895H43.8308V1.76263H25.2938ZM34.5476 9.69448C34.0776 9.69448 33.6663 9.31258 33.6663 8.81316V5.69918C33.6663 5.19977 34.0776 4.81786 34.5476 4.81786C35.0471 4.81786 35.429 5.19977 35.429 5.69918V8.81316C35.429 9.31258 35.0471 9.69448 34.5476 9.69448ZM34.5476 17.4794C34.0776 17.4794 33.6663 17.0975 33.6663 16.5981V13.4841C33.6663 12.9847 34.0776 12.6028 34.5476 12.6028C35.0471 12.6028 35.429 12.9847 35.429 13.4841V16.5981C35.429 17.0975 35.0471 17.4794 34.5476 17.4794ZM34.5476 25.2644C34.0776 25.2644 33.6663 24.8825 33.6663 24.3831V21.2691C33.6663 20.7697 34.0776 20.3878 34.5476 20.3878C35.0471 20.3878 35.429 20.7697 35.429 21.2691V24.3831C35.429 24.8825 35.0471 25.2644 34.5476 25.2644ZM34.5476 33.0494C34.0776 33.0494 33.6663 32.6675 33.6663 32.168V29.0541C33.6663 28.5546 34.0776 28.1727 34.5476 28.1727C35.0471 28.1727 35.429 28.5546 35.429 29.0541V32.168C35.429 32.6675 35.0471 33.0494 34.5476 33.0494ZM34.5476 40.8343C34.0776 40.8343 33.6663 40.4524 33.6663 39.953V36.839C33.6663 36.3396 34.0776 35.9577 34.5476 35.9577C35.0471 35.9577 35.429 36.3396 35.429 36.839V39.953C35.429 40.4524 35.0471 40.8343 34.5476 40.8343Z" fill="#4D4D4D"/>
<path fill-rule="evenodd" clip-rule="evenodd" d="M45.5641 1.76263V43.8895H48.2668V1.76263H45.5641Z" fill="#FFA721"/>
<path fill-rule="evenodd" clip-rule="evenodd" d="M19.0952 40.8049H1.7627V43.8895H19.0952V40.8049Z" fill="#FF3E1A"/>
<path fill-rule="evenodd" clip-rule="evenodd" d="M19.0952 35.9871H1.7627V39.0423H19.0952V35.9871Z" fill="#E6E6E6"/>
<path fill-rule="evenodd" clip-rule="evenodd" d="M19.0952 31.0223H1.7627V34.2244H19.0952V31.0223Z" fill="#FF3E1A"/>
<path fill-rule="evenodd" clip-rule="evenodd" d="M19.0952 26.1751H1.7627V29.2597H19.0952V26.1751Z" fill="#E6E6E6"/>
<path fill-rule="evenodd" clip-rule="evenodd" d="M19.0952 21.2103H1.7627V24.4125H19.0952V21.2103Z" fill="#FF3E1A"/>
<path fill-rule="evenodd" clip-rule="evenodd" d="M19.0952 16.3925H1.7627V19.4771H19.0952V16.3925Z" fill="#E6E6E6"/>
<path fill-rule="evenodd" clip-rule="evenodd" d="M19.0952 11.4277H1.7627V14.6298H19.0952V11.4277Z" fill="#FF3E1A"/>
<path fill-rule="evenodd" clip-rule="evenodd" d="M19.0952 6.60986H1.7627V9.66509H19.0952V6.60986Z" fill="#E6E6E6"/>
<path fill-rule="evenodd" clip-rule="evenodd" d="M19.0952 1.76263H1.7627V4.84724H19.0952V1.76263Z" fill="#FF3E1A"/>
</svg>
