<svg width="42" height="55" viewBox="0 0 42 55" fill="none" xmlns="http://www.w3.org/2000/svg">
<path d="M37.6252 16.625H7.87524V6.125H37.6252L41.1252 11.375L37.6252 16.625Z" fill="#CCA400"/>
<path d="M4.37524 21.875H34.1252V32.375H4.37524L0.875244 27.125L4.37524 21.875Z" fill="#CCA400"/>
<path d="M18.3752 0.875H23.6252V6.125H18.3752V0.875Z" fill="#5F4D37"/>
<path d="M18.3752 16.625H23.6252V21.875H18.3752V16.625Z" fill="#5F4D37"/>
<path d="M18.3752 32.375H23.6252V53.375H18.3752V32.375Z" fill="#5F4D37"/>
<path d="M41.8537 10.8894L38.3537 5.63938C38.2735 5.51974 38.1651 5.42165 38.0381 5.35375C37.9111 5.28585 37.7693 5.25022 37.6253 5.25H24.5003V0.875C24.5003 0.642936 24.4081 0.420376 24.244 0.256282C24.0799 0.0921872 23.8573 0 23.6253 0H18.3753C18.1432 0 17.9207 0.0921872 17.7566 0.256282C17.5925 0.420376 17.5003 0.642936 17.5003 0.875V5.25H7.87528C7.64322 5.25 7.42066 5.34219 7.25656 5.50628C7.09247 5.67038 7.00028 5.89294 7.00028 6.125V16.625C7.00028 16.8571 7.09247 17.0796 7.25656 17.2437C7.42066 17.4078 7.64322 17.5 7.87528 17.5H17.5003V21H4.37528C4.23125 21.0002 4.08948 21.0359 3.96245 21.1038C3.83543 21.1717 3.72705 21.2697 3.64684 21.3894L0.146844 26.6394C0.0510886 26.7832 0 26.9522 0 27.125C0 27.2978 0.0510886 27.4668 0.146844 27.6106L3.64684 32.8606C3.72705 32.9803 3.83543 33.0784 3.96245 33.1462C4.08948 33.2141 4.23125 33.2498 4.37528 33.25H17.5003V52.5H8.75028C8.51822 52.5 8.29566 52.5922 8.13156 52.7563C7.96747 52.9204 7.87528 53.1429 7.87528 53.375C7.87528 53.6071 7.96747 53.8296 8.13156 53.9937C8.29566 54.1578 8.51822 54.25 8.75028 54.25H29.7503C29.9823 54.25 30.2049 54.1578 30.369 53.9937C30.5331 53.8296 30.6253 53.6071 30.6253 53.375C30.6253 53.1429 30.5331 52.9204 30.369 52.7563C30.2049 52.5922 29.9823 52.5 29.7503 52.5H24.5003V33.25H34.1253C34.3573 33.25 34.5799 33.1578 34.744 32.9937C34.9081 32.8296 35.0003 32.6071 35.0003 32.375V21.875C35.0003 21.6429 34.9081 21.4204 34.744 21.2563C34.5799 21.0922 34.3573 21 34.1253 21H24.5003V17.5H37.6253C37.7693 17.4998 37.9111 17.4641 38.0381 17.3962C38.1651 17.3283 38.2735 17.2303 38.3537 17.1106L41.8537 11.8606C41.9495 11.7168 42.0006 11.5478 42.0006 11.375C42.0006 11.2022 41.9495 11.0332 41.8537 10.8894ZM19.2503 1.75H22.7503V5.25H19.2503V1.75ZM22.7503 52.5H19.2503V33.25H22.7503V52.5ZM33.2503 22.75V31.5H4.84341L1.92638 27.125L4.84341 22.75H33.2503ZM19.2503 21V17.5H22.7503V21H19.2503ZM37.1572 15.75H8.75028V7H37.1572L40.0742 11.375L37.1572 15.75Z" fill="black"/>
<path d="M33.2502 52.5H32.3752C32.1432 52.5 31.9206 52.5922 31.7565 52.7563C31.5924 52.9204 31.5002 53.1429 31.5002 53.375C31.5002 53.6071 31.5924 53.8296 31.7565 53.9937C31.9206 54.1578 32.1432 54.25 32.3752 54.25H33.2502C33.4823 54.25 33.7049 54.1578 33.869 53.9937C34.0331 53.8296 34.1252 53.6071 34.1252 53.375C34.1252 53.1429 34.0331 52.9204 33.869 52.7563C33.7049 52.5922 33.4823 52.5 33.2502 52.5Z" fill="black"/>
</svg>
