<svg width="30" height="55" viewBox="0 0 30 55" fill="none" xmlns="http://www.w3.org/2000/svg">
<path d="M5.24988 3.5H24.4999V47.25H5.24988V3.5Z" fill="#3E3D42"/>
<path d="M14.8749 30.625C17.7744 30.625 20.1249 28.2745 20.1249 25.375C20.1249 22.4755 17.7744 20.125 14.8749 20.125C11.9754 20.125 9.62488 22.4755 9.62488 25.375C9.62488 28.2745 11.9754 30.625 14.8749 30.625Z" fill="#FFDA44"/>
<path d="M14.8749 16.625C17.7744 16.625 20.1249 14.2745 20.1249 11.375C20.1249 8.47551 17.7744 6.125 14.8749 6.125C11.9754 6.125 9.62488 8.47551 9.62488 11.375C9.62488 14.2745 11.9754 16.625 14.8749 16.625Z" fill="#D80027"/>
<path d="M14.8749 44.625C17.7744 44.625 20.1249 42.2745 20.1249 39.375C20.1249 36.4755 17.7744 34.125 14.8749 34.125C11.9754 34.125 9.62488 36.4755 9.62488 39.375C9.62488 42.2745 11.9754 44.625 14.8749 44.625Z" fill="#91CC04"/>
<path d="M10.9374 0.875H18.8124C19.3925 0.875 19.9489 1.10547 20.3592 1.5157C20.7694 1.92594 20.9999 2.48234 20.9999 3.0625V3.5H8.74988V3.0625C8.74988 2.48234 8.98035 1.92594 9.39058 1.5157C9.80082 1.10547 10.3572 0.875 10.9374 0.875Z" fill="#2D2D30"/>
<path d="M11.3749 47.25H18.3749V53.375H11.3749V47.25Z" fill="#2D2D30"/>
<path d="M27.1249 16.625H24.4999V6.125H28.8749L27.1249 16.625Z" fill="#2D2D30"/>
<path d="M27.1249 31.5H24.4999V21H28.8749L27.1249 31.5Z" fill="#2D2D30"/>
<path d="M27.1249 45.5H24.4999V35H28.8749L27.1249 45.5Z" fill="#2D2D30"/>
<path d="M2.62488 16.625H5.24988V6.125H0.874878L2.62488 16.625Z" fill="#2D2D30"/>
<path d="M2.62488 31.5H5.24988V21H0.874878L2.62488 31.5Z" fill="#2D2D30"/>
<path d="M2.62488 45.5H5.24988V35H0.874878L2.62488 45.5Z" fill="#2D2D30"/>
<path d="M14.8749 19.25C13.6635 19.25 12.4793 19.6092 11.472 20.2822C10.4648 20.9553 9.67971 21.9119 9.21612 23.0311C8.75253 24.1503 8.63124 25.3818 8.86757 26.5699C9.10391 27.7581 9.68726 28.8494 10.5439 29.706C11.4004 30.5626 12.4918 31.146 13.68 31.3823C14.8681 31.6186 16.0996 31.4973 17.2188 31.0338C18.338 30.5702 19.2946 29.7851 19.9676 28.7779C20.6407 27.7706 20.9999 26.5864 20.9999 25.375C20.9981 23.7511 20.3522 22.1943 19.2039 21.046C18.0556 19.8977 16.4988 19.2518 14.8749 19.25ZM14.8749 29.75C14.0096 29.75 13.1637 29.4934 12.4443 29.0127C11.7248 28.5319 11.164 27.8487 10.8329 27.0492C10.5018 26.2498 10.4151 25.3701 10.5839 24.5215C10.7528 23.6728 11.1694 22.8933 11.7813 22.2814C12.3931 21.6696 13.1727 21.2529 14.0214 21.0841C14.87 20.9153 15.7497 21.0019 16.5491 21.333C17.3485 21.6642 18.0318 22.2249 18.5126 22.9444C18.9933 23.6638 19.2499 24.5097 19.2499 25.375C19.2486 26.5349 18.7872 27.647 17.967 28.4672C17.1468 29.2873 16.0348 29.7487 14.8749 29.75Z" fill="black"/>
<path d="M14.8749 5.25C13.6635 5.25 12.4793 5.60922 11.472 6.28225C10.4648 6.95527 9.67971 7.91187 9.21612 9.03106C8.75253 10.1503 8.63124 11.3818 8.86757 12.5699C9.10391 13.7581 9.68726 14.8494 10.5439 15.706C11.4004 16.5626 12.4918 17.146 13.68 17.3823C14.8681 17.6186 16.0996 17.4974 17.2188 17.0338C18.338 16.5702 19.2946 15.7851 19.9676 14.7779C20.6407 13.7706 20.9999 12.5864 20.9999 11.375C20.9981 9.75111 20.3522 8.19425 19.2039 7.04599C18.0556 5.89772 16.4988 5.25182 14.8749 5.25ZM14.8749 15.75C14.0096 15.75 13.1637 15.4934 12.4443 15.0127C11.7248 14.5319 11.164 13.8487 10.8329 13.0492C10.5018 12.2498 10.4151 11.3701 10.5839 10.5215C10.7528 9.67281 11.1694 8.89326 11.7813 8.28141C12.3931 7.66955 13.1727 7.25287 14.0214 7.08406C14.87 6.91525 15.7497 7.00189 16.5491 7.33303C17.3485 7.66416 18.0318 8.22492 18.5126 8.94438C18.9933 9.66385 19.2499 10.5097 19.2499 11.375C19.2486 12.5349 18.7872 13.647 17.967 14.4672C17.1468 15.2873 16.0348 15.7487 14.8749 15.75Z" fill="black"/>
<path d="M14.8749 33.25C13.6635 33.25 12.4793 33.6092 11.472 34.2822C10.4648 34.9553 9.67971 35.9119 9.21612 37.0311C8.75253 38.1503 8.63124 39.3818 8.86757 40.5699C9.10391 41.7581 9.68726 42.8494 10.5439 43.706C11.4004 44.5626 12.4918 45.146 13.68 45.3823C14.8681 45.6186 16.0996 45.4973 17.2188 45.0338C18.338 44.5702 19.2946 43.7851 19.9676 42.7779C20.6407 41.7706 20.9999 40.5864 20.9999 39.375C20.9981 37.7511 20.3522 36.1943 19.2039 35.046C18.0556 33.8977 16.4988 33.2518 14.8749 33.25ZM14.8749 43.75C14.0096 43.75 13.1637 43.4934 12.4443 43.0127C11.7248 42.5319 11.164 41.8487 10.8329 41.0492C10.5018 40.2498 10.4151 39.3701 10.5839 38.5215C10.7528 37.6728 11.1694 36.8933 11.7813 36.2814C12.3931 35.6696 13.1727 35.2529 14.0214 35.0841C14.87 34.9153 15.7497 35.0019 16.5491 35.333C17.3485 35.6642 18.0318 36.2249 18.5126 36.9444C18.9933 37.6638 19.2499 38.5097 19.2499 39.375C19.2486 40.5349 18.7872 41.647 17.967 42.4672C17.1468 43.2873 16.0348 43.7487 14.8749 43.75Z" fill="black"/>
<path d="M27.1248 32.375C27.3319 32.375 27.5322 32.3016 27.6902 32.1678C27.8482 32.034 27.9536 31.8486 27.9878 31.6444L29.7378 21.1444C29.7586 21.019 29.7519 20.8906 29.7182 20.7681C29.6844 20.6456 29.6244 20.5319 29.5423 20.4349C29.4602 20.3379 29.358 20.26 29.2427 20.2064C29.1274 20.1529 29.0019 20.1251 28.8748 20.125H25.3748V17.5H27.1248C27.3319 17.5 27.5322 17.4266 27.6902 17.2928C27.8482 17.159 27.9536 16.9736 27.9878 16.7694L29.7378 6.26937C29.7586 6.14402 29.7519 6.01562 29.7182 5.89311C29.6844 5.7706 29.6244 5.6569 29.5423 5.55991C29.4602 5.46292 29.358 5.38496 29.2427 5.33144C29.1274 5.27793 29.0019 5.25014 28.8748 5.25H25.3748V3.5C25.3748 3.26794 25.2826 3.04538 25.1185 2.88128C24.9544 2.71719 24.7319 2.625 24.4998 2.625H21.8431C21.737 1.89659 21.3724 1.23063 20.816 0.748713C20.2596 0.266793 19.5484 0.00105078 18.8123 0H10.9373C10.2012 0.00105078 9.49005 0.266793 8.93363 0.748713C8.37721 1.23063 8.01267 1.89659 7.90654 2.625H5.24982C5.01776 2.625 4.7952 2.71719 4.6311 2.88128C4.46701 3.04538 4.37482 3.26794 4.37482 3.5V5.25H0.874824C0.747745 5.25014 0.622218 5.27793 0.506957 5.33144C0.391697 5.38496 0.289463 5.46292 0.207354 5.55991C0.125245 5.6569 0.0652278 5.7706 0.0314683 5.89311C-0.00229111 6.01562 -0.0089836 6.14402 0.0118551 6.26937L1.76186 16.7694C1.79601 16.9736 1.90147 17.159 2.05947 17.2928C2.21748 17.4266 2.4178 17.5 2.62482 17.5H4.37482V20.125H0.874824C0.747745 20.1251 0.622218 20.1529 0.506957 20.2064C0.391697 20.26 0.289463 20.3379 0.207354 20.4349C0.125245 20.5319 0.0652278 20.6456 0.0314683 20.7681C-0.00229111 20.8906 -0.0089836 21.019 0.0118551 21.1444L1.76186 31.6444C1.79601 31.8486 1.90147 32.034 2.05947 32.1678C2.21748 32.3016 2.4178 32.375 2.62482 32.375H4.37482V34.125H0.874824C0.747745 34.1251 0.622218 34.1529 0.506957 34.2064C0.391697 34.26 0.289463 34.3379 0.207354 34.4349C0.125245 34.5319 0.0652278 34.6456 0.0314683 34.7681C-0.00229111 34.8906 -0.0089836 35.019 0.0118551 35.1444L1.76186 45.6444C1.79601 45.8486 1.90147 46.034 2.05947 46.1678C2.21748 46.3016 2.4178 46.375 2.62482 46.375H4.37482V47.25C4.37482 47.4821 4.46701 47.7046 4.6311 47.8687C4.7952 48.0328 5.01776 48.125 5.24982 48.125H10.4998V53.375C10.4998 53.6071 10.592 53.8296 10.7561 53.9937C10.9202 54.1578 11.1428 54.25 11.3748 54.25H18.3748C18.6069 54.25 18.8294 54.1578 18.9935 53.9937C19.1576 53.8296 19.2498 53.6071 19.2498 53.375V48.125H24.4998C24.7319 48.125 24.9544 48.0328 25.1185 47.8687C25.2826 47.7046 25.3748 47.4821 25.3748 47.25V46.375H27.1248C27.3319 46.375 27.5322 46.3016 27.6902 46.1678C27.8482 46.034 27.9536 45.8486 27.9878 45.6444L29.7378 35.1444C29.7586 35.019 29.7519 34.8906 29.7182 34.7681C29.6844 34.6456 29.6244 34.5319 29.5423 34.4349C29.4602 34.3379 29.358 34.26 29.2427 34.2064C29.1274 34.1529 29.0019 34.1251 28.8748 34.125H25.3748V32.375H27.1248ZM25.3748 7H27.8423L26.3833 15.75H25.3748V7ZM25.3748 21.875H27.8423L26.3833 30.625H25.3748V21.875ZM4.37482 44.625H3.36639L1.90732 35.875H4.37482V44.625ZM4.37482 30.625H3.36639L1.90732 21.875H4.37482V30.625ZM4.37482 15.75H3.36639L1.90732 7H4.37482V15.75ZM10.9373 1.75H18.8123C19.0836 1.75031 19.3482 1.83458 19.5697 1.99125C19.7911 2.14791 19.9587 2.36929 20.0494 2.625H9.70029C9.79094 2.36929 9.9585 2.14791 10.18 1.99125C10.4015 1.83458 10.666 1.75031 10.9373 1.75ZM17.4998 52.5H12.2498V48.125H17.4998V52.5ZM23.6248 46.375H6.12482V4.375H23.6248V46.375ZM27.8423 35.875L26.3833 44.625H25.3748V35.875H27.8423Z" fill="black"/>
</svg>
