<svg width="51" height="56" viewBox="0 0 51 56" fill="none" xmlns="http://www.w3.org/2000/svg">
<path d="M49.5227 26.3563C49.5227 22.5523 47.2094 19.2887 43.9129 17.8954C44.495 16.77 44.8259 15.4936 44.8259 14.1392C44.8259 9.61667 41.1597 5.95031 36.637 5.95031C35.3484 5.95031 34.13 6.24879 33.0454 6.77904C32.0817 3.32892 28.9175 0.796997 25.1598 0.796997C21.4022 0.796997 18.2379 3.32892 17.2742 6.77915C16.1898 6.2489 14.9712 5.95042 13.6827 5.95042C9.16014 5.95042 5.49378 9.61667 5.49378 14.1393C5.49378 15.4937 5.82464 16.7701 6.40673 17.8955C3.11028 19.2888 0.796997 22.5525 0.796997 26.3564C0.796997 31.2863 4.68364 35.3032 9.55925 35.5231C10.239 37.9853 12.864 39.8207 16.001 39.8207C17.779 39.8207 19.3917 39.2302 20.5804 38.2713C21.769 39.2302 23.3818 39.8207 25.1598 39.8207C26.9378 39.8207 28.5506 39.2302 29.7393 38.2713C30.9278 39.2302 32.5407 39.8207 34.3187 39.8207C37.4558 39.8207 40.0808 37.9852 40.7604 35.5231C45.636 35.3031 49.5227 31.2862 49.5227 26.3563Z" fill="#129B12"/>
<path d="M24.6688 0.813185C24.5679 0.8192 24.4675 0.826528 24.3678 0.836263C24.3372 0.839216 24.3068 0.842606 24.2763 0.845888C24.1691 0.857481 24.0625 0.870825 23.9565 0.886575C23.9367 0.889528 23.9168 0.892372 23.897 0.895435C23.7709 0.915122 23.6457 0.936997 23.5215 0.962263C23.5213 0.962263 23.5211 0.962372 23.5209 0.962372C25.6705 1.39954 27.6832 2.89678 28.9583 4.78404C29.8613 6.1205 31.4042 6.89083 33.0133 6.78145C33.024 6.78068 33.0347 6.78003 33.0455 6.77926C32.0819 3.32892 28.9177 0.796997 25.16 0.796997C25.0283 0.796997 24.8975 0.800825 24.7672 0.80706C24.7343 0.808591 24.7016 0.811216 24.6688 0.813185Z" fill="#097C09"/>
<path d="M43.9129 17.8954C44.4951 16.77 44.8259 15.4936 44.8259 14.1392C44.8259 9.61668 41.1596 5.95032 36.6369 5.95032C36.0757 5.95032 35.5278 6.00708 34.9984 6.11482C38.7352 6.87432 41.5477 10.1782 41.5477 14.1392C41.5477 15.4936 41.2168 16.77 40.6347 17.8954C43.9312 19.2887 46.2444 22.5523 46.2444 26.3563C46.2444 31.2862 42.3578 35.3031 37.4823 35.5229C36.9251 37.5409 35.0609 39.1371 32.6793 39.6477C33.2036 39.7602 33.7526 39.8206 34.3186 39.8206C37.4556 39.8206 40.0807 37.9851 40.7604 35.523C45.636 35.3032 49.5225 31.2863 49.5225 26.3564C49.5227 22.5524 47.2096 19.2888 43.9129 17.8954Z" fill="#097C09"/>
<path d="M19.2964 36.9148C18.5579 38.1674 15.4973 39.568 14.3623 39.6477C14.4872 39.6745 14.6138 39.6979 14.7413 39.7186C14.7516 39.7203 14.7617 39.7221 14.772 39.7238C14.9014 39.7444 15.032 39.762 15.1639 39.7761C15.1673 39.7764 15.1707 39.7766 15.1741 39.7771C15.2928 39.7896 15.4127 39.7986 15.5334 39.8058C15.5628 39.8076 15.5921 39.8092 15.6216 39.8106C15.7473 39.8166 15.8736 39.8207 16.0012 39.8207C17.6228 39.8207 19.1058 39.3284 20.2561 38.5145L20.4578 38.3679L19.4306 36.6826L19.2964 36.9148Z" fill="#009000"/>
<path d="M29.2545 39.0058L32.7629 33.4697C33.0404 33.0318 32.9565 32.4569 32.5653 32.1166C32.1476 31.7533 31.5194 31.777 31.1304 32.1709L28.5466 34.7867C28.2039 35.1336 27.6168 34.8451 27.6821 34.3619L28.4419 28.7326C28.5231 28.1311 28.0785 27.5864 27.473 27.5455L26.7612 27.4974C26.2262 27.4613 25.7501 27.8343 25.6573 28.3622L24.3011 36.0676C24.2257 36.4961 23.6815 36.6375 23.407 36.2999L19.1595 31.0763C18.8656 30.7148 18.3685 30.5904 17.9391 30.771L17.1955 31.0836C16.6067 31.3311 16.3737 32.0428 16.7023 32.5905L21.0671 39.8659C21.6992 40.9195 21.9598 42.1555 21.8018 43.374C21.2361 47.7367 20.5335 51.8513 17.6579 55.203H32.6625C29.5843 51.6149 28.825 47.1529 28.4176 42.4479C28.3127 41.2397 28.6054 40.0301 29.2545 39.0058Z" fill="#BF6101"/>
<path d="M32.7628 33.4697C33.0403 33.0318 32.9564 32.4569 32.5651 32.1167C32.1474 31.7533 31.5193 31.7771 31.1303 32.1709L29.9763 33.339L28.5465 34.7867C28.2038 35.1337 27.6168 34.8451 27.682 34.3619L28.4418 28.7326C28.521 28.1464 28.1 27.6154 27.5179 27.551L25.3815 40.83C25.3456 41.0015 25.3175 41.1747 25.298 41.349C25.2574 41.7119 25.2519 42.08 25.2837 42.4478C25.6911 47.1529 26.4504 51.6149 29.5287 55.2029H32.6622C29.5839 51.6148 28.8246 47.1528 28.4172 42.4478C28.3126 41.2396 28.6052 40.0301 29.2544 39.0058L32.7628 33.4697Z" fill="#9A4D01"/>
<path d="M23.6015 7.22583C21.3041 7.22583 19.3263 8.58941 18.4298 10.5507C17.5036 9.89622 16.374 9.51046 15.1537 9.51046C12.014 9.51046 9.46871 12.0557 9.46871 15.1954C9.46871 16.2314 9.74717 17.2017 10.2313 18.0382C7.50499 18.4573 5.41724 20.8132 5.41724 23.6568C5.41724 26.7965 7.9625 29.3418 11.1022 29.3418C14.2419 29.3418 29.2865 16.0505 29.2865 12.9108C29.2865 9.7711 26.7411 7.22583 23.6015 7.22583Z" fill="#28A528"/>
<path d="M44.9669 17.5119C45.4027 16.4425 45.6229 15.3115 45.6229 14.1393C45.6229 13.9017 45.6135 13.6615 45.5949 13.4258C45.5604 12.987 45.1764 12.6596 44.7379 12.6938C44.2992 12.7284 43.9714 13.1121 44.0059 13.5509C44.0211 13.7453 44.029 13.9432 44.029 14.1393C44.029 15.332 43.7519 16.4725 43.2052 17.5293C43.103 17.7265 43.0881 17.9574 43.1635 18.1663C43.239 18.3752 43.3983 18.5431 43.6028 18.6295C46.7149 19.945 48.7259 22.9779 48.7259 26.3563C48.7259 30.8477 45.2114 34.5244 40.7247 34.7268C40.3798 34.7423 40.0842 34.9781 39.9924 35.3108C39.3985 37.4621 37.0124 39.0236 34.3189 39.0236C33.0355 39.0236 31.8114 38.682 30.8031 38.0513L33.4362 33.8962C33.6207 33.605 33.7154 33.2823 33.7252 32.9607C33.7415 32.4248 33.5219 31.8923 33.0886 31.5153C32.3554 30.8774 31.2464 30.9195 30.5635 31.6108L28.5877 33.6112L29.2319 28.8391C29.2999 28.3346 29.1543 27.8191 28.8325 27.4248C28.5508 27.0797 28.1513 26.8485 27.7155 26.773C27.6533 26.7623 27.5903 26.7547 27.5268 26.7504L26.815 26.7023C26.4609 26.6782 26.1221 26.7553 25.8286 26.9101C25.3392 27.168 24.9749 27.642 24.8724 28.2241L24.2492 31.7651L23.626 35.306L19.778 30.5737C19.6503 30.4167 19.4998 30.2852 19.3343 30.1809C19.3333 30.1803 19.3324 30.1795 19.3314 30.1789C19.3135 30.1677 19.2948 30.1581 19.2767 30.1475C19.0399 30.01 18.7759 29.9252 18.5043 29.9012C18.4956 29.9004 18.4868 29.9005 18.4781 29.8998C18.4381 29.8969 18.3981 29.8944 18.3578 29.8939C18.1126 29.8915 17.865 29.9378 17.6305 30.0365L16.8868 30.349C16.393 30.5565 16.0142 30.9676 15.8476 31.4766C15.6809 31.9857 15.7433 32.5411 16.019 33.0006L19.1687 38.2506C18.2292 38.7524 17.1292 39.0237 16.0015 39.0237C13.3079 39.0237 10.9219 37.4622 10.328 35.3111C10.2361 34.9782 9.94044 34.7425 9.59569 34.727C5.10901 34.5247 1.59447 30.8479 1.59447 26.3564C1.59447 22.9779 3.60544 19.945 6.71759 18.6296C6.92212 18.5432 7.08137 18.3753 7.15684 18.1664C7.23231 17.9575 7.21722 17.7266 7.11517 17.5294C6.56852 16.4726 6.29136 15.3321 6.29136 14.1395C6.29136 10.0636 9.60739 6.74756 13.6833 6.74756C14.8193 6.74756 15.91 6.99913 16.9248 7.49525C17.1373 7.59927 17.3852 7.60331 17.6012 7.50641C17.817 7.4095 17.9787 7.2217 18.0424 6.99377C18.9303 3.81456 21.8574 1.59414 25.1604 1.59414C28.4634 1.59414 31.3905 3.81456 32.2784 6.99377C32.3422 7.2217 32.5038 7.40961 32.7196 7.50641C32.9355 7.60342 33.1835 7.59937 33.396 7.49525C34.4108 6.99913 35.5015 6.74756 36.6376 6.74756C39.3622 6.74756 41.858 8.23933 43.151 10.6409C43.3595 11.0284 43.843 11.1734 44.2305 10.9647C44.6181 10.7562 44.763 10.2727 44.5543 9.8852C42.983 6.96664 39.9494 5.15364 36.6376 5.15364C35.5614 5.15364 34.5186 5.33947 33.5265 5.70719C32.1918 2.30595 28.8711 0 25.1599 0C21.4487 0 18.1279 2.30595 16.7938 5.70708C15.8016 5.33936 14.7588 5.15353 13.6827 5.15353C8.7278 5.15353 4.69678 9.18455 4.69678 14.1393C4.69678 15.3115 4.91706 16.4426 5.35281 17.5119C2.07572 19.224 0 22.6117 0 26.3563C0 31.5165 3.89714 35.7732 8.97083 36.2791C9.96833 38.8598 12.7716 40.6175 16.0009 40.6175C17.4167 40.6175 18.8031 40.266 19.9884 39.6176L20.3833 40.2758C20.9221 41.174 21.1451 42.2378 21.0112 43.2715C20.8952 44.1652 20.7525 45.2176 20.5715 46.2477C20.4953 46.6813 20.7851 47.0944 21.2185 47.1705C21.6526 47.2467 22.0652 46.9569 22.1413 46.5234C22.3278 45.4622 22.4737 44.3877 22.5918 43.4762C22.7718 42.0882 22.473 40.6603 21.7502 39.4557L17.3854 32.1804C17.3337 32.0945 17.3485 32.0131 17.362 31.9722C17.3753 31.9313 17.4116 31.857 17.5039 31.8182L18.2477 31.5056C18.3501 31.4625 18.4708 31.4927 18.5409 31.579L22.7885 36.8027C22.7998 36.8165 22.8117 36.8294 22.8234 36.8426C22.9812 37.022 23.1775 37.151 23.3933 37.2217C23.6226 37.297 23.8731 37.3068 24.1208 37.2442C24.1235 37.2435 24.1263 37.2431 24.1291 37.2423C24.1291 37.2423 24.1291 37.2423 24.1292 37.2423C24.37 37.1797 24.5794 37.0548 24.7423 36.8858C24.7486 36.8792 24.7555 36.8729 24.7617 36.8663C24.7674 36.86 24.7727 36.8534 24.7782 36.847C24.9344 36.6708 25.0427 36.4516 25.0859 36.2059L26.4421 28.5005C26.4645 28.3732 26.5814 28.2843 26.7074 28.2926L27.4193 28.3407C27.5142 28.3472 27.5718 28.4012 27.5976 28.4329C27.6234 28.4645 27.6649 28.5317 27.6521 28.6261L26.8923 34.2555C26.8828 34.3252 26.8791 34.3945 26.8809 34.4631C26.8927 34.9431 27.1688 35.3842 27.6101 35.601C27.6416 35.6165 27.6735 35.6307 27.7058 35.6433C27.8669 35.7072 28.036 35.7372 28.2034 35.7349C28.5383 35.7303 28.867 35.5967 29.1138 35.3468L31.6974 32.731C31.7421 32.6858 31.8001 32.6615 31.8594 32.6574C31.862 32.6572 31.8645 32.6565 31.8672 32.6564C31.8685 32.6564 31.8698 32.6566 31.8711 32.6566C31.9164 32.6557 31.9619 32.6664 32.0025 32.6897C32.0164 32.6977 32.0297 32.7071 32.0423 32.718C32.1369 32.8004 32.1568 32.9372 32.0897 33.0432L28.5813 38.5793C27.8445 39.7422 27.5042 41.1405 27.6234 42.5167C27.9572 46.372 28.5357 50.7192 31.0495 54.4061H19.265C20.1645 53.0721 20.8634 51.5546 21.386 49.8076C21.5121 49.386 21.2726 48.9418 20.8508 48.8157C20.429 48.6896 19.9849 48.9291 19.8589 49.3509C19.2215 51.4817 18.3036 53.2264 17.0527 54.6841C16.85 54.9204 16.8034 55.2531 16.9334 55.5359C17.0635 55.8188 17.3462 56 17.6575 56H32.6621C32.9734 56 33.2562 55.8188 33.3862 55.5359C33.5162 55.2531 33.4696 54.9204 33.267 54.6842C30.198 51.107 29.5643 46.4569 29.2111 42.3792C29.122 41.3488 29.3763 40.3022 29.9274 39.4325L29.9497 39.3972C31.2122 40.1884 32.733 40.6176 34.3186 40.6176C37.5479 40.6176 40.3512 38.86 41.3487 36.2791C46.4224 35.7732 50.3195 31.5165 50.3195 26.3564C50.3197 22.6118 48.2439 19.224 44.9669 17.5119Z" fill="#121419"/>
</svg>
