<svg width="82" height="82" viewBox="0 0 82 82" fill="none" xmlns="http://www.w3.org/2000/svg">
<circle cx="41" cy="41" r="41" fill="#0B2E60"/>
<path d="M57.5 21.6163H24.25C21.8338 21.6163 19.875 23.575 19.875 25.9913V59.2413C19.875 61.6575 21.8338 63.6163 24.25 63.6163H57.5C59.9162 63.6163 61.875 61.6575 61.875 59.2413V25.9913C61.875 23.575 59.9162 21.6163 57.5 21.6163Z" fill="#E6F3FF"/>
<path d="M57.5 64.4913H24.25C21.355 64.4913 19 62.1363 19 59.2413V25.9913C19 23.0963 21.355 20.7413 24.25 20.7413H57.5C60.395 20.7413 62.75 23.0963 62.75 25.9913V59.2413C62.75 62.1363 60.395 64.4913 57.5 64.4913ZM24.25 22.4913C22.3201 22.4913 20.75 24.061 20.75 25.9913V59.2413C20.75 61.1716 22.3201 62.7413 24.25 62.7413H57.5C59.4299 62.7413 61 61.1716 61 59.2413V25.9913C61 24.061 59.4299 22.4913 57.5 22.4913H24.25Z" fill="#21257C"/>
<path d="M24.25 42.6163C24.25 33.4346 31.6933 25.9913 40.875 25.9913C62.9277 26.867 62.9215 58.369 40.8749 59.2414C31.6933 59.2413 24.25 51.7981 24.25 42.6163Z" fill="#E6F3FF"/>
<path d="M40.875 60.1163C31.2256 60.1163 23.375 52.2661 23.375 42.6163C24.3362 19.4002 57.4173 19.407 58.375 42.6165C58.375 52.2661 50.5244 60.1163 40.875 60.1163ZM40.875 26.8663C32.1904 26.8663 25.125 33.9321 25.125 42.6163C25.9904 63.5108 55.7628 63.5047 56.625 42.6162C56.625 33.9321 49.5596 26.8663 40.875 26.8663Z" fill="#21257C"/>
<path d="M40.875 29.4913C41.8415 29.4913 42.625 30.2748 42.625 31.2413V53.9913C42.625 54.9578 41.8415 55.7413 40.875 55.7413C39.9085 55.7413 39.125 54.9578 39.125 53.9913V31.2413C39.125 30.2748 39.9085 29.4913 40.875 29.4913Z" fill="#4AA5FF"/>
<path d="M47.875 32.1163C48.8415 32.1163 49.625 32.8998 49.625 33.8663V51.3663C49.625 52.3328 48.8415 53.1163 47.875 53.1163C46.9085 53.1163 46.125 52.3328 46.125 51.3663V33.8663C46.125 32.8998 46.9085 32.1163 47.875 32.1163Z" fill="#4AA5FF"/>
<path d="M33.875 32.1163C34.8415 32.1163 35.625 32.8998 35.625 33.8663V51.3663C35.625 52.3328 34.8415 53.1163 33.875 53.1163C32.9085 53.1163 32.125 52.3328 32.125 51.3663V33.8663C32.125 32.8998 32.9085 32.1163 33.875 32.1163Z" fill="#4AA5FF"/>
<path d="M53.125 47.8663C52.6418 47.8663 52.25 47.475 52.25 46.9913V38.2413C52.25 37.7577 52.6418 37.3663 53.125 37.3663C53.6082 37.3663 54 37.7577 54 38.2413V46.9913C54 47.475 53.6082 47.8663 53.125 47.8663Z" fill="#4AA5FF"/>
<path d="M28.625 47.8663C28.1418 47.8663 27.75 47.475 27.75 46.9913V38.2413C27.75 37.7577 28.1418 37.3663 28.625 37.3663C29.1082 37.3663 29.5 37.7577 29.5 38.2413V46.9913C29.5 47.475 29.1082 47.8663 28.625 47.8663Z" fill="#4AA5FF"/>
<path d="M29.5 30.3823C29.5 25.4288 36.572 16.8629 39.5636 13.4609C40.2607 12.6681 41.4893 12.6681 42.1864 13.4609C45.178 16.8629 52.25 25.4288 52.25 30.3823C52.25 36.6646 47.1572 41.7573 40.875 41.7573C34.5928 41.7573 29.5 36.6646 29.5 30.3823Z" fill="#4AA5FF"/>
<path d="M40.875 42.6326C34.1202 42.6326 28.625 37.1373 28.625 30.3826C28.625 25.3291 35.067 17.2499 38.9067 12.8834C39.8956 11.7064 41.8545 11.7047 42.8433 12.8835C46.683 17.2499 53.125 25.3291 53.125 30.3826C53.125 37.1373 47.6298 42.6326 40.875 42.6326ZM40.875 13.7413C40.6216 13.7413 40.3896 13.8473 40.2209 14.0387C34.0557 21.049 30.375 27.1594 30.375 30.3826C30.375 36.1726 35.0854 40.8826 40.875 40.8826C46.6646 40.8826 51.375 36.1726 51.375 30.3826C51.375 27.1594 47.6943 21.049 41.5291 14.0387C41.3604 13.8473 41.1284 13.7413 40.875 13.7413Z" fill="#21257C"/>
<path d="M46.5373 36.81C45.7894 36.8348 45.3603 35.8374 45.9187 35.3164C47.2508 33.9834 47.9848 32.2112 47.9848 30.327C47.9848 29.4964 47.6024 28.3275 46.8787 26.9466C46.6544 26.5185 46.8193 25.9905 47.2474 25.7657C47.6764 25.5427 48.2044 25.7068 48.4287 26.1349C49.3076 27.8114 49.7348 29.1829 49.7348 30.327C49.7348 32.6786 48.8192 34.89 47.156 36.5537C46.9851 36.7246 46.7612 36.81 46.5373 36.81Z" fill="#E6F3FF"/>
</svg>
