<svg width="82" height="82" viewBox="0 0 82 82" fill="none" xmlns="http://www.w3.org/2000/svg">
<circle cx="41" cy="41" r="41" fill="#0B2E60"/>
<path d="M37.0015 12.6449H61.2718V17.7946H37.0015V12.6449Z" fill="#FFDB94"/>
<path d="M61.2718 18.4384H37.0015C36.8305 18.4384 36.6665 18.3704 36.5455 18.2495C36.4246 18.1286 36.3566 17.9645 36.3566 17.7935V12.6449C36.3566 12.4739 36.4246 12.3098 36.5455 12.1889C36.6665 12.0679 36.8305 12 37.0015 12H61.2718C61.4428 12 61.6069 12.0679 61.7278 12.1889C61.8488 12.3098 61.9167 12.4739 61.9167 12.6449V17.7935C61.9167 17.9645 61.8488 18.1286 61.7278 18.2495C61.6069 18.3704 61.4428 18.4384 61.2718 18.4384ZM37.6465 17.1486H60.6269V13.2898H37.6465V17.1486Z" fill="black"/>
<path d="M17.8261 57.2085H49.9643V62.1797H17.8261V57.2085Z" fill="#FFDB94"/>
<path d="M49.9751 62.8299H17.8261C17.6551 62.8299 17.491 62.762 17.3701 62.6411C17.2492 62.5201 17.1812 62.3561 17.1812 62.185V57.2085C17.1812 57.0374 17.2492 56.8734 17.3701 56.7524C17.491 56.6315 17.6551 56.5635 17.8261 56.5635H49.9751C50.1461 56.5635 50.3102 56.6315 50.4311 56.7524C50.552 56.8734 50.62 57.0374 50.62 57.2085V62.185C50.62 62.3561 50.552 62.5201 50.4311 62.6411C50.3102 62.762 50.1461 62.8299 49.9751 62.8299ZM18.471 61.5401H49.3302V57.8534H18.471V61.5401Z" fill="black"/>
<path d="M13.6449 62.185H25.4361V66.8693H13.6449V62.185Z" fill="#FFDB94"/>
<path d="M25.4361 67.5163H13.6449C13.4739 67.5163 13.3098 67.4484 13.1889 67.3274C13.0679 67.2065 13 67.0424 13 66.8714V62.185C13 62.014 13.0679 61.8499 13.1889 61.729C13.3098 61.608 13.4739 61.5401 13.6449 61.5401H25.4361C25.6071 61.5401 25.7712 61.608 25.8921 61.729C26.0131 61.8499 26.081 62.014 26.081 62.185V66.8714C26.081 67.0424 26.0131 67.2065 25.8921 67.3274C25.7712 67.4484 25.6071 67.5163 25.4361 67.5163ZM14.2898 66.2265H24.7912V62.8299H14.2898V66.2265Z" fill="black"/>
<path d="M22.018 62.185H49.975V66.8693H22.018V62.185Z" fill="#FFDB94"/>
<path d="M49.975 67.5163H22.018C21.847 67.5163 21.6829 67.4484 21.562 67.3274C21.4411 67.2065 21.3731 67.0424 21.3731 66.8714V62.185C21.3731 62.014 21.4411 61.8499 21.562 61.729C21.6829 61.608 21.847 61.5401 22.018 61.5401H49.975C50.1461 61.5401 50.3101 61.608 50.4311 61.729C50.552 61.8499 50.6199 62.014 50.6199 62.185V66.8714C50.6199 67.0424 50.552 67.2065 50.4311 67.3274C50.3101 67.4484 50.1461 67.5163 49.975 67.5163ZM22.6629 66.2265H49.3301V62.8299H22.6629V66.2265Z" fill="black"/>
<path d="M13.6449 52.2426H49.975V57.2128H13.6449V52.2426Z" fill="#FFDB94"/>
<path d="M49.975 57.8533H13.6449C13.4739 57.8533 13.3098 57.7854 13.1889 57.6645C13.0679 57.5435 13 57.3795 13 57.2084V52.2426C13 52.0716 13.0679 51.9075 13.1889 51.7866C13.3098 51.6656 13.4739 51.5977 13.6449 51.5977H49.975C50.1461 51.5977 50.3101 51.6656 50.4311 51.7866C50.552 51.9075 50.62 52.0716 50.62 52.2426V57.2084C50.62 57.3795 50.552 57.5435 50.4311 57.6645C50.3101 57.7854 50.1461 57.8533 49.975 57.8533ZM14.2898 56.5635H49.3301V52.8875H14.2898V56.5635Z" fill="black"/>
<path d="M17.912 47.2661H49.975V52.2362H17.912V47.2661Z" fill="#FFDB94"/>
<path d="M49.975 52.8875H17.9121C17.741 52.8875 17.577 52.8196 17.456 52.6986C17.3351 52.5777 17.2672 52.4137 17.2672 52.2426V47.266C17.2672 47.095 17.3351 46.931 17.456 46.81C17.577 46.6891 17.741 46.6211 17.9121 46.6211H49.975C50.1461 46.6211 50.3101 46.6891 50.431 46.81C50.552 46.931 50.6199 47.095 50.6199 47.266V52.2426C50.6199 52.4137 50.552 52.5777 50.431 52.6986C50.3101 52.8196 50.1461 52.8875 49.975 52.8875ZM18.557 51.5977H49.3301V47.911H18.557V51.5977Z" fill="black"/>
<path d="M13.6449 42.3002H49.975V47.2703H13.6449V42.3002Z" fill="#FFDB94"/>
<path d="M49.975 47.9109H13.6449C13.4739 47.9109 13.3098 47.843 13.1889 47.722C13.0679 47.6011 13 47.4371 13 47.266V42.3002C13 42.1291 13.0679 41.9651 13.1889 41.8442C13.3098 41.7232 13.4739 41.6553 13.6449 41.6553H49.975C50.1461 41.6553 50.3101 41.7232 50.4311 41.8442C50.552 41.9651 50.62 42.1291 50.62 42.3002V47.266C50.62 47.4371 50.552 47.6011 50.4311 47.722C50.3101 47.843 50.1461 47.9109 49.975 47.9109ZM14.2898 46.6211H49.3301V42.9451H14.2898V46.6211Z" fill="black"/>
<path d="M19.5351 37.3344H49.9643V42.3045H19.5351V37.3344Z" fill="#FFDB94"/>
<path d="M49.975 42.9451H19.5351C19.3641 42.9451 19.2 42.8772 19.0791 42.7562C18.9581 42.6353 18.8902 42.4712 18.8902 42.3002V37.3344C18.8902 37.1633 18.9581 36.9993 19.0791 36.8783C19.2 36.7574 19.3641 36.6895 19.5351 36.6895H49.975C50.1461 36.6895 50.3101 36.7574 50.4311 36.8783C50.552 36.9993 50.62 37.1633 50.62 37.3344V42.3002C50.62 42.4712 50.552 42.6353 50.4311 42.7562C50.3101 42.8772 50.1461 42.9451 49.975 42.9451ZM20.18 41.6553H49.3301V37.9793H20.18V41.6553Z" fill="black"/>
<path d="M25.4361 32.3578H49.9751V37.3279H25.4361V32.3578Z" fill="#FFDB94"/>
<path d="M49.9751 37.9793H25.4361C25.2651 37.9793 25.101 37.9113 24.9801 37.7904C24.8591 37.6694 24.7912 37.5054 24.7912 37.3344V32.3578C24.7912 32.1867 24.8591 32.0227 24.9801 31.9018C25.101 31.7808 25.2651 31.7129 25.4361 31.7129H49.9751C50.1461 31.7129 50.3102 31.7808 50.4311 31.9018C50.552 32.0227 50.62 32.1867 50.62 32.3578V37.3344C50.62 37.5054 50.552 37.6694 50.4311 37.7904C50.3102 37.9113 50.1461 37.9793 49.9751 37.9793ZM26.081 36.6894H49.3302V33.0027H26.081V36.6894Z" fill="black"/>
<path d="M19.6533 27.3919H56.0909V32.3621H19.6533V27.3919Z" fill="#FFDB94"/>
<path d="M56.091 33.0027H19.6533C19.4823 33.0027 19.3183 32.9347 19.1973 32.8138C19.0764 32.6928 19.0084 32.5288 19.0084 32.3578V27.3919C19.0084 27.2209 19.0764 27.0568 19.1973 26.9359C19.3183 26.815 19.4823 26.747 19.6533 26.747H56.091C56.262 26.747 56.426 26.815 56.547 26.9359C56.6679 27.0568 56.7359 27.2209 56.7359 27.3919V32.3578C56.7359 32.5288 56.6679 32.6928 56.547 32.8138C56.426 32.9347 56.262 33.0027 56.091 33.0027ZM20.2983 31.7128H55.446V28.0368H20.2983V31.7128Z" fill="black"/>
<path d="M13.6449 22.4154H56.091V27.3855H13.6449V22.4154Z" fill="#FFDB94"/>
<path d="M56.091 28.0369H13.6449C13.4739 28.0369 13.3098 27.9689 13.1889 27.848C13.0679 27.727 13 27.563 13 27.3919V22.4154C13 22.2443 13.0679 22.0803 13.1889 21.9593C13.3098 21.8384 13.4739 21.7704 13.6449 21.7704H56.091C56.262 21.7704 56.4261 21.8384 56.547 21.9593C56.6679 22.0803 56.7359 22.2443 56.7359 22.4154V27.3919C56.7359 27.563 56.6679 27.727 56.547 27.848C56.4261 27.9689 56.262 28.0369 56.091 28.0369ZM14.2898 26.747H55.4461V23.0603H14.2898V26.747Z" fill="black"/>
<path d="M19.5351 17.7935H64.7865V22.4175H19.5351V17.7935Z" fill="#FFDB94"/>
<path d="M64.7973 23.0603H19.5351C19.3641 23.0603 19.2 22.9923 19.0791 22.8714C18.9581 22.7504 18.8902 22.5864 18.8902 22.4154V17.7935C18.8902 17.6224 18.9581 17.4584 19.0791 17.3375C19.2 17.2165 19.3641 17.1486 19.5351 17.1486H64.7973C64.9683 17.1486 65.1324 17.2165 65.2533 17.3375C65.3743 17.4584 65.4422 17.6224 65.4422 17.7935V22.4154C65.4422 22.5864 65.3743 22.7504 65.2533 22.8714C65.1324 22.9923 64.9683 23.0603 64.7973 23.0603ZM20.18 21.7704H64.1524V18.4384H20.18V21.7704Z" fill="black"/>
<path d="M24.7912 66.8714H26.081V67.2336H24.7912V66.8714Z" fill="black"/>
<path d="M36.3566 62.185H37.6465V67.2315H36.3566V62.185Z" fill="black"/>
<path d="M30.5739 56.929H31.8637V61.9754H30.5739V56.929Z" fill="black"/>
<path d="M24.7912 51.8879H26.081V56.9344H24.7912V51.8879Z" fill="black"/>
<path d="M36.3566 51.8879H37.6465V56.9344H36.3566V51.8879Z" fill="black"/>
<path d="M30.5739 46.6319H31.8637V51.6783H30.5739V46.6319Z" fill="black"/>
<path d="M24.7912 42.4292H26.081V47.4756H24.7912V42.4292Z" fill="black"/>
<path d="M36.3566 42.4292H37.6465V47.4756H36.3566V42.4292Z" fill="black"/>
<path d="M30.5739 37.1839H31.8637V42.2303H30.5739V37.1839Z" fill="black"/>
<path d="M24.7912 32.132H26.081V37.1785H24.7912V32.132Z" fill="black"/>
<path d="M36.3566 32.132H37.6465V37.1785H36.3566V32.132Z" fill="black"/>
<path d="M30.5739 26.8867H31.8637V31.9332H30.5739V26.8867Z" fill="black"/>
<path d="M24.7912 22.5228H26.081V27.5693H24.7912V22.5228Z" fill="black"/>
<path d="M36.3566 22.5228H37.6465V27.5693H36.3566V22.5228Z" fill="black"/>
<path d="M19.0084 17.2668H20.2982V22.3132H19.0084V17.2668Z" fill="black"/>
<path d="M30.5739 17.2668H31.8637V22.3132H30.5739V17.2668Z" fill="black"/>
<path d="M43.2787 56.9075H44.5685V61.9539H43.2787V56.9075Z" fill="black"/>
<path d="M43.2787 46.6104H44.5685V51.6568H43.2787V46.6104Z" fill="black"/>
<path d="M43.2787 37.1624H44.5685V42.2088H43.2787V37.1624Z" fill="black"/>
<path d="M43.2787 26.8653H44.5685V31.9117H43.2787V26.8653Z" fill="black"/>
<path d="M49.0614 22.5013H50.3512V27.5478H49.0614V22.5013Z" fill="black"/>
<path d="M43.2787 17.2453H44.5685V22.2917H43.2787V17.2453Z" fill="black"/>
<path d="M49.0614 12.6987H50.3512V17.7451H49.0614V12.6987Z" fill="black"/>
<path d="M54.8441 17.2453H56.1339V22.2917H54.8441V17.2453Z" fill="black"/>
<path d="M67.0437 35.6791V52.7478C67.0437 53.1355 66.8897 53.5073 66.6156 53.7815C66.3414 54.0556 65.9696 54.2096 65.5819 54.2096H64.7221C64.3476 54.2012 63.9917 54.045 63.732 53.7752C63.4722 53.5054 63.3297 53.1438 63.3355 52.7693V40.516C63.3383 40.331 63.3047 40.1474 63.2366 39.9755C63.1684 39.8035 63.0671 39.6467 62.9383 39.514C62.8096 39.3812 62.6559 39.2751 62.4862 39.2018C62.3164 39.1284 62.1338 39.0892 61.9489 39.0864H61.1535C60.9686 39.0892 60.7861 39.1284 60.6163 39.2018C60.4465 39.2751 60.2929 39.3812 60.1641 39.514C60.0354 39.6467 59.934 39.8035 59.8659 39.9755C59.7977 40.1474 59.7641 40.331 59.767 40.516V48.5344C59.7698 48.7207 59.7359 48.9058 59.6672 49.079C59.5985 49.2522 59.4964 49.4102 59.3667 49.544C59.2369 49.6777 59.0821 49.7846 58.911 49.8585C58.7399 49.9324 58.556 49.9719 58.3697 49.9747C58.1869 49.9739 58.0061 49.9363 57.8381 49.8643C57.67 49.7923 57.5182 49.6873 57.3915 49.5555C57.1257 49.2826 56.9788 48.9154 56.9831 48.5344V42.9881C56.9889 42.6137 56.8463 42.2521 56.5866 41.9823C56.3268 41.7125 55.9709 41.5563 55.5965 41.5478H54.8334C54.459 41.5563 54.1031 41.7125 53.8433 41.9823C53.5836 42.2521 53.441 42.6137 53.4468 42.9881V43.5686C53.4497 43.7535 53.416 43.9371 53.3479 44.1091C53.2798 44.281 53.1784 44.4378 53.0497 44.5705C52.9209 44.7033 52.7672 44.8094 52.5975 44.8827C52.4277 44.9561 52.2452 44.9953 52.0602 44.9981H51.3616C51.0252 44.9981 50.7026 44.8645 50.4647 44.6266C50.2269 44.3888 50.0933 44.0662 50.0933 43.7298V35.6791H67.0437Z" fill="#FA5753"/>
<path d="M65.582 54.8545H64.7221C64.1766 54.846 63.6567 54.6219 63.276 54.2311C62.8953 53.8404 62.6848 53.3148 62.6906 52.7693V40.5159C62.6935 40.4157 62.6765 40.3159 62.6408 40.2222C62.6051 40.1285 62.5512 40.0428 62.4824 39.9699C62.4135 39.8971 62.3309 39.8385 62.2394 39.7975C62.1479 39.7566 62.0492 39.7341 61.9489 39.7313H61.1535C61.0533 39.7341 60.9546 39.7566 60.8631 39.7975C60.7716 39.8385 60.689 39.8971 60.6201 39.9699C60.5512 40.0428 60.4974 40.1285 60.4617 40.2222C60.4259 40.3159 60.409 40.4157 60.4119 40.5159V48.5344C60.4147 48.8054 60.3642 49.0743 60.2631 49.3258C60.162 49.5772 60.0123 49.8063 59.8227 50C59.633 50.1936 59.4071 50.348 59.1578 50.4543C58.9085 50.5606 58.6407 50.6168 58.3697 50.6196C58.0998 50.6195 57.8327 50.5641 57.585 50.4569C57.3373 50.3497 57.1142 50.1929 56.9294 49.9962C56.7389 49.8039 56.5885 49.5756 56.487 49.3246C56.3855 49.0737 56.3349 48.805 56.3382 48.5344V42.9881C56.344 42.7846 56.2694 42.5871 56.1306 42.4382C55.9918 42.2893 55.7999 42.2011 55.5965 42.1927H54.8334C54.63 42.2011 54.4381 42.2893 54.2993 42.4382C54.1605 42.5871 54.0859 42.7846 54.0917 42.9881V43.5685C54.0946 43.8381 54.0443 44.1057 53.9437 44.3558C53.8432 44.606 53.6943 44.8339 53.5057 45.0265C53.317 45.2192 53.0923 45.3728 52.8443 45.4785C52.5963 45.5843 52.3299 45.6402 52.0603 45.643H51.3616C50.8542 45.643 50.3675 45.4414 50.0087 45.0826C49.6499 44.7238 49.4484 44.2372 49.4484 43.7298V35.6791C49.4484 35.5081 49.5163 35.344 49.6373 35.2231C49.7582 35.1021 49.9222 35.0342 50.0933 35.0342H67.0438C67.2148 35.0342 67.3788 35.1021 67.4998 35.2231C67.6207 35.344 67.6887 35.5081 67.6887 35.6791V52.7478C67.6887 53.3065 67.4667 53.8424 67.0716 54.2375C66.6765 54.6326 66.1407 54.8545 65.582 54.8545ZM61.1535 38.4415H61.9489C62.4925 38.45 63.0108 38.6726 63.3912 39.061C63.7716 39.4495 63.9833 39.9723 63.9804 40.5159V52.7693C63.9746 52.9728 64.0492 53.1704 64.188 53.3192C64.3268 53.4681 64.5187 53.5563 64.7221 53.5647H65.582C65.7986 53.5647 66.0064 53.4786 66.1596 53.3254C66.3128 53.1722 66.3988 52.9645 66.3988 52.7478V36.324H50.7382V43.7298C50.7382 43.8951 50.8039 44.0537 50.9208 44.1706C51.0377 44.2875 51.1963 44.3532 51.3616 44.3532H52.0603C52.1605 44.3504 52.2592 44.3279 52.3507 44.2869C52.4422 44.246 52.5248 44.1874 52.5937 44.1145C52.6626 44.0417 52.7164 43.9559 52.7521 43.8623C52.7879 43.7686 52.8048 43.6688 52.8019 43.5685V42.9881C52.7962 42.4426 53.0066 41.917 53.3873 41.5263C53.768 41.1355 54.2879 40.9114 54.8334 40.9029H55.5965C56.142 40.9114 56.6619 41.1355 57.0426 41.5263C57.4233 41.917 57.6338 42.4426 57.628 42.9881V48.5344C57.6261 48.6395 57.6451 48.744 57.6838 48.8418C57.7226 48.9396 57.7803 49.0287 57.8537 49.104C57.9205 49.1739 58.0005 49.2298 58.0891 49.2686C58.1777 49.3073 58.273 49.3281 58.3697 49.3298C58.4713 49.327 58.5714 49.3042 58.6642 49.2627C58.7571 49.2212 58.8408 49.1618 58.9107 49.088C58.9806 49.0141 59.0352 48.9272 59.0715 48.8322C59.1077 48.7372 59.1249 48.636 59.1221 48.5344V40.5159C59.1192 40.2463 59.1695 39.9788 59.2701 39.7287C59.3706 39.4785 59.5195 39.2506 59.7081 39.0579C59.8968 38.8653 60.1215 38.7117 60.3695 38.6059C60.6175 38.5002 60.8839 38.4443 61.1535 38.4415Z" fill="black"/>
<path d="M67.0437 52.7478V64.2702H50.0933V43.7297C50.0933 44.0661 50.2269 44.3887 50.4647 44.6266C50.7026 44.8644 51.0252 44.9981 51.3616 44.9981H52.0602C52.2452 44.9953 52.4277 44.9561 52.5975 44.8827C52.7672 44.8093 52.9209 44.7033 53.0497 44.5705C53.1784 44.4378 53.2798 44.2809 53.3479 44.109C53.416 43.9371 53.4497 43.7534 53.4468 43.5685V42.9881C53.441 42.6136 53.5836 42.252 53.8433 41.9822C54.1031 41.7124 54.459 41.5563 54.8334 41.5478H55.5965C55.9709 41.5563 56.3268 41.7124 56.5866 41.9822C56.8463 42.252 56.9889 42.6136 56.9831 42.9881V48.5343C56.9788 48.9153 57.1257 49.2825 57.3915 49.5555C57.5182 49.6873 57.67 49.7923 57.8381 49.8643C58.0061 49.9363 58.1869 49.9738 58.3697 49.9747C58.556 49.9719 58.7399 49.9324 58.911 49.8585C59.0821 49.7846 59.2369 49.6777 59.3667 49.5439C59.4964 49.4102 59.5985 49.2522 59.6672 49.079C59.7359 48.9057 59.7698 48.7207 59.767 48.5343V40.5159C59.7641 40.331 59.7977 40.1473 59.8659 39.9754C59.934 39.8035 60.0354 39.6467 60.1641 39.5139C60.2929 39.3812 60.4465 39.2751 60.6163 39.2017C60.7861 39.1284 60.9686 39.0892 61.1535 39.0864H61.9489C62.1338 39.0892 62.3164 39.1284 62.4862 39.2017C62.6559 39.2751 62.8096 39.3812 62.9383 39.5139C63.0671 39.6467 63.1684 39.8035 63.2366 39.9754C63.3047 40.1473 63.3383 40.331 63.3355 40.5159V52.7693C63.3297 53.1438 63.4722 53.5053 63.732 53.7751C63.9917 54.045 64.3476 54.2011 64.7221 54.2096H65.5819C65.9696 54.2096 66.3414 54.0556 66.6156 53.7814C66.8897 53.5073 67.0437 53.1355 67.0437 52.7478Z" fill="#7367DB"/>
<path d="M67.0438 64.9152H50.0933C49.9222 64.9152 49.7582 64.8472 49.6373 64.7263C49.5163 64.6053 49.4484 64.4413 49.4484 64.2703V43.7298C49.4484 43.5587 49.5163 43.3947 49.6373 43.2737C49.7582 43.1528 49.9222 43.0848 50.0933 43.0848C50.2643 43.0848 50.4284 43.1528 50.5493 43.2737C50.6702 43.3947 50.7382 43.5587 50.7382 43.7298C50.7382 43.8951 50.8039 44.0537 50.9208 44.1706C51.0377 44.2875 51.1963 44.3532 51.3616 44.3532H52.0603C52.1605 44.3504 52.2592 44.3279 52.3507 44.2869C52.4422 44.246 52.5248 44.1874 52.5937 44.1145C52.6626 44.0417 52.7164 43.9559 52.7521 43.8623C52.7879 43.7686 52.8048 43.6688 52.8019 43.5685V42.9881C52.7962 42.4426 53.0066 41.917 53.3873 41.5263C53.768 41.1355 54.2879 40.9114 54.8334 40.9029H55.5965C56.142 40.9114 56.6619 41.1355 57.0426 41.5263C57.4233 41.917 57.6338 42.4426 57.628 42.9881V48.5344C57.6261 48.6395 57.6451 48.744 57.6838 48.8418C57.7226 48.9396 57.7803 49.0287 57.8537 49.104C57.9205 49.1739 58.0005 49.2298 58.0891 49.2686C58.1777 49.3073 58.273 49.3281 58.3697 49.3298C58.4713 49.327 58.5714 49.3042 58.6642 49.2627C58.7571 49.2212 58.8408 49.1618 58.9107 49.088C58.9806 49.0141 59.0352 48.9272 59.0715 48.8322C59.1077 48.7372 59.1249 48.636 59.1221 48.5344V40.5159C59.1192 40.2463 59.1695 39.9788 59.2701 39.7286C59.3706 39.4785 59.5195 39.2506 59.7081 39.0579C59.8968 38.8653 60.1215 38.7117 60.3695 38.6059C60.6175 38.5002 60.8839 38.4443 61.1535 38.4415H61.9489C62.4925 38.45 63.0108 38.6726 63.3912 39.061C63.7716 39.4495 63.9833 39.9723 63.9804 40.5159V52.7693C63.9746 52.9728 64.0492 53.1703 64.188 53.3192C64.3268 53.4681 64.5187 53.5563 64.7221 53.5647H65.582C65.7986 53.5647 66.0064 53.4786 66.1596 53.3254C66.3128 53.1722 66.3988 52.9645 66.3988 52.7478C66.3988 52.5768 66.4668 52.4127 66.5877 52.2918C66.7087 52.1708 66.8727 52.1029 67.0438 52.1029C67.2148 52.1029 67.3788 52.1708 67.4998 52.2918C67.6207 52.4127 67.6887 52.5768 67.6887 52.7478V64.2703C67.6887 64.4413 67.6207 64.6053 67.4998 64.7263C67.3788 64.8472 67.2148 64.9152 67.0438 64.9152ZM50.7382 63.6253H66.3988V54.6825C66.1412 54.7952 65.8632 54.8537 65.582 54.8545H64.7221C64.1766 54.846 63.6567 54.6219 63.276 54.2311C62.8953 53.8404 62.6848 53.3148 62.6906 52.7693V40.5159C62.6935 40.4157 62.6765 40.3159 62.6408 40.2222C62.6051 40.1285 62.5512 40.0428 62.4824 39.9699C62.4135 39.8971 62.3309 39.8385 62.2394 39.7975C62.1479 39.7566 62.0492 39.7341 61.9489 39.7313H61.1535C61.0533 39.7341 60.9546 39.7566 60.8631 39.7975C60.7716 39.8385 60.689 39.8971 60.6201 39.9699C60.5512 40.0428 60.4974 40.1285 60.4617 40.2222C60.4259 40.3159 60.409 40.4157 60.4119 40.5159V48.5344C60.4147 48.8054 60.3642 49.0743 60.2631 49.3258C60.162 49.5772 60.0123 49.8063 59.8227 50C59.633 50.1936 59.4071 50.348 59.1578 50.4543C58.9085 50.5606 58.6407 50.6168 58.3697 50.6196C58.0998 50.6195 57.8327 50.5641 57.585 50.4569C57.3373 50.3496 57.1142 50.1929 56.9294 49.9962C56.7389 49.8039 56.5885 49.5756 56.487 49.3246C56.3855 49.0737 56.3349 48.805 56.3382 48.5344V42.9881C56.344 42.7846 56.2694 42.5871 56.1306 42.4382C55.9918 42.2893 55.7999 42.2011 55.5965 42.1927H54.8334C54.63 42.2011 54.4381 42.2893 54.2993 42.4382C54.1605 42.5871 54.0859 42.7846 54.0917 42.9881V43.5685C54.0946 43.8381 54.0443 44.1057 53.9437 44.3558C53.8432 44.606 53.6943 44.8339 53.5057 45.0265C53.317 45.2192 53.0923 45.3728 52.8443 45.4785C52.5963 45.5843 52.3299 45.6402 52.0603 45.643H51.3616C51.15 45.6441 50.9395 45.6115 50.7382 45.5463V63.6253Z" fill="black"/>
<path d="M61.9059 27.6821H55.2311C53.8684 27.6821 52.5616 28.2234 51.5981 29.187C50.6346 30.1505 50.0933 31.4573 50.0933 32.8199V33.0994H67.0437V32.8199C67.0437 31.4573 66.5024 30.1505 65.5389 29.187C64.5754 28.2234 63.2686 27.6821 61.9059 27.6821Z" fill="#7367DB"/>
<path d="M67.0438 33.7443H50.0933C49.9222 33.7443 49.7582 33.6764 49.6373 33.5554C49.5163 33.4345 49.4484 33.2705 49.4484 33.0994V32.82C49.4512 31.2872 50.0614 29.8179 51.1452 28.7341C52.2291 27.6502 53.6983 27.0401 55.2311 27.0372H61.9059C63.4396 27.0372 64.9105 27.6465 65.9949 28.731C67.0794 29.8154 67.6887 31.2863 67.6887 32.82V33.0994C67.6887 33.2705 67.6207 33.4345 67.4998 33.5554C67.3788 33.6764 67.2148 33.7443 67.0438 33.7443ZM50.7597 32.4545H66.3881C66.2938 31.3301 65.781 30.2821 64.951 29.5178C64.1209 28.7534 63.0343 28.3285 61.9059 28.3271H55.2311C54.1032 28.3262 53.0164 28.7507 52.1876 29.5157C51.3588 30.2807 50.8489 31.3301 50.7597 32.4545Z" fill="black"/>
<path d="M67.8499 33.0994H49.2979C49.013 33.0994 48.782 33.3304 48.782 33.6154V35.1664C48.782 35.4513 49.013 35.6823 49.2979 35.6823H67.8499C68.1349 35.6823 68.3659 35.4513 68.3659 35.1664V33.6154C68.3659 33.3304 68.1349 33.0994 67.8499 33.0994Z" fill="#E0E0E0"/>
<path d="M67.8392 36.324H49.2979C48.9901 36.324 48.6948 36.2017 48.4771 35.984C48.2594 35.7663 48.1371 35.471 48.1371 35.1632V33.6154C48.1371 33.4629 48.1671 33.312 48.2255 33.1711C48.2838 33.0303 48.3693 32.9023 48.4771 32.7945C48.5849 32.6867 48.7129 32.6012 48.8537 32.5429C48.9945 32.4846 49.1455 32.4545 49.2979 32.4545H67.8392C67.9916 32.4545 68.1426 32.4846 68.2834 32.5429C68.4243 32.6012 68.5522 32.6867 68.66 32.7945C68.7678 32.9023 68.8533 33.0303 68.9117 33.1711C68.97 33.312 69 33.4629 69 33.6154V35.1632C69 35.471 68.8777 35.7663 68.66 35.984C68.4423 36.2017 68.1471 36.324 67.8392 36.324ZM49.4269 35.0342H67.7102V33.7444H49.4269V35.0342Z" fill="black"/>
<path d="M67.8499 64.2703H49.2979C49.013 64.2703 48.782 64.5013 48.782 64.7862V66.3372C48.782 66.6222 49.013 66.8531 49.2979 66.8531H67.8499C68.1349 66.8531 68.3659 66.6222 68.3659 66.3372V64.7862C68.3659 64.5013 68.1349 64.2703 67.8499 64.2703Z" fill="#E0E0E0"/>
<path d="M67.8392 67.4948H49.2979C48.9901 67.4948 48.6948 67.3725 48.4771 67.1548C48.2594 66.9371 48.1371 66.6418 48.1371 66.334V64.7862C48.1371 64.4783 48.2594 64.183 48.4771 63.9653C48.6948 63.7476 48.9901 63.6253 49.2979 63.6253H67.8392C68.1471 63.6253 68.4423 63.7476 68.66 63.9653C68.8777 64.183 69 64.4783 69 64.7862V66.334C69 66.6418 68.8777 66.9371 68.66 67.1548C68.4423 67.3725 68.1471 67.4948 67.8392 67.4948ZM49.4269 66.205H67.7102V64.9152H49.4269V66.205Z" fill="black"/>
<path d="M56.3168 22.4154H60.8419V27.68H56.3168V22.4154Z" fill="#E0E0E0"/>
<path d="M60.8312 28.3271H56.3168C56.1457 28.3271 55.9817 28.2591 55.8608 28.1382C55.7398 28.0172 55.6719 27.8532 55.6719 27.6822V22.4154C55.6719 22.2443 55.7398 22.0803 55.8608 21.9593C55.9817 21.8384 56.1457 21.7704 56.3168 21.7704H60.8312C61.0022 21.7704 61.1663 21.8384 61.2872 21.9593C61.4082 22.0803 61.4761 22.2443 61.4761 22.4154V27.6822C61.4761 27.8532 61.4082 28.0172 61.2872 28.1382C61.1663 28.2591 61.0022 28.3271 60.8312 28.3271ZM56.9617 27.0372H60.1863V23.0603H56.9617V27.0372Z" fill="black"/>
<path d="M57.9075 24.1781H59.1113V25.468H57.9075V24.1781Z" fill="black"/>
<path d="M50.0933 52.952H58.2084V61.0661H50.0933V52.952Z" fill="#E0E0E0"/>
<path d="M58.2084 61.7121H50.0933C49.9222 61.7121 49.7582 61.6441 49.6373 61.5232C49.5163 61.4023 49.4484 61.2382 49.4484 61.0672V52.952C49.4484 52.781 49.5163 52.6169 49.6373 52.496C49.7582 52.375 49.9222 52.3071 50.0933 52.3071H58.2084C58.3795 52.3071 58.5435 52.375 58.6645 52.496C58.7854 52.6169 58.8534 52.781 58.8534 52.952V61.0672C58.8534 61.2382 58.7854 61.4023 58.6645 61.5232C58.5435 61.6441 58.3795 61.7121 58.2084 61.7121ZM50.7382 60.4223H57.5635V53.5969H50.7382V60.4223Z" fill="black"/>
<path d="M56.5855 56.628H55.2956V55.7144H54.296V54.4246H55.9405C56.1116 54.4246 56.2756 54.4925 56.3966 54.6135C56.5175 54.7344 56.5855 54.8984 56.5855 55.0695V56.628Z" fill="black"/>
<path d="M29.585 54.9405C30.7458 54.9405 31.681 53.8119 31.681 52.4254V41.2683C31.681 39.5808 32.8203 38.2158 34.2284 38.2158C36.4318 38.1405 37.109 37.2484 37.0015 33.2822C37.0015 33.2822 37.0015 30.2188 39.6241 30.466C40.8817 30.466 41.9028 31.6914 41.9028 33.2069V43.2461C41.9028 44.8154 42.9669 46.0944 44.2783 46.0944C45.5896 46.0944 46.6429 44.8154 46.6429 43.2461V28.2841C46.6429 24.6296 44.1815 21.6737 41.1397 21.6737H37.066C37.066 19.6422 35.6902 17.9977 34.0026 17.9977H33.8414C32.1431 17.9977 30.7781 19.6422 30.7781 21.6737C28.9616 21.6737 27.489 23.4365 27.489 25.6077V52.4254C27.489 53.8119 28.4241 54.9405 29.585 54.9405Z" fill="#FA5753"/>
<path d="M29.585 55.5854C28.0695 55.5854 26.8441 54.1666 26.8441 52.4253V25.6077C26.8441 23.329 28.2844 21.4265 30.1654 21.0825C30.4126 18.9866 31.9712 17.3528 33.8414 17.3528H34.0027C35.8622 17.3528 37.3992 18.9543 37.6679 21.0288H41.1397C44.5255 21.0288 47.2879 24.2856 47.2879 28.2841V43.2461C47.2879 45.1701 45.9336 46.7394 44.2783 46.7394C42.623 46.7394 41.2579 45.1701 41.2579 43.2461V33.2069C41.2579 32.0568 40.527 31.1109 39.6242 31.1109H39.5597C39.033 31.0572 38.6353 31.1754 38.3343 31.4441C37.6894 32.0353 37.6464 33.1854 37.6464 33.2821C37.7109 35.4749 37.5282 36.7002 37.0338 37.5386C36.3781 38.6349 35.2602 38.8284 34.2499 38.8607H34.2284C33.1858 38.8607 32.3259 39.9463 32.3259 41.2683V52.4253C32.3259 54.1666 31.1005 55.5854 29.585 55.5854ZM33.8414 18.6426C32.5086 18.6426 31.423 20.0077 31.423 21.6737C31.423 21.8447 31.3551 22.0088 31.2341 22.1297C31.1132 22.2507 30.9491 22.3186 30.7781 22.3186C29.3163 22.3186 28.1339 23.8019 28.1339 25.6077V52.4253C28.1339 53.4572 28.7896 54.2956 29.585 54.2956C30.3804 54.2956 31.0361 53.4572 31.0361 52.4253V41.2683C31.0361 39.2369 32.4656 37.5816 34.2176 37.5708C35.7439 37.5171 36.4748 37.3021 36.3566 33.3036V33.2821C36.3566 33.2177 36.3673 31.4871 37.4637 30.4875C38.0334 29.9716 38.775 29.7459 39.6564 29.8211C41.2579 29.8426 42.5478 31.3582 42.5478 33.2069V43.2461C42.5478 44.4607 43.3217 45.4495 44.2783 45.4495C45.2349 45.4495 45.998 44.4607 45.998 43.2461V28.2841C45.998 24.995 43.8161 22.3186 41.1397 22.3186H37.066C36.895 22.3186 36.7309 22.2507 36.61 22.1297C36.489 22.0088 36.4211 21.8447 36.4211 21.6737C36.4211 20.0077 35.3355 18.6426 34.0027 18.6426H33.8414Z" fill="black"/>
</svg>
