<svg width="82" height="82" viewBox="0 0 82 82" fill="none" xmlns="http://www.w3.org/2000/svg">
<circle cx="41" cy="41" r="41" fill="#0B2E60"/>
<path d="M20.8906 34V47.7812C24.6962 47.7812 27.7812 44.6962 27.7812 40.8906C27.7812 37.085 24.6962 34 20.8906 34Z" fill="#ECECEC"/>
<path d="M24.5 40.8906C24.5 37.085 22.8841 34 20.8906 34C17.085 34 14 37.085 14 40.8906C14 44.6962 17.085 47.7812 20.8906 47.7812C22.8841 47.7812 24.5 44.6962 24.5 40.8906Z" fill="white"/>
<path d="M41.1796 34V47.7812C44.9852 47.7812 48.0702 44.6962 48.0702 40.8906C48.0702 37.085 44.9852 34 41.1796 34Z" fill="#ECECEC"/>
<path d="M44.789 40.8906C44.789 37.085 43.1731 34 41.1796 34C37.374 34 34.289 37.085 34.289 40.8906C34.289 44.6962 37.374 47.7812 41.1796 47.7812C43.1731 47.7812 44.789 44.6962 44.789 40.8906Z" fill="white"/>
<path d="M61.4686 34V47.7812C65.2742 47.7812 68.3592 44.6962 68.3592 40.8906C68.3592 37.085 65.2742 34 61.4686 34Z" fill="#ECECEC"/>
<path d="M65.078 40.8906C65.078 37.085 63.4621 34 61.4686 34C57.663 34 54.578 37.085 54.578 40.8906C54.578 44.6962 57.663 47.7812 61.4686 47.7812C63.4621 47.7812 65.078 44.6962 65.078 40.8906Z" fill="white"/>
</svg>
