<svg width="82" height="82" viewBox="0 0 82 82" fill="none" xmlns="http://www.w3.org/2000/svg">
<circle cx="41" cy="41" r="41" fill="#0B2E60"/>
<path d="M32.5218 26.7482L29.6748 26.7633C29.436 25.4706 28.3003 24.4942 26.9395 24.5014C26.4258 24.5042 25.9458 24.6472 25.5348 24.8933C24.9354 23.8767 23.8275 23.1967 22.5623 23.2034C22.046 23.2061 21.5574 23.3236 21.1193 23.5304C20.3781 22.6224 19.2486 22.0446 17.9854 22.0514C15.7672 22.0632 13.9786 23.8708 13.9904 26.089C13.9907 26.1439 13.9921 26.1991 13.9946 26.2546C14.0794 28.1549 15.6958 29.6275 17.5979 29.6175L25.143 29.5774L28.9092 29.5574L32.583 29.538C33.3621 29.5338 33.9886 28.8917 33.9701 28.1095C33.952 27.3415 33.2899 26.7441 32.5218 26.7482Z" fill="#26A6FE"/>
<path d="M68.1089 45.9832C66.5345 45.4203 64.8367 45.1177 63.0678 45.1271C57.4685 45.1569 52.6152 48.3031 50.1421 52.9129C49.238 52.5243 48.2419 52.3098 47.195 52.3153C43.2129 52.3364 39.9853 55.51 39.8637 59.4581L68.1797 59.3077L68.1089 45.9832Z" fill="#00C27A"/>
<path d="M53.294 48.865C54.6932 50.1816 56.5807 50.9841 58.6537 50.973C62.9409 50.9503 66.3978 47.4564 66.375 43.1692C66.3523 38.882 62.8584 35.4251 58.5712 35.4479C54.284 35.4706 50.8271 38.9645 50.8498 43.2517C50.8539 44.0204 50.9696 44.7624 51.1814 45.4624" fill="#46CC8D"/>
<path d="M51.1815 45.4625C51.5798 46.7789 52.3182 47.947 53.294 48.865Z" fill="#46CC8D"/>
<path d="M58.5711 35.448C58.0216 35.4509 57.486 35.5117 56.9694 35.6231C60.4536 36.3719 63.0744 39.4587 63.0941 43.1693C63.1139 46.9069 60.4887 50.0408 56.9746 50.7981C57.5158 50.9144 58.0773 50.9761 58.6537 50.9732C62.9409 50.9504 66.3978 47.4565 66.3751 43.1695C66.3522 38.8822 62.8583 35.4251 58.5711 35.448Z" fill="#00C27A"/>
<path d="M65.6493 58.6421L56.6429 58.6899C55.0968 58.6981 53.6812 57.9362 52.9483 56.7016L45.2807 43.7851C44.6763 42.7669 43.5044 42.1325 42.2293 42.1333L37.6533 42.1365L37.6545 38.1441L44.4355 38.1395C45.9726 38.1384 47.3802 38.9003 48.1087 40.1279L55.7702 53.0342C56.3777 54.0575 57.5579 54.6928 58.8393 54.6859L65.628 54.6498L65.6493 58.6421Z" fill="#60B7FF"/>
<path d="M29.2691 19.6936L23.2719 27.3445L37.5855 27.2685L31.5074 19.6818C30.9318 18.9634 29.837 18.9692 29.2691 19.6936L23.2719 27.3445L37.5855 27.2685L31.5074 19.6818C30.9318 18.9634 29.837 18.9692 29.2691 19.6936Z" fill="#FD4755"/>
<path d="M23.3236 38.7599L37.6374 38.6883L37.653 41.8142L23.3392 41.8858L23.3236 38.7599Z" fill="#593636"/>
<path d="M23.2665 27.348L37.5803 27.2764L37.6374 38.6883L23.3236 38.7598L23.2665 27.348Z" fill="#AE6C6C"/>
<path d="M37.5855 27.2685L34.3048 27.2859L34.3653 38.6802L23.3324 38.7388L23.3325 38.7562L37.6462 38.6802L37.5855 27.2685Z" fill="#9B5E5E"/>
<path d="M33.2307 33.5153C33.6017 31.9938 32.669 30.4596 31.1474 30.0886C29.6259 29.7176 28.0917 30.6503 27.7207 32.1719C27.3498 33.6934 28.2825 35.2276 29.804 35.5986C31.3255 35.9695 32.8597 35.0369 33.2307 33.5153Z" fill="#0172FB"/>
<path d="M33.2307 33.5153C33.6017 31.9938 32.669 30.4596 31.1474 30.0886C29.6259 29.7176 28.0917 30.6503 27.7207 32.1719C27.3498 33.6934 28.2825 35.2276 29.804 35.5986C31.3255 35.9695 32.8597 35.0369 33.2307 33.5153Z" fill="#593636"/>
<path d="M67.362 61.7915L14.6541 62.0715C14.2002 62.0739 13.8302 61.7079 13.8278 61.2539L13.8201 59.8227C13.8177 59.3687 14.1838 58.9988 14.6377 58.9963L67.3456 58.7164C67.7996 58.714 68.1695 59.08 68.172 59.534L68.1795 60.9652C68.1821 61.4191 67.816 61.7891 67.362 61.7915Z" fill="#D9E7EC"/>
<path d="M17.9397 54.5279C17.9582 58.0163 19.4945 58.0586 21.3892 58.0485C23.284 58.0385 24.8196 57.98 24.8011 54.4915C24.7827 51.003 23.2174 45.4953 21.3226 45.5053C19.4279 45.5154 17.9212 51.0395 17.9397 54.5279Z" fill="#08B865"/>
<path d="M25.3079 54.9548C24.9928 54.9564 24.6925 55.0193 24.4172 55.1309C23.8971 54.5242 23.1241 54.141 22.2624 54.1456C21.8543 54.1478 21.4673 54.2373 21.118 54.3953C20.4946 53.243 19.273 52.4628 17.8715 52.4704C15.8462 52.4811 14.2132 54.1316 14.2239 56.1569C14.2301 57.3199 14.7777 58.3528 15.6258 59.0202L27.1167 58.9591C27.4982 58.531 27.729 57.9657 27.7257 57.347C27.7187 56.0188 26.6362 54.9478 25.3079 54.9548Z" fill="#6ED5A1"/>
<path d="M61.7933 18.3905L59.5444 18.4024C59.0342 17.5417 58.0944 16.9664 57.0215 16.9722C56.8947 16.9728 56.7707 16.9844 56.6483 17.0007C56.254 14.6181 54.1784 12.8066 51.686 12.8198C49.202 12.8331 47.1515 14.6544 46.7725 17.0296C45.192 17.0707 43.9269 18.3665 43.9353 19.9551C43.9353 19.9619 43.9355 19.9686 43.9356 19.9754C43.9475 20.9582 44.7728 21.7375 45.7558 21.7323L53.1259 21.6931L59.3444 21.6601L61.8106 21.647C62.7099 21.6421 63.4351 20.9093 63.4302 20.01C63.4254 19.1109 62.6926 18.3857 61.7933 18.3905Z" fill="#8AC9FE"/>
<path d="M61.7473 18.3907L59.5444 18.4024C59.0343 17.5417 58.0944 16.9665 57.0216 16.9722C56.8947 16.9728 56.7707 16.9843 56.6483 17.0007C56.2541 14.618 54.1784 12.8066 51.686 12.8198C50.2753 12.8274 49.0047 13.4186 48.1004 14.3628C48.2013 14.3561 48.3027 14.3514 48.4052 14.3509C50.7609 14.3384 52.7444 15.9561 53.2876 18.1455C53.3365 18.3428 53.5374 18.5046 53.7406 18.5032C54.558 18.4989 55.298 18.8318 55.8299 19.3711C56.1786 19.7249 56.6494 19.9314 57.1462 19.9288L58.5124 19.9216C59.4117 19.9167 60.1446 20.6419 60.1493 21.5412C60.1495 21.5799 60.1466 21.6179 60.1442 21.6559L61.8105 21.6472C62.7358 21.6422 63.4769 20.8664 63.4279 19.9316C63.3821 19.0558 62.6242 18.386 61.7473 18.3907Z" fill="#60B7FF"/>
<path d="M30.4776 36.4922C32.4927 36.4815 34.1234 34.8336 34.1128 32.8183C34.1075 31.8422 33.7226 30.9265 33.0287 30.2399C32.3395 29.5579 31.4276 29.1832 30.4588 29.1832C30.4522 29.1832 30.4454 29.1833 30.4388 29.1833C29.4626 29.1884 28.5469 29.5735 27.8602 30.2674C27.1737 30.9613 26.7984 31.881 26.8036 32.8573C26.8088 33.8334 27.1938 34.7491 27.8877 35.4357C28.5769 36.1176 29.4887 36.4925 30.4575 36.4925C30.4641 36.4923 30.4709 36.4922 30.4776 36.4922ZM28.444 32.8484C28.4412 32.3105 28.648 31.8036 29.0264 31.4211C29.4049 31.0387 29.9094 30.8265 30.4475 30.8237C30.4512 30.8236 30.4548 30.8236 30.4586 30.8236C30.9925 30.8236 31.4951 31.0302 31.8749 31.4059C32.2573 31.7843 32.4696 32.289 32.4723 32.827C32.4752 33.3649 32.2684 33.8719 31.89 34.2544C31.5116 34.6368 31.0069 34.849 30.4689 34.8518C30.4652 34.8519 30.4616 34.8519 30.4579 34.8519C29.924 34.8519 29.4214 34.6453 29.0416 34.2696C28.6591 33.8911 28.4468 33.3864 28.444 32.8484Z" fill="black"/>
<path d="M68.9292 45.9787C68.9272 45.6338 68.7099 45.3271 68.3851 45.2109C67.9477 45.0545 67.4995 44.9176 67.0481 44.8009C67.1477 44.267 67.1982 43.72 67.1952 43.1649C67.1702 38.4477 63.3247 34.6276 58.6131 34.6276C58.5978 34.6276 58.5821 34.6276 58.5668 34.6277C56.2743 34.6398 54.1238 35.544 52.5113 37.1737C51.2164 38.4823 50.3945 40.1333 50.1265 41.9199L48.8141 39.7089C47.9388 38.2345 46.2627 37.3189 44.4387 37.3189C44.4375 37.3189 44.4362 37.3189 44.4349 37.3189L44.2107 37.3191L44.1908 33.5849L45.5482 33.5777C46.0012 33.5753 46.3664 33.2061 46.364 32.7531C46.3616 32.3 45.9874 31.9349 45.5395 31.9373L38.4307 31.975C38.4307 31.975 38.3933 27.1302 38.3921 27.1234C38.3848 27.0826 38.3747 27.0429 38.3617 27.0045C38.3602 26.9999 38.3583 26.9954 38.3567 26.9908C38.3268 26.9077 38.2841 26.831 38.2306 26.7628C38.2287 26.7605 38.2275 26.7578 38.2257 26.7555L32.1476 19.1688C31.7157 18.6296 31.0721 18.3209 30.3811 18.3262C30.344 18.3265 30.3069 18.3276 30.2701 18.3295C29.629 18.364 29.0396 18.6665 28.6368 19.1708C28.6324 19.1763 28.6279 19.1819 28.6236 19.1875L25.328 23.3919C24.5658 22.7441 23.5968 22.3832 22.5808 22.3832C22.5732 22.3832 22.5654 22.3832 22.558 22.3833C22.1416 22.3855 21.7351 22.447 21.3433 22.5667C20.4479 21.711 19.2624 21.2312 18.0074 21.2312C17.9986 21.2312 17.9898 21.2312 17.9811 21.2312C15.3143 21.2454 13.1562 23.4266 13.1703 26.0939C13.1706 26.1592 13.1724 26.2249 13.1752 26.2913C13.2793 28.621 15.2109 30.4378 17.5778 30.4377C17.5859 30.4377 17.5942 30.4377 17.6024 30.4376L22.4789 30.4117L22.4953 32.2703C22.4993 32.7232 22.871 33.0894 23.3228 33.0832C23.7757 33.0791 24.1397 32.7087 24.1357 32.2557L24.0995 28.1602L36.7698 28.093L36.8217 37.8643L24.1484 37.9316L24.1358 35.5395C24.1334 35.0881 23.7666 34.7237 23.3157 34.7237C23.3141 34.7237 23.3127 34.7237 23.3112 34.7237C22.8582 34.7261 22.4929 35.0953 22.4953 35.5483L22.5124 38.7606L22.529 41.8864C22.529 41.888 22.5292 41.8894 22.5292 41.8908C22.5292 41.8921 22.529 41.8934 22.5291 41.8947L22.5797 45.1367C22.1862 44.8362 21.7689 44.685 21.3287 44.685C21.3253 44.685 21.3218 44.685 21.3184 44.685C18.7042 44.6988 17.6259 50.0578 17.3592 51.6825C15.1248 51.9477 13.3916 53.8589 13.4038 56.1613C13.4078 56.9311 13.6059 57.67 13.9692 58.3211C13.7872 58.403 13.6194 58.5172 13.4749 58.6633C13.1664 58.9751 12.9977 59.3883 13 59.827L13.0076 61.2582C13.0125 62.1608 13.7482 62.8917 14.6496 62.8916H14.6585L67.3664 62.6116C68.2718 62.6067 69.0046 61.8661 68.9998 60.9607L68.9292 45.9787ZM67.292 46.5748L67.3541 57.8966C67.3499 57.8966 67.3457 57.896 67.3414 57.8961L66.4656 57.9008L66.4483 54.6453C66.4471 54.4278 66.3596 54.2197 66.205 54.0666C66.0503 53.9136 65.8377 53.8252 65.6237 53.8295L59.4021 53.8626L59.391 51.7566C61.406 51.5765 63.2744 50.7018 64.7136 49.2472C65.5393 48.4127 66.1718 47.4385 66.5923 46.3792C66.8267 46.4389 67.0606 46.5028 67.292 46.5748ZM36.8303 39.5048L36.8337 40.142L36.8335 40.9902L33.3405 41.0088C33.339 41.0088 33.3376 41.0088 33.336 41.0088C33.3358 41.0088 33.3357 41.0088 33.3355 41.0088L27.2958 41.041C27.2955 41.041 27.2954 41.041 27.2952 41.041C27.295 41.041 27.2949 41.041 27.2947 41.041L24.1651 41.0576L24.1572 39.572L36.8303 39.5048ZM32.5526 47.9502L28.1603 47.9735L28.1485 46.1454L32.5428 46.1221L32.5526 47.9502ZM28.1709 49.614L32.5612 49.5907L32.5709 51.4188L28.1827 51.442L28.1709 49.614ZM32.5341 44.4817L28.1378 44.505L28.126 42.6769L32.5244 42.6536L32.5341 44.4817ZM25.6151 54.1486C25.5609 52.3538 25.1579 50.1919 24.5401 48.4168C24.4491 48.1554 24.3555 47.9083 24.2597 47.674L24.1821 42.6979L26.4855 42.6856L26.5612 54.3831C26.2655 54.2593 25.9473 54.1788 25.6151 54.1486ZM28.2085 55.9255C28.21 55.9044 28.2114 55.8833 28.2113 55.8619L28.1933 53.0824L32.5796 53.0592L32.6063 58.0807L28.459 58.1028C28.5174 57.8558 28.5473 57.601 28.546 57.3428C28.5433 56.8338 28.4216 56.3529 28.2085 55.9255ZM34.2468 58.0719L34.1649 42.6449L36.847 42.6306L36.9289 58.0577L34.2468 58.0719ZM38.5693 58.049L38.4891 42.956L42.2298 42.9535H42.2319C43.2197 42.9535 44.1176 43.4325 44.5754 44.2038L49.0213 51.6932C48.4249 51.5603 47.8143 51.4937 47.1906 51.4952C43.3112 51.5158 39.9779 54.2621 39.207 58.0456L38.5693 58.049ZM47.1992 53.1356C48.1057 53.1336 48.9873 53.3095 49.818 53.6665C49.9519 53.7241 50.0929 53.7424 50.229 53.7278L52.2429 57.1203C52.4274 57.4311 52.6491 57.7152 52.8982 57.9729L40.8917 58.0366C41.6309 55.1865 44.2127 53.1514 47.1992 53.1356ZM57.7606 53.6722C57.2178 53.464 56.7614 53.097 56.4755 52.6153L55.6818 51.2782C56.3453 51.519 57.0389 51.6788 57.7504 51.7496L57.7606 53.6722ZM59.4108 55.503L64.8122 55.4743L64.8247 57.8263L59.4232 57.855L59.4108 55.503ZM51.67 43.2474C51.6602 41.3931 52.373 39.6458 53.6773 38.3277C54.9815 37.0095 56.7211 36.278 58.5755 36.2682C58.588 36.2681 58.6002 36.2681 58.6129 36.2681C62.4237 36.2681 65.5344 39.3583 65.5547 43.1736C65.5645 45.0281 64.8517 46.7752 63.5474 48.0934C62.4166 49.2363 60.9585 49.9371 59.3821 50.11L59.3573 45.4439L61.4623 43.3163C61.7808 42.9944 61.7781 42.475 61.456 42.1564C61.1342 41.838 60.6148 41.8405 60.2962 42.1627L59.3449 43.124L59.3387 41.9451C59.3363 41.4921 58.9629 41.1293 58.5141 41.1292C58.0611 41.1316 57.6959 41.5008 57.6983 41.9538L57.7159 45.2717L56.8285 44.3938C56.5065 44.0752 55.9872 44.078 55.6686 44.4C55.3501 44.722 55.3528 45.2413 55.6749 45.5599L57.7282 47.5916L57.7416 50.0971C56.327 49.92 55.0046 49.3135 53.9386 48.3418L51.8648 44.8484C51.7388 44.3273 51.6729 43.7892 51.67 43.2474ZM44.436 38.9596H44.4386C45.6863 38.9596 46.8223 39.5675 47.4033 40.5465L52.5713 49.2524C52.5811 49.2707 52.592 49.2886 52.6032 49.3063L55.0647 53.4529C55.6449 54.4303 56.6311 55.1183 57.7695 55.3838L57.7826 57.8638L56.6382 57.8699C56.6313 57.8699 56.6247 57.8699 56.6179 57.8699C55.3697 57.8699 54.2351 57.2632 53.6533 56.283L45.9858 43.3665C45.2338 42.0998 43.7956 41.3133 42.2316 41.3133C42.2306 41.3133 42.2294 41.3133 42.2285 41.3133L38.4802 41.3158L38.4739 40.1384L38.4743 38.9637L44.436 38.9596ZM42.5702 37.3204L41.3395 37.3212L41.3197 33.6003L42.5504 33.5938L42.5702 37.3204ZM39.6793 33.6091L39.699 37.3224L38.4591 37.3233L38.4394 33.6157L39.6793 33.6091ZM29.9146 20.1996C30.0723 19.9984 30.2799 19.9673 30.3897 19.9668C30.5009 19.9693 30.7074 19.9951 30.8673 20.1946L35.8846 26.4573L24.9641 26.5152L29.9146 20.1996ZM17.5936 28.7972C16.1208 28.8055 14.8779 27.648 14.814 26.2183C14.812 26.1735 14.8109 26.1287 14.8106 26.0848C14.8013 24.3224 16.2275 22.881 17.9898 22.8716H18.007C18.9706 22.8716 19.8725 23.3002 20.484 24.0491C20.7223 24.3411 21.1288 24.4332 21.4695 24.2722C21.8146 24.1094 22.1837 24.0258 22.5668 24.0238C23.2177 24.0188 23.8361 24.258 24.3144 24.6853L22.6264 26.8385C22.6243 26.8412 22.6229 26.8443 22.6208 26.847C22.5967 26.8785 22.5751 26.9116 22.5559 26.946C22.5536 26.9502 22.551 26.954 22.5487 26.9581C22.5299 26.9933 22.5144 27.0299 22.5009 27.0674C22.4982 27.0749 22.4954 27.0825 22.4929 27.09C22.4808 27.1271 22.4643 28.7714 22.4643 28.7714L17.5936 28.7972ZM20.0698 47.9859C20.6044 46.7696 21.1145 46.3266 21.327 46.3254H21.3279C21.6174 46.3254 22.3236 47.0388 22.9909 48.9559C23.4968 50.4095 23.853 52.2056 23.9523 53.7344C23.4408 53.4688 22.8682 53.3254 22.2775 53.3254C22.271 53.3254 22.2645 53.3255 22.258 53.3255C21.9869 53.327 21.7203 53.3579 21.4603 53.418C20.845 52.6096 19.9772 52.0397 19.0021 51.791C19.2368 50.3781 19.6178 49.0141 20.0698 47.9859ZM17.8757 53.2907H17.891C18.9379 53.2907 19.897 53.8625 20.3965 54.7856C20.6012 55.1641 21.0635 55.32 21.4559 55.1428C21.7121 55.027 21.9849 54.9674 22.2669 54.966C22.8558 54.9645 23.4111 55.2176 23.7946 55.6649C24.0241 55.9325 24.399 56.0235 24.7257 55.8911C24.9129 55.8152 25.1102 55.7761 25.3124 55.7751H25.321C26.191 55.7751 26.9012 56.4806 26.9058 57.3516C26.9072 57.6196 26.8405 57.8803 26.7153 58.1121L15.8992 58.1695C15.3569 57.6392 15.0484 56.9201 15.0442 56.1528C15.0357 54.5829 16.306 53.299 17.8757 53.2907ZM67.3576 60.9713L14.648 61.2496L14.6422 59.8166L15.4242 59.8124C15.49 59.8292 15.5572 59.8405 15.6259 59.8405H15.6303L67.3519 59.5384L67.3589 60.9713C67.3589 60.9713 67.3585 60.9713 67.3576 60.9713Z" fill="black"/>
<path d="M45.7457 22.5526H45.76L50.2841 22.5287C50.7371 22.5263 51.1023 22.1572 51.0999 21.7041C51.0975 21.2525 50.7307 20.8882 50.2798 20.8882C50.2783 20.8882 50.2769 20.8882 50.2755 20.8882L45.7513 20.9122C45.7494 20.9122 45.7477 20.9122 45.7458 20.9122C45.2058 20.9122 44.762 20.4885 44.7557 19.9624L44.7556 19.9509C44.7495 18.8216 45.6639 17.8791 46.7938 17.8497C47.1887 17.8395 47.5203 17.5491 47.5824 17.159C47.9059 15.131 49.6335 13.6511 51.6904 13.6402H51.7135C53.7703 13.6402 55.5034 15.1065 55.8391 17.1349C55.9115 17.5721 56.3182 17.8729 56.7572 17.8139C56.863 17.7998 56.9484 17.793 57.026 17.7926H57.0371C57.7729 17.7926 58.4625 18.1859 58.839 18.8209C58.9868 19.0701 59.255 19.2229 59.5446 19.2229H59.549L61.7979 19.211H61.8023C62.2459 19.211 62.6079 19.5707 62.6102 20.0148C62.6126 20.4604 62.252 20.8248 61.8064 20.8272L53.1217 20.8734C52.6752 20.8758 52.3125 21.235 52.306 21.6816C52.2994 22.1281 52.6512 22.4978 53.0975 22.5134L53.5324 22.5285C53.602 22.5308 53.6693 22.5246 53.7342 22.5106L61.8152 22.4678C63.1653 22.4605 64.2578 21.3563 64.2507 20.0062C64.2434 18.6604 63.1466 17.5708 61.8024 17.5708C61.798 17.5708 61.7934 17.5708 61.7891 17.5708L59.9728 17.5804C59.3232 16.7559 58.347 16.2355 57.2963 16.1614C56.5747 13.7082 54.333 12 51.7139 12C51.7034 12 51.6925 12 51.6819 12.0001C49.0305 12.0142 46.772 13.7823 46.0945 16.2865C44.3931 16.6413 43.1058 18.1694 43.1153 19.9622L43.1157 19.9858C43.1326 21.4039 44.3113 22.5526 45.7457 22.5526Z" fill="black"/>
</svg>
