<svg width="82" height="82" viewBox="0 0 82 82" fill="none" xmlns="http://www.w3.org/2000/svg">
<circle cx="41" cy="41" r="41" fill="#0B2E60"/>
<path fill-rule="evenodd" clip-rule="evenodd" d="M29.2347 65.9879H21.4416L25.5679 52.2819H31.671L29.2347 65.9879ZM44.9109 65.9879H37.1177L37.9627 52.2819H44.0658L44.9109 65.9879ZM60.5869 65.9879H52.7938L50.3575 52.2819H56.4607L60.5869 65.9879ZM14.7643 65.9879V52.2819H19.388L14.7643 65.9879ZM67.2643 52.2819V65.9879L62.6405 52.2819H67.2643Z" fill="#636C77"/>
<path fill-rule="evenodd" clip-rule="evenodd" d="M43.485 24.1781L42.3291 31.3501H44.2962L49.3741 36.4509C50.2204 37.3019 51.5964 37.3057 52.4475 36.4594C53.2985 35.613 53.3024 34.237 52.456 33.3858L43.485 24.1781Z" fill="#4FC0E8"/>
<path d="M45.0305 19.6358C46.4362 18.2301 46.4362 15.951 45.0305 14.5453C43.6248 13.1396 41.3457 13.1396 39.94 14.5453C38.5343 15.951 38.5343 18.2301 39.94 19.6358C41.3457 21.0415 43.6248 21.0415 45.0305 19.6358Z" fill="#EFC7A4"/>
<path fill-rule="evenodd" clip-rule="evenodd" d="M28.0381 53.5303C27.3295 54.692 27.6966 56.2083 28.8583 56.9171C30.02 57.6257 31.5373 57.257 32.2451 56.0969C35.796 50.2428 39.4334 44.4165 42.8565 38.4875L39.9134 33.7871C36.0743 40.4363 32.0275 46.9701 28.0381 53.5303Z" fill="#4FC0E8"/>
<path fill-rule="evenodd" clip-rule="evenodd" d="M54.1926 53.3154C54.6722 54.5889 54.0285 56.0103 52.7549 56.4899C51.4814 56.9695 50.06 56.3258 49.5804 55.0523L46.1092 45.858L39.2636 38.4951C38.5611 37.6351 38.3981 37.6834 38.3981 36.4115V29.574L35.6045 31.0414L34.448 37.6504C34.2411 38.8352 33.1128 39.6281 31.928 39.4213C30.7431 39.2143 29.9502 38.0861 30.1571 36.9011L31.4976 29.2407C31.626 28.5054 32.1093 27.9211 32.7408 27.633L39.9673 23.6009C40.1535 23.5028 40.5611 23.2568 41.3472 23.2568C42.9712 23.2568 44.2964 24.5818 44.2964 26.2059V36.5135L49.9713 42.796C50.2242 43.0411 50.4284 43.3445 50.5608 43.6961L54.1926 53.3154Z" fill="#66D4F1"/>
<path fill-rule="evenodd" clip-rule="evenodd" d="M42.4899 14.2534C44.053 14.2534 45.3236 15.5257 45.3236 17.0888C45.3236 18.6513 44.0529 19.9226 42.4899 19.9226C40.9268 19.9226 39.6561 18.6513 39.6561 17.0888C39.6561 15.5257 40.9268 14.2534 42.4899 14.2534ZM42.4899 21.4536C44.897 21.4536 46.8553 19.4948 46.8553 17.0886C46.8553 14.6811 44.897 12.7223 42.4899 12.7223C40.0828 12.7223 38.1245 14.6811 38.1245 17.0886C38.1245 19.4948 40.0828 21.4536 42.4899 21.4536ZM37.9335 65.2224L38.6834 53.048H43.3463L44.0977 65.2224H37.9335ZM44.8306 52.2353C44.8065 51.8318 44.4709 51.5168 44.0674 51.5168H37.964C37.5594 51.5168 37.2249 51.8318 37.1996 52.2353L36.3541 65.9409C36.3417 66.1519 36.4163 66.3588 36.5605 66.5127C36.705 66.666 36.9073 66.7535 37.1184 66.7535H44.9115C45.1224 66.7535 45.3252 66.666 45.4694 66.5127C45.6151 66.3588 45.6891 66.1519 45.6763 65.9409L44.8306 52.2353ZM53.4364 65.2224L52.0473 57.4097C52.3741 57.3932 52.7035 57.3279 53.0262 57.2064C53.8332 56.9022 54.4729 56.3017 54.8296 55.5162C55.1853 54.7309 55.2135 53.8539 54.9104 53.048H55.8929L59.5579 65.2224H53.4364ZM46.8264 45.5873L50.2984 54.7814C50.6283 55.6589 51.6098 56.1035 52.4857 55.7736C52.9103 55.6135 53.2469 55.2975 53.4353 54.8843C53.6221 54.472 53.6365 54.0104 53.4764 53.5858L49.8455 43.9667C49.7559 43.7289 49.6191 43.52 49.4395 43.3454C49.4277 43.3342 49.4157 43.3222 49.4045 43.3089L43.7292 37.0264C43.6021 36.8864 43.531 36.7026 43.531 36.5138V26.206C43.531 25.6198 43.298 25.0882 42.9212 24.6955L42.8836 24.6563C42.4889 24.2646 41.9464 24.0228 41.3479 24.0228C40.8023 24.0228 40.5301 24.1684 40.3669 24.2559L40.335 24.2724L33.1143 28.3017C33.0968 28.3115 33.0783 28.3212 33.0597 28.33C32.6341 28.5235 32.3335 28.9131 32.2527 29.3722L30.9124 37.0331C30.7781 37.7999 31.2933 38.5328 32.0601 38.6671C32.4317 38.7314 32.8069 38.6486 33.1151 38.4309C33.4239 38.2142 33.6293 37.8905 33.6952 37.5184L34.8511 30.9091C34.8913 30.6754 35.0395 30.4742 35.2489 30.3635L38.0426 28.8967C38.2798 28.7721 38.5655 28.7799 38.795 28.9183C39.025 29.0573 39.165 29.3058 39.165 29.5735V36.4118C39.165 37.1992 39.165 37.1992 39.5521 37.6475C39.6365 37.7474 39.7322 37.8585 39.8418 37.9913L46.6714 45.3366C46.7379 45.4092 46.7915 45.4942 46.8264 45.5873ZM31.5929 55.6979L40.5444 40.9959L38.7034 39.016C38.6926 39.0042 38.6813 38.9919 38.6715 38.9801C38.5655 38.8498 38.4723 38.7428 38.3915 38.6476C38.304 38.5467 38.2273 38.4541 38.1573 38.3639L28.6931 53.928C28.4559 54.3166 28.3848 54.7726 28.4919 55.2136C28.5978 55.6542 28.8706 56.0272 29.2577 56.2635C29.6447 56.4997 30.1008 56.5707 30.5418 56.4647C30.9835 56.3572 31.3566 56.085 31.5929 55.6979ZM28.5939 65.2224H22.4724L26.1383 53.048H27.4363L27.3853 53.1319C26.9365 53.8683 26.8002 54.7355 27.0035 55.5734C27.2068 56.4124 27.724 57.1211 28.4605 57.5703C28.9041 57.8405 29.3869 57.9903 29.8722 58.0299L28.5939 65.2224ZM52.3241 34.9225C52.3226 35.2982 52.1748 35.6518 51.9083 35.9164C51.6422 36.1814 51.2845 36.3234 50.9119 36.3255C50.5367 36.3255 50.1837 36.1778 49.9175 35.9112L45.0627 31.0296V26.8942L51.9134 33.9261C52.1795 34.1926 52.3251 34.5457 52.3241 34.9225ZM57.1944 52.0613C57.0971 51.7376 56.7996 51.5168 56.4615 51.5168H54.3318L51.2783 43.4263C51.112 42.9851 50.8583 42.5946 50.5244 42.2657L45.0627 36.2194V33.2009L48.8327 36.9904C49.3859 37.5472 50.123 37.8545 50.9088 37.8566H50.916C51.6983 37.8566 52.4343 37.5539 52.9886 37.0027C53.5454 36.4489 53.8528 35.7119 53.8553 34.9265C53.8573 34.1411 53.5532 33.4031 53.0051 32.8513L44.02 23.6291C43.3443 22.9281 42.3957 22.4917 41.3479 22.4917C40.4173 22.4917 39.875 22.7825 39.6429 22.9065L39.6115 22.924C39.6058 22.9271 39.6001 22.9292 39.595 22.9322L32.3938 26.9508C31.525 27.359 30.9095 28.1628 30.7443 29.1087L29.4031 36.7696C29.1246 38.3686 30.1982 39.8967 31.7973 40.1756C32.5719 40.311 33.3531 40.136 33.9959 39.6841C34.6393 39.2327 35.068 38.5564 35.2033 37.7824L36.2949 31.5446L37.6335 30.8416V36.2796L28.3675 51.5168H25.5687C25.2306 51.5168 24.9331 51.7376 24.8358 52.0613L20.7087 65.7669C20.6403 65.999 20.684 66.2506 20.8282 66.4452C20.9728 66.6387 21.2003 66.7535 21.4432 66.7535H29.2357C29.6068 66.7535 29.9249 66.488 29.9892 66.1226L31.477 57.752C32.0479 57.4941 32.5497 57.0695 32.9001 56.4952L41.6283 42.1617L45.4477 46.2687L48.8656 55.3217C49.1605 56.1081 49.7338 56.7107 50.4306 57.0628L52.0405 66.1215C52.1064 66.4879 52.4234 66.7534 52.795 66.7534H60.5881C60.83 66.7534 61.0574 66.6387 61.2031 66.4451C61.3472 66.2505 61.3909 65.9989 61.3209 65.7668L57.1944 52.0613ZM66.5001 61.3233L63.7055 53.048H66.5001V61.3233ZM67.2669 51.5168H62.64C62.393 51.5168 62.1614 51.6346 62.0224 51.8349C61.8731 52.0362 61.8371 52.293 61.9143 52.5271L66.5412 66.2332C66.6442 66.5482 66.9426 66.7535 67.2669 66.7535C67.3081 66.7535 67.3493 66.7505 67.3904 66.7437C67.761 66.6824 68.0286 66.3629 68.0286 65.9877V52.2821C68.0286 51.8591 67.6889 51.5168 67.2669 51.5168ZM15.5311 61.3233V53.048H18.3222L15.5311 61.3233ZM19.389 51.5168H14.7653C14.3422 51.5168 14 51.8591 14 52.2821V65.9877C14 66.3629 14.2712 66.6824 14.6407 66.7437C14.6824 66.7504 14.7241 66.7535 14.7653 66.7535C15.0895 66.7535 15.3845 66.5481 15.4905 66.2332L20.1143 52.5271C20.1925 52.293 20.1544 52.0362 20.0114 51.8349C19.8667 51.6346 19.6361 51.5168 19.389 51.5168Z" fill="black"/>
</svg>
