<svg width="82" height="82" viewBox="0 0 82 82" fill="none" xmlns="http://www.w3.org/2000/svg">
<circle cx="41" cy="41" r="41" fill="#0B2E60"/>
<path d="M18.1314 34.0988C17.7202 34.098 17.3224 33.9527 17.0076 33.6883C16.6927 33.424 16.4808 33.0573 16.4088 32.6525L16.2295 31.6353C16.1602 31.237 16.2305 30.827 16.4287 30.4746C16.6268 30.1222 16.9405 29.849 17.3169 29.7011L19.8106 28.7277C20.0518 28.6336 20.3109 28.5942 20.5692 28.6124C20.8275 28.6305 21.0785 28.7058 21.3042 28.8327C21.5299 28.9595 21.7246 29.1349 21.8743 29.3462C22.024 29.5574 22.125 29.7992 22.1699 30.0542L22.5925 32.4495C22.6124 32.5627 22.6099 32.6787 22.585 32.7909C22.5601 32.9031 22.5134 33.0093 22.4475 33.1034C22.3815 33.1976 22.2977 33.2778 22.2008 33.3395C22.1038 33.4012 21.9957 33.4433 21.8825 33.4632L18.4358 34.0709C18.3353 34.089 18.2335 34.0984 18.1314 34.0988Z" fill="#42A5F5"/>
<path d="M64.408 42.847L52.3439 44.9742L50.4684 44.4164L36.6814 46.8474L35.1099 48.013L23.0458 50.1403L21.0973 39.0885C20.8858 37.8887 21.1595 36.654 21.8584 35.656L24.3157 32.1463L57.0606 26.3725L60.5701 28.83C61.0643 29.176 61.4854 29.6159 61.8096 30.1247C62.1337 30.6335 62.3545 31.2012 62.4592 31.7952L64.408 42.847Z" fill="#42A5F5"/>
<path d="M16.283 55.5691V52.0691H20.658L21.9705 55.5691L23.283 59.0691L32.908 57.3191L34.075 55.5691L36.408 52.0691H67.033V55.5691V62.5691H16.283V55.5691Z" fill="#607D8B"/>
<path d="M49.9884 38.1628C49.1452 38.9683 48.0825 39.5061 46.9342 39.7086L45.7595 39.9157C44.8565 40.0749 43.9288 40.0217 43.0499 39.7603L42.511 39.6004L42.0594 39.9354C41.323 40.4816 40.4695 40.8489 39.5666 41.0081L38.3922 41.2152C37.2439 41.4176 36.0613 41.2757 34.9935 40.8072C34.1883 40.4537 33.5438 39.8129 33.1857 39.0097L32.2729 36.9629L38.2229 35.9138C38.8481 35.8035 39.4871 35.7948 40.1151 35.888L41.9041 36.1533L43.4944 35.2921C44.0527 34.9898 44.656 34.7795 45.2812 34.6693L51.2312 33.6202L51.0734 35.8558C51.0113 36.733 50.6244 37.5556 49.9884 38.1628Z" fill="#258ADB"/>
<path d="M57.0601 26.3725L45.2389 28.4572H45.2378L43.0317 28.8466L40.9306 29.2163L38.7234 29.6057L24.3154 32.1464L26.4111 25.1016C26.6195 24.4009 27.019 23.7721 27.5647 23.2856C28.1105 22.7992 28.7809 22.4744 29.5009 22.3475L44.0959 19.7739L46.3042 19.3846L48.4064 19.0138L48.8362 18.9383C49.3605 18.846 49.8981 18.8606 50.4167 18.981H50.4178C51.3249 19.1935 52.1272 19.721 52.6818 20.4696L57.0601 26.3725Z" fill="#3D5966"/>
<path d="M25.3413 37.4062L32.2729 36.9628L33.7425 40.2577L31.1573 40.7135L28.7241 42.031L26.2689 41.3008C25.8795 41.185 25.53 40.9629 25.2597 40.6596C24.9893 40.3563 24.8088 39.9838 24.7383 39.5836L24.5351 38.431C24.5138 38.3098 24.5182 38.1855 24.5482 38.0662C24.5782 37.9468 24.6331 37.8351 24.7091 37.7384C24.7852 37.6417 24.8808 37.5621 24.9898 37.5049C25.0987 37.4476 25.2185 37.414 25.3413 37.4062Z" fill="#FED500"/>
<path d="M57.8957 31.666L51.2305 33.6201L50.9766 37.2185L53.5616 36.7627L56.2988 37.1685L58.3558 35.6427C58.6821 35.4007 58.9345 35.0726 59.0848 34.6953C59.2352 34.3179 59.2774 33.906 59.2069 33.506L59.0037 32.3533C58.9823 32.2321 58.9356 32.1168 58.8666 32.0149C58.7976 31.9131 58.7079 31.8269 58.6033 31.762C58.4988 31.6972 58.3817 31.6551 58.2598 31.6385C58.1378 31.622 58.0138 31.6313 57.8957 31.666Z" fill="#FED500"/>
<path d="M23.924 49.9922L30.8189 48.7742L31.4279 52.2217C31.5087 52.6789 31.4046 53.1494 31.1384 53.5298C30.8722 53.9102 30.4659 54.1692 30.0087 54.25L26.5612 54.859C26.104 54.9398 25.6335 54.8356 25.2531 54.5694C24.8728 54.3033 24.6137 53.8969 24.533 53.4397L23.924 49.9922Z" fill="#3D5966"/>
<path d="M56.673 44.2058L63.568 42.9878L64.177 46.4353C64.2577 46.8925 64.1536 47.363 63.8874 47.7434C63.6213 48.1238 63.2149 48.3828 62.7577 48.4636L59.3102 49.0726C58.8531 49.1533 58.3825 49.0492 58.0022 48.783C57.6218 48.5169 57.3627 48.1105 57.282 47.6533L56.673 44.2058Z" fill="#3D5966"/>
<path d="M59.6445 26.7919C59.439 26.7916 59.2401 26.719 59.0827 26.5868C58.9253 26.4546 58.8195 26.2711 58.7839 26.0687L58.3615 23.6734C58.3164 23.4183 58.3284 23.1565 58.3968 22.9066C58.4652 22.6568 58.5882 22.4253 58.7569 22.2288C58.9256 22.0322 59.1358 21.8756 59.3724 21.7702C59.6089 21.6648 59.866 21.6132 60.1249 21.6191L62.8012 21.6804C63.2054 21.6905 63.5937 21.84 63.9005 22.1035C64.2072 22.367 64.4135 22.7283 64.4845 23.1264L64.6639 24.1436C64.7438 24.6006 64.6393 25.0707 64.3732 25.4507C64.107 25.8308 63.701 26.0898 63.2442 26.1709L59.7973 26.7787C59.7469 26.7875 59.6958 26.7919 59.6445 26.7919Z" fill="#42A5F5"/>
<path d="M67.0329 52.0691V55.5691H34.075L36.4079 52.0691H67.0329Z" fill="#A7C2CF"/>
<path d="M20.658 52.0691L21.9705 55.5691H16.283V52.0691H20.658Z" fill="#A7C2CF"/>
<path d="M67.908 62.5691V52.0691C67.908 51.837 67.8158 51.6145 67.6517 51.4504C67.4876 51.2863 67.265 51.1941 67.033 51.1941H36.408C36.2639 51.1941 36.1221 51.2297 35.9951 51.2977C35.8681 51.3657 35.7599 51.4639 35.68 51.5838L32.386 56.5247L23.8457 58.0778L21.4772 51.7619C21.4146 51.5951 21.3027 51.4514 21.1563 51.3499C21.0099 51.2485 20.8361 51.1941 20.658 51.1941H16.283C16.0509 51.1941 15.8283 51.2863 15.6642 51.4504C15.5001 51.6145 15.408 51.837 15.408 52.0691V62.5691C15.408 62.8012 15.5001 63.0237 15.6642 63.1878C15.8283 63.3519 16.0509 63.4441 16.283 63.4441H67.033C67.265 63.4441 67.4876 63.3519 67.6517 63.1878C67.8158 63.0237 67.908 62.8012 67.908 62.5691ZM36.8762 52.9441H66.158V54.6941H35.7096L36.8762 52.9441ZM20.0516 52.9441L20.7078 54.6941H17.158V52.9441H20.0516ZM17.158 61.6941V56.4441H21.3641L22.4637 59.3763C22.5357 59.5683 22.6729 59.7289 22.8512 59.8301C23.0295 59.9313 23.2377 59.9667 23.4395 59.93L33.0645 58.18C33.1801 58.159 33.2902 58.1149 33.3884 58.0504C33.4866 57.9859 33.5708 57.9023 33.636 57.8045L34.5429 56.4441H66.158V61.6941H17.158Z" fill="black"/>
<path d="M15 48.4699L15.7823 46.9054L19.2806 48.6545L18.4983 50.219L15 48.4699Z" fill="black"/>
<path d="M15.0015 44.9706L15.7838 43.4061L19.2821 45.1553L18.4998 46.7198L15.0015 44.9706Z" fill="black"/>
<path d="M15.0031 41.4713L15.7853 39.9068L19.2836 41.6559L18.5014 43.2204L15.0031 41.4713Z" fill="black"/>
<path d="M20.2355 39.2404L22.1843 50.2922C22.2041 50.4054 22.246 50.5136 22.3077 50.6106C22.3694 50.7076 22.4497 50.7914 22.5438 50.8573C22.638 50.9233 22.7442 50.97 22.8564 50.9948C22.9686 51.0196 23.0847 51.022 23.1978 51.0019L23.6538 53.5871C23.7135 53.9267 23.8395 54.2511 24.0246 54.5419C24.2098 54.8328 24.4504 55.0842 24.7328 55.282C25.0152 55.4797 25.3338 55.6199 25.6704 55.6944C26.007 55.7689 26.355 55.7764 26.6944 55.7163L30.1414 55.1086C30.8265 54.9869 31.4354 54.5985 31.8346 54.0285C32.2337 53.4585 32.3906 52.7535 32.2707 52.068L31.8148 49.4829L35.2616 48.8751C35.3953 48.8516 35.5218 48.7972 35.6308 48.7162L37.0365 47.6738L50.417 45.3144L52.0945 45.8129C52.2247 45.8516 52.3622 45.8595 52.496 45.8359L55.9427 45.2281L56.3985 47.8132C56.5057 48.42 56.8228 48.9698 57.2943 49.3665C57.7658 49.7631 58.3618 49.9814 58.978 49.9831C59.1327 49.983 59.2871 49.9695 59.4395 49.9425L62.8865 49.3347C63.5717 49.2131 64.1806 48.8246 64.5797 48.2546C64.9789 47.6846 65.1357 46.9796 65.0157 46.2941L64.5598 43.709C64.673 43.6891 64.7812 43.647 64.8781 43.5853C64.975 43.5236 65.0588 43.4433 65.1247 43.3492C65.1906 43.2551 65.2374 43.1489 65.2622 43.0367C65.2871 42.9245 65.2897 42.8085 65.2697 42.6953L63.3211 31.6433C63.1982 30.9354 62.9361 30.259 62.5501 29.653C62.164 29.0471 61.6616 28.5237 61.072 28.1132L59.2928 26.8675L63.2444 26.1706C63.7012 26.0895 64.1072 25.8306 64.3734 25.4505C64.6395 25.0705 64.7441 24.6004 64.6641 24.1434L64.4847 23.1262C64.4136 22.7282 64.2072 22.3669 63.9005 22.1035C63.5937 21.8401 63.2054 21.6907 62.8012 21.6806L60.1249 21.6193C59.8661 21.6134 59.6091 21.665 59.3726 21.7704C59.1361 21.8757 58.9259 22.0323 58.7573 22.2287C58.5886 22.4251 58.4656 22.6566 58.3971 22.9063C58.3287 23.156 58.3165 23.4177 58.3615 23.6727L58.6319 25.2067L57.4412 25.4167L53.3851 19.948C52.8547 19.2278 52.1332 18.6707 51.3023 18.3397C50.4714 18.0088 49.5643 17.9173 48.6841 18.0756L29.3495 21.4848C28.4682 21.6371 27.6471 22.0333 26.9795 22.6285C26.3119 23.2236 25.8244 23.994 25.5724 24.8521L23.6312 31.3785L22.4407 31.5885L22.1703 30.0545C22.1253 29.7995 22.0242 29.5577 21.8745 29.3465C21.7247 29.1353 21.5299 28.9599 21.3042 28.833C21.0785 28.7062 20.8274 28.631 20.5691 28.6129C20.3108 28.5949 20.0517 28.6343 19.8105 28.7285L17.3167 29.7019C16.9404 29.8497 16.6267 30.1229 16.4286 30.4753C16.2304 30.8278 16.16 31.2378 16.2293 31.6361L16.4087 32.6533C16.4485 32.8797 16.5325 33.096 16.6559 33.2899C16.7793 33.4838 16.9398 33.6515 17.1281 33.7833C17.3163 33.9152 17.5288 34.0086 17.7532 34.0582C17.9776 34.1079 18.2096 34.1128 18.436 34.0728L22.3877 33.376L21.1419 35.1551C20.7283 35.7424 20.4352 36.4058 20.2796 37.107C20.124 37.8082 20.1091 38.5333 20.2355 39.2404ZM18.1314 32.3488L17.9521 31.3316L20.4458 30.3587L20.7163 31.8928L18.1314 32.3488ZM30.5474 52.3714C30.5875 52.5999 30.5352 52.835 30.4022 53.0251C30.2691 53.2152 30.0661 53.3447 29.8377 53.3852L26.3908 53.9929C26.1623 54.0328 25.9273 53.9806 25.7373 53.8475C25.5473 53.7145 25.4178 53.5115 25.3771 53.2832L24.9214 50.6981L30.0915 49.7864L30.5474 52.3714ZM62.5827 47.6114L59.1361 48.2191C58.9075 48.2594 58.6724 48.2072 58.4823 48.0741C58.2922 47.941 58.1628 47.7379 58.1225 47.5094L57.6667 44.9243L62.8369 44.0125L63.2927 46.5976C63.3328 46.8262 63.2805 47.0613 63.1474 47.2514C63.0142 47.4414 62.8112 47.5709 62.5827 47.6114ZM60.0843 23.3691H60.085L62.7612 23.4302L62.9407 24.4474L60.3547 24.9033L60.0829 23.3691H60.0843ZM51.9796 20.991L55.5144 25.7568L45.776 27.4739L49.9775 19.7869C50.3741 19.8459 50.755 19.9827 51.0986 20.1893C51.4422 20.3959 51.7415 20.6684 51.9795 20.991H51.9796ZM41.4674 28.2337L45.7668 20.3675L47.8685 19.9969L43.569 27.8631L41.4674 28.2337ZM27.2498 25.3516C27.4102 24.8055 27.7204 24.3153 28.1453 23.9365C28.5701 23.5578 29.0926 23.3057 29.6535 23.2088L43.5598 20.7567L39.2604 28.6227L25.5579 31.0389L27.2498 25.3516ZM22.5751 36.1579L24.8251 32.9452L56.8556 27.2973L60.0681 29.5468C60.4691 29.8259 60.8108 30.1818 61.0733 30.5938C61.3358 31.0058 61.514 31.4658 61.5975 31.9472L63.3942 42.1372L61.6709 42.4412L61.0631 38.9943C61.0414 38.8708 60.9933 38.7535 60.9223 38.6502C60.8512 38.5469 60.7588 38.4601 60.6512 38.3957C60.5437 38.3312 60.4236 38.2906 60.299 38.2767C60.1744 38.2627 60.0483 38.2756 59.9291 38.3147L54.1082 40.2206L51.5844 40.6657L51.8881 42.3891L54.4733 41.9332C54.514 41.926 54.5542 41.9159 54.5936 41.9031L59.5148 40.2917L59.9473 42.745L52.3954 44.0766L50.7181 43.5777C50.5879 43.539 50.4504 43.5311 50.3166 43.5547L36.5293 45.9858C36.3956 46.0094 36.2692 46.0638 36.1601 46.1447L34.7545 47.1872L27.2026 48.5188L26.77 46.0655L31.9455 45.8965C31.987 45.8952 32.0282 45.8909 32.069 45.8837L34.6541 45.4279L34.3501 43.7044L31.8263 44.1496L25.7046 44.3494C25.5793 44.3535 25.4563 44.3844 25.344 44.4402C25.2317 44.4959 25.1327 44.5751 25.0537 44.6725C24.9746 44.7698 24.9174 44.883 24.886 45.0044C24.8545 45.1257 24.8495 45.2524 24.8713 45.3759L25.4792 48.8227L23.7558 49.1269L21.9595 38.9367C21.8732 38.4558 21.8832 37.9626 21.9888 37.4856C22.0945 37.0086 22.2937 36.5573 22.5749 36.1578L22.5751 36.1579Z" fill="black"/>
<path d="M23.8769 39.7359C23.9739 40.2967 24.226 40.8192 24.6048 41.244C24.9835 41.6689 25.4737 41.9791 26.0198 42.1395L28.4747 42.8697C28.6972 42.9358 28.9368 42.9109 29.1408 42.8004L31.4487 41.5505L33.8165 41.133C34.0737 41.3206 34.3504 41.4798 34.6417 41.6079C35.8675 42.1468 37.2256 42.3099 38.544 42.0765L39.7184 41.8693C40.7548 41.6854 41.7345 41.2638 42.5806 40.6377L42.6809 40.5634L42.8005 40.5989C43.8098 40.8978 44.8746 40.9589 45.9114 40.7773L47.0858 40.5703C48.4046 40.3391 49.625 39.7214 50.5922 38.7956C50.8222 38.5755 51.0277 38.3312 51.2053 38.0669L53.5731 37.6494L56.1698 38.0344C56.3993 38.0685 56.633 38.0099 56.8194 37.8717L58.8765 36.3459C59.3348 36.0084 59.6894 35.5493 59.9 35.0205C60.1107 34.4918 60.1689 33.9146 60.0682 33.3544L59.8648 32.2016C59.8221 31.9593 59.7287 31.7287 59.5908 31.5249C59.4529 31.3212 59.2736 31.1488 59.0645 31.019C58.8555 30.8892 58.6214 30.805 58.3776 30.7718C58.1338 30.7386 57.8858 30.7571 57.6497 30.8263L51.0314 32.7668L45.1293 33.8075C44.4114 33.9339 43.7187 34.1753 43.0778 34.5225L41.7435 35.2444L40.2431 35.0219C39.5221 34.9147 38.7885 34.9247 38.0707 35.0516L32.1689 36.0923L25.2855 36.5325C25.0398 36.5482 24.8002 36.6155 24.5824 36.7301C24.3645 36.8447 24.1732 37.004 24.0211 37.1975C23.869 37.391 23.7594 37.6145 23.6995 37.8533C23.6397 38.092 23.6308 38.3407 23.6736 38.5832L23.8769 39.7359ZM58.1419 32.5055L58.3452 33.6582C58.3884 33.8983 58.3634 34.1457 58.2731 34.3723C58.1829 34.5989 58.0309 34.7957 57.8345 34.9403L56.0685 36.2502L53.6901 35.8975C53.597 35.8836 53.5023 35.8849 53.4096 35.9013L51.9205 36.1638C51.9309 36.082 51.9397 35.9997 51.9456 35.9171L52.0605 34.2884L58.1419 32.5055ZM38.3745 36.7754C38.9071 36.6815 39.4514 36.6741 39.9864 36.7535L41.7753 37.0188C41.9626 37.0464 42.1539 37.0127 42.3204 36.9226L43.9106 36.0615C44.3862 35.8039 44.9002 35.6248 45.4328 35.5309L50.2788 34.6765L50.2001 35.7941C50.1541 36.4542 49.8631 37.0734 49.3843 37.5301C48.6666 38.217 47.7611 38.6753 46.7826 38.8469L45.608 39.0535C44.8388 39.1881 44.0489 39.1428 43.3002 38.9211L42.7613 38.7609C42.6311 38.7222 42.4937 38.7143 42.3599 38.7379C42.2262 38.7614 42.0997 38.8158 41.9907 38.8967L41.539 39.2318C40.9112 39.6963 40.1843 40.009 39.4153 40.1455L38.2411 40.3526C37.2628 40.526 36.2552 40.405 35.3458 40.005C34.7396 39.7396 34.2544 39.2573 33.9854 38.6527L33.529 37.6294L38.3745 36.7754ZM31.7217 37.8749L32.3867 39.366C32.4204 39.4418 32.4569 39.5159 32.4946 39.5892L31.0048 39.8519C30.9122 39.8682 30.8228 39.8994 30.7401 39.9442L28.6262 41.0889L26.5187 40.4621C26.2846 40.3934 26.0744 40.2605 25.912 40.0785C25.7496 39.8964 25.6415 39.6724 25.5999 39.432L25.3967 38.2794L31.7217 37.8749Z" fill="black"/>
</svg>
