<svg width="82" height="82" viewBox="0 0 82 82" fill="none" xmlns="http://www.w3.org/2000/svg">
<circle cx="41" cy="41" r="41" fill="#0B2E60"/>
<path fill-rule="evenodd" clip-rule="evenodd" d="M35.0952 29.4277H17.7626V32.6298H35.0952V29.4277ZM60.6827 18H60.7121H65.1481C65.6181 18 66 18.4113 66 18.8813V62.7415V62.7709V67.1481C66 67.6181 65.6181 68 65.1481 68H16.8813C16.4113 68 16 67.6181 16 67.1481V62.8002V62.7709V18.8813C16 18.4113 16.4113 18 16.8813 18H35.9471H35.9765H40.4125H40.4418H60.6827ZM64.2667 61.8895V19.7626H61.564V61.8895H64.2667ZM17.7626 22.8472H35.0952V19.7626H17.7626V22.8472ZM17.7626 61.8895H35.0952V58.8049H17.7626V61.8895ZM17.7626 52.2244H35.0952V49.0223H17.7626V52.2244ZM17.7626 42.4125H35.0952V39.2103H17.7626V42.4125ZM60.7121 63.6522H40.4125H35.9765H17.7626V66.2667H64.2667V63.6522H60.7121ZM41.2938 19.7626V61.8895H59.8308V19.7626H41.2938ZM39.5311 61.8895V19.7626H36.8578V61.8895H39.5311ZM50.5476 27.6945C50.0776 27.6945 49.6663 27.3126 49.6663 26.8132V23.6992C49.6663 23.1998 50.0776 22.8179 50.5476 22.8179C51.047 22.8179 51.4289 23.1998 51.4289 23.6992V26.8132C51.4289 27.3126 51.047 27.6945 50.5476 27.6945ZM50.5476 35.4794C50.0776 35.4794 49.6663 35.0975 49.6663 34.5981V31.4841C49.6663 30.9847 50.0776 30.6028 50.5476 30.6028C51.047 30.6028 51.4289 30.9847 51.4289 31.4841V34.5981C51.4289 35.0975 51.047 35.4794 50.5476 35.4794ZM50.5476 43.2644C50.0776 43.2644 49.6663 42.8825 49.6663 42.3831V39.2691C49.6663 38.7697 50.0776 38.3878 50.5476 38.3878C51.047 38.3878 51.4289 38.7697 51.4289 39.2691V42.3831C51.4289 42.8825 51.047 43.2644 50.5476 43.2644ZM50.5476 51.0494C50.0776 51.0494 49.6663 50.6675 49.6663 50.168V47.0541C49.6663 46.5546 50.0776 46.1727 50.5476 46.1727C51.047 46.1727 51.4289 46.5546 51.4289 47.0541V50.168C51.4289 50.6675 51.047 51.0494 50.5476 51.0494ZM50.5476 58.8343C50.0776 58.8343 49.6663 58.4524 49.6663 57.953V54.839C49.6663 54.3396 50.0776 53.9577 50.5476 53.9577C51.047 53.9577 51.4289 54.3396 51.4289 54.839V57.953C51.4289 58.4524 51.047 58.8343 50.5476 58.8343ZM17.7626 57.0423H35.0952V53.9871H17.7626V57.0423ZM17.7626 47.2597H35.0952V44.1751H17.7626V47.2597ZM17.7626 37.4771H35.0952V34.3925H17.7626V37.4771ZM17.7626 27.6651H35.0952V24.6099H17.7626V27.6651Z" fill="black"/>
<path fill-rule="evenodd" clip-rule="evenodd" d="M35.9765 63.6522H17.7626V66.2667H64.2667V63.6522H60.7121H40.4125H35.9765Z" fill="#7ED63F"/>
<path fill-rule="evenodd" clip-rule="evenodd" d="M36.8578 19.7626V61.8895H39.5312V19.7626H36.8578Z" fill="#FFA721"/>
<path fill-rule="evenodd" clip-rule="evenodd" d="M41.2938 19.7626V61.8895H59.8308V19.7626H41.2938ZM50.5476 27.6945C50.0776 27.6945 49.6663 27.3126 49.6663 26.8132V23.6992C49.6663 23.1998 50.0776 22.8179 50.5476 22.8179C51.0471 22.8179 51.429 23.1998 51.429 23.6992V26.8132C51.429 27.3126 51.0471 27.6945 50.5476 27.6945ZM50.5476 35.4794C50.0776 35.4794 49.6663 35.0975 49.6663 34.5981V31.4841C49.6663 30.9847 50.0776 30.6028 50.5476 30.6028C51.0471 30.6028 51.429 30.9847 51.429 31.4841V34.5981C51.429 35.0975 51.0471 35.4794 50.5476 35.4794ZM50.5476 43.2644C50.0776 43.2644 49.6663 42.8825 49.6663 42.3831V39.2691C49.6663 38.7697 50.0776 38.3878 50.5476 38.3878C51.0471 38.3878 51.429 38.7697 51.429 39.2691V42.3831C51.429 42.8825 51.0471 43.2644 50.5476 43.2644ZM50.5476 51.0494C50.0776 51.0494 49.6663 50.6675 49.6663 50.168V47.0541C49.6663 46.5546 50.0776 46.1727 50.5476 46.1727C51.0471 46.1727 51.429 46.5546 51.429 47.0541V50.168C51.429 50.6675 51.0471 51.0494 50.5476 51.0494ZM50.5476 58.8343C50.0776 58.8343 49.6663 58.4524 49.6663 57.953V54.839C49.6663 54.3396 50.0776 53.9577 50.5476 53.9577C51.0471 53.9577 51.429 54.3396 51.429 54.839V57.953C51.429 58.4524 51.0471 58.8343 50.5476 58.8343Z" fill="#4D4D4D"/>
<path fill-rule="evenodd" clip-rule="evenodd" d="M61.5641 19.7626V61.8895H64.2668V19.7626H61.5641Z" fill="#FFA721"/>
<path fill-rule="evenodd" clip-rule="evenodd" d="M35.0952 58.8049H17.7626V61.8895H35.0952V58.8049Z" fill="#FF3E1A"/>
<path fill-rule="evenodd" clip-rule="evenodd" d="M35.0952 53.9871H17.7626V57.0423H35.0952V53.9871Z" fill="#E6E6E6"/>
<path fill-rule="evenodd" clip-rule="evenodd" d="M35.0952 49.0223H17.7626V52.2244H35.0952V49.0223Z" fill="#FF3E1A"/>
<path fill-rule="evenodd" clip-rule="evenodd" d="M35.0952 44.1751H17.7626V47.2597H35.0952V44.1751Z" fill="#E6E6E6"/>
<path fill-rule="evenodd" clip-rule="evenodd" d="M35.0952 39.2103H17.7626V42.4125H35.0952V39.2103Z" fill="#FF3E1A"/>
<path fill-rule="evenodd" clip-rule="evenodd" d="M35.0952 34.3925H17.7626V37.4771H35.0952V34.3925Z" fill="#E6E6E6"/>
<path fill-rule="evenodd" clip-rule="evenodd" d="M35.0952 29.4277H17.7626V32.6298H35.0952V29.4277Z" fill="#FF3E1A"/>
<path fill-rule="evenodd" clip-rule="evenodd" d="M35.0952 24.6099H17.7626V27.6651H35.0952V24.6099Z" fill="#E6E6E6"/>
<path fill-rule="evenodd" clip-rule="evenodd" d="M35.0952 19.7626H17.7626V22.8472H35.0952V19.7626Z" fill="#FF3E1A"/>
</svg>
