<svg width="82" height="82" viewBox="0 0 82 82" fill="none" xmlns="http://www.w3.org/2000/svg">
<circle cx="41" cy="41" r="41" fill="#0B2E60"/>
<path fill-rule="evenodd" clip-rule="evenodd" d="M30.8925 18.0215C27.1075 18.0215 24.0107 21.1183 24.0107 24.9032H57.9894C57.9894 21.1183 54.8926 18.0215 51.1076 18.0215H30.8925Z" fill="#A1C5E4"/>
<path fill-rule="evenodd" clip-rule="evenodd" d="M40.9679 12.8603C38.1322 12.8777 35.8386 15.1818 35.8386 18.0215H46.1612C46.1612 15.1817 43.8678 12.8775 41.032 12.8603H40.9679Z" fill="#FFEE88"/>
<path fill-rule="evenodd" clip-rule="evenodd" d="M57.9895 24.9032H24.0108C22.8282 24.9032 21.8604 25.8709 21.8604 27.0538C21.8604 28.2365 22.8283 29.2043 24.0108 29.2043H57.9894C59.1719 29.2043 60.1398 28.2366 60.1398 27.0538C60.1399 25.871 59.1722 24.9032 57.9895 24.9032Z" fill="#A1C5E4"/>
<path fill-rule="evenodd" clip-rule="evenodd" d="M27.4845 29.2043H24.0107L28.0969 58.6811H31.5707L27.4845 29.2043Z" fill="#A1C5E4"/>
<path fill-rule="evenodd" clip-rule="evenodd" d="M28.4509 36.1755L30.4607 50.6748L33.799 48.5427L34.3063 51.5458L36.7932 52.2589L39.2796 55.3556V50.6635L41.8183 47.194L44.595 49.226L42.7205 51.7878V58.6811H50.4295L51.7204 49.3687L50.8802 45.3843L52.6463 42.6895L49.8093 36.6598H47.2287L45.9463 41.9628L42.7205 37.2221L38.8819 42.4678L36.1051 40.4358L39.2796 36.0976V29.2043H27.4844L28.4509 36.1755Z" fill="#FFEE88"/>
<path fill-rule="evenodd" clip-rule="evenodd" d="M41.8183 47.194L39.2797 50.6634V58.6811H42.7205V51.7878L44.5951 49.226L41.8183 47.194Z" fill="#A1C5E4"/>
<path fill-rule="evenodd" clip-rule="evenodd" d="M38.882 42.4678L42.7205 37.2221V29.2043H39.2796V36.0976L36.1051 40.4358L38.882 42.4678Z" fill="#A1C5E4"/>
<path fill-rule="evenodd" clip-rule="evenodd" d="M42.7205 37.2221L45.9463 41.9628L47.2287 36.6598H49.8093L52.6463 42.6895L54.5156 29.2043H42.7205V37.2221Z" fill="#FFEE88"/>
<path fill-rule="evenodd" clip-rule="evenodd" d="M54.5156 29.2043L52.6463 42.6895L50.8802 45.3843L51.7203 49.3687L50.4294 58.6811H53.9032L55.2111 49.2463L54.5422 46.0739L55.9482 43.9283L57.9894 29.2043H54.5156Z" fill="#A1C5E4"/>
<path fill-rule="evenodd" clip-rule="evenodd" d="M39.2796 55.3556L36.7933 52.2589L34.3063 51.5458L33.799 48.5427L30.4607 50.6748L31.5706 58.6811H39.2796V55.3556Z" fill="#FFEE88"/>
<path fill-rule="evenodd" clip-rule="evenodd" d="M28.0968 58.6811V61.2618C28.0968 62.208 28.8712 62.9822 29.8172 62.9822H52.1828C53.1288 62.9822 53.9033 62.2077 53.9033 61.2618V58.6811H28.0968Z" fill="#A1C5E4"/>
<path fill-rule="evenodd" clip-rule="evenodd" d="M49.6021 62.9822H32.3977L34.1181 66.4231H47.8818L49.6021 62.9822Z" fill="#A1C5E4"/>
<path fill-rule="evenodd" clip-rule="evenodd" d="M37.5591 66.423H44.4409V69.8639H37.5591V66.423Z" fill="#A1C5E4"/>
<path fill-rule="evenodd" clip-rule="evenodd" d="M40.9679 12.8603C38.1322 12.8777 35.8386 15.1818 35.8386 18.0215H38.4193C38.4193 15.6166 40.0642 13.5961 42.2902 13.0231C41.8877 12.9195 41.4663 12.863 41.032 12.8603H40.9679Z" fill="#FFE000"/>
<path fill-rule="evenodd" clip-rule="evenodd" d="M30.8925 18.0215C27.1075 18.0215 24.0107 21.1183 24.0107 24.9032H26.5914C26.5914 21.1183 29.6882 18.0215 33.4731 18.0215H30.8925Z" fill="#4796C6"/>
<path fill-rule="evenodd" clip-rule="evenodd" d="M26.5914 24.9032H24.0108C22.8282 24.9032 21.8604 25.8709 21.8604 27.0538C21.8604 28.2365 22.8283 29.2043 24.0108 29.2043H26.5914C25.4088 29.2043 24.4409 28.2365 24.4409 27.0538C24.441 25.871 25.4088 24.9032 26.5914 24.9032Z" fill="#4796C6"/>
<path fill-rule="evenodd" clip-rule="evenodd" d="M30.4607 50.6748L32.8314 49.1607L30.0651 29.2043H27.4844L30.4607 50.6748Z" fill="#FFE000"/>
<path fill-rule="evenodd" clip-rule="evenodd" d="M32.8314 49.1607L30.4607 50.6748L31.5706 58.6811H34.1511L32.8314 49.1607Z" fill="#FFE000"/>
<path fill-rule="evenodd" clip-rule="evenodd" d="M28.0968 58.6811V61.2618C28.0968 62.208 28.8712 62.9822 29.8172 62.9822H32.3979C31.4519 62.9822 30.6774 62.208 30.6774 61.2618V58.6811H28.0968Z" fill="#4796C6"/>
<path fill-rule="evenodd" clip-rule="evenodd" d="M35.0819 62.9822H32.3977L34.1181 66.4231H36.8023L35.0819 62.9822Z" fill="#4796C6"/>
<path fill-rule="evenodd" clip-rule="evenodd" d="M37.5591 66.423H40.1398V69.8639H37.5591V66.423Z" fill="#4796C6"/>
<path d="M51.1077 22.3226H49.3873V20.6022H51.1077V22.3226ZM47.6667 22.3226H45.9463V20.6022H47.6667V22.3226Z" fill="white"/>
<path d="M61 27.0538C61 25.6793 60.0738 24.5177 58.813 24.1585C58.4369 20.2378 55.1252 17.1613 51.1076 17.1613H46.9591C46.5404 14.2472 44.0282 12 41 12C37.9718 12 35.4598 14.2472 35.0409 17.1613H30.8924C26.8747 17.1613 23.563 20.2378 23.187 24.1585C21.9262 24.5177 21 25.6793 21 27.0538C21 28.4504 21.956 29.6278 23.2479 29.9663L24.1439 36.4302L25.8481 36.1938L24.9985 30.0645H26.7353L30.5829 57.8209H28.8461L26.0822 37.8821L24.378 38.1184L27.2367 58.7406V61.2618C27.2367 62.6847 28.3943 63.8424 29.8173 63.8424H31.8662L33.5867 67.2833H36.699V70.7242H40.1399V69.0038H38.4195V67.2833H43.5808V69.0038H41.8603V70.7242H45.3012V67.2833H48.4136L50.134 63.8424H52.1829C53.6059 63.8424 54.7636 62.6847 54.7636 61.2618V58.7406L56.0839 49.2158L55.4578 46.2463L56.7739 44.238L58.7523 29.9663C60.044 29.6278 61 28.4504 61 27.0538ZM41 13.7204C43.0771 13.7204 44.8149 15.2005 45.2145 17.1613H36.7854C37.1851 15.2005 38.9229 13.7204 41 13.7204ZM30.8924 18.8817H51.1075C54.1356 18.8817 56.6478 21.1289 57.0665 24.043H24.9334C25.3521 21.1289 27.8643 18.8817 30.8924 18.8817ZM52.1919 39.7031L50.3552 35.7996H46.5517L45.5661 39.8751L43.5806 36.9571V30.0645H53.5278L52.1919 39.7031ZM40.1398 30.0645H41.8602V36.941L38.6957 41.2655L37.3073 40.2496L40.1398 36.3787V30.0645ZM38.4194 35.8164L34.9029 40.622L39.0681 43.6698L42.6949 38.7136L45.086 42.2276V45.6524H46.8065V42.0652L47.9056 37.5199H49.2632L51.663 42.6202L49.9647 45.2118L50.8476 49.3991L49.6803 57.8208H43.5805V52.0689L45.7971 49.0397L41.632 45.9919L38.4194 50.3822V52.9102L37.2929 51.5073L35.3695 50.9557L34.325 48.897L36.5572 45.5061L35.1201 44.5601L32.7143 48.2148L31.1285 49.2276L29.412 36.8439L32.126 36.2437L33.9069 38.0058L35.1169 36.7829L33.6674 35.3486L36.3981 33.0124L35.2797 31.7051L32.0022 34.5092L29.175 35.1344L28.4723 30.0645H38.4195V35.8164H38.4194ZM41.8602 51.5067V57.8209H40.1398V50.9446L42.0044 48.3963L43.3928 49.4122L41.8602 51.5067ZM31.3884 51.1031L32.9945 50.0774L34.1745 52.4029L36.2935 53.0105L38.4194 55.6582V57.8209H32.3196L31.3884 51.1031ZM47.3501 65.5628H34.6499L33.7897 63.8424H48.2103L47.3501 65.5628ZM53.043 61.2618C53.043 61.7361 52.6572 62.122 52.1828 62.122H29.8172C29.3428 62.122 28.957 61.7361 28.957 61.2618V59.5413H53.043V61.2618ZM55.1228 43.6186L53.6267 45.9015L54.3384 49.2769L53.154 57.8209H51.4172L52.5931 49.338L51.7957 45.5566L53.4717 42.9991L55.2648 30.0645H57.0016L55.1228 43.6186ZM57.9892 28.3441H24.0106C23.2992 28.3441 22.7203 27.7652 22.7203 27.0538C22.7203 26.3423 23.2991 25.7634 24.0106 25.7634H57.9892C58.7007 25.7634 59.2796 26.3423 59.2796 27.0538C59.2796 27.7652 58.7008 28.3441 57.9892 28.3441Z" fill="black"/>
</svg>
