<svg width="82" height="82" viewBox="0 0 82 82" fill="none" xmlns="http://www.w3.org/2000/svg">
<circle cx="41" cy="41" r="41" fill="#0B2E60"/>
<path d="M57.6253 30.625H27.8753V20.125H57.6253L61.1253 25.375L57.6253 30.625Z" fill="#CCA400"/>
<path d="M24.3753 35.875H54.1253V46.375H24.3753L20.8753 41.125L24.3753 35.875Z" fill="#CCA400"/>
<path d="M38.3753 14.875H43.6253V20.125H38.3753V14.875Z" fill="#5F4D37"/>
<path d="M38.3753 30.625H43.6253V35.875H38.3753V30.625Z" fill="#5F4D37"/>
<path d="M38.3753 46.375H43.6253V67.375H38.3753V46.375Z" fill="#5F4D37"/>
<path d="M61.8537 24.8894L58.3537 19.6394C58.2735 19.5197 58.1651 19.4217 58.0381 19.3538C57.9111 19.2859 57.7693 19.2502 57.6253 19.25H44.5003V14.875C44.5003 14.6429 44.4081 14.4204 44.244 14.2563C44.0799 14.0922 43.8573 14 43.6253 14H38.3753C38.1432 14 37.9207 14.0922 37.7566 14.2563C37.5925 14.4204 37.5003 14.6429 37.5003 14.875V19.25H27.8753C27.6432 19.25 27.4207 19.3422 27.2566 19.5063C27.0925 19.6704 27.0003 19.8929 27.0003 20.125V30.625C27.0003 30.8571 27.0925 31.0796 27.2566 31.2437C27.4207 31.4078 27.6432 31.5 27.8753 31.5H37.5003V35H24.3753C24.2312 35.0002 24.0895 35.0359 23.9625 35.1038C23.8354 35.1717 23.727 35.2697 23.6468 35.3894L20.1468 40.6394C20.0511 40.7832 20 40.9522 20 41.125C20 41.2978 20.0511 41.4668 20.1468 41.6106L23.6468 46.8606C23.727 46.9803 23.8354 47.0784 23.9625 47.1462C24.0895 47.2141 24.2312 47.2498 24.3753 47.25H37.5003V66.5H28.7503C28.5182 66.5 28.2957 66.5922 28.1316 66.7563C27.9675 66.9204 27.8753 67.1429 27.8753 67.375C27.8753 67.6071 27.9675 67.8296 28.1316 67.9937C28.2957 68.1578 28.5182 68.25 28.7503 68.25H49.7503C49.9823 68.25 50.2049 68.1578 50.369 67.9937C50.5331 67.8296 50.6253 67.6071 50.6253 67.375C50.6253 67.1429 50.5331 66.9204 50.369 66.7563C50.2049 66.5922 49.9823 66.5 49.7503 66.5H44.5003V47.25H54.1253C54.3573 47.25 54.5799 47.1578 54.744 46.9937C54.9081 46.8296 55.0003 46.6071 55.0003 46.375V35.875C55.0003 35.6429 54.9081 35.4204 54.744 35.2563C54.5799 35.0922 54.3573 35 54.1253 35H44.5003V31.5H57.6253C57.7693 31.4998 57.9111 31.4641 58.0381 31.3962C58.1651 31.3283 58.2735 31.2303 58.3537 31.1106L61.8537 25.8606C61.9495 25.7168 62.0006 25.5478 62.0006 25.375C62.0006 25.2022 61.9495 25.0332 61.8537 24.8894ZM39.2503 15.75H42.7503V19.25H39.2503V15.75ZM42.7503 66.5H39.2503V47.25H42.7503V66.5ZM53.2503 36.75V45.5H24.8434L21.9264 41.125L24.8434 36.75H53.2503ZM39.2503 35V31.5H42.7503V35H39.2503ZM57.1572 29.75H28.7503V21H57.1572L60.0742 25.375L57.1572 29.75Z" fill="black"/>
<path d="M53.2503 66.5H52.3753C52.1432 66.5 51.9207 66.5922 51.7566 66.7563C51.5925 66.9204 51.5003 67.1429 51.5003 67.375C51.5003 67.6071 51.5925 67.8296 51.7566 67.9937C51.9207 68.1578 52.1432 68.25 52.3753 68.25H53.2503C53.4824 68.25 53.7049 68.1578 53.869 67.9937C54.0331 67.8296 54.1253 67.6071 54.1253 67.375C54.1253 67.1429 54.0331 66.9204 53.869 66.7563C53.7049 66.5922 53.4824 66.5 53.2503 66.5Z" fill="black"/>
</svg>
