<svg width="82" height="82" viewBox="0 0 82 82" fill="none" xmlns="http://www.w3.org/2000/svg">
<circle cx="41" cy="41" r="41" fill="#0B2E60"/>
<path d="M31.2498 17.5H50.4998V61.25H31.2498V17.5Z" fill="#3E3D42"/>
<path d="M40.8748 44.625C43.7743 44.625 46.1248 42.2745 46.1248 39.375C46.1248 36.4755 43.7743 34.125 40.8748 34.125C37.9753 34.125 35.6248 36.4755 35.6248 39.375C35.6248 42.2745 37.9753 44.625 40.8748 44.625Z" fill="#FFDA44"/>
<path d="M40.8748 30.625C43.7743 30.625 46.1248 28.2745 46.1248 25.375C46.1248 22.4755 43.7743 20.125 40.8748 20.125C37.9753 20.125 35.6248 22.4755 35.6248 25.375C35.6248 28.2745 37.9753 30.625 40.8748 30.625Z" fill="#D80027"/>
<path d="M40.8748 58.625C43.7743 58.625 46.1248 56.2745 46.1248 53.375C46.1248 50.4755 43.7743 48.125 40.8748 48.125C37.9753 48.125 35.6248 50.4755 35.6248 53.375C35.6248 56.2745 37.9753 58.625 40.8748 58.625Z" fill="#91CC04"/>
<path d="M36.9373 14.875H44.8123C45.3925 14.875 45.9489 15.1055 46.3591 15.5157C46.7694 15.9259 46.9998 16.4823 46.9998 17.0625V17.5H34.7498V17.0625C34.7498 16.4823 34.9803 15.9259 35.3905 15.5157C35.8008 15.1055 36.3572 14.875 36.9373 14.875Z" fill="#2D2D30"/>
<path d="M37.3748 61.25H44.3748V67.375H37.3748V61.25Z" fill="#2D2D30"/>
<path d="M53.1248 30.625H50.4998V20.125H54.8748L53.1248 30.625Z" fill="#2D2D30"/>
<path d="M53.1248 45.5H50.4998V35H54.8748L53.1248 45.5Z" fill="#2D2D30"/>
<path d="M53.1248 59.5H50.4998V49H54.8748L53.1248 59.5Z" fill="#2D2D30"/>
<path d="M28.6248 30.625H31.2498V20.125H26.8748L28.6248 30.625Z" fill="#2D2D30"/>
<path d="M28.6248 45.5H31.2498V35H26.8748L28.6248 45.5Z" fill="#2D2D30"/>
<path d="M28.6248 59.5H31.2498V49H26.8748L28.6248 59.5Z" fill="#2D2D30"/>
<path d="M40.8748 33.25C39.6634 33.25 38.4792 33.6092 37.472 34.2822C36.4647 34.9553 35.6796 35.9119 35.2161 37.0311C34.7525 38.1503 34.6312 39.3818 34.8675 40.5699C35.1038 41.7581 35.6872 42.8494 36.5438 43.706C37.4004 44.5626 38.4918 45.146 39.6799 45.3823C40.868 45.6186 42.0996 45.4973 43.2188 45.0338C44.338 44.5702 45.2945 43.7851 45.9676 42.7779C46.6406 41.7706 46.9998 40.5864 46.9998 39.375C46.998 37.7511 46.3521 36.1943 45.2038 35.046C44.0556 33.8977 42.4987 33.2518 40.8748 33.25ZM40.8748 43.75C40.0095 43.75 39.1637 43.4934 38.4442 43.0127C37.7247 42.5319 37.164 41.8487 36.8328 41.0492C36.5017 40.2498 36.4151 39.3701 36.5839 38.5215C36.7527 37.6728 37.1694 36.8933 37.7812 36.2814C38.3931 35.6696 39.1726 35.2529 40.0213 35.0841C40.87 34.9153 41.7496 35.0019 42.5491 35.333C43.3485 35.6642 44.0318 36.2249 44.5125 36.9444C44.9932 37.6638 45.2498 38.5097 45.2498 39.375C45.2485 40.5349 44.7872 41.647 43.967 42.4672C43.1468 43.2873 42.0347 43.7487 40.8748 43.75Z" fill="black"/>
<path d="M40.8748 19.25C39.6634 19.25 38.4792 19.6092 37.472 20.2822C36.4647 20.9553 35.6796 21.9119 35.2161 23.0311C34.7525 24.1503 34.6312 25.3818 34.8675 26.5699C35.1038 27.7581 35.6872 28.8494 36.5438 29.706C37.4004 30.5626 38.4918 31.146 39.6799 31.3823C40.868 31.6186 42.0996 31.4974 43.2188 31.0338C44.338 30.5702 45.2945 29.7851 45.9676 28.7779C46.6406 27.7706 46.9998 26.5864 46.9998 25.375C46.998 23.7511 46.3521 22.1943 45.2038 21.046C44.0556 19.8977 42.4987 19.2518 40.8748 19.25ZM40.8748 29.75C40.0095 29.75 39.1637 29.4934 38.4442 29.0127C37.7247 28.5319 37.164 27.8487 36.8328 27.0492C36.5017 26.2498 36.4151 25.3701 36.5839 24.5215C36.7527 23.6728 37.1694 22.8933 37.7812 22.2814C38.3931 21.6696 39.1726 21.2529 40.0213 21.0841C40.87 20.9153 41.7496 21.0019 42.5491 21.333C43.3485 21.6642 44.0318 22.2249 44.5125 22.9444C44.9932 23.6638 45.2498 24.5097 45.2498 25.375C45.2485 26.5349 44.7872 27.647 43.967 28.4672C43.1468 29.2873 42.0347 29.7487 40.8748 29.75Z" fill="black"/>
<path d="M40.8748 47.25C39.6634 47.25 38.4792 47.6092 37.472 48.2822C36.4647 48.9553 35.6796 49.9119 35.2161 51.0311C34.7525 52.1503 34.6312 53.3818 34.8675 54.5699C35.1038 55.7581 35.6872 56.8494 36.5438 57.706C37.4004 58.5626 38.4918 59.146 39.6799 59.3823C40.868 59.6186 42.0996 59.4973 43.2188 59.0338C44.338 58.5702 45.2945 57.7851 45.9676 56.7779C46.6406 55.7706 46.9998 54.5864 46.9998 53.375C46.998 51.7511 46.3521 50.1943 45.2038 49.046C44.0556 47.8977 42.4987 47.2518 40.8748 47.25ZM40.8748 57.75C40.0095 57.75 39.1637 57.4934 38.4442 57.0127C37.7247 56.5319 37.164 55.8487 36.8328 55.0492C36.5017 54.2498 36.4151 53.3701 36.5839 52.5215C36.7527 51.6728 37.1694 50.8933 37.7812 50.2814C38.3931 49.6696 39.1726 49.2529 40.0213 49.0841C40.87 48.9153 41.7496 49.0019 42.5491 49.333C43.3485 49.6642 44.0318 50.2249 44.5125 50.9444C44.9932 51.6638 45.2498 52.5097 45.2498 53.375C45.2485 54.5349 44.7872 55.647 43.967 56.4672C43.1468 57.2873 42.0347 57.7487 40.8748 57.75Z" fill="black"/>
<path d="M53.1248 46.375C53.3319 46.375 53.5322 46.3016 53.6902 46.1678C53.8482 46.034 53.9536 45.8486 53.9878 45.6444L55.7378 35.1444C55.7586 35.019 55.7519 34.8906 55.7182 34.7681C55.6844 34.6456 55.6244 34.5319 55.5423 34.4349C55.4602 34.3379 55.3579 34.26 55.2427 34.2064C55.1274 34.1529 55.0019 34.1251 54.8748 34.125H51.3748V31.5H53.1248C53.3319 31.5 53.5322 31.4266 53.6902 31.2928C53.8482 31.159 53.9536 30.9736 53.9878 30.7694L55.7378 20.2694C55.7586 20.144 55.7519 20.0156 55.7182 19.8931C55.6844 19.7706 55.6244 19.6569 55.5423 19.5599C55.4602 19.4629 55.3579 19.385 55.2427 19.3314C55.1274 19.2779 55.0019 19.2501 54.8748 19.25H51.3748V17.5C51.3748 17.2679 51.2826 17.0454 51.1185 16.8813C50.9544 16.7172 50.7319 16.625 50.4998 16.625H47.8431C47.737 15.8966 47.3724 15.2306 46.816 14.7487C46.2596 14.2668 45.5484 14.0011 44.8123 14H36.9373C36.2012 14.0011 35.49 14.2668 34.9336 14.7487C34.3772 15.2306 34.0127 15.8966 33.9065 16.625H31.2498C31.0178 16.625 30.7952 16.7172 30.6311 16.8813C30.467 17.0454 30.3748 17.2679 30.3748 17.5V19.25H26.8748C26.7477 19.2501 26.6222 19.2779 26.507 19.3314C26.3917 19.385 26.2895 19.4629 26.2074 19.5599C26.1252 19.6569 26.0652 19.7706 26.0315 19.8931C25.9977 20.0156 25.991 20.144 26.0119 20.2694L27.7619 30.7694C27.796 30.9736 27.9015 31.159 28.0595 31.2928C28.2175 31.4266 28.4178 31.5 28.6248 31.5H30.3748V34.125H26.8748C26.7477 34.1251 26.6222 34.1529 26.507 34.2064C26.3917 34.26 26.2895 34.3379 26.2074 34.4349C26.1252 34.5319 26.0652 34.6456 26.0315 34.7681C25.9977 34.8906 25.991 35.019 26.0119 35.1444L27.7619 45.6444C27.796 45.8486 27.9015 46.034 28.0595 46.1678C28.2175 46.3016 28.4178 46.375 28.6248 46.375H30.3748V48.125H26.8748C26.7477 48.1251 26.6222 48.1529 26.507 48.2064C26.3917 48.26 26.2895 48.3379 26.2074 48.4349C26.1252 48.5319 26.0652 48.6456 26.0315 48.7681C25.9977 48.8906 25.991 49.019 26.0119 49.1444L27.7619 59.6444C27.796 59.8486 27.9015 60.034 28.0595 60.1678C28.2175 60.3016 28.4178 60.375 28.6248 60.375H30.3748V61.25C30.3748 61.4821 30.467 61.7046 30.6311 61.8687C30.7952 62.0328 31.0178 62.125 31.2498 62.125H36.4998V67.375C36.4998 67.6071 36.592 67.8296 36.7561 67.9937C36.9202 68.1578 37.1428 68.25 37.3748 68.25H44.3748C44.6069 68.25 44.8294 68.1578 44.9935 67.9937C45.1576 67.8296 45.2498 67.6071 45.2498 67.375V62.125H50.4998C50.7319 62.125 50.9544 62.0328 51.1185 61.8687C51.2826 61.7046 51.3748 61.4821 51.3748 61.25V60.375H53.1248C53.3319 60.375 53.5322 60.3016 53.6902 60.1678C53.8482 60.034 53.9536 59.8486 53.9878 59.6444L55.7378 49.1444C55.7586 49.019 55.7519 48.8906 55.7182 48.7681C55.6844 48.6456 55.6244 48.5319 55.5423 48.4349C55.4602 48.3379 55.3579 48.26 55.2427 48.2064C55.1274 48.1529 55.0019 48.1251 54.8748 48.125H51.3748V46.375H53.1248ZM51.3748 21H53.8423L52.3833 29.75H51.3748V21ZM51.3748 35.875H53.8423L52.3833 44.625H51.3748V35.875ZM30.3748 58.625H29.3664L27.9073 49.875H30.3748V58.625ZM30.3748 44.625H29.3664L27.9073 35.875H30.3748V44.625ZM30.3748 29.75H29.3664L27.9073 21H30.3748V29.75ZM36.9373 15.75H44.8123C45.0836 15.7503 45.3482 15.8346 45.5697 15.9912C45.7911 16.1479 45.9587 16.3693 46.0494 16.625H35.7003C35.7909 16.3693 35.9585 16.1479 36.18 15.9912C36.4015 15.8346 36.666 15.7503 36.9373 15.75ZM43.4998 66.5H38.2498V62.125H43.4998V66.5ZM49.6248 60.375H32.1248V18.375H49.6248V60.375ZM53.8423 49.875L52.3833 58.625H51.3748V49.875H53.8423Z" fill="black"/>
</svg>
