<svg width="82" height="82" viewBox="0 0 82 82" fill="none" xmlns="http://www.w3.org/2000/svg">
<circle cx="41" cy="41" r="41" fill="#0B2E60"/>
<path d="M65.5227 39.3563C65.5227 35.5523 63.2094 32.2887 59.913 30.8954C60.495 29.77 60.8259 28.4936 60.8259 27.1392C60.8259 22.6167 57.1597 18.9503 52.637 18.9503C51.3484 18.9503 50.13 19.2488 49.0454 19.779C48.0817 16.3289 44.9175 13.797 41.1598 13.797C37.4022 13.797 34.2379 16.3289 33.2742 19.7792C32.1898 19.2489 30.9712 18.9504 29.6827 18.9504C25.1601 18.9504 21.4938 22.6167 21.4938 27.1393C21.4938 28.4937 21.8246 29.7701 22.4067 30.8955C19.1103 32.2888 16.797 35.5525 16.797 39.3564C16.797 44.2863 20.6836 48.3032 25.5592 48.5231C26.239 50.9853 28.864 52.8207 32.001 52.8207C33.779 52.8207 35.3917 52.2302 36.5804 51.2713C37.769 52.2302 39.3818 52.8207 41.1598 52.8207C42.9378 52.8207 44.5506 52.2302 45.7393 51.2713C46.9278 52.2302 48.5407 52.8207 50.3187 52.8207C53.4558 52.8207 56.0808 50.9852 56.7604 48.5231C61.636 48.3031 65.5227 44.2862 65.5227 39.3563Z" fill="#129B12"/>
<path d="M40.6688 13.8132C40.5679 13.8192 40.4675 13.8265 40.3678 13.8363C40.3372 13.8392 40.3068 13.8426 40.2763 13.8459C40.1691 13.8575 40.0625 13.8708 39.9565 13.8866C39.9367 13.8895 39.9168 13.8924 39.897 13.8954C39.7709 13.9151 39.6457 13.937 39.5215 13.9623C39.5213 13.9623 39.5211 13.9624 39.5209 13.9624C41.6705 14.3995 43.6832 15.8968 44.9583 17.784C45.8613 19.1205 47.4042 19.8908 49.0133 19.7815C49.024 19.7807 49.0347 19.78 49.0455 19.7793C48.0819 16.3289 44.9177 13.797 41.16 13.797C41.0283 13.797 40.8975 13.8008 40.7672 13.8071C40.7343 13.8086 40.7016 13.8112 40.6688 13.8132Z" fill="#097C09"/>
<path d="M59.9128 30.8954C60.495 29.77 60.8258 28.4936 60.8258 27.1392C60.8258 22.6167 57.1595 18.9503 52.6369 18.9503C52.0757 18.9503 51.5277 19.0071 50.9983 19.1148C54.7351 19.8743 57.5476 23.1782 57.5476 27.1392C57.5476 28.4936 57.2167 29.77 56.6346 30.8954C59.9311 32.2887 62.2444 35.5523 62.2444 39.3563C62.2444 44.2862 58.3577 48.3031 53.4822 48.5229C52.9251 50.5409 51.0608 52.1371 48.6793 52.6477C49.2035 52.7602 49.7526 52.8206 50.3186 52.8206C53.4556 52.8206 56.0807 50.9851 56.7603 48.523C61.6359 48.3032 65.5225 44.2863 65.5225 39.3564C65.5227 35.5524 63.2095 32.2888 59.9128 30.8954Z" fill="#097C09"/>
<path d="M35.2964 49.9148C34.5579 51.1674 31.4972 52.568 30.3622 52.6477C30.4871 52.6745 30.6137 52.6979 30.7412 52.7186C30.7515 52.7203 30.7617 52.7221 30.772 52.7238C30.9014 52.7444 31.0319 52.762 31.1639 52.7761C31.1672 52.7764 31.1706 52.7766 31.174 52.7771C31.2927 52.7896 31.4127 52.7986 31.5333 52.8058C31.5627 52.8076 31.5921 52.8092 31.6216 52.8106C31.7473 52.8166 31.8736 52.8207 32.0011 52.8207C33.6227 52.8207 35.1057 52.3284 36.256 51.5145L36.4577 51.3679L35.4306 49.6826L35.2964 49.9148Z" fill="#009000"/>
<path d="M45.2546 52.0058L48.763 46.4697C49.0405 46.0318 48.9566 45.4569 48.5653 45.1166C48.1476 44.7533 47.5195 44.777 47.1304 45.1709L44.5467 47.7867C44.204 48.1336 43.6169 47.8451 43.6822 47.3619L44.442 41.7326C44.5232 41.1311 44.0786 40.5864 43.4731 40.5455L42.7612 40.4974C42.2263 40.4613 41.7502 40.8343 41.6573 41.3622L40.3012 49.0676C40.2257 49.4961 39.6816 49.6375 39.407 49.2999L35.1596 44.0763C34.8657 43.7148 34.3686 43.5904 33.9392 43.771L33.1955 44.0836C32.6068 44.3311 32.3738 45.0428 32.7024 45.5905L37.0672 52.8659C37.6993 53.9195 37.9599 55.1555 37.8019 56.374C37.2362 60.7367 36.5335 64.8513 33.658 68.203H48.6626C45.5843 64.6149 44.825 60.1529 44.4176 55.4479C44.3127 54.2397 44.6054 53.0301 45.2546 52.0058Z" fill="#BF6101"/>
<path d="M48.7627 46.4697C49.0402 46.0318 48.9563 45.4569 48.5651 45.1167C48.1474 44.7533 47.5192 44.7771 47.1302 45.1709L45.9763 46.339L44.5464 47.7867C44.2038 48.1337 43.6167 47.8451 43.6819 47.3619L44.4418 41.7326C44.5209 41.1464 44.1 40.6154 43.5179 40.551L41.3814 53.83C41.3456 54.0015 41.3175 54.1747 41.298 54.349C41.2573 54.7119 41.2518 55.08 41.2837 55.4478C41.6911 60.1529 42.4504 64.6149 45.5286 68.2029H48.6621C45.5838 64.6148 44.8246 60.1528 44.4171 55.4478C44.3126 54.2396 44.6052 53.0301 45.2543 52.0058L48.7627 46.4697Z" fill="#9A4D01"/>
<path d="M39.6015 20.2258C37.3041 20.2258 35.3263 21.5894 34.4298 23.5507C33.5036 22.8962 32.374 22.5105 31.1537 22.5105C28.014 22.5105 25.4687 25.0557 25.4687 28.1954C25.4687 29.2314 25.7472 30.2017 26.2313 31.0382C23.505 31.4573 21.4172 33.8132 21.4172 36.6568C21.4172 39.7965 23.9625 42.3418 27.1022 42.3418C30.2419 42.3418 45.2865 29.0505 45.2865 25.9108C45.2865 22.7711 42.7411 20.2258 39.6015 20.2258Z" fill="#28A528"/>
<path d="M60.9669 30.5119C61.4027 29.4425 61.6229 28.3115 61.6229 27.1393C61.6229 26.9017 61.6135 26.6615 61.5949 26.4258C61.5604 25.987 61.1764 25.6596 60.7379 25.6938C60.2992 25.7284 59.9714 26.1121 60.0059 26.5509C60.0211 26.7453 60.029 26.9432 60.029 27.1393C60.029 28.332 59.7519 29.4725 59.2052 30.5293C59.103 30.7265 59.0881 30.9574 59.1635 31.1663C59.239 31.3752 59.3983 31.5431 59.6028 31.6295C62.7149 32.945 64.7259 35.9779 64.7259 39.3563C64.7259 43.8477 61.2114 47.5244 56.7247 47.7268C56.3798 47.7423 56.0842 47.9781 55.9924 48.3108C55.3985 50.4621 53.0124 52.0236 50.3189 52.0236C49.0355 52.0236 47.8114 51.682 46.8031 51.0513L49.4362 46.8962C49.6207 46.605 49.7154 46.2823 49.7252 45.9607C49.7415 45.4248 49.5219 44.8923 49.0886 44.5153C48.3554 43.8774 47.2464 43.9195 46.5635 44.6108L44.5877 46.6112L45.2319 41.8391C45.2999 41.3346 45.1543 40.8191 44.8325 40.4248C44.5508 40.0797 44.1513 39.8485 43.7155 39.773C43.6533 39.7623 43.5903 39.7547 43.5268 39.7504L42.815 39.7023C42.4609 39.6782 42.1221 39.7553 41.8286 39.9101C41.3392 40.168 40.9749 40.642 40.8724 41.2241L40.2492 44.7651L39.626 48.306L35.778 43.5737C35.6503 43.4168 35.4998 43.2852 35.3343 43.1809C35.3333 43.1803 35.3324 43.1795 35.3314 43.1789C35.3135 43.1677 35.2948 43.1581 35.2767 43.1475C35.0399 43.01 34.7759 42.9252 34.5043 42.9012C34.4956 42.9004 34.4868 42.9005 34.4781 42.8998C34.4381 42.8969 34.3981 42.8944 34.3578 42.8939C34.1126 42.8915 33.865 42.9378 33.6305 43.0365L32.8868 43.349C32.393 43.5565 32.0142 43.9676 31.8476 44.4766C31.6809 44.9857 31.7433 45.5411 32.019 46.0006L35.1687 51.2506C34.2292 51.7524 33.1292 52.0237 32.0015 52.0237C29.3079 52.0237 26.9219 50.4622 26.328 48.3111C26.2361 47.9782 25.9404 47.7425 25.5957 47.727C21.109 47.5247 17.5945 43.8479 17.5945 39.3564C17.5945 35.9779 19.6054 32.945 22.7176 31.6296C22.9221 31.5432 23.0814 31.3753 23.1568 31.1664C23.2323 30.9575 23.2172 30.7266 23.1152 30.5294C22.5685 29.4726 22.2914 28.3321 22.2914 27.1395C22.2914 23.0636 25.6074 19.7476 29.6833 19.7476C30.8193 19.7476 31.91 19.9991 32.9248 20.4952C33.1373 20.5993 33.3852 20.6033 33.6012 20.5064C33.817 20.4095 33.9787 20.2217 34.0424 19.9938C34.9303 16.8146 37.8574 14.5941 41.1604 14.5941C44.4634 14.5941 47.3905 16.8146 48.2784 19.9938C48.3422 20.2217 48.5038 20.4096 48.7196 20.5064C48.9355 20.6034 49.1835 20.5994 49.396 20.4952C50.4108 19.9991 51.5015 19.7476 52.6376 19.7476C55.3622 19.7476 57.858 21.2393 59.151 23.6409C59.3595 24.0284 59.843 24.1734 60.2305 23.9647C60.6181 23.7562 60.763 23.2727 60.5543 22.8852C58.983 19.9666 55.9494 18.1536 52.6376 18.1536C51.5614 18.1536 50.5186 18.3395 49.5265 18.7072C48.1918 15.306 44.8711 13 41.1599 13C37.4487 13 34.1279 15.306 32.7938 18.7071C31.8016 18.3394 30.7588 18.1535 29.6827 18.1535C24.7278 18.1535 20.6968 22.1845 20.6968 27.1393C20.6968 28.3115 20.9171 29.4426 21.3528 30.5119C18.0757 32.224 16 35.6118 16 39.3563C16 44.5165 19.8971 48.7732 24.9708 49.2791C25.9683 51.8598 28.7716 53.6175 32.0009 53.6175C33.4167 53.6175 34.8031 53.266 35.9884 52.6176L36.3833 53.2758C36.9221 54.174 37.1451 55.2378 37.0112 56.2715C36.8952 57.1652 36.7525 58.2176 36.5715 59.2477C36.4953 59.6812 36.7851 60.0944 37.2185 60.1705C37.6526 60.2467 38.0652 59.9569 38.1413 59.5234C38.3278 58.4622 38.4737 57.3877 38.5918 56.4762C38.7718 55.0882 38.473 53.6603 37.7502 52.4557L33.3854 45.1804C33.3337 45.0945 33.3485 45.0131 33.362 44.9722C33.3753 44.9313 33.4116 44.857 33.5039 44.8182L34.2477 44.5056C34.3501 44.4625 34.4708 44.4927 34.5409 44.579L38.7885 49.8027C38.7998 49.8165 38.8117 49.8294 38.8234 49.8426C38.9812 50.022 39.1775 50.151 39.3933 50.2217C39.6226 50.297 39.8731 50.3068 40.1208 50.2442C40.1235 50.2435 40.1263 50.2431 40.1291 50.2423C40.1291 50.2423 40.1291 50.2423 40.1292 50.2423C40.37 50.1797 40.5794 50.0548 40.7423 49.8858C40.7486 49.8792 40.7555 49.8729 40.7617 49.8663C40.7674 49.86 40.7727 49.8534 40.7782 49.847C40.9344 49.6708 41.0427 49.4516 41.0859 49.2059L42.4421 41.5005C42.4645 41.3732 42.5814 41.2843 42.7074 41.2926L43.4193 41.3407C43.5142 41.3472 43.5718 41.4012 43.5976 41.4329C43.6234 41.4645 43.6649 41.5317 43.6521 41.6261L42.8922 47.2555C42.8828 47.3252 42.8791 47.3945 42.8809 47.4631C42.8927 47.9431 43.1688 48.3842 43.6101 48.601C43.6416 48.6165 43.6735 48.6307 43.7058 48.6433C43.8669 48.7072 44.036 48.7372 44.2034 48.7349C44.5383 48.7303 44.867 48.5967 45.1138 48.3468L47.6974 45.731C47.742 45.6858 47.8001 45.6615 47.8594 45.6574C47.862 45.6572 47.8645 45.6565 47.8672 45.6564C47.8685 45.6564 47.8698 45.6566 47.8711 45.6566C47.9164 45.6557 47.9619 45.6664 48.0025 45.6897C48.0164 45.6977 48.0297 45.7071 48.0423 45.718C48.1369 45.8004 48.1568 45.9372 48.0897 46.0432L44.5813 51.5793C43.8445 52.7422 43.5042 54.1405 43.6234 55.5167C43.9572 59.372 44.5357 63.7192 47.0495 67.4061H35.265C36.1645 66.0721 36.8634 64.5546 37.386 62.8076C37.5121 62.386 37.2726 61.9418 36.8508 61.8157C36.429 61.6896 35.9849 61.9291 35.8589 62.3509C35.2215 64.4817 34.3036 66.2264 33.0527 67.6841C32.85 67.9204 32.8034 68.2531 32.9334 68.5359C33.0635 68.8188 33.3462 69 33.6575 69H48.6621C48.9734 69 49.2562 68.8188 49.3862 68.5359C49.5162 68.2531 49.4696 67.9204 49.267 67.6842C46.198 64.107 45.5643 59.4569 45.2111 55.3792C45.122 54.3488 45.3763 53.3022 45.9274 52.4325L45.9497 52.3972C47.2122 53.1884 48.733 53.6176 50.3186 53.6176C53.5479 53.6176 56.3512 51.86 57.3487 49.2791C62.4224 48.7732 66.3195 44.5165 66.3195 39.3564C66.3197 35.6118 64.2439 32.224 60.9669 30.5119Z" fill="#121419"/>
</svg>
