<svg width="82" height="82" viewBox="0 0 82 82" fill="none" xmlns="http://www.w3.org/2000/svg">
<circle cx="41" cy="41" r="41" fill="#0B2E60"/>
<path d="M60.3366 22.1054V36.7306H45.2193C44.6957 36.7306 44.2818 36.2776 44.3288 35.7619L44.6725 32.0431C44.7114 31.5744 44.1335 31.3165 43.8208 31.6759L41.7271 34.051C41.6333 34.1524 41.5005 34.215 41.3599 34.215H38.9927C38.813 34.215 38.649 34.3165 38.563 34.4729L37.6177 36.254C37.4614 36.551 37.1645 36.7306 36.8286 36.7306H21.1721V22.1054H60.3366Z" fill="#108BE1"/>
<path d="M60.3366 29.4179V36.7306H45.2193C44.6957 36.7306 44.2818 36.2776 44.3288 35.7619L44.6725 32.0431C44.7114 31.5744 44.1335 31.3165 43.8208 31.6759L41.7271 34.051C41.6333 34.1524 41.5005 34.215 41.3599 34.215H38.9927C38.813 34.215 38.649 34.3165 38.563 34.4729L37.6177 36.254C37.4614 36.551 37.1645 36.7306 36.8286 36.7306H21.1721V29.4179H60.3366Z" fill="#0C6BC3"/>
<path d="M21.1723 22.109H25.7583V36.7264H21.1723V22.109Z" fill="#085BB6"/>
<path d="M24.1956 22.1016V37.5392C24.1956 39.805 22.3674 41.6408 20.1016 41.6408C17.836 41.6408 16 39.805 16 37.5392V22.1016C16 19.8359 17.836 18 20.1016 18C21.2346 18 22.2581 18.4608 23.0003 19.203C23.7424 19.9451 24.1956 20.9686 24.1956 22.1016Z" fill="#108BE1"/>
<path d="M23.0003 19.203C22.3449 18.5476 21.4643 18.1322 20.4885 18.0391V41.6019C22.569 41.4041 24.1956 39.6724 24.1956 37.5392V22.1016C24.1956 20.9686 23.7425 19.9451 23.0003 19.203Z" fill="#0C6BC3"/>
<path d="M56.2432 22.109H60.337V36.7264H56.2432V22.109Z" fill="#085BB6"/>
<path d="M65.9999 22.1016V37.5392C65.9999 39.805 64.1717 41.6408 61.9059 41.6408C59.6404 41.6408 57.8043 39.805 57.8043 37.5392V22.1016C57.8043 19.8359 59.6404 18 61.9059 18C63.0389 18 64.0624 18.4608 64.8046 19.203C65.5467 19.9451 65.9999 20.9686 65.9999 22.1016Z" fill="#108BE1"/>
<path d="M64.8046 19.203C64.0624 18.4608 63.0389 18 61.9059 18C61.9023 18 61.8989 18.0011 61.8953 18.0011V41.6397C61.8989 41.6397 61.9023 41.6408 61.9059 41.6408C64.1717 41.6408 65.9999 39.805 65.9999 37.5392V22.1016C65.9999 20.9686 65.5467 19.9451 64.8046 19.203Z" fill="#0C6BC3"/>
<path d="M47.2788 49.1354C47.2788 52.6011 44.4661 55.4067 41.0004 55.4067C37.5349 55.4067 34.7221 52.6011 34.7221 49.1354C34.7221 46.7964 37.5708 42.3979 39.4291 39.7719C40.1969 38.6884 41.797 38.6884 42.5648 39.7719C44.4304 42.3979 47.2788 46.7964 47.2788 49.1354Z" fill="#E8EDF2"/>
<path d="M38.2435 53.1068C37.9471 53.1068 37.6507 52.995 37.4226 52.7711C36.4368 51.8037 35.894 50.5124 35.894 49.1353C35.894 48.4879 36.4185 47.9634 37.0659 47.9634C37.7132 47.9634 38.2378 48.4879 38.2378 49.1353C38.2378 49.878 38.5315 50.5753 39.0644 51.0987C39.5264 51.5519 39.5333 52.2939 39.0797 52.7559C38.8504 52.9897 38.5471 53.1068 38.2435 53.1068Z" fill="white"/>
<path d="M42.5649 39.772C42.2021 39.26 41.653 38.9987 41.0943 38.9705V55.402C44.5163 55.3514 47.2788 52.5695 47.2788 49.1355C47.2788 46.7964 44.4305 42.398 42.5649 39.772Z" fill="#C4D3E4"/>
<path d="M35.3316 58.7777C35.3316 61.1896 33.3741 63.1422 30.9622 63.1422C28.5504 63.1422 26.5929 61.1896 26.5929 58.7777C26.5929 57.1499 28.5754 54.0888 29.8687 52.2613C30.403 51.5072 31.5166 51.5072 32.0509 52.2613C33.3493 54.0888 35.3316 57.1499 35.3316 58.7777Z" fill="#E8EDF2"/>
<path d="M32.0509 52.2613C31.8108 51.9225 31.4532 51.7446 31.0843 51.71V63.136C33.4393 63.071 35.3316 61.1483 35.3316 58.7778C35.3316 57.1499 33.3493 54.0887 32.0509 52.2613Z" fill="#C4D3E4"/>
<path d="M53.348 60.626C53.348 62.9024 51.5006 64.7452 49.2242 64.7452C46.9479 64.7452 45.1003 62.9024 45.1003 60.626C45.1003 59.0896 46.9715 56.2005 48.1921 54.4756C48.6964 53.7639 49.7474 53.7639 50.2517 54.4756C51.4771 56.2005 53.348 59.0896 53.348 60.626Z" fill="#E8EDF2"/>
<path d="M50.2517 54.4755C50.0267 54.158 49.6919 53.9903 49.3463 53.9562V64.7329C51.565 64.6669 53.348 62.8606 53.348 60.6259C53.348 59.0897 51.4772 56.2006 50.2517 54.4755Z" fill="#C4D3E4"/>
<path d="M45.2437 25.2841H38.6499C38.0014 25.2841 37.478 24.7605 37.478 24.1122C37.478 23.4637 38.0014 22.9403 38.6499 22.9403H45.2361C45.8842 22.9403 46.408 23.4637 46.408 24.1122C46.4156 24.7605 45.8842 25.2841 45.2437 25.2841Z" fill="#4DB6FF"/>
<path d="M34.4154 25.2841H33.2512C32.9387 25.2841 32.642 25.1589 32.431 24.948C32.22 24.737 32.0793 24.4402 32.0793 24.1122C32.0793 23.4637 32.6107 22.9403 33.2512 22.9403H34.4154C35.0639 22.9403 35.5873 23.4637 35.5873 24.1122C35.5873 24.7605 35.0639 25.2841 34.4154 25.2841Z" fill="#4DB6FF"/>
</svg>
