<svg width="98" height="93" viewBox="0 0 98 93" fill="none" xmlns="http://www.w3.org/2000/svg">
<rect width="97.0965" height="72.4779" rx="15" fill="#FAFAFA"/>
<path d="M47.2207 92.4002L56.072 71.85H38.3693L47.2207 92.4002Z" fill="#FAFAFA"/>
<path fill-rule="evenodd" clip-rule="evenodd" d="M36.2347 63.9879H28.4417L32.5679 50.2819H38.6711L36.2347 63.9879ZM51.9109 63.9879H44.1177L44.9628 50.2819H51.0659L51.9109 63.9879ZM67.587 63.9879H59.7938L57.3576 50.2819H63.4607L67.587 63.9879ZM21.7643 63.9879V50.2819H26.388L21.7643 63.9879ZM74.2643 50.2819V63.9879L69.6405 50.2819H74.2643Z" fill="#636C77"/>
<path fill-rule="evenodd" clip-rule="evenodd" d="M50.4851 22.1781L49.3292 29.3501H51.2963L56.3741 34.4508C57.2205 35.3019 58.5965 35.3057 59.4476 34.4594C60.2986 33.613 60.3025 32.237 59.4561 31.3858L50.4851 22.1781Z" fill="#4FC0E8"/>
<path d="M52.0306 17.6358C53.4363 16.2301 53.4363 13.951 52.0306 12.5453C50.6249 11.1396 48.3458 11.1396 46.9401 12.5453C45.5344 13.951 45.5344 16.2301 46.9401 17.6358C48.3458 19.0415 50.6249 19.0415 52.0306 17.6358Z" fill="#EFC7A4"/>
<path fill-rule="evenodd" clip-rule="evenodd" d="M35.0382 51.5303C34.3295 52.692 34.6967 54.2083 35.8584 54.9171C37.02 55.6257 38.5374 55.257 39.2452 54.0969C42.796 48.2428 46.4335 42.4165 49.8566 36.4875L46.9134 31.7871C43.0744 38.4363 39.0276 44.9701 35.0382 51.5303Z" fill="#4FC0E8"/>
<path fill-rule="evenodd" clip-rule="evenodd" d="M61.1926 51.3154C61.6722 52.5889 61.0285 54.0102 59.7549 54.4899C58.4814 54.9695 57.06 54.3258 56.5804 53.0522L53.1092 43.8579L46.2636 36.495C45.5611 35.635 45.3981 35.6834 45.3981 34.4114V27.574L42.6045 29.0414L41.448 35.6503C41.2411 36.8352 40.1128 37.6281 38.928 37.4212C37.7431 37.2143 36.9502 36.0861 37.1571 34.9011L38.4976 27.2407C38.626 26.5054 39.1093 25.9211 39.7408 25.633L46.9673 21.6009C47.1535 21.5028 47.5611 21.2568 48.3472 21.2568C49.9712 21.2568 51.2964 22.5818 51.2964 24.2059V34.5135L56.9713 40.796C57.2242 41.0411 57.4284 41.3445 57.5608 41.696L61.1926 51.3154Z" fill="#66D4F1"/>
<path fill-rule="evenodd" clip-rule="evenodd" d="M49.4899 12.2534C51.053 12.2534 52.3236 13.5257 52.3236 15.0887C52.3236 16.6513 51.0529 17.9225 49.4899 17.9225C47.9268 17.9225 46.6561 16.6513 46.6561 15.0887C46.6561 13.5257 47.9268 12.2534 49.4899 12.2534ZM49.4899 19.4536C51.897 19.4536 53.8553 17.4948 53.8553 15.0886C53.8553 12.6811 51.897 10.7223 49.4899 10.7223C47.0828 10.7223 45.1245 12.6811 45.1245 15.0886C45.1245 17.4948 47.0828 19.4536 49.4899 19.4536ZM44.9335 63.2224L45.6834 51.0479H50.3463L51.0977 63.2224H44.9335ZM51.8306 50.2353C51.8065 49.8318 51.4709 49.5168 51.0674 49.5168H44.964C44.5594 49.5168 44.2249 49.8318 44.1996 50.2353L43.3541 63.9409C43.3417 64.1518 43.4163 64.3588 43.5605 64.5127C43.705 64.666 43.9073 64.7535 44.1184 64.7535H51.9115C52.1224 64.7535 52.3252 64.666 52.4694 64.5127C52.6151 64.3588 52.6891 64.1518 52.6763 63.9409L51.8306 50.2353ZM60.4364 63.2224L59.0473 55.4097C59.3741 55.3932 59.7035 55.3279 60.0262 55.2064C60.8332 54.9022 61.4729 54.3016 61.8296 53.5162C62.1853 52.7309 62.2135 51.8538 61.9104 51.0479H62.8929L66.5579 63.2224H60.4364ZM53.8264 43.5873L57.2984 52.7813C57.6283 53.6588 58.6098 54.1034 59.4857 53.7736C59.9103 53.6134 60.2469 53.2975 60.4353 52.8842C60.6221 52.472 60.6365 52.0103 60.4764 51.5857L56.8455 41.9666C56.7559 41.7289 56.6191 41.52 56.4395 41.3454C56.4277 41.3341 56.4157 41.3222 56.4045 41.3089L50.7292 35.0264C50.6021 34.8864 50.531 34.7026 50.531 34.5137V24.206C50.531 23.6198 50.298 23.0882 49.9212 22.6954L49.8836 22.6563C49.4889 22.2646 48.9464 22.0228 48.3479 22.0228C47.8023 22.0228 47.5301 22.1684 47.3669 22.2559L47.335 22.2724L40.1143 26.3016C40.0968 26.3115 40.0783 26.3212 40.0597 26.33C39.6341 26.5234 39.3335 26.913 39.2527 27.3722L37.9124 35.033C37.7781 35.7999 38.2933 36.5328 39.0601 36.6671C39.4317 36.7314 39.8069 36.6486 40.1151 36.4309C40.4239 36.2142 40.6293 35.8904 40.6952 35.5183L41.8511 28.909C41.8913 28.6754 42.0395 28.4742 42.2489 28.3635L45.0426 26.8966C45.2798 26.7721 45.5655 26.7798 45.795 26.9183C46.025 27.0573 46.165 27.3058 46.165 27.5734V34.4118C46.165 35.1992 46.165 35.1992 46.5521 35.6475C46.6365 35.7474 46.7322 35.8585 46.8418 35.9913L53.6714 43.3366C53.7379 43.4092 53.7915 43.4942 53.8264 43.5873ZM38.5929 53.6979L47.5444 38.9959L45.7034 37.016C45.6926 37.0042 45.6813 36.9918 45.6715 36.98C45.5655 36.8498 45.4723 36.7428 45.3915 36.6475C45.304 36.5467 45.2273 36.454 45.1573 36.3639L35.6931 51.928C35.4559 52.3166 35.3848 52.7726 35.4919 53.2136C35.5978 53.6541 35.8706 54.0272 36.2577 54.2635C36.6447 54.4997 37.1008 54.5707 37.5418 54.4647C37.9835 54.3572 38.3566 54.085 38.5929 53.6979ZM35.5939 63.2224H29.4724L33.1383 51.0479H34.4363L34.3853 51.1318C33.9365 51.8683 33.8002 52.7355 34.0035 53.5734C34.2068 54.4123 34.724 55.1211 35.4605 55.5703C35.9041 55.8404 36.3869 55.9903 36.8722 56.0299L35.5939 63.2224ZM59.3241 32.9224C59.3226 33.2981 59.1748 33.6517 58.9083 33.9163C58.6422 34.1813 58.2845 34.3234 57.9119 34.3255C57.5367 34.3255 57.1837 34.1777 56.9175 33.9112L52.0627 29.0296V24.8942L58.9134 31.926C59.1795 32.1926 59.3251 32.5456 59.3241 32.9224ZM64.1944 50.0613C64.0971 49.7375 63.7996 49.5168 63.4615 49.5168H61.3318L58.2783 41.4262C58.112 40.9851 57.8583 40.5945 57.5244 40.2656L52.0627 34.2194V31.2009L55.8327 34.9904C56.3859 35.5472 57.123 35.8544 57.9088 35.8565H57.916C58.6983 35.8565 59.4343 35.5539 59.9886 35.0026C60.5454 34.4489 60.8528 33.7119 60.8553 32.9265C60.8573 32.1411 60.5532 31.4031 60.0051 30.8513L51.02 21.629C50.3443 20.928 49.3957 20.4916 48.3479 20.4916C47.4173 20.4916 46.875 20.7825 46.6429 20.9065L46.6115 20.924C46.6058 20.9271 46.6001 20.9291 46.595 20.9322L39.3938 24.9507C38.525 25.3589 37.9095 26.1627 37.7443 27.1087L36.4031 34.7696C36.1246 36.3686 37.1982 37.8967 38.7973 38.1756C39.5719 38.311 40.3531 38.136 40.9959 37.6841C41.6393 37.2327 42.068 36.5564 42.2033 35.7824L43.2949 29.5446L44.6335 28.8415V34.2796L35.3675 49.5168H32.5687C32.2306 49.5168 31.9331 49.7375 31.8358 50.0613L27.7087 63.7668C27.6403 63.9989 27.684 64.2506 27.8282 64.4452C27.9728 64.6387 28.2003 64.7535 28.4432 64.7535H36.2357C36.6068 64.7535 36.9249 64.4879 36.9892 64.1225L38.477 55.7519C39.0479 55.494 39.5497 55.0694 39.9001 54.4951L48.6283 40.1616L52.4477 44.2687L55.8656 53.3216C56.1605 54.108 56.7338 54.7107 57.4306 55.0628L59.0405 64.1214C59.1064 64.4878 59.4234 64.7534 59.795 64.7534H67.5881C67.83 64.7534 68.0574 64.6387 68.2031 64.4451C68.3472 64.2505 68.3909 63.9988 68.3209 63.7667L64.1944 50.0613ZM73.5001 59.3233L70.7055 51.0479H73.5001V59.3233ZM74.2669 49.5168H69.64C69.393 49.5168 69.1614 49.6346 69.0224 49.8349C68.8731 50.0361 68.8371 50.2929 68.9143 50.5271L73.5412 64.2332C73.6442 64.5482 73.9426 64.7535 74.2669 64.7535C74.3081 64.7535 74.3493 64.7504 74.3904 64.7437C74.761 64.6824 75.0286 64.3628 75.0286 63.9877V50.2821C75.0286 49.859 74.6889 49.5168 74.2669 49.5168ZM22.5311 59.3233V51.0479H25.3222L22.5311 59.3233ZM26.389 49.5168H21.7653C21.3422 49.5168 21 49.859 21 50.2821V63.9877C21 64.3628 21.2712 64.6824 21.6407 64.7437C21.6824 64.7503 21.7241 64.7535 21.7653 64.7535C22.0895 64.7535 22.3845 64.5481 22.4905 64.2332L27.1143 50.5271C27.1925 50.2929 27.1544 50.0361 27.0114 49.8349C26.8667 49.6346 26.6361 49.5168 26.389 49.5168Z" fill="black"/>
</svg>
