<svg width="98" height="93" viewBox="0 0 98 93" fill="none" xmlns="http://www.w3.org/2000/svg">
<rect width="97.0965" height="72.4779" rx="15" fill="#FAFAFA"/>
<path d="M47.2207 92.4002L56.072 71.85H38.3693L47.2207 92.4002Z" fill="#FAFAFA"/>
<path d="M65.5 17.6163H32.25C29.8338 17.6163 27.875 19.575 27.875 21.9913V55.2413C27.875 57.6575 29.8338 59.6163 32.25 59.6163H65.5C67.9162 59.6163 69.875 57.6575 69.875 55.2413V21.9913C69.875 19.575 67.9162 17.6163 65.5 17.6163Z" fill="#E6F3FF"/>
<path d="M65.5 60.4913H32.25C29.355 60.4913 27 58.1363 27 55.2413V21.9913C27 19.0963 29.355 16.7413 32.25 16.7413H65.5C68.395 16.7413 70.75 19.0963 70.75 21.9913V55.2413C70.75 58.1363 68.395 60.4913 65.5 60.4913ZM32.25 18.4913C30.3201 18.4913 28.75 20.061 28.75 21.9913V55.2413C28.75 57.1716 30.3201 58.7413 32.25 58.7413H65.5C67.4299 58.7413 69 57.1716 69 55.2413V21.9913C69 20.061 67.4299 18.4913 65.5 18.4913H32.25Z" fill="#21257C"/>
<path d="M32.25 38.6163C32.25 29.4346 39.6933 21.9913 48.875 21.9913C70.9277 22.867 70.9215 54.369 48.8749 55.2414C39.6933 55.2413 32.25 47.7981 32.25 38.6163Z" fill="#E6F3FF"/>
<path d="M48.875 56.1163C39.2256 56.1163 31.375 48.2661 31.375 38.6163C32.3362 15.4002 65.4173 15.407 66.375 38.6165C66.375 48.2661 58.5244 56.1163 48.875 56.1163ZM48.875 22.8663C40.1904 22.8663 33.125 29.9321 33.125 38.6163C33.9904 59.5108 63.7628 59.5047 64.625 38.6162C64.625 29.9321 57.5596 22.8663 48.875 22.8663Z" fill="#21257C"/>
<path d="M48.875 25.4913C49.8415 25.4913 50.625 26.2748 50.625 27.2413V49.9913C50.625 50.9578 49.8415 51.7413 48.875 51.7413C47.9085 51.7413 47.125 50.9578 47.125 49.9913V27.2413C47.125 26.2748 47.9085 25.4913 48.875 25.4913Z" fill="#4AA5FF"/>
<path d="M55.875 28.1163C56.8415 28.1163 57.625 28.8998 57.625 29.8663V47.3663C57.625 48.3328 56.8415 49.1163 55.875 49.1163C54.9085 49.1163 54.125 48.3328 54.125 47.3663V29.8663C54.125 28.8998 54.9085 28.1163 55.875 28.1163Z" fill="#4AA5FF"/>
<path d="M41.875 28.1163C42.8415 28.1163 43.625 28.8998 43.625 29.8663V47.3663C43.625 48.3328 42.8415 49.1163 41.875 49.1163C40.9085 49.1163 40.125 48.3328 40.125 47.3663V29.8663C40.125 28.8998 40.9085 28.1163 41.875 28.1163Z" fill="#4AA5FF"/>
<path d="M61.125 43.8663C60.6418 43.8663 60.25 43.475 60.25 42.9913V34.2413C60.25 33.7577 60.6418 33.3663 61.125 33.3663C61.6082 33.3663 62 33.7577 62 34.2413V42.9913C62 43.475 61.6082 43.8663 61.125 43.8663Z" fill="#4AA5FF"/>
<path d="M36.625 43.8663C36.1418 43.8663 35.75 43.475 35.75 42.9913V34.2413C35.75 33.7577 36.1418 33.3663 36.625 33.3663C37.1082 33.3663 37.5 33.7577 37.5 34.2413V42.9913C37.5 43.475 37.1082 43.8663 36.625 43.8663Z" fill="#4AA5FF"/>
<path d="M37.5 26.3823C37.5 21.4288 44.572 12.8629 47.5636 9.4609C48.2607 8.66816 49.4893 8.66816 50.1864 9.4609C53.178 12.8629 60.25 21.4288 60.25 26.3823C60.25 32.6646 55.1572 37.7573 48.875 37.7573C42.5928 37.7573 37.5 32.6646 37.5 26.3823Z" fill="#4AA5FF"/>
<path d="M48.875 38.6326C42.1202 38.6326 36.625 33.1373 36.625 26.3826C36.625 21.3291 43.067 13.2499 46.9067 8.88344C47.8956 7.70636 49.8545 7.70467 50.8433 8.88348C54.683 13.2499 61.125 21.3291 61.125 26.3826C61.125 33.1373 55.6298 38.6326 48.875 38.6326ZM48.875 9.74135C48.6216 9.74135 48.3896 9.8473 48.2209 10.0387C42.0557 17.049 38.375 23.1594 38.375 26.3826C38.375 32.1726 43.0854 36.8826 48.875 36.8826C54.6646 36.8826 59.375 32.1726 59.375 26.3826C59.375 23.1594 55.6943 17.049 49.5291 10.0387C49.3604 9.8473 49.1284 9.74135 48.875 9.74135Z" fill="#21257C"/>
<path d="M54.5373 32.8101C53.7894 32.8348 53.3603 31.8374 53.9187 31.3164C55.2508 29.9834 55.9848 28.2112 55.9848 26.327C55.9848 25.4965 55.6024 24.3275 54.8787 22.9467C54.6544 22.5186 54.8193 21.9905 55.2474 21.7657C55.6764 21.5427 56.2044 21.7068 56.4287 22.1349C57.3076 23.8114 57.7348 25.1829 57.7348 26.327C57.7348 28.6786 56.8192 30.89 55.156 32.5537C54.9851 32.7246 54.7612 32.8101 54.5373 32.8101Z" fill="#E6F3FF"/>
</svg>
