<svg width="98" height="93" viewBox="0 0 98 93" fill="none" xmlns="http://www.w3.org/2000/svg">
<rect width="97.0965" height="72.4779" rx="15" fill="#FAFAFA"/>
<path d="M47.2207 92.4002L56.072 71.85H38.3693L47.2207 92.4002Z" fill="#FAFAFA"/>
<path d="M43.0015 8.64491H67.2718V13.7945H43.0015V8.64491Z" fill="#FFDB94"/>
<path d="M67.2718 14.4384H43.0015C42.8305 14.4384 42.6665 14.3704 42.5455 14.2495C42.4246 14.1286 42.3566 13.9645 42.3566 13.7935V8.64491C42.3566 8.47387 42.4246 8.30984 42.5455 8.18889C42.6665 8.06795 42.8305 8 43.0015 8H67.2718C67.4428 8 67.6069 8.06795 67.7278 8.18889C67.8488 8.30984 67.9167 8.47387 67.9167 8.64491V13.7935C67.9167 13.9645 67.8488 14.1286 67.7278 14.2495C67.6069 14.3704 67.4428 14.4384 67.2718 14.4384ZM43.6465 13.1486H66.6269V9.28983H43.6465V13.1486Z" fill="black"/>
<path d="M23.8261 53.2085H55.9643V58.1797H23.8261V53.2085Z" fill="#FFDB94"/>
<path d="M55.975 58.8299H23.8261C23.6551 58.8299 23.491 58.762 23.3701 58.6411C23.2491 58.5201 23.1812 58.3561 23.1812 58.185V53.2085C23.1812 53.0374 23.2491 52.8734 23.3701 52.7524C23.491 52.6315 23.6551 52.5635 23.8261 52.5635H55.975C56.1461 52.5635 56.3101 52.6315 56.4311 52.7524C56.552 52.8734 56.62 53.0374 56.62 53.2085V58.185C56.62 58.3561 56.552 58.5201 56.4311 58.6411C56.3101 58.762 56.1461 58.8299 55.975 58.8299ZM24.471 57.5401H55.3301V53.8534H24.471V57.5401Z" fill="black"/>
<path d="M19.6449 58.185H31.4361V62.8693H19.6449V58.185Z" fill="#FFDB94"/>
<path d="M31.4361 63.5163H19.6449C19.4739 63.5163 19.3098 63.4484 19.1889 63.3274C19.0679 63.2065 19 63.0424 19 62.8714V58.185C19 58.014 19.0679 57.85 19.1889 57.729C19.3098 57.6081 19.4739 57.5401 19.6449 57.5401H31.4361C31.6071 57.5401 31.7712 57.6081 31.8921 57.729C32.0131 57.85 32.081 58.014 32.081 58.185V62.8714C32.081 63.0424 32.0131 63.2065 31.8921 63.3274C31.7712 63.4484 31.6071 63.5163 31.4361 63.5163ZM20.2898 62.2265H30.7912V58.8299H20.2898V62.2265Z" fill="black"/>
<path d="M28.018 58.185H55.975V62.8693H28.018V58.185Z" fill="#FFDB94"/>
<path d="M55.975 63.5163H28.018C27.847 63.5163 27.683 63.4484 27.562 63.3274C27.4411 63.2065 27.3731 63.0424 27.3731 62.8714V58.185C27.3731 58.014 27.4411 57.85 27.562 57.729C27.683 57.6081 27.847 57.5401 28.018 57.5401H55.975C56.1461 57.5401 56.3101 57.6081 56.4311 57.729C56.552 57.85 56.62 58.014 56.62 58.185V62.8714C56.62 63.0424 56.552 63.2065 56.4311 63.3274C56.3101 63.4484 56.1461 63.5163 55.975 63.5163ZM28.663 62.2265H55.3301V58.8299H28.663V62.2265Z" fill="black"/>
<path d="M19.6449 48.2426H55.975V53.2127H19.6449V48.2426Z" fill="#FFDB94"/>
<path d="M55.975 53.8533H19.6449C19.4739 53.8533 19.3098 53.7854 19.1889 53.6645C19.0679 53.5435 19 53.3795 19 53.2084V48.2426C19 48.0716 19.0679 47.9075 19.1889 47.7866C19.3098 47.6656 19.4739 47.5977 19.6449 47.5977H55.975C56.1461 47.5977 56.3101 47.6656 56.4311 47.7866C56.552 47.9075 56.62 48.0716 56.62 48.2426V53.2084C56.62 53.3795 56.552 53.5435 56.4311 53.6645C56.3101 53.7854 56.1461 53.8533 55.975 53.8533ZM20.2898 52.5635H55.3301V48.8875H20.2898V52.5635Z" fill="black"/>
<path d="M23.9121 43.266H55.975V48.2362H23.9121V43.266Z" fill="#FFDB94"/>
<path d="M55.975 48.8875H23.9121C23.7411 48.8875 23.577 48.8196 23.4561 48.6986C23.3351 48.5777 23.2672 48.4136 23.2672 48.2426V43.266C23.2672 43.095 23.3351 42.9309 23.4561 42.81C23.577 42.6891 23.7411 42.6211 23.9121 42.6211H55.975C56.1461 42.6211 56.3101 42.6891 56.4311 42.81C56.552 42.9309 56.62 43.095 56.62 43.266V48.2426C56.62 48.4136 56.552 48.5777 56.4311 48.6986C56.3101 48.8196 56.1461 48.8875 55.975 48.8875ZM24.557 47.5977H55.3301V43.9109H24.557V47.5977Z" fill="black"/>
<path d="M19.6449 38.3002H55.975V43.2703H19.6449V38.3002Z" fill="#FFDB94"/>
<path d="M55.975 43.9109H19.6449C19.4739 43.9109 19.3098 43.843 19.1889 43.722C19.0679 43.6011 19 43.4371 19 43.266V38.3002C19 38.1291 19.0679 37.9651 19.1889 37.8442C19.3098 37.7232 19.4739 37.6553 19.6449 37.6553H55.975C56.1461 37.6553 56.3101 37.7232 56.4311 37.8442C56.552 37.9651 56.62 38.1291 56.62 38.3002V43.266C56.62 43.4371 56.552 43.6011 56.4311 43.722C56.3101 43.843 56.1461 43.9109 55.975 43.9109ZM20.2898 42.6211H55.3301V38.9451H20.2898V42.6211Z" fill="black"/>
<path d="M25.5351 33.3344H55.9643V38.3045H25.5351V33.3344Z" fill="#FFDB94"/>
<path d="M55.9751 38.9451H25.5351C25.3641 38.9451 25.2 38.8772 25.0791 38.7562C24.9582 38.6353 24.8902 38.4712 24.8902 38.3002V33.3344C24.8902 33.1633 24.9582 32.9993 25.0791 32.8783C25.2 32.7574 25.3641 32.6894 25.5351 32.6894H55.9751C56.1461 32.6894 56.3101 32.7574 56.4311 32.8783C56.552 32.9993 56.62 33.1633 56.62 33.3344V38.3002C56.62 38.4712 56.552 38.6353 56.4311 38.7562C56.3101 38.8772 56.1461 38.9451 55.9751 38.9451ZM26.18 37.6553H55.3301V33.9793H26.18V37.6553Z" fill="black"/>
<path d="M31.4361 28.3578H55.975V33.3279H31.4361V28.3578Z" fill="#FFDB94"/>
<path d="M55.975 33.9793H31.4361C31.265 33.9793 31.101 33.9113 30.9801 33.7904C30.8591 33.6694 30.7912 33.5054 30.7912 33.3344V28.3578C30.7912 28.1867 30.8591 28.0227 30.9801 27.9018C31.101 27.7808 31.265 27.7129 31.4361 27.7129H55.975C56.1461 27.7129 56.3101 27.7808 56.4311 27.9018C56.552 28.0227 56.62 28.1867 56.62 28.3578V33.3344C56.62 33.5054 56.552 33.6694 56.4311 33.7904C56.3101 33.9113 56.1461 33.9793 55.975 33.9793ZM32.081 32.6894H55.3301V29.0027H32.081V32.6894Z" fill="black"/>
<path d="M25.6534 23.3919H62.091V28.3621H25.6534V23.3919Z" fill="#FFDB94"/>
<path d="M62.091 29.0027H25.6534C25.4823 29.0027 25.3183 28.9347 25.1973 28.8138C25.0764 28.6929 25.0084 28.5288 25.0084 28.3578V23.3919C25.0084 23.2209 25.0764 23.0569 25.1973 22.9359C25.3183 22.815 25.4823 22.747 25.6534 22.747H62.091C62.262 22.747 62.4261 22.815 62.547 22.9359C62.6679 23.0569 62.7359 23.2209 62.7359 23.3919V28.3578C62.7359 28.5288 62.6679 28.6929 62.547 28.8138C62.4261 28.9347 62.262 29.0027 62.091 29.0027ZM26.2983 27.7129H61.4461V24.0369H26.2983V27.7129Z" fill="black"/>
<path d="M19.6449 18.4154H62.091V23.3855H19.6449V18.4154Z" fill="#FFDB94"/>
<path d="M62.091 24.0369H19.6449C19.4739 24.0369 19.3098 23.9689 19.1889 23.848C19.0679 23.727 19 23.563 19 23.3919V18.4154C19 18.2443 19.0679 18.0803 19.1889 17.9593C19.3098 17.8384 19.4739 17.7704 19.6449 17.7704H62.091C62.262 17.7704 62.4261 17.8384 62.547 17.9593C62.6679 18.0803 62.7359 18.2443 62.7359 18.4154V23.3919C62.7359 23.563 62.6679 23.727 62.547 23.848C62.4261 23.9689 62.262 24.0369 62.091 24.0369ZM20.2898 22.747H61.4461V19.0603H20.2898V22.747Z" fill="black"/>
<path d="M25.5351 13.7935H70.7866V18.4175H25.5351V13.7935Z" fill="#FFDB94"/>
<path d="M70.7973 19.0603H25.5351C25.3641 19.0603 25.2 18.9923 25.0791 18.8714C24.9582 18.7504 24.8902 18.5864 24.8902 18.4154V13.7935C24.8902 13.6224 24.9582 13.4584 25.0791 13.3375C25.2 13.2165 25.3641 13.1486 25.5351 13.1486H70.7973C70.9684 13.1486 71.1324 13.2165 71.2533 13.3375C71.3743 13.4584 71.4422 13.6224 71.4422 13.7935V18.4154C71.4422 18.5864 71.3743 18.7504 71.2533 18.8714C71.1324 18.9923 70.9684 19.0603 70.7973 19.0603ZM26.18 17.7704H70.1524V14.4384H26.18V17.7704Z" fill="black"/>
<path d="M30.7912 62.8714H32.081V63.2336H30.7912V62.8714Z" fill="black"/>
<path d="M42.3566 58.185H43.6465V63.2315H42.3566V58.185Z" fill="black"/>
<path d="M36.5739 52.929H37.8637V57.9754H36.5739V52.929Z" fill="black"/>
<path d="M30.7912 47.8879H32.081V52.9344H30.7912V47.8879Z" fill="black"/>
<path d="M42.3566 47.8879H43.6465V52.9344H42.3566V47.8879Z" fill="black"/>
<path d="M36.5739 42.6319H37.8637V47.6783H36.5739V42.6319Z" fill="black"/>
<path d="M30.7912 38.4292H32.081V43.4756H30.7912V38.4292Z" fill="black"/>
<path d="M42.3566 38.4292H43.6465V43.4756H42.3566V38.4292Z" fill="black"/>
<path d="M36.5739 33.1839H37.8637V38.2303H36.5739V33.1839Z" fill="black"/>
<path d="M30.7912 28.132H32.081V33.1785H30.7912V28.132Z" fill="black"/>
<path d="M42.3566 28.132H43.6465V33.1785H42.3566V28.132Z" fill="black"/>
<path d="M36.5739 22.8867H37.8637V27.9332H36.5739V22.8867Z" fill="black"/>
<path d="M30.7912 18.5228H32.081V23.5693H30.7912V18.5228Z" fill="black"/>
<path d="M42.3566 18.5228H43.6465V23.5693H42.3566V18.5228Z" fill="black"/>
<path d="M25.0084 13.2668H26.2983V18.3132H25.0084V13.2668Z" fill="black"/>
<path d="M36.5739 13.2668H37.8637V18.3132H36.5739V13.2668Z" fill="black"/>
<path d="M49.2787 52.9075H50.5685V57.9539H49.2787V52.9075Z" fill="black"/>
<path d="M49.2787 42.6104H50.5685V47.6568H49.2787V42.6104Z" fill="black"/>
<path d="M49.2787 33.1624H50.5685V38.2088H49.2787V33.1624Z" fill="black"/>
<path d="M49.2787 22.8653H50.5685V27.9117H49.2787V22.8653Z" fill="black"/>
<path d="M55.0614 18.5013H56.3512V23.5478H55.0614V18.5013Z" fill="black"/>
<path d="M49.2787 13.2453H50.5685V18.2917H49.2787V13.2453Z" fill="black"/>
<path d="M55.0614 8.69865H56.3512V13.7451H55.0614V8.69865Z" fill="black"/>
<path d="M60.8441 13.2453H62.134V18.2917H60.8441V13.2453Z" fill="black"/>
<path d="M73.0438 31.6791V48.7478C73.0438 49.1355 72.8897 49.5073 72.6156 49.7814C72.3415 50.0556 71.9696 50.2096 71.582 50.2096H70.7221C70.3476 50.2011 69.9917 50.045 69.732 49.7751C69.4723 49.5053 69.3297 49.1438 69.3355 48.7693V36.5159C69.3383 36.331 69.3047 36.1474 69.2366 35.9754C69.1684 35.8035 69.0671 35.6467 68.9383 35.5139C68.8096 35.3812 68.6559 35.2751 68.4862 35.2017C68.3164 35.1284 68.1339 35.0892 67.9489 35.0864H67.1535C66.9686 35.0892 66.7861 35.1284 66.6163 35.2017C66.4465 35.2751 66.2929 35.3812 66.1641 35.5139C66.0354 35.6467 65.934 35.8035 65.8659 35.9754C65.7977 36.1474 65.7641 36.331 65.767 36.5159V44.5344C65.7698 44.7207 65.7359 44.9057 65.6672 45.079C65.5986 45.2522 65.4964 45.4102 65.3667 45.5439C65.2369 45.6777 65.0821 45.7846 64.911 45.8585C64.7399 45.9324 64.556 45.9719 64.3697 45.9747C64.1869 45.9738 64.0061 45.9363 63.8381 45.8643C63.6701 45.7923 63.5182 45.6873 63.3915 45.5555C63.1257 45.2825 62.9788 44.9154 62.9831 44.5344V38.9881C62.9889 38.6136 62.8463 38.2521 62.5866 37.9822C62.3269 37.7124 61.971 37.5563 61.5965 37.5478H60.8334C60.459 37.5563 60.1031 37.7124 59.8433 37.9822C59.5836 38.2521 59.4411 38.6136 59.4468 38.9881V39.5685C59.4497 39.7534 59.4161 39.9371 59.3479 40.109C59.2798 40.2809 59.1784 40.4378 59.0497 40.5705C58.9209 40.7033 58.7673 40.8094 58.5975 40.8827C58.4277 40.9561 58.2452 40.9953 58.0603 40.9981H57.3616C57.0252 40.9981 56.7026 40.8645 56.4648 40.6266C56.2269 40.3887 56.0933 40.0661 56.0933 39.7298V31.6791H73.0438Z" fill="#FA5753"/>
<path d="M71.582 50.8545H70.7221C70.1766 50.846 69.6567 50.6219 69.276 50.2311C68.8953 49.8404 68.6848 49.3148 68.6906 48.7693V36.5159C68.6935 36.4157 68.6765 36.3159 68.6408 36.2222C68.6051 36.1285 68.5512 36.0428 68.4824 35.9699C68.4135 35.8971 68.3309 35.8385 68.2394 35.7975C68.1479 35.7566 68.0492 35.7341 67.9489 35.7313H67.1535C67.0533 35.7341 66.9546 35.7566 66.8631 35.7975C66.7716 35.8385 66.689 35.8971 66.6201 35.9699C66.5512 36.0428 66.4974 36.1285 66.4617 36.2222C66.4259 36.3159 66.409 36.4157 66.4119 36.5159V44.5344C66.4147 44.8054 66.3642 45.0743 66.2631 45.3258C66.162 45.5772 66.0123 45.8063 65.8227 46C65.633 46.1936 65.4071 46.348 65.1578 46.4543C64.9085 46.5606 64.6407 46.6168 64.3697 46.6196C64.0998 46.6194 63.8327 46.5641 63.585 46.4569C63.3373 46.3496 63.1142 46.1929 62.9294 45.9962C62.7389 45.8038 62.5885 45.5756 62.487 45.3246C62.3855 45.0737 62.3349 44.805 62.3382 44.5344V38.9881C62.344 38.7846 62.2694 38.587 62.1306 38.4382C61.9918 38.2893 61.7999 38.2011 61.5965 38.1927H60.8334C60.63 38.2011 60.4381 38.2893 60.2993 38.4382C60.1605 38.587 60.0859 38.7846 60.0917 38.9881V39.5685C60.0946 39.8381 60.0443 40.1056 59.9437 40.3558C59.8432 40.606 59.6943 40.8339 59.5057 41.0265C59.317 41.2192 59.0923 41.3727 58.8443 41.4785C58.5963 41.5843 58.3299 41.6402 58.0603 41.643H57.3616C56.8542 41.643 56.3675 41.4414 56.0087 41.0826C55.6499 40.7238 55.4484 40.2372 55.4484 39.7298V31.6791C55.4484 31.508 55.5163 31.344 55.6373 31.2231C55.7582 31.1021 55.9222 31.0342 56.0933 31.0342H73.0438C73.2148 31.0342 73.3788 31.1021 73.4998 31.2231C73.6207 31.344 73.6887 31.508 73.6887 31.6791V48.7478C73.6887 49.3065 73.4667 49.8424 73.0716 50.2375C72.6765 50.6326 72.1407 50.8545 71.582 50.8545ZM67.1535 34.4415H67.9489C68.4925 34.4499 69.0108 34.6726 69.3912 35.061C69.7716 35.4494 69.9833 35.9723 69.9804 36.5159V48.7693C69.9746 48.9728 70.0492 49.1703 70.188 49.3192C70.3268 49.4681 70.5187 49.5563 70.7221 49.5647H71.582C71.7986 49.5647 72.0064 49.4786 72.1596 49.3254C72.3128 49.1722 72.3988 48.9644 72.3988 48.7478V32.324H56.7382V39.7298C56.7382 39.8951 56.8039 40.0537 56.9208 40.1706C57.0377 40.2875 57.1963 40.3532 57.3616 40.3532H58.0603C58.1605 40.3504 58.2592 40.3279 58.3507 40.2869C58.4422 40.246 58.5248 40.1874 58.5937 40.1145C58.6626 40.0417 58.7164 39.9559 58.7521 39.8622C58.7879 39.7686 58.8048 39.6688 58.8019 39.5685V38.9881C58.7962 38.4426 59.0066 37.917 59.3873 37.5263C59.768 37.1355 60.2879 36.9114 60.8334 36.9029H61.5965C62.142 36.9114 62.6619 37.1355 63.0426 37.5263C63.4233 37.917 63.6338 38.4426 63.628 38.9881V44.5344C63.6261 44.6395 63.6451 44.744 63.6838 44.8418C63.7226 44.9396 63.7803 45.0287 63.8537 45.104C63.9205 45.1739 64.0005 45.2298 64.0891 45.2686C64.1777 45.3073 64.273 45.3281 64.3697 45.3297C64.4713 45.327 64.5714 45.3042 64.6642 45.2627C64.7571 45.2212 64.8408 45.1618 64.9107 45.088C64.9806 45.0141 65.0352 44.9272 65.0715 44.8322C65.1077 44.7372 65.1249 44.636 65.1221 44.5344V36.5159C65.1192 36.2463 65.1695 35.9788 65.2701 35.7286C65.3706 35.4785 65.5195 35.2506 65.7081 35.0579C65.8968 34.8653 66.1215 34.7117 66.3695 34.6059C66.6175 34.5002 66.8839 34.4443 67.1535 34.4415Z" fill="black"/>
<path d="M73.0438 48.7478V60.2703H56.0933V39.7298C56.0933 40.0661 56.2269 40.3887 56.4648 40.6266C56.7026 40.8645 57.0252 40.9981 57.3616 40.9981H58.0603C58.2452 40.9953 58.4277 40.9561 58.5975 40.8827C58.7673 40.8094 58.9209 40.7033 59.0497 40.5705C59.1784 40.4378 59.2798 40.281 59.3479 40.109C59.4161 39.9371 59.4497 39.7534 59.4468 39.5685V38.9881C59.4411 38.6136 59.5836 38.2521 59.8433 37.9822C60.1031 37.7124 60.459 37.5563 60.8334 37.5478H61.5965C61.971 37.5563 62.3269 37.7124 62.5866 37.9822C62.8463 38.2521 62.9889 38.6136 62.9831 38.9881V44.5344C62.9788 44.9154 63.1257 45.2825 63.3915 45.5555C63.5182 45.6873 63.6701 45.7923 63.8381 45.8643C64.0061 45.9363 64.1869 45.9738 64.3697 45.9747C64.556 45.9719 64.7399 45.9324 64.911 45.8585C65.0821 45.7846 65.2369 45.6777 65.3667 45.544C65.4964 45.4102 65.5986 45.2522 65.6672 45.079C65.7359 44.9058 65.7698 44.7207 65.767 44.5344V36.5159C65.7641 36.331 65.7977 36.1474 65.8659 35.9754C65.934 35.8035 66.0354 35.6467 66.1641 35.5139C66.2929 35.3812 66.4465 35.2751 66.6163 35.2017C66.7861 35.1284 66.9686 35.0892 67.1535 35.0864H67.9489C68.1339 35.0892 68.3164 35.1284 68.4862 35.2017C68.6559 35.2751 68.8096 35.3812 68.9383 35.5139C69.0671 35.6467 69.1684 35.8035 69.2366 35.9754C69.3047 36.1474 69.3383 36.331 69.3355 36.5159V48.7693C69.3297 49.1438 69.4723 49.5053 69.732 49.7752C69.9917 50.045 70.3476 50.2011 70.7221 50.2096H71.582C71.9696 50.2096 72.3415 50.0556 72.6156 49.7815C72.8897 49.5073 73.0438 49.1355 73.0438 48.7478Z" fill="#7367DB"/>
<path d="M73.0438 60.9152H56.0933C55.9222 60.9152 55.7582 60.8472 55.6373 60.7263C55.5163 60.6053 55.4484 60.4413 55.4484 60.2703V39.7298C55.4484 39.5587 55.5163 39.3947 55.6373 39.2737C55.7582 39.1528 55.9222 39.0848 56.0933 39.0848C56.2643 39.0848 56.4284 39.1528 56.5493 39.2737C56.6702 39.3947 56.7382 39.5587 56.7382 39.7298C56.7382 39.8951 56.8039 40.0537 56.9208 40.1706C57.0377 40.2875 57.1963 40.3532 57.3616 40.3532H58.0603C58.1605 40.3504 58.2592 40.3279 58.3507 40.2869C58.4422 40.246 58.5248 40.1874 58.5937 40.1145C58.6626 40.0417 58.7164 39.9559 58.7521 39.8623C58.7879 39.7686 58.8048 39.6688 58.8019 39.5685V38.9881C58.7962 38.4426 59.0066 37.917 59.3873 37.5263C59.768 37.1355 60.2879 36.9114 60.8334 36.9029H61.5965C62.142 36.9114 62.6619 37.1355 63.0426 37.5263C63.4233 37.917 63.6338 38.4426 63.628 38.9881V44.5344C63.6261 44.6395 63.6451 44.744 63.6838 44.8418C63.7226 44.9396 63.7803 45.0287 63.8537 45.104C63.9205 45.1739 64.0005 45.2298 64.0891 45.2686C64.1777 45.3073 64.273 45.3281 64.3697 45.3298C64.4713 45.327 64.5714 45.3042 64.6642 45.2627C64.7571 45.2212 64.8408 45.1618 64.9107 45.088C64.9806 45.0141 65.0352 44.9272 65.0715 44.8322C65.1077 44.7372 65.1249 44.636 65.1221 44.5344V36.5159C65.1192 36.2463 65.1695 35.9788 65.2701 35.7286C65.3706 35.4785 65.5195 35.2506 65.7081 35.0579C65.8968 34.8653 66.1215 34.7117 66.3695 34.6059C66.6175 34.5002 66.8839 34.4443 67.1535 34.4415H67.9489C68.4925 34.45 69.0108 34.6726 69.3912 35.061C69.7716 35.4495 69.9833 35.9723 69.9804 36.5159V48.7693C69.9746 48.9728 70.0492 49.1703 70.188 49.3192C70.3268 49.4681 70.5187 49.5563 70.7221 49.5647H71.582C71.7986 49.5647 72.0064 49.4786 72.1596 49.3254C72.3128 49.1722 72.3988 48.9645 72.3988 48.7478C72.3988 48.5768 72.4668 48.4127 72.5877 48.2918C72.7087 48.1708 72.8727 48.1029 73.0438 48.1029C73.2148 48.1029 73.3788 48.1708 73.4998 48.2918C73.6207 48.4127 73.6887 48.5768 73.6887 48.7478V60.2703C73.6887 60.4413 73.6207 60.6053 73.4998 60.7263C73.3788 60.8472 73.2148 60.9152 73.0438 60.9152ZM56.7382 59.6253H72.3988V50.6825C72.1412 50.7952 71.8632 50.8537 71.582 50.8545H70.7221C70.1766 50.846 69.6567 50.6219 69.276 50.2311C68.8953 49.8404 68.6848 49.3148 68.6906 48.7693V36.5159C68.6935 36.4157 68.6765 36.3159 68.6408 36.2222C68.6051 36.1285 68.5512 36.0428 68.4824 35.9699C68.4135 35.8971 68.3309 35.8385 68.2394 35.7975C68.1479 35.7566 68.0492 35.7341 67.9489 35.7313H67.1535C67.0533 35.7341 66.9546 35.7566 66.8631 35.7975C66.7716 35.8385 66.689 35.8971 66.6201 35.9699C66.5512 36.0428 66.4974 36.1285 66.4617 36.2222C66.4259 36.3159 66.409 36.4157 66.4119 36.5159V44.5344C66.4147 44.8054 66.3642 45.0743 66.2631 45.3258C66.162 45.5772 66.0123 45.8063 65.8227 46C65.633 46.1936 65.4071 46.348 65.1578 46.4543C64.9085 46.5606 64.6407 46.6168 64.3697 46.6196C64.0998 46.6195 63.8327 46.5641 63.585 46.4569C63.3373 46.3496 63.1142 46.1929 62.9294 45.9962C62.7389 45.8039 62.5885 45.5756 62.487 45.3246C62.3855 45.0737 62.3349 44.805 62.3382 44.5344V38.9881C62.344 38.7846 62.2694 38.5871 62.1306 38.4382C61.9918 38.2893 61.7999 38.2011 61.5965 38.1927H60.8334C60.63 38.2011 60.4381 38.2893 60.2993 38.4382C60.1605 38.5871 60.0859 38.7846 60.0917 38.9881V39.5685C60.0946 39.8381 60.0443 40.1057 59.9437 40.3558C59.8432 40.606 59.6943 40.8339 59.5057 41.0265C59.317 41.2192 59.0923 41.3728 58.8443 41.4785C58.5963 41.5843 58.3299 41.6402 58.0603 41.643H57.3616C57.15 41.6441 56.9395 41.6115 56.7382 41.5463V59.6253Z" fill="black"/>
<path d="M67.9059 23.6822H61.2311C59.8685 23.6822 58.5616 24.2235 57.5981 25.187C56.6346 26.1505 56.0933 27.4573 56.0933 28.82V29.0994H73.0438V28.82C73.0438 27.4573 72.5025 26.1505 71.5389 25.187C70.5754 24.2235 69.2686 23.6822 67.9059 23.6822Z" fill="#7367DB"/>
<path d="M73.0438 29.7443H56.0933C55.9222 29.7443 55.7582 29.6764 55.6373 29.5555C55.5163 29.4345 55.4484 29.2705 55.4484 29.0994V28.82C55.4512 27.2872 56.0614 25.818 57.1452 24.7341C58.2291 23.6503 59.6983 23.0401 61.2311 23.0372H67.9059C69.4396 23.0372 70.9105 23.6465 71.9949 24.731C73.0794 25.8154 73.6887 27.2863 73.6887 28.82V29.0994C73.6887 29.2705 73.6207 29.4345 73.4998 29.5555C73.3788 29.6764 73.2148 29.7443 73.0438 29.7443ZM56.7597 28.4545H72.3881C72.2938 27.3301 71.781 26.2821 70.951 25.5178C70.1209 24.7534 69.0343 24.3285 67.9059 24.3271H61.2311C60.1032 24.3262 59.0164 24.7507 58.1876 25.5157C57.3588 26.2808 56.8489 27.3301 56.7597 28.4545Z" fill="black"/>
<path d="M73.8499 29.0994H55.2979C55.0129 29.0994 54.782 29.3304 54.782 29.6154V31.1664C54.782 31.4513 55.0129 31.6823 55.2979 31.6823H73.8499C74.1348 31.6823 74.3658 31.4513 74.3658 31.1664V29.6154C74.3658 29.3304 74.1348 29.0994 73.8499 29.0994Z" fill="#E0E0E0"/>
<path d="M73.8392 32.324H55.2979C54.99 32.324 54.6947 32.2017 54.477 31.984C54.2593 31.7663 54.137 31.471 54.137 31.1632V29.6154C54.137 29.4629 54.1671 29.312 54.2254 29.1711C54.2837 29.0303 54.3692 28.9023 54.477 28.7945C54.5848 28.6867 54.7128 28.6012 54.8536 28.5429C54.9945 28.4845 55.1454 28.4545 55.2979 28.4545H73.8392C73.9916 28.4545 74.1425 28.4845 74.2834 28.5429C74.4242 28.6012 74.5522 28.6867 74.66 28.7945C74.7678 28.9023 74.8533 29.0303 74.9116 29.1711C74.97 29.312 75 29.4629 75 29.6154V31.1632C75 31.471 74.8777 31.7663 74.66 31.984C74.4423 32.2017 74.147 32.324 73.8392 32.324ZM55.4269 31.0342H73.7102V29.7443H55.4269V31.0342Z" fill="black"/>
<path d="M73.8499 60.2702H55.2979C55.0129 60.2702 54.782 60.5012 54.782 60.7862V62.3372C54.782 62.6221 55.0129 62.8531 55.2979 62.8531H73.8499C74.1348 62.8531 74.3658 62.6221 74.3658 62.3372V60.7862C74.3658 60.5012 74.1348 60.2702 73.8499 60.2702Z" fill="#E0E0E0"/>
<path d="M73.8392 63.4948H55.2979C54.99 63.4948 54.6947 63.3725 54.477 63.1548C54.2593 62.9371 54.137 62.6418 54.137 62.334V60.7862C54.137 60.4783 54.2593 60.183 54.477 59.9653C54.6947 59.7476 54.99 59.6253 55.2979 59.6253H73.8392C74.147 59.6253 74.4423 59.7476 74.66 59.9653C74.8777 60.183 75 60.4783 75 60.7862V62.334C75 62.6418 74.8777 62.9371 74.66 63.1548C74.4423 63.3725 74.147 63.4948 73.8392 63.4948ZM55.4269 62.205H73.7102V60.9152H55.4269V62.205Z" fill="black"/>
<path d="M62.3167 18.4154H66.8418V23.68H62.3167V18.4154Z" fill="#E0E0E0"/>
<path d="M66.8311 24.3271H62.3167C62.1457 24.3271 61.9816 24.2591 61.8607 24.1382C61.7397 24.0172 61.6718 23.8532 61.6718 23.6822V18.4154C61.6718 18.2443 61.7397 18.0803 61.8607 17.9593C61.9816 17.8384 62.1457 17.7704 62.3167 17.7704H66.8311C67.0021 17.7704 67.1662 17.8384 67.2871 17.9593C67.4081 18.0803 67.476 18.2443 67.476 18.4154V23.6822C67.476 23.8532 67.4081 24.0172 67.2871 24.1382C67.1662 24.2591 67.0021 24.3271 66.8311 24.3271ZM62.9616 23.0372H66.1862V19.0603H62.9616V23.0372Z" fill="black"/>
<path d="M63.9075 20.1781H65.1113V21.468H63.9075V20.1781Z" fill="black"/>
<path d="M56.0933 48.952H64.2084V57.0661H56.0933V48.952Z" fill="#E0E0E0"/>
<path d="M64.2084 57.7121H56.0933C55.9222 57.7121 55.7582 57.6442 55.6373 57.5232C55.5163 57.4023 55.4484 57.2382 55.4484 57.0672V48.952C55.4484 48.781 55.5163 48.6169 55.6373 48.496C55.7582 48.3751 55.9222 48.3071 56.0933 48.3071H64.2084C64.3795 48.3071 64.5435 48.3751 64.6645 48.496C64.7854 48.6169 64.8534 48.781 64.8534 48.952V57.0672C64.8534 57.2382 64.7854 57.4023 64.6645 57.5232C64.5435 57.6442 64.3795 57.7121 64.2084 57.7121ZM56.7382 56.4223H63.5635V49.5969H56.7382V56.4223Z" fill="black"/>
<path d="M62.5854 52.628H61.2956V51.7144H60.296V50.4246H61.9405C62.1115 50.4246 62.2756 50.4925 62.3965 50.6135C62.5175 50.7344 62.5854 50.8984 62.5854 51.0695V52.628Z" fill="black"/>
<path d="M35.585 50.9405C36.7459 50.9405 37.681 49.8119 37.681 48.4253V37.2683C37.681 35.5808 38.8203 34.2157 40.2284 34.2157C42.4319 34.1405 43.109 33.2484 43.0015 29.2821C43.0015 29.2821 43.0015 26.2188 45.6242 26.466C46.8818 26.466 47.9029 27.6914 47.9029 29.2069V39.2461C47.9029 40.8154 48.967 42.0944 50.2783 42.0944C51.5896 42.0944 52.643 40.8154 52.643 39.2461V24.2841C52.643 20.6296 50.1816 17.6737 47.1397 17.6737H43.066C43.066 15.6422 41.6902 13.9977 40.0027 13.9977H39.8415C38.1432 13.9977 36.7781 15.6422 36.7781 17.6737C34.9616 17.6737 33.4891 19.4365 33.4891 21.6077V48.4253C33.4891 49.8119 34.4242 50.9405 35.585 50.9405Z" fill="#FA5753"/>
<path d="M35.585 51.5854C34.0695 51.5854 32.8441 50.1666 32.8441 48.4253V21.6077C32.8441 19.329 34.2845 17.4265 36.1655 17.0825C36.4127 14.9866 37.9712 13.3528 39.8415 13.3528H40.0027C41.8622 13.3528 43.3992 14.9543 43.6679 17.0288H47.1397C50.5255 17.0288 53.2879 20.2856 53.2879 24.2841V39.2461C53.2879 41.1701 51.9336 42.7394 50.2783 42.7394C48.623 42.7394 47.258 41.1701 47.258 39.2461V29.2069C47.258 28.0568 46.5271 27.1109 45.6242 27.1109H45.5597C45.033 27.0572 44.6353 27.1754 44.3344 27.4441C43.6894 28.0353 43.6464 29.1854 43.6464 29.2821C43.7109 31.4749 43.5282 32.7002 43.0338 33.5386C42.3781 34.6349 41.2603 34.8284 40.2499 34.8607H40.2284C39.1858 34.8607 38.3259 35.9463 38.3259 37.2683V48.4253C38.3259 50.1666 37.1006 51.5854 35.585 51.5854ZM39.8415 14.6426C38.5086 14.6426 37.423 16.0077 37.423 17.6737C37.423 17.8447 37.3551 18.0088 37.2341 18.1297C37.1132 18.2507 36.9492 18.3186 36.7781 18.3186C35.3163 18.3186 34.134 19.8019 34.134 21.6077V48.4253C34.134 49.4572 34.7896 50.2956 35.585 50.2956C36.3804 50.2956 37.0361 49.4572 37.0361 48.4253V37.2683C37.0361 35.2369 38.4656 33.5816 40.2177 33.5708C41.744 33.5171 42.4749 33.3021 42.3566 29.3036V29.2821C42.3566 29.2177 42.3674 27.4871 43.4637 26.4875C44.0334 25.9716 44.775 25.7459 45.6564 25.8211C47.258 25.8426 48.5478 27.3582 48.5478 29.2069V39.2461C48.5478 40.4607 49.3217 41.4495 50.2783 41.4495C51.2349 41.4495 51.9981 40.4607 51.9981 39.2461V24.2841C51.9981 20.995 49.8161 18.3186 47.1397 18.3186H43.066C42.895 18.3186 42.7309 18.2507 42.61 18.1297C42.4891 18.0088 42.4211 17.8447 42.4211 17.6737C42.4211 16.0077 41.3355 14.6426 40.0027 14.6426H39.8415Z" fill="black"/>
</svg>
