<svg width="98" height="93" viewBox="0 0 98 93" fill="none" xmlns="http://www.w3.org/2000/svg">
<rect width="97.0965" height="72.4779" rx="15" fill="#FAFAFA"/>
<path d="M47.2207 92.4002L56.072 71.85H38.3693L47.2207 92.4002Z" fill="#FAFAFA"/>
<path d="M26.8906 29V42.7812C30.6962 42.7812 33.7812 39.6962 33.7812 35.8906C33.7812 32.085 30.6962 29 26.8906 29Z" fill="#0B2E60"/>
<path d="M30.5 35.8906C30.5 32.085 28.8841 29 26.8906 29C23.085 29 20 32.085 20 35.8906C20 39.6962 23.085 42.7812 26.8906 42.7812C28.8841 42.7812 30.5 39.6962 30.5 35.8906Z" fill="#3E9485"/>
<path d="M47.1796 29V42.7812C50.9852 42.7812 54.0702 39.6962 54.0702 35.8906C54.0702 32.085 50.9852 29 47.1796 29Z" fill="#0B2E60"/>
<path d="M50.789 35.8906C50.789 32.085 49.1731 29 47.1796 29C43.374 29 40.289 32.085 40.289 35.8906C40.289 39.6962 43.374 42.7812 47.1796 42.7812C49.1731 42.7812 50.789 39.6962 50.789 35.8906Z" fill="#3E9485"/>
<path d="M67.4686 29V42.7812C71.2742 42.7812 74.3592 39.6962 74.3592 35.8906C74.3592 32.085 71.2742 29 67.4686 29Z" fill="#0B2E60"/>
<path d="M71.078 35.8906C71.078 32.085 69.4621 29 67.4686 29C63.663 29 60.578 32.085 60.578 35.8906C60.578 39.6962 63.663 42.7812 67.4686 42.7812C69.4621 42.7812 71.078 39.6962 71.078 35.8906Z" fill="#3E9485"/>
</svg>
