<svg width="98" height="93" viewBox="0 0 98 93" fill="none" xmlns="http://www.w3.org/2000/svg">
<rect width="97.0965" height="72.4779" rx="15" fill="#FAFAFA"/>
<path d="M47.2207 92.4002L56.072 71.85H38.3693L47.2207 92.4002Z" fill="#FAFAFA"/>
<path d="M40.5218 24.7482L37.6748 24.7633C37.436 23.4706 36.3003 22.4942 34.9395 22.5014C34.4258 22.5042 33.9458 22.6472 33.5348 22.8933C32.9354 21.8767 31.8275 21.1967 30.5623 21.2034C30.046 21.2061 29.5574 21.3236 29.1193 21.5304C28.3781 20.6224 27.2486 20.0446 25.9854 20.0514C23.7672 20.0632 21.9786 21.8708 21.9904 24.089C21.9907 24.1439 21.9921 24.1991 21.9946 24.2546C22.0794 26.1549 23.6958 27.6275 25.5979 27.6175L33.143 27.5774L36.9092 27.5574L40.583 27.538C41.3621 27.5338 41.9886 26.8917 41.9701 26.1095C41.952 25.3415 41.2899 24.7441 40.5218 24.7482Z" fill="#26A6FE"/>
<path d="M76.1089 43.9832C74.5345 43.4203 72.8367 43.1177 71.0678 43.1271C65.4685 43.1569 60.6152 46.3031 58.1421 50.9129C57.238 50.5243 56.2419 50.3098 55.195 50.3153C51.2129 50.3364 47.9853 53.51 47.8637 57.4581L76.1797 57.3077L76.1089 43.9832Z" fill="#00C27A"/>
<path d="M61.294 46.865C62.6932 48.1816 64.5807 48.9841 66.6537 48.973C70.9409 48.9503 74.3978 45.4564 74.375 41.1692C74.3523 36.882 70.8584 33.4251 66.5712 33.4479C62.284 33.4706 58.8271 36.9645 58.8498 41.2517C58.8539 42.0204 58.9696 42.7624 59.1814 43.4624" fill="#46CC8D"/>
<path d="M59.1815 43.4625C59.5798 44.7789 60.3182 45.947 61.294 46.865Z" fill="#46CC8D"/>
<path d="M66.5711 33.448C66.0216 33.4509 65.486 33.5117 64.9694 33.6231C68.4536 34.3719 71.0744 37.4587 71.0941 41.1693C71.1139 44.9069 68.4887 48.0408 64.9746 48.7981C65.5158 48.9144 66.0773 48.9761 66.6537 48.9732C70.9409 48.9504 74.3978 45.4565 74.3751 41.1695C74.3522 36.8822 70.8583 33.4251 66.5711 33.448Z" fill="#00C27A"/>
<path d="M73.6493 56.6421L64.6429 56.6899C63.0968 56.6981 61.6812 55.9362 60.9483 54.7016L53.2807 41.7851C52.6763 40.7669 51.5044 40.1325 50.2293 40.1333L45.6533 40.1365L45.6545 36.1441L52.4355 36.1395C53.9726 36.1384 55.3802 36.9003 56.1087 38.1279L63.7702 51.0342C64.3777 52.0575 65.5579 52.6928 66.8393 52.6859L73.628 52.6498L73.6493 56.6421Z" fill="#60B7FF"/>
<path d="M37.2691 17.6936L31.2719 25.3445L45.5855 25.2685L39.5074 17.6818C38.9318 16.9634 37.837 16.9692 37.2691 17.6936L31.2719 25.3445L45.5855 25.2685L39.5074 17.6818C38.9318 16.9634 37.837 16.9692 37.2691 17.6936Z" fill="#FD4755"/>
<path d="M31.3236 36.7599L45.6374 36.6883L45.653 39.8142L31.3392 39.8858L31.3236 36.7599Z" fill="#593636"/>
<path d="M31.2665 25.348L45.5803 25.2764L45.6374 36.6883L31.3236 36.7598L31.2665 25.348Z" fill="#AE6C6C"/>
<path d="M45.5855 25.2685L42.3048 25.2859L42.3653 36.6802L31.3324 36.7388L31.3325 36.7562L45.6462 36.6802L45.5855 25.2685Z" fill="#9B5E5E"/>
<path d="M41.2307 31.5153C41.6017 29.9938 40.669 28.4596 39.1474 28.0886C37.6259 27.7176 36.0917 28.6503 35.7207 30.1719C35.3498 31.6934 36.2825 33.2276 37.804 33.5986C39.3255 33.9695 40.8597 33.0369 41.2307 31.5153Z" fill="#0172FB"/>
<path d="M41.2307 31.5153C41.6017 29.9938 40.669 28.4596 39.1474 28.0886C37.6259 27.7176 36.0917 28.6503 35.7207 30.1719C35.3498 31.6934 36.2825 33.2276 37.804 33.5986C39.3255 33.9695 40.8597 33.0369 41.2307 31.5153Z" fill="#593636"/>
<path d="M75.362 59.7915L22.6541 60.0715C22.2002 60.0739 21.8302 59.7079 21.8278 59.2539L21.8201 57.8227C21.8177 57.3687 22.1838 56.9988 22.6377 56.9963L75.3456 56.7164C75.7996 56.714 76.1695 57.08 76.172 57.534L76.1795 58.9652C76.1821 59.4191 75.816 59.7891 75.362 59.7915Z" fill="#D9E7EC"/>
<path d="M25.9397 52.5279C25.9582 56.0163 27.4945 56.0586 29.3892 56.0485C31.284 56.0385 32.8196 55.98 32.8011 52.4915C32.7827 49.003 31.2174 43.4953 29.3226 43.5053C27.4279 43.5154 25.9212 49.0395 25.9397 52.5279Z" fill="#08B865"/>
<path d="M33.3079 52.9548C32.9928 52.9564 32.6925 53.0193 32.4172 53.1309C31.8971 52.5242 31.1241 52.141 30.2624 52.1456C29.8543 52.1478 29.4673 52.2373 29.118 52.3953C28.4946 51.243 27.273 50.4628 25.8715 50.4704C23.8462 50.4811 22.2132 52.1316 22.2239 54.1569C22.2301 55.3199 22.7777 56.3528 23.6258 57.0202L35.1167 56.9591C35.4982 56.531 35.729 55.9657 35.7257 55.347C35.7187 54.0188 34.6362 52.9478 33.3079 52.9548Z" fill="#6ED5A1"/>
<path d="M69.7933 16.3905L67.5444 16.4024C67.0342 15.5417 66.0944 14.9664 65.0215 14.9722C64.8947 14.9728 64.7707 14.9844 64.6483 15.0007C64.254 12.6181 62.1784 10.8066 59.686 10.8198C57.202 10.8331 55.1515 12.6544 54.7725 15.0296C53.192 15.0707 51.9269 16.3665 51.9353 17.9551C51.9353 17.9619 51.9355 17.9686 51.9356 17.9754C51.9475 18.9582 52.7728 19.7375 53.7558 19.7323L61.1259 19.6931L67.3444 19.6601L69.8106 19.647C70.7099 19.6421 71.4351 18.9093 71.4302 18.01C71.4254 17.1109 70.6926 16.3857 69.7933 16.3905Z" fill="#8AC9FE"/>
<path d="M69.7473 16.3907L67.5444 16.4024C67.0343 15.5417 66.0944 14.9665 65.0216 14.9722C64.8947 14.9728 64.7707 14.9843 64.6483 15.0007C64.2541 12.618 62.1784 10.8066 59.686 10.8198C58.2753 10.8274 57.0047 11.4186 56.1004 12.3628C56.2013 12.3561 56.3027 12.3514 56.4052 12.3509C58.7609 12.3384 60.7444 13.9561 61.2876 16.1455C61.3365 16.3428 61.5374 16.5046 61.7406 16.5032C62.558 16.4989 63.298 16.8318 63.8299 17.3711C64.1786 17.7249 64.6494 17.9314 65.1462 17.9288L66.5124 17.9216C67.4117 17.9167 68.1446 18.6419 68.1493 19.5412C68.1495 19.5799 68.1466 19.6179 68.1442 19.6559L69.8105 19.6472C70.7358 19.6422 71.4769 18.8664 71.4279 17.9316C71.3821 17.0558 70.6242 16.386 69.7473 16.3907Z" fill="#60B7FF"/>
<path d="M38.4776 34.4922C40.4927 34.4815 42.1234 32.8336 42.1128 30.8183C42.1075 29.8422 41.7226 28.9265 41.0287 28.2399C40.3395 27.5579 39.4276 27.1832 38.4588 27.1832C38.4522 27.1832 38.4454 27.1833 38.4388 27.1833C37.4626 27.1884 36.5469 27.5735 35.8602 28.2674C35.1737 28.9613 34.7984 29.881 34.8036 30.8573C34.8088 31.8334 35.1938 32.7491 35.8877 33.4357C36.5769 34.1176 37.4887 34.4925 38.4575 34.4925C38.4641 34.4923 38.4709 34.4922 38.4776 34.4922ZM36.444 30.8484C36.4412 30.3105 36.648 29.8036 37.0264 29.4211C37.4049 29.0387 37.9094 28.8265 38.4475 28.8237C38.4512 28.8236 38.4548 28.8236 38.4586 28.8236C38.9925 28.8236 39.4951 29.0302 39.8749 29.4059C40.2573 29.7843 40.4696 30.289 40.4723 30.827C40.4752 31.3649 40.2684 31.8719 39.89 32.2544C39.5116 32.6368 39.0069 32.849 38.4689 32.8518C38.4652 32.8519 38.4616 32.8519 38.4579 32.8519C37.924 32.8519 37.4214 32.6453 37.0416 32.2696C36.6591 31.8911 36.4468 31.3864 36.444 30.8484Z" fill="black"/>
<path d="M76.9292 43.9787C76.9272 43.6338 76.7099 43.3271 76.3851 43.2109C75.9477 43.0545 75.4995 42.9176 75.0481 42.8009C75.1477 42.267 75.1982 41.72 75.1952 41.1649C75.1702 36.4477 71.3247 32.6276 66.6131 32.6276C66.5978 32.6276 66.5821 32.6276 66.5668 32.6277C64.2743 32.6398 62.1238 33.544 60.5113 35.1737C59.2164 36.4823 58.3945 38.1333 58.1265 39.9199L56.8141 37.7089C55.9388 36.2345 54.2627 35.3189 52.4387 35.3189C52.4375 35.3189 52.4362 35.3189 52.4349 35.3189L52.2107 35.3191L52.1908 31.5849L53.5482 31.5777C54.0012 31.5753 54.3664 31.2061 54.364 30.7531C54.3616 30.3 53.9874 29.9349 53.5395 29.9373L46.4307 29.975C46.4307 29.975 46.3933 25.1302 46.3921 25.1234C46.3848 25.0826 46.3747 25.0429 46.3617 25.0045C46.3602 24.9999 46.3583 24.9954 46.3567 24.9908C46.3268 24.9077 46.2841 24.831 46.2306 24.7628C46.2287 24.7605 46.2275 24.7578 46.2257 24.7555L40.1476 17.1688C39.7157 16.6296 39.0721 16.3209 38.3811 16.3262C38.344 16.3265 38.3069 16.3276 38.2701 16.3295C37.629 16.364 37.0396 16.6665 36.6368 17.1708C36.6324 17.1763 36.6279 17.1819 36.6236 17.1875L33.328 21.3919C32.5658 20.7441 31.5968 20.3832 30.5808 20.3832C30.5732 20.3832 30.5654 20.3832 30.558 20.3833C30.1416 20.3855 29.7351 20.447 29.3433 20.5667C28.4479 19.711 27.2624 19.2312 26.0074 19.2312C25.9986 19.2312 25.9898 19.2312 25.9811 19.2312C23.3143 19.2454 21.1562 21.4266 21.1703 24.0939C21.1706 24.1592 21.1724 24.2249 21.1752 24.2913C21.2793 26.621 23.2109 28.4378 25.5778 28.4377C25.5859 28.4377 25.5942 28.4377 25.6024 28.4376L30.4789 28.4117L30.4953 30.2703C30.4993 30.7232 30.871 31.0894 31.3228 31.0832C31.7757 31.0791 32.1397 30.7087 32.1357 30.2557L32.0995 26.1602L44.7698 26.093L44.8217 35.8643L32.1484 35.9316L32.1358 33.5395C32.1334 33.0881 31.7666 32.7237 31.3157 32.7237C31.3141 32.7237 31.3127 32.7237 31.3112 32.7237C30.8582 32.7261 30.4929 33.0953 30.4953 33.5483L30.5124 36.7606L30.529 39.8864C30.529 39.888 30.5292 39.8894 30.5292 39.8908C30.5292 39.8921 30.529 39.8934 30.5291 39.8947L30.5797 43.1367C30.1862 42.8362 29.7689 42.685 29.3287 42.685C29.3253 42.685 29.3218 42.685 29.3184 42.685C26.7042 42.6988 25.6259 48.0578 25.3592 49.6825C23.1248 49.9477 21.3916 51.8589 21.4038 54.1613C21.4078 54.9311 21.6059 55.67 21.9692 56.3211C21.7872 56.403 21.6194 56.5172 21.4749 56.6633C21.1664 56.9751 20.9977 57.3883 21 57.827L21.0076 59.2582C21.0125 60.1608 21.7482 60.8917 22.6496 60.8916H22.6585L75.3664 60.6116C76.2718 60.6067 77.0046 59.8661 76.9998 58.9607L76.9292 43.9787ZM75.292 44.5748L75.3541 55.8966C75.3499 55.8966 75.3457 55.896 75.3414 55.8961L74.4656 55.9008L74.4483 52.6453C74.4471 52.4278 74.3596 52.2197 74.205 52.0666C74.0503 51.9136 73.8377 51.8252 73.6237 51.8295L67.4021 51.8626L67.391 49.7566C69.406 49.5765 71.2744 48.7018 72.7136 47.2472C73.5393 46.4127 74.1718 45.4385 74.5923 44.3792C74.8267 44.4389 75.0606 44.5028 75.292 44.5748ZM44.8303 37.5048L44.8337 38.142L44.8335 38.9902L41.3405 39.0088C41.339 39.0088 41.3376 39.0088 41.336 39.0088C41.3358 39.0088 41.3357 39.0088 41.3355 39.0088L35.2958 39.041C35.2955 39.041 35.2954 39.041 35.2952 39.041C35.295 39.041 35.2949 39.041 35.2947 39.041L32.1651 39.0576L32.1572 37.572L44.8303 37.5048ZM40.5526 45.9502L36.1603 45.9735L36.1485 44.1454L40.5428 44.1221L40.5526 45.9502ZM36.1709 47.614L40.5612 47.5907L40.5709 49.4188L36.1827 49.442L36.1709 47.614ZM40.5341 42.4817L36.1378 42.505L36.126 40.6769L40.5244 40.6536L40.5341 42.4817ZM33.6151 52.1486C33.5609 50.3538 33.1579 48.1919 32.5401 46.4168C32.4491 46.1554 32.3555 45.9083 32.2597 45.674L32.1821 40.6979L34.4855 40.6856L34.5612 52.3831C34.2655 52.2593 33.9473 52.1788 33.6151 52.1486ZM36.2085 53.9255C36.21 53.9044 36.2114 53.8833 36.2113 53.8619L36.1933 51.0824L40.5796 51.0592L40.6063 56.0807L36.459 56.1028C36.5174 55.8558 36.5473 55.601 36.546 55.3428C36.5433 54.8338 36.4216 54.3529 36.2085 53.9255ZM42.2468 56.0719L42.1649 40.6449L44.847 40.6306L44.9289 56.0577L42.2468 56.0719ZM46.5693 56.049L46.4891 40.956L50.2298 40.9535H50.2319C51.2197 40.9535 52.1176 41.4325 52.5754 42.2038L57.0213 49.6932C56.4249 49.5603 55.8143 49.4937 55.1906 49.4952C51.3112 49.5158 47.9779 52.2621 47.207 56.0456L46.5693 56.049ZM55.1992 51.1356C56.1057 51.1336 56.9873 51.3095 57.818 51.6665C57.9519 51.7241 58.0929 51.7424 58.229 51.7278L60.2429 55.1203C60.4274 55.4311 60.6491 55.7152 60.8982 55.9729L48.8917 56.0366C49.6309 53.1865 52.2127 51.1514 55.1992 51.1356ZM65.7606 51.6722C65.2178 51.464 64.7614 51.097 64.4755 50.6153L63.6818 49.2782C64.3453 49.519 65.0389 49.6788 65.7504 49.7496L65.7606 51.6722ZM67.4108 53.503L72.8122 53.4743L72.8247 55.8263L67.4232 55.855L67.4108 53.503ZM59.67 41.2474C59.6602 39.3931 60.373 37.6458 61.6773 36.3277C62.9815 35.0095 64.7211 34.278 66.5755 34.2682C66.588 34.2681 66.6002 34.2681 66.6129 34.2681C70.4237 34.2681 73.5344 37.3583 73.5547 41.1736C73.5645 43.0281 72.8517 44.7752 71.5474 46.0934C70.4166 47.2363 68.9585 47.9371 67.3821 48.11L67.3573 43.4439L69.4623 41.3163C69.7808 40.9944 69.7781 40.475 69.456 40.1564C69.1342 39.838 68.6148 39.8405 68.2962 40.1627L67.3449 41.124L67.3387 39.9451C67.3363 39.4921 66.9629 39.1293 66.5141 39.1292C66.0611 39.1316 65.6959 39.5008 65.6983 39.9538L65.7159 43.2717L64.8285 42.3938C64.5065 42.0752 63.9872 42.078 63.6686 42.4C63.3501 42.722 63.3528 43.2413 63.6749 43.5599L65.7282 45.5916L65.7416 48.0971C64.327 47.92 63.0046 47.3135 61.9386 46.3418L59.8648 42.8484C59.7388 42.3273 59.6729 41.7892 59.67 41.2474ZM52.436 36.9596H52.4386C53.6863 36.9596 54.8223 37.5675 55.4033 38.5465L60.5713 47.2524C60.5811 47.2707 60.592 47.2886 60.6032 47.3063L63.0647 51.4529C63.6449 52.4303 64.6311 53.1183 65.7695 53.3838L65.7826 55.8638L64.6382 55.8699C64.6313 55.8699 64.6247 55.8699 64.6179 55.8699C63.3697 55.8699 62.2351 55.2632 61.6533 54.283L53.9858 41.3665C53.2338 40.0998 51.7956 39.3133 50.2316 39.3133C50.2306 39.3133 50.2294 39.3133 50.2285 39.3133L46.4802 39.3158L46.4739 38.1384L46.4743 36.9637L52.436 36.9596ZM50.5702 35.3204L49.3395 35.3212L49.3197 31.6003L50.5504 31.5938L50.5702 35.3204ZM47.6793 31.6091L47.699 35.3224L46.4591 35.3233L46.4394 31.6157L47.6793 31.6091ZM37.9146 18.1996C38.0723 17.9984 38.2799 17.9673 38.3897 17.9668C38.5009 17.9693 38.7074 17.9951 38.8673 18.1946L43.8846 24.4573L32.9641 24.5152L37.9146 18.1996ZM25.5936 26.7972C24.1208 26.8055 22.8779 25.648 22.814 24.2183C22.812 24.1735 22.8109 24.1287 22.8106 24.0848C22.8013 22.3224 24.2275 20.881 25.9898 20.8716H26.007C26.9706 20.8716 27.8725 21.3002 28.484 22.0491C28.7223 22.3411 29.1288 22.4332 29.4695 22.2722C29.8146 22.1094 30.1837 22.0258 30.5668 22.0238C31.2177 22.0188 31.8361 22.258 32.3144 22.6853L30.6264 24.8385C30.6243 24.8412 30.6229 24.8443 30.6208 24.847C30.5967 24.8785 30.5751 24.9116 30.5559 24.946C30.5536 24.9502 30.551 24.954 30.5487 24.9581C30.5299 24.9933 30.5144 25.0299 30.5009 25.0674C30.4982 25.0749 30.4954 25.0825 30.4929 25.09C30.4808 25.1271 30.4643 26.7714 30.4643 26.7714L25.5936 26.7972ZM28.0698 45.9859C28.6044 44.7696 29.1145 44.3266 29.327 44.3254H29.3279C29.6174 44.3254 30.3236 45.0388 30.9909 46.9559C31.4968 48.4095 31.853 50.2056 31.9523 51.7344C31.4408 51.4688 30.8682 51.3254 30.2775 51.3254C30.271 51.3254 30.2645 51.3255 30.258 51.3255C29.9869 51.327 29.7203 51.3579 29.4603 51.418C28.845 50.6096 27.9772 50.0397 27.0021 49.791C27.2368 48.3781 27.6178 47.0141 28.0698 45.9859ZM25.8757 51.2907H25.891C26.9379 51.2907 27.897 51.8625 28.3965 52.7856C28.6012 53.1641 29.0635 53.32 29.4559 53.1428C29.7121 53.027 29.9849 52.9674 30.2669 52.966C30.8558 52.9645 31.4111 53.2176 31.7946 53.6649C32.0241 53.9325 32.399 54.0235 32.7257 53.8911C32.9129 53.8152 33.1102 53.7761 33.3124 53.7751H33.321C34.191 53.7751 34.9012 54.4806 34.9058 55.3516C34.9072 55.6196 34.8405 55.8803 34.7153 56.1121L23.8992 56.1695C23.3569 55.6392 23.0484 54.9201 23.0442 54.1528C23.0357 52.5829 24.306 51.299 25.8757 51.2907ZM75.3576 58.9713L22.648 59.2496L22.6422 57.8166L23.4242 57.8124C23.49 57.8292 23.5572 57.8405 23.6259 57.8405H23.6303L75.3519 57.5384L75.3589 58.9713C75.3589 58.9713 75.3585 58.9713 75.3576 58.9713Z" fill="black"/>
<path d="M53.7457 20.5526H53.76L58.2841 20.5287C58.7371 20.5263 59.1023 20.1572 59.0999 19.7041C59.0975 19.2525 58.7307 18.8882 58.2798 18.8882C58.2783 18.8882 58.2769 18.8882 58.2755 18.8882L53.7513 18.9122C53.7494 18.9122 53.7477 18.9122 53.7458 18.9122C53.2058 18.9122 52.762 18.4885 52.7557 17.9624L52.7556 17.9509C52.7495 16.8216 53.6639 15.8791 54.7938 15.8497C55.1887 15.8395 55.5203 15.5491 55.5824 15.159C55.9059 13.131 57.6335 11.6511 59.6904 11.6402H59.7135C61.7703 11.6402 63.5034 13.1065 63.8391 15.1349C63.9115 15.5721 64.3182 15.8729 64.7572 15.8139C64.863 15.7998 64.9484 15.793 65.026 15.7926H65.0371C65.7729 15.7926 66.4625 16.1859 66.839 16.8209C66.9868 17.0701 67.255 17.2229 67.5446 17.2229H67.549L69.7979 17.211H69.8023C70.2459 17.211 70.6079 17.5707 70.6102 18.0148C70.6126 18.4604 70.252 18.8248 69.8064 18.8272L61.1217 18.8734C60.6752 18.8758 60.3125 19.235 60.306 19.6816C60.2994 20.1281 60.6512 20.4978 61.0975 20.5134L61.5324 20.5285C61.602 20.5308 61.6693 20.5246 61.7342 20.5106L69.8152 20.4678C71.1653 20.4605 72.2578 19.3563 72.2507 18.0062C72.2434 16.6604 71.1466 15.5708 69.8024 15.5708C69.798 15.5708 69.7934 15.5708 69.7891 15.5708L67.9728 15.5804C67.3232 14.7559 66.347 14.2355 65.2963 14.1614C64.5747 11.7082 62.333 10 59.7139 10C59.7034 10 59.6925 10 59.6819 10.0001C57.0305 10.0142 54.772 11.7823 54.0945 14.2865C52.3931 14.6413 51.1058 16.1694 51.1153 17.9622L51.1157 17.9858C51.1326 19.4039 52.3113 20.5526 53.7457 20.5526Z" fill="black"/>
</svg>
