<svg width="98" height="92" viewBox="0 0 98 92" fill="none" xmlns="http://www.w3.org/2000/svg">
<rect width="97.0965" height="72.4779" rx="15" fill="#FAFAFA"/>
<path d="M48.548 91.4812L57.3994 70.9311H39.6966L48.548 91.4812Z" fill="#FAFAFA"/>
<path d="M24.1314 29.0988C23.7202 29.098 23.3224 28.9527 23.0076 28.6883C22.6927 28.424 22.4808 28.0573 22.4088 27.6525L22.2295 26.6353C22.1602 26.237 22.2305 25.827 22.4287 25.4746C22.6268 25.1222 22.9405 24.849 23.3169 24.7011L25.8106 23.7277C26.0518 23.6336 26.3109 23.5942 26.5692 23.6124C26.8275 23.6305 27.0785 23.7058 27.3042 23.8327C27.5299 23.9595 27.7246 24.1349 27.8743 24.3462C28.024 24.5574 28.125 24.7992 28.1699 25.0542L28.5925 27.4495C28.6124 27.5627 28.6099 27.6787 28.585 27.7909C28.5601 27.9031 28.5134 28.0093 28.4475 28.1034C28.3815 28.1976 28.2977 28.2778 28.2008 28.3395C28.1038 28.4012 27.9957 28.4433 27.8825 28.4632L24.4358 29.0709C24.3353 29.089 24.2335 29.0984 24.1314 29.0988Z" fill="#42A5F5"/>
<path d="M70.4079 37.847L58.3439 39.9742L56.4684 39.4164L42.6814 41.8474L41.1099 43.013L29.0458 45.1403L27.0973 34.0885C26.8858 32.8887 27.1595 31.654 27.8583 30.656L30.3157 27.1463L63.0606 21.3725L66.5701 23.83C67.0643 24.176 67.4854 24.6159 67.8096 25.1247C68.1337 25.6335 68.3544 26.2012 68.4592 26.7952L70.4079 37.847Z" fill="#42A5F5"/>
<path d="M22.2829 50.5691V47.0691H26.6579L27.9704 50.5691L29.2829 54.0691L38.9079 52.3191L40.075 50.5691L42.4079 47.0691H73.0329V50.5691V57.5691H22.2829V50.5691Z" fill="#607D8B"/>
<path d="M55.9884 33.1628C55.1452 33.9683 54.0825 34.5061 52.9342 34.7086L51.7595 34.9157C50.8565 35.0749 49.9288 35.0217 49.05 34.7603L48.5111 34.6004L48.0595 34.9354C47.323 35.4816 46.4696 35.8489 45.5666 36.0081L44.3922 36.2152C43.2439 36.4176 42.0613 36.2757 40.9935 35.8072C40.1883 35.4537 39.5438 34.8129 39.1858 34.0097L38.2729 31.9629L44.2229 30.9138C44.8482 30.8035 45.4871 30.7948 46.1151 30.888L47.9042 31.1533L49.4945 30.2921C50.0527 29.9898 50.656 29.7795 51.2812 29.6693L57.2312 28.6202L57.0734 30.8558C57.0113 31.733 56.6244 32.5556 55.9884 33.1628Z" fill="#258ADB"/>
<path d="M63.0601 21.3725L51.2389 23.4572H51.2378L49.0317 23.8466L46.9306 24.2163L44.7234 24.6057L30.3154 27.1464L32.4111 20.1016C32.6195 19.4009 33.019 18.7721 33.5647 18.2856C34.1105 17.7992 34.7809 17.4744 35.5009 17.3475L50.0959 14.7739L52.3042 14.3846L54.4064 14.0138L54.8362 13.9383C55.3606 13.846 55.8981 13.8606 56.4167 13.981H56.4178C57.3249 14.1935 58.1272 14.721 58.6819 15.4696L63.0601 21.3725Z" fill="#3D5966"/>
<path d="M31.3413 32.4062L38.2729 31.9628L39.7425 35.2577L37.1573 35.7135L34.7241 37.031L32.2689 36.3008C31.8795 36.185 31.53 35.9629 31.2596 35.6596C30.9893 35.3563 30.8088 34.9838 30.7383 34.5836L30.5351 33.431C30.5137 33.3098 30.5182 33.1855 30.5482 33.0662C30.5782 32.9468 30.633 32.8351 30.7091 32.7384C30.7852 32.6417 30.8808 32.5621 30.9898 32.5049C31.0987 32.4476 31.2185 32.414 31.3413 32.4062Z" fill="#FED500"/>
<path d="M63.8958 26.666L57.2306 28.6201L56.9766 32.2185L59.5617 31.7627L62.2988 32.1685L64.3558 30.6427C64.6821 30.4007 64.9345 30.0726 65.0849 29.6953C65.2352 29.3179 65.2775 28.906 65.2069 28.506L65.0037 27.3533C64.9823 27.2321 64.9356 27.1168 64.8666 27.0149C64.7976 26.9131 64.7079 26.8269 64.6033 26.762C64.4988 26.6972 64.3817 26.6551 64.2598 26.6385C64.1379 26.622 64.0138 26.6313 63.8958 26.666Z" fill="#FED500"/>
<path d="M29.9239 44.9922L36.8189 43.7742L37.4279 47.2217C37.5087 47.6789 37.4045 48.1494 37.1384 48.5298C36.8722 48.9102 36.4659 49.1692 36.0087 49.25L32.5612 49.859C32.104 49.9398 31.6335 49.8356 31.2531 49.5694C30.8728 49.3033 30.6137 48.8969 30.5329 48.4397L29.9239 44.9922Z" fill="#3D5966"/>
<path d="M62.673 39.2058L69.568 37.9878L70.177 41.4353C70.2578 41.8925 70.1536 42.363 69.8874 42.7434C69.6213 43.1238 69.2149 43.3828 68.7577 43.4636L65.3102 44.0726C64.8531 44.1533 64.3826 44.0492 64.0022 43.783C63.6218 43.5169 63.3628 43.1105 63.282 42.6533L62.673 39.2058Z" fill="#3D5966"/>
<path d="M65.6446 21.7919C65.439 21.7916 65.2401 21.719 65.0827 21.5868C64.9253 21.4546 64.8195 21.2711 64.7839 21.0687L64.3615 18.6734C64.3164 18.4183 64.3284 18.1565 64.3968 17.9066C64.4652 17.6568 64.5882 17.4253 64.7569 17.2288C64.9256 17.0322 65.1358 16.8756 65.3724 16.7702C65.609 16.6648 65.866 16.6132 66.1249 16.6191L68.8012 16.6804C69.2055 16.6905 69.5938 16.84 69.9005 17.1035C70.2072 17.367 70.4135 17.7283 70.4845 18.1264L70.6639 19.1436C70.7439 19.6006 70.6393 20.0707 70.3732 20.4507C70.107 20.8308 69.701 21.0898 69.2442 21.1709L65.7973 21.7787C65.7469 21.7875 65.6958 21.7919 65.6446 21.7919Z" fill="#42A5F5"/>
<path d="M73.033 47.0691V50.5691H40.075L42.408 47.0691H73.033Z" fill="#A7C2CF"/>
<path d="M26.6579 47.0691L27.9704 50.5691H22.2829V47.0691H26.6579Z" fill="#A7C2CF"/>
<path d="M73.9079 57.5691V47.0691C73.9079 46.837 73.8158 46.6145 73.6517 46.4504C73.4876 46.2863 73.265 46.1941 73.0329 46.1941H42.4079C42.2639 46.1941 42.1221 46.2297 41.9951 46.2977C41.8681 46.3657 41.7598 46.4639 41.6799 46.5838L38.386 51.5247L29.8457 53.0778L27.4772 46.7619C27.4146 46.5951 27.3027 46.4514 27.1563 46.3499C27.0099 46.2485 26.8361 46.1941 26.6579 46.1941H22.2829C22.0509 46.1941 21.8283 46.2863 21.6642 46.4504C21.5001 46.6145 21.4079 46.837 21.4079 47.0691V57.5691C21.4079 57.8012 21.5001 58.0237 21.6642 58.1878C21.8283 58.3519 22.0509 58.4441 22.2829 58.4441H73.0329C73.265 58.4441 73.4876 58.3519 73.6517 58.1878C73.8158 58.0237 73.9079 57.8012 73.9079 57.5691ZM42.8762 47.9441H72.1579V49.6941H41.7096L42.8762 47.9441ZM26.0516 47.9441L26.7078 49.6941H23.1579V47.9441H26.0516ZM23.1579 56.6941V51.4441H27.3641L28.4637 54.3763C28.5357 54.5683 28.6729 54.7289 28.8512 54.8301C29.0295 54.9313 29.2377 54.9667 29.4395 54.93L39.0645 53.18C39.18 53.159 39.2902 53.1149 39.3884 53.0504C39.4866 52.9859 39.5708 52.9023 39.6359 52.8045L40.5429 51.4441H72.1579V56.6941H23.1579Z" fill="black"/>
<path d="M21 43.4699L21.7823 41.9054L25.2806 43.6545L24.4983 45.219L21 43.4699Z" fill="black"/>
<path d="M21.0015 39.9706L21.7838 38.4061L25.2821 40.1553L24.4998 41.7198L21.0015 39.9706Z" fill="black"/>
<path d="M21.0031 36.4713L21.7853 34.9068L25.2836 36.6559L24.5014 38.2204L21.0031 36.4713Z" fill="black"/>
<path d="M26.2355 34.2404L28.1843 45.2922C28.2041 45.4054 28.2461 45.5136 28.3078 45.6106C28.3694 45.7076 28.4497 45.7914 28.5438 45.8573C28.638 45.9233 28.7442 45.97 28.8564 45.9948C28.9687 46.0196 29.0847 46.022 29.1978 46.0019L29.6538 48.5871C29.7135 48.9267 29.8395 49.2511 30.0246 49.5419C30.2098 49.8328 30.4504 50.0842 30.7328 50.282C31.0152 50.4797 31.3338 50.6199 31.6704 50.6944C32.007 50.7689 32.355 50.7764 32.6945 50.7163L36.1414 50.1086C36.8265 49.9869 37.4354 49.5985 37.8346 49.0285C38.2338 48.4585 38.3906 47.7535 38.2707 47.068L37.8148 44.4829L41.2616 43.8751C41.3954 43.8516 41.5218 43.7972 41.6308 43.7162L43.0365 42.6738L56.417 40.3144L58.0945 40.8129C58.2247 40.8516 58.3622 40.8595 58.496 40.8359L61.9428 40.2281L62.3985 42.8132C62.5057 43.42 62.8228 43.9698 63.2943 44.3665C63.7659 44.7631 64.3618 44.9814 64.978 44.9831C65.1327 44.983 65.2871 44.9695 65.4395 44.9425L68.8865 44.3347C69.5717 44.2131 70.1806 43.8246 70.5798 43.2546C70.9789 42.6846 71.1357 41.9796 71.0157 41.2941L70.5599 38.709C70.673 38.6891 70.7812 38.647 70.8781 38.5853C70.975 38.5236 71.0588 38.4433 71.1247 38.3492C71.1907 38.2551 71.2374 38.1489 71.2623 38.0367C71.2871 37.9245 71.2897 37.8085 71.2697 37.6953L69.3211 26.6433C69.1982 25.9354 68.9361 25.259 68.5501 24.653C68.164 24.0471 67.6617 23.5237 67.072 23.1132L65.2928 21.8675L69.2444 21.1706C69.7012 21.0895 70.1072 20.8306 70.3734 20.4505C70.6395 20.0705 70.7441 19.6004 70.6641 19.1434L70.4847 18.1262C70.4136 17.7282 70.2072 17.3669 69.9005 17.1035C69.5937 16.8401 69.2054 16.6907 68.8012 16.6806L66.1249 16.6193C65.8661 16.6134 65.6091 16.665 65.3726 16.7704C65.1361 16.8757 64.926 17.0323 64.7573 17.2287C64.5886 17.4251 64.4656 17.6566 64.3971 17.9063C64.3287 18.156 64.3165 18.4177 64.3615 18.6727L64.632 20.2067L63.4412 20.4167L59.3851 14.948C58.8547 14.2278 58.1332 13.6707 57.3023 13.3397C56.4714 13.0088 55.5644 12.9173 54.6841 13.0756L35.3495 16.4848C34.4682 16.6371 33.6472 17.0333 32.9795 17.6285C32.3119 18.2236 31.8244 18.994 31.5724 19.8521L29.6312 26.3785L28.4408 26.5885L28.1703 25.0545C28.1253 24.7995 28.0242 24.5577 27.8745 24.3465C27.7247 24.1353 27.5299 23.9599 27.3042 23.833C27.0785 23.7062 26.8274 23.631 26.5691 23.6129C26.3108 23.5949 26.0517 23.6343 25.8105 23.7285L23.3168 24.7019C22.9404 24.8497 22.6267 25.1229 22.4286 25.4753C22.2304 25.8278 22.1601 26.2378 22.2293 26.6361L22.4087 27.6533C22.4485 27.8797 22.5325 28.096 22.6559 28.2899C22.7793 28.4838 22.9398 28.6515 23.1281 28.7833C23.3164 28.9152 23.5288 29.0086 23.7532 29.0582C23.9776 29.1079 24.2097 29.1128 24.436 29.0728L28.3877 28.376L27.1419 30.1551C26.7283 30.7424 26.4352 31.4058 26.2796 32.107C26.1241 32.8082 26.1091 33.5333 26.2355 34.2404ZM24.1314 27.3488L23.9521 26.3316L26.4459 25.3587L26.7163 26.8928L24.1314 27.3488ZM36.5474 47.3714C36.5875 47.5999 36.5353 47.835 36.4022 48.0251C36.2691 48.2152 36.0661 48.3447 35.8377 48.3852L32.3908 48.9929C32.1623 49.0328 31.9273 48.9806 31.7373 48.8475C31.5473 48.7145 31.4178 48.5115 31.3771 48.2832L30.9214 45.6981L36.0915 44.7864L36.5474 47.3714ZM68.5827 42.6114L65.1361 43.2191C64.9075 43.2594 64.6724 43.2072 64.4823 43.0741C64.2922 42.941 64.1628 42.7379 64.1225 42.5094L63.6667 39.9243L68.8369 39.0125L69.2928 41.5976C69.3328 41.8262 69.2805 42.0613 69.1474 42.2514C69.0143 42.4414 68.8112 42.5709 68.5827 42.6114ZM66.0843 18.3691H66.085L68.7612 18.4302L68.9407 19.4474L66.3547 19.9033L66.0829 18.3691H66.0843ZM57.9797 15.991L61.5144 20.7568L51.776 22.4739L55.9776 14.7869C56.3741 14.8459 56.7551 14.9827 57.0986 15.1893C57.4422 15.3959 57.7415 15.6684 57.9796 15.991H57.9797ZM47.4674 23.2337L51.7668 15.3675L53.8685 14.9969L49.5691 22.8631L47.4674 23.2337ZM33.2499 20.3516C33.4102 19.8055 33.7205 19.3153 34.1453 18.9365C34.5701 18.5578 35.0926 18.3057 35.6535 18.2088L49.5599 15.7567L45.2604 23.6227L31.5579 26.0389L33.2499 20.3516ZM28.5751 31.1579L30.8251 27.9452L62.8556 22.2973L66.0682 24.5468C66.4691 24.8259 66.8108 25.1818 67.0733 25.5938C67.3358 26.0058 67.514 26.4658 67.5976 26.9472L69.3943 37.1372L67.6709 37.4412L67.0631 33.9943C67.0414 33.8708 66.9933 33.7535 66.9223 33.6502C66.8512 33.5469 66.7588 33.4601 66.6513 33.3957C66.5437 33.3312 66.4236 33.2906 66.299 33.2767C66.1744 33.2627 66.0483 33.2756 65.9291 33.3147L60.1082 35.2206L57.5844 35.6657L57.8881 37.3891L60.4733 36.9332C60.5141 36.926 60.5543 36.9159 60.5936 36.9031L65.5148 35.2917L65.9473 37.745L58.3954 39.0766L56.7181 38.5777C56.5879 38.539 56.4504 38.5311 56.3166 38.5547L42.5293 40.9858C42.3956 41.0094 42.2692 41.0638 42.1601 41.1447L40.7545 42.1872L33.2026 43.5188L32.77 41.0655L37.9456 40.8965C37.987 40.8952 38.0282 40.8909 38.069 40.8837L40.6541 40.4279L40.3502 38.7044L37.8263 39.1496L31.7046 39.3494C31.5793 39.3535 31.4563 39.3844 31.344 39.4402C31.2317 39.4959 31.1327 39.5751 31.0537 39.6725C30.9746 39.7698 30.9175 39.883 30.886 40.0044C30.8545 40.1257 30.8495 40.2524 30.8713 40.3759L31.4792 43.8227L29.7558 44.1269L27.9595 33.9367C27.8732 33.4558 27.8832 32.9626 27.9889 32.4856C28.0945 32.0086 28.2937 31.5573 28.575 31.1578L28.5751 31.1579Z" fill="black"/>
<path d="M29.877 34.7359C29.9739 35.2967 30.226 35.8192 30.6048 36.244C30.9835 36.6689 31.4737 36.9791 32.0198 37.1395L34.4748 37.8697C34.6972 37.9358 34.9368 37.9109 35.1409 37.8004L37.4487 36.5505L39.8165 36.133C40.0737 36.3206 40.3504 36.4798 40.6418 36.6079C41.8675 37.1468 43.2256 37.3099 44.544 37.0765L45.7184 36.8693C46.7548 36.6854 47.7345 36.2638 48.5806 35.6377L48.6809 35.5634L48.8005 35.5989C49.8098 35.8978 50.8746 35.9589 51.9114 35.7773L53.0858 35.5703C54.4046 35.3391 55.625 34.7214 56.5922 33.7956C56.8222 33.5755 57.0278 33.3312 57.2053 33.0669L59.5732 32.6494L62.1698 33.0344C62.3994 33.0685 62.633 33.0099 62.8194 32.8717L64.8765 31.3459C65.3349 31.0084 65.6894 30.5493 65.9001 30.0205C66.1107 29.4918 66.1689 28.9146 66.0682 28.3544L65.8648 27.2016C65.8221 26.9593 65.7287 26.7287 65.5908 26.5249C65.4529 26.3212 65.2736 26.1488 65.0645 26.019C64.8555 25.8892 64.6214 25.805 64.3776 25.7718C64.1339 25.7386 63.8858 25.7571 63.6497 25.8263L57.0314 27.7668L51.1293 28.8075C50.4115 28.9339 49.7187 29.1753 49.0779 29.5225L47.7435 30.2444L46.2431 30.0219C45.5221 29.9147 44.7885 29.9247 44.0707 30.0516L38.1689 31.0923L31.2855 31.5325C31.0398 31.5482 30.8002 31.6155 30.5824 31.7301C30.3645 31.8447 30.1733 32.004 30.0211 32.1975C29.869 32.391 29.7594 32.6145 29.6996 32.8533C29.6397 33.092 29.6308 33.3407 29.6736 33.5832L29.877 34.7359ZM64.142 27.5055L64.3452 28.6582C64.3884 28.8983 64.3634 29.1457 64.2732 29.3723C64.1829 29.5989 64.0309 29.7957 63.8345 29.9403L62.0685 31.2502L59.6901 30.8975C59.597 30.8836 59.5023 30.8849 59.4096 30.9013L57.9205 31.1638C57.9309 31.082 57.9397 30.9997 57.9456 30.9171L58.0605 29.2884L64.142 27.5055ZM44.3745 31.7754C44.9071 31.6815 45.4514 31.6741 45.9864 31.7535L47.7753 32.0188C47.9626 32.0464 48.1539 32.0127 48.3204 31.9226L49.9106 31.0615C50.3862 30.8039 50.9002 30.6248 51.4328 30.5309L56.2788 29.6765L56.2001 30.7941C56.1541 31.4542 55.8631 32.0734 55.3843 32.5301C54.6666 33.217 53.7611 33.6753 52.7826 33.8469L51.608 34.0535C50.8389 34.1881 50.049 34.1428 49.3002 33.9211L48.7613 33.7609C48.6311 33.7222 48.4937 33.7143 48.36 33.7379C48.2262 33.7614 48.0998 33.8158 47.9907 33.8967L47.5391 34.2318C46.9112 34.6963 46.1843 35.009 45.4153 35.1455L44.2411 35.3526C43.2629 35.526 42.2552 35.405 41.3458 35.005C40.7396 34.7396 40.2544 34.2573 39.9854 33.6527L39.529 32.6294L44.3745 31.7754ZM37.7217 32.8749L38.3867 34.366C38.4205 34.4418 38.4569 34.5159 38.4946 34.5892L37.0048 34.8519C36.9122 34.8682 36.8228 34.8994 36.7401 34.9442L34.6262 36.0889L32.5187 35.4621C32.2846 35.3934 32.0744 35.2605 31.912 35.0785C31.7496 34.8964 31.6415 34.6724 31.5999 34.432L31.3967 33.2794L37.7217 32.8749Z" fill="black"/>
</svg>
