<svg width="98" height="93" viewBox="0 0 98 93" fill="none" xmlns="http://www.w3.org/2000/svg">
<rect width="97.0965" height="72.4779" rx="15" fill="#FAFAFA"/>
<path d="M49.2207 92.4002L58.072 71.85H40.3693L49.2207 92.4002Z" fill="#FAFAFA"/>
<path fill-rule="evenodd" clip-rule="evenodd" d="M43.0952 22.4277H25.7626V25.6298H43.0952V22.4277ZM68.6827 11H68.7121H73.1481C73.6181 11 74 11.4113 74 11.8813V55.7415V55.7709V60.1481C74 60.6181 73.6181 61 73.1481 61H24.8813C24.4113 61 24 60.6181 24 60.1481V55.8002V55.7709V11.8813C24 11.4113 24.4113 11 24.8813 11H43.9471H43.9765H48.4125H48.4418H68.6827ZM72.2667 54.8895V12.7626H69.564V54.8895H72.2667ZM25.7626 15.8472H43.0952V12.7626H25.7626V15.8472ZM25.7626 54.8895H43.0952V51.8049H25.7626V54.8895ZM25.7626 45.2244H43.0952V42.0223H25.7626V45.2244ZM25.7626 35.4125H43.0952V32.2103H25.7626V35.4125ZM68.7121 56.6522H48.4125H43.9765H25.7626V59.2667H72.2667V56.6522H68.7121ZM49.2938 12.7626V54.8895H67.8308V12.7626H49.2938ZM47.5311 54.8895V12.7626H44.8578V54.8895H47.5311ZM58.5476 20.6945C58.0776 20.6945 57.6663 20.3126 57.6663 19.8132V16.6992C57.6663 16.1998 58.0776 15.8179 58.5476 15.8179C59.047 15.8179 59.4289 16.1998 59.4289 16.6992V19.8132C59.4289 20.3126 59.047 20.6945 58.5476 20.6945ZM58.5476 28.4794C58.0776 28.4794 57.6663 28.0975 57.6663 27.5981V24.4841C57.6663 23.9847 58.0776 23.6028 58.5476 23.6028C59.047 23.6028 59.4289 23.9847 59.4289 24.4841V27.5981C59.4289 28.0975 59.047 28.4794 58.5476 28.4794ZM58.5476 36.2644C58.0776 36.2644 57.6663 35.8825 57.6663 35.3831V32.2691C57.6663 31.7697 58.0776 31.3878 58.5476 31.3878C59.047 31.3878 59.4289 31.7697 59.4289 32.2691V35.3831C59.4289 35.8825 59.047 36.2644 58.5476 36.2644ZM58.5476 44.0494C58.0776 44.0494 57.6663 43.6675 57.6663 43.168V40.0541C57.6663 39.5546 58.0776 39.1727 58.5476 39.1727C59.047 39.1727 59.4289 39.5546 59.4289 40.0541V43.168C59.4289 43.6675 59.047 44.0494 58.5476 44.0494ZM58.5476 51.8343C58.0776 51.8343 57.6663 51.4524 57.6663 50.953V47.839C57.6663 47.3396 58.0776 46.9577 58.5476 46.9577C59.047 46.9577 59.4289 47.3396 59.4289 47.839V50.953C59.4289 51.4524 59.047 51.8343 58.5476 51.8343ZM25.7626 50.0423H43.0952V46.9871H25.7626V50.0423ZM25.7626 40.2597H43.0952V37.1751H25.7626V40.2597ZM25.7626 30.4771H43.0952V27.3925H25.7626V30.4771ZM25.7626 20.6651H43.0952V17.6099H25.7626V20.6651Z" fill="black"/>
<path fill-rule="evenodd" clip-rule="evenodd" d="M43.9765 56.6522H25.7626V59.2667H72.2667V56.6522H68.7121H48.4125H43.9765Z" fill="#7ED63F"/>
<path fill-rule="evenodd" clip-rule="evenodd" d="M44.8578 12.7626V54.8895H47.5311V12.7626H44.8578Z" fill="#FFA721"/>
<path fill-rule="evenodd" clip-rule="evenodd" d="M49.2938 12.7626V54.8895H67.8308V12.7626H49.2938ZM58.5476 20.6945C58.0776 20.6945 57.6663 20.3126 57.6663 19.8132V16.6992C57.6663 16.1998 58.0776 15.8179 58.5476 15.8179C59.047 15.8179 59.4289 16.1998 59.4289 16.6992V19.8132C59.4289 20.3126 59.047 20.6945 58.5476 20.6945ZM58.5476 28.4794C58.0776 28.4794 57.6663 28.0975 57.6663 27.5981V24.4841C57.6663 23.9847 58.0776 23.6028 58.5476 23.6028C59.047 23.6028 59.4289 23.9847 59.4289 24.4841V27.5981C59.4289 28.0975 59.047 28.4794 58.5476 28.4794ZM58.5476 36.2644C58.0776 36.2644 57.6663 35.8825 57.6663 35.3831V32.2691C57.6663 31.7697 58.0776 31.3878 58.5476 31.3878C59.047 31.3878 59.4289 31.7697 59.4289 32.2691V35.3831C59.4289 35.8825 59.047 36.2644 58.5476 36.2644ZM58.5476 44.0494C58.0776 44.0494 57.6663 43.6675 57.6663 43.168V40.0541C57.6663 39.5546 58.0776 39.1727 58.5476 39.1727C59.047 39.1727 59.4289 39.5546 59.4289 40.0541V43.168C59.4289 43.6675 59.047 44.0494 58.5476 44.0494ZM58.5476 51.8343C58.0776 51.8343 57.6663 51.4524 57.6663 50.953V47.839C57.6663 47.3396 58.0776 46.9577 58.5476 46.9577C59.047 46.9577 59.4289 47.3396 59.4289 47.839V50.953C59.4289 51.4524 59.047 51.8343 58.5476 51.8343Z" fill="#4D4D4D"/>
<path fill-rule="evenodd" clip-rule="evenodd" d="M69.564 12.7626V54.8895H72.2667V12.7626H69.564Z" fill="#FFA721"/>
<path fill-rule="evenodd" clip-rule="evenodd" d="M43.0952 51.8049H25.7626V54.8895H43.0952V51.8049Z" fill="#FF3E1A"/>
<path fill-rule="evenodd" clip-rule="evenodd" d="M43.0952 46.9871H25.7626V50.0423H43.0952V46.9871Z" fill="#E6E6E6"/>
<path fill-rule="evenodd" clip-rule="evenodd" d="M43.0952 42.0223H25.7626V45.2244H43.0952V42.0223Z" fill="#FF3E1A"/>
<path fill-rule="evenodd" clip-rule="evenodd" d="M43.0952 37.1751H25.7626V40.2597H43.0952V37.1751Z" fill="#E6E6E6"/>
<path fill-rule="evenodd" clip-rule="evenodd" d="M43.0952 32.2103H25.7626V35.4125H43.0952V32.2103Z" fill="#FF3E1A"/>
<path fill-rule="evenodd" clip-rule="evenodd" d="M43.0952 27.3925H25.7626V30.4771H43.0952V27.3925Z" fill="#E6E6E6"/>
<path fill-rule="evenodd" clip-rule="evenodd" d="M43.0952 22.4277H25.7626V25.6298H43.0952V22.4277Z" fill="#FF3E1A"/>
<path fill-rule="evenodd" clip-rule="evenodd" d="M43.0952 17.6099H25.7626V20.6651H43.0952V17.6099Z" fill="#E6E6E6"/>
<path fill-rule="evenodd" clip-rule="evenodd" d="M43.0952 12.7626H25.7626V15.8472H43.0952V12.7626Z" fill="#FF3E1A"/>
</svg>
