<svg width="98" height="93" viewBox="0 0 98 93" fill="none" xmlns="http://www.w3.org/2000/svg">
<rect width="97.0965" height="72.4779" rx="15" fill="#FAFAFA"/>
<path d="M47.2207 92.4002L56.072 71.85H38.3693L47.2207 92.4002Z" fill="#FAFAFA"/>
<path d="M65.6253 27.625H35.8753V17.125H65.6253L69.1253 22.375L65.6253 27.625Z" fill="#CCA400"/>
<path d="M32.3753 32.875H62.1253V43.375H32.3753L28.8753 38.125L32.3753 32.875Z" fill="#CCA400"/>
<path d="M46.3753 11.875H51.6253V17.125H46.3753V11.875Z" fill="#5F4D37"/>
<path d="M46.3753 27.625H51.6253V32.875H46.3753V27.625Z" fill="#5F4D37"/>
<path d="M46.3753 43.375H51.6253V64.375H46.3753V43.375Z" fill="#5F4D37"/>
<path d="M69.8537 21.8894L66.3537 16.6394C66.2735 16.5197 66.1651 16.4217 66.0381 16.3538C65.9111 16.2859 65.7693 16.2502 65.6253 16.25H52.5003V11.875C52.5003 11.6429 52.4081 11.4204 52.244 11.2563C52.0799 11.0922 51.8573 11 51.6253 11H46.3753C46.1432 11 45.9207 11.0922 45.7566 11.2563C45.5925 11.4204 45.5003 11.6429 45.5003 11.875V16.25H35.8753C35.6432 16.25 35.4207 16.3422 35.2566 16.5063C35.0925 16.6704 35.0003 16.8929 35.0003 17.125V27.625C35.0003 27.8571 35.0925 28.0796 35.2566 28.2437C35.4207 28.4078 35.6432 28.5 35.8753 28.5H45.5003V32H32.3753C32.2312 32.0002 32.0895 32.0359 31.9625 32.1038C31.8354 32.1717 31.727 32.2697 31.6468 32.3894L28.1468 37.6394C28.0511 37.7832 28 37.9522 28 38.125C28 38.2978 28.0511 38.4668 28.1468 38.6106L31.6468 43.8606C31.727 43.9803 31.8354 44.0784 31.9625 44.1462C32.0895 44.2141 32.2312 44.2498 32.3753 44.25H45.5003V63.5H36.7503C36.5182 63.5 36.2957 63.5922 36.1316 63.7563C35.9675 63.9204 35.8753 64.1429 35.8753 64.375C35.8753 64.6071 35.9675 64.8296 36.1316 64.9937C36.2957 65.1578 36.5182 65.25 36.7503 65.25H57.7503C57.9823 65.25 58.2049 65.1578 58.369 64.9937C58.5331 64.8296 58.6253 64.6071 58.6253 64.375C58.6253 64.1429 58.5331 63.9204 58.369 63.7563C58.2049 63.5922 57.9823 63.5 57.7503 63.5H52.5003V44.25H62.1253C62.3573 44.25 62.5799 44.1578 62.744 43.9937C62.9081 43.8296 63.0003 43.6071 63.0003 43.375V32.875C63.0003 32.6429 62.9081 32.4204 62.744 32.2563C62.5799 32.0922 62.3573 32 62.1253 32H52.5003V28.5H65.6253C65.7693 28.4998 65.9111 28.4641 66.0381 28.3962C66.1651 28.3283 66.2735 28.2303 66.3537 28.1106L69.8537 22.8606C69.9495 22.7168 70.0006 22.5478 70.0006 22.375C70.0006 22.2022 69.9495 22.0332 69.8537 21.8894ZM47.2503 12.75H50.7503V16.25H47.2503V12.75ZM50.7503 63.5H47.2503V44.25H50.7503V63.5ZM61.2503 33.75V42.5H32.8434L29.9264 38.125L32.8434 33.75H61.2503ZM47.2503 32V28.5H50.7503V32H47.2503ZM65.1572 26.75H36.7503V18H65.1572L68.0742 22.375L65.1572 26.75Z" fill="black"/>
<path d="M61.2503 63.5H60.3753C60.1432 63.5 59.9206 63.5922 59.7566 63.7563C59.5925 63.9204 59.5003 64.1429 59.5003 64.375C59.5003 64.6071 59.5925 64.8296 59.7566 64.9937C59.9206 65.1578 60.1432 65.25 60.3753 65.25H61.2503C61.4823 65.25 61.7049 65.1578 61.869 64.9937C62.0331 64.8296 62.1253 64.6071 62.1253 64.375C62.1253 64.1429 62.0331 63.9204 61.869 63.7563C61.7049 63.5922 61.4823 63.5 61.2503 63.5Z" fill="black"/>
</svg>
