<svg width="98" height="93" viewBox="0 0 98 93" fill="none" xmlns="http://www.w3.org/2000/svg">
<rect width="97.0965" height="72.4779" rx="15" fill="#FAFAFA"/>
<path d="M47.2207 92.4002L56.072 71.85H38.3693L47.2207 92.4002Z" fill="#FAFAFA"/>
<path fill-rule="evenodd" clip-rule="evenodd" d="M36.8925 12.0215C33.1075 12.0215 30.0107 15.1183 30.0107 18.9032H63.9894C63.9894 15.1183 60.8926 12.0215 57.1076 12.0215H36.8925Z" fill="#A1C5E4"/>
<path fill-rule="evenodd" clip-rule="evenodd" d="M46.9679 6.86035C44.1322 6.87767 41.8387 9.18179 41.8387 12.0215H52.1612C52.1612 9.18167 49.8678 6.87756 47.0321 6.86035H46.9679Z" fill="#FFEE88"/>
<path fill-rule="evenodd" clip-rule="evenodd" d="M63.9895 18.9032H30.0108C28.8282 18.9032 27.8604 19.8709 27.8604 21.0538C27.8604 22.2365 28.8283 23.2043 30.0108 23.2043H63.9894C65.1719 23.2043 66.1398 22.2366 66.1398 21.0538C66.1399 19.871 65.1722 18.9032 63.9895 18.9032Z" fill="#A1C5E4"/>
<path fill-rule="evenodd" clip-rule="evenodd" d="M33.4845 23.2043H30.0107L34.0969 52.6811H37.5707L33.4845 23.2043Z" fill="#A1C5E4"/>
<path fill-rule="evenodd" clip-rule="evenodd" d="M34.4509 30.1755L36.4607 44.6748L39.799 42.5427L40.3063 45.5458L42.7932 46.2589L45.2796 49.3556V44.6635L47.8183 41.194L50.595 43.226L48.7205 45.7878V52.6811H56.4295L57.7204 43.3687L56.8802 39.3843L58.6463 36.6895L55.8093 30.6598H53.2287L51.9463 35.9628L48.7205 31.2221L44.8819 36.4678L42.1051 34.4358L45.2796 30.0976V23.2043H33.4844L34.4509 30.1755Z" fill="#FFEE88"/>
<path fill-rule="evenodd" clip-rule="evenodd" d="M47.8183 41.194L45.2796 44.6635V52.6811H48.7205V45.7878L50.5951 43.226L47.8183 41.194Z" fill="#A1C5E4"/>
<path fill-rule="evenodd" clip-rule="evenodd" d="M44.882 36.4678L48.7205 31.2221V23.2043H45.2796V30.0976L42.1051 34.4358L44.882 36.4678Z" fill="#A1C5E4"/>
<path fill-rule="evenodd" clip-rule="evenodd" d="M48.7205 31.2221L51.9463 35.9628L53.2287 30.6598H55.8093L58.6463 36.6895L60.5156 23.2043H48.7205V31.2221Z" fill="#FFEE88"/>
<path fill-rule="evenodd" clip-rule="evenodd" d="M60.5156 23.2043L58.6463 36.6895L56.8802 39.3843L57.7204 43.3687L56.4295 52.6811H59.9033L61.2111 43.2463L60.5422 40.0739L61.9483 37.9283L63.9894 23.2043H60.5156Z" fill="#A1C5E4"/>
<path fill-rule="evenodd" clip-rule="evenodd" d="M45.2796 49.3556L42.7933 46.2589L40.3063 45.5458L39.799 42.5427L36.4607 44.6748L37.5706 52.6811H45.2796V49.3556Z" fill="#FFEE88"/>
<path fill-rule="evenodd" clip-rule="evenodd" d="M34.0968 52.6811V55.2618C34.0968 56.208 34.8712 56.9822 35.8172 56.9822H58.1828C59.1288 56.9822 59.9033 56.2077 59.9033 55.2618V52.6811H34.0968Z" fill="#A1C5E4"/>
<path fill-rule="evenodd" clip-rule="evenodd" d="M55.6022 56.9822H38.3977L40.1182 60.4231H53.8818L55.6022 56.9822Z" fill="#A1C5E4"/>
<path fill-rule="evenodd" clip-rule="evenodd" d="M43.5591 60.4231H50.4409V63.8639H43.5591V60.4231Z" fill="#A1C5E4"/>
<path fill-rule="evenodd" clip-rule="evenodd" d="M46.9679 6.86035C44.1322 6.87767 41.8387 9.18179 41.8387 12.0215H44.4193C44.4193 9.6166 46.0643 7.59612 48.2903 7.0231C47.8877 6.91953 47.4663 6.86299 47.0321 6.86035H46.9679Z" fill="#FFE000"/>
<path fill-rule="evenodd" clip-rule="evenodd" d="M36.8925 12.0215C33.1075 12.0215 30.0107 15.1183 30.0107 18.9032H32.5914C32.5914 15.1183 35.6882 12.0215 39.4731 12.0215H36.8925Z" fill="#4796C6"/>
<path fill-rule="evenodd" clip-rule="evenodd" d="M32.5914 18.9032H30.0108C28.8282 18.9032 27.8604 19.8709 27.8604 21.0538C27.8604 22.2365 28.8283 23.2043 30.0108 23.2043H32.5914C31.4088 23.2043 30.4409 22.2365 30.4409 21.0538C30.441 19.871 31.4088 18.9032 32.5914 18.9032Z" fill="#4796C6"/>
<path fill-rule="evenodd" clip-rule="evenodd" d="M36.4607 44.6748L38.8314 43.1607L36.0651 23.2043H33.4844L36.4607 44.6748Z" fill="#FFE000"/>
<path fill-rule="evenodd" clip-rule="evenodd" d="M38.8315 43.1607L36.4607 44.6748L37.5706 52.6811H40.1512L38.8315 43.1607Z" fill="#FFE000"/>
<path fill-rule="evenodd" clip-rule="evenodd" d="M34.0968 52.6811V55.2618C34.0968 56.208 34.8712 56.9822 35.8172 56.9822H38.3979C37.4519 56.9822 36.6774 56.208 36.6774 55.2618V52.6811H34.0968Z" fill="#4796C6"/>
<path fill-rule="evenodd" clip-rule="evenodd" d="M41.082 56.9822H38.3977L40.1182 60.4231H42.8024L41.082 56.9822Z" fill="#4796C6"/>
<path fill-rule="evenodd" clip-rule="evenodd" d="M43.5591 60.4231H46.1398V63.8639H43.5591V60.4231Z" fill="#4796C6"/>
<path d="M57.1077 16.3226H55.3873V14.6022H57.1077V16.3226ZM53.6667 16.3226H51.9463V14.6022H53.6667V16.3226Z" fill="white"/>
<path d="M67 21.0538C67 19.6793 66.0738 18.5177 64.813 18.1585C64.4369 14.2378 61.1252 11.1613 57.1076 11.1613H52.9591C52.5404 8.24723 50.0282 6 47 6C43.9718 6 41.4598 8.24723 41.0409 11.1613H36.8924C32.8747 11.1613 29.563 14.2378 29.187 18.1585C27.9262 18.5177 27 19.6793 27 21.0538C27 22.4504 27.956 23.6278 29.2479 23.9663L30.1439 30.4302L31.8481 30.1938L30.9985 24.0645H32.7353L36.5829 51.8209H34.8461L32.0822 31.8821L30.378 32.1184L33.2367 52.7406V55.2618C33.2367 56.6847 34.3943 57.8424 35.8173 57.8424H37.8662L39.5867 61.2833H42.699V64.7242H46.1399V63.0038H44.4195V61.2833H49.5808V63.0038H47.8603V64.7242H51.3012V61.2833H54.4136L56.134 57.8424H58.1829C59.6059 57.8424 60.7636 56.6847 60.7636 55.2618V52.7406L62.0839 43.2158L61.4578 40.2463L62.7739 38.238L64.7523 23.9663C66.044 23.6278 67 22.4504 67 21.0538ZM47 7.72043C49.0771 7.72043 50.8149 9.20046 51.2145 11.1613H42.7854C43.1851 9.20046 44.9229 7.72043 47 7.72043ZM36.8924 12.8817H57.1075C60.1356 12.8817 62.6478 15.1289 63.0665 18.043H30.9334C31.3521 15.1289 33.8643 12.8817 36.8924 12.8817ZM58.1919 33.7031L56.3552 29.7996H52.5517L51.5661 33.8751L49.5806 30.9571V24.0645H59.5278L58.1919 33.7031ZM46.1398 24.0645H47.8602V30.941L44.6957 35.2655L43.3073 34.2496L46.1398 30.3787V24.0645ZM44.4194 29.8164L40.9029 34.622L45.0681 37.6698L48.6949 32.7136L51.086 36.2276V39.6524H52.8065V36.0652L53.9056 31.5199H55.2632L57.663 36.6202L55.9647 39.2118L56.8476 43.3991L55.6803 51.8208H49.5805V46.0689L51.7971 43.0397L47.632 39.9919L44.4194 44.3822V46.9102L43.2929 45.5073L41.3695 44.9557L40.325 42.897L42.5572 39.5061L41.1201 38.5601L38.7143 42.2148L37.1285 43.2276L35.412 30.8439L38.126 30.2437L39.9069 32.0058L41.1169 30.7829L39.6674 29.3486L42.3981 27.0124L41.2797 25.7051L38.0022 28.5092L35.175 29.1344L34.4723 24.0645H44.4195V29.8164H44.4194ZM47.8602 45.5067V51.8209H46.1398V44.9446L48.0044 42.3963L49.3928 43.4122L47.8602 45.5067ZM37.3884 45.1031L38.9945 44.0774L40.1745 46.4029L42.2935 47.0105L44.4194 49.6582V51.8209H38.3196L37.3884 45.1031ZM53.3501 59.5628H40.6499L39.7897 57.8424H54.2103L53.3501 59.5628ZM59.043 55.2618C59.043 55.7361 58.6572 56.122 58.1828 56.122H35.8172C35.3428 56.122 34.957 55.7361 34.957 55.2618V53.5413H59.043V55.2618ZM61.1228 37.6186L59.6267 39.9015L60.3384 43.2769L59.154 51.8209H57.4172L58.5931 43.338L57.7957 39.5566L59.4717 36.9991L61.2648 24.0645H63.0016L61.1228 37.6186ZM63.9892 22.3441H30.0106C29.2992 22.3441 28.7203 21.7652 28.7203 21.0538C28.7203 20.3423 29.2991 19.7634 30.0106 19.7634H63.9892C64.7007 19.7634 65.2796 20.3423 65.2796 21.0538C65.2796 21.7652 64.7008 22.3441 63.9892 22.3441Z" fill="black"/>
</svg>
