<svg width="98" height="93" viewBox="0 0 98 93" fill="none" xmlns="http://www.w3.org/2000/svg">
<rect width="97.0965" height="72.4779" rx="15" fill="#FAFAFA"/>
<path d="M49.2207 92.4002L58.072 71.85H40.3693L49.2207 92.4002Z" fill="#FAFAFA"/>
<path d="M40.2498 13.5H59.4998V57.25H40.2498V13.5Z" fill="#3E3D42"/>
<path d="M49.8748 40.625C52.7743 40.625 55.1248 38.2745 55.1248 35.375C55.1248 32.4755 52.7743 30.125 49.8748 30.125C46.9753 30.125 44.6248 32.4755 44.6248 35.375C44.6248 38.2745 46.9753 40.625 49.8748 40.625Z" fill="#FFDA44"/>
<path d="M49.8748 26.625C52.7743 26.625 55.1248 24.2745 55.1248 21.375C55.1248 18.4755 52.7743 16.125 49.8748 16.125C46.9753 16.125 44.6248 18.4755 44.6248 21.375C44.6248 24.2745 46.9753 26.625 49.8748 26.625Z" fill="#D80027"/>
<path d="M49.8748 54.625C52.7743 54.625 55.1248 52.2745 55.1248 49.375C55.1248 46.4755 52.7743 44.125 49.8748 44.125C46.9753 44.125 44.6248 46.4755 44.6248 49.375C44.6248 52.2745 46.9753 54.625 49.8748 54.625Z" fill="#91CC04"/>
<path d="M45.9373 10.875H53.8123C54.3925 10.875 54.9489 11.1055 55.3591 11.5157C55.7694 11.9259 55.9998 12.4823 55.9998 13.0625V13.5H43.7498V13.0625C43.7498 12.4823 43.9803 11.9259 44.3905 11.5157C44.8008 11.1055 45.3572 10.875 45.9373 10.875Z" fill="#2D2D30"/>
<path d="M46.3748 57.25H53.3748V63.375H46.3748V57.25Z" fill="#2D2D30"/>
<path d="M62.1248 26.625H59.4998V16.125H63.8748L62.1248 26.625Z" fill="#2D2D30"/>
<path d="M62.1248 41.5H59.4998V31H63.8748L62.1248 41.5Z" fill="#2D2D30"/>
<path d="M62.1248 55.5H59.4998V45H63.8748L62.1248 55.5Z" fill="#2D2D30"/>
<path d="M37.6248 26.625H40.2498V16.125H35.8748L37.6248 26.625Z" fill="#2D2D30"/>
<path d="M37.6248 41.5H40.2498V31H35.8748L37.6248 41.5Z" fill="#2D2D30"/>
<path d="M37.6248 55.5H40.2498V45H35.8748L37.6248 55.5Z" fill="#2D2D30"/>
<path d="M49.8748 29.25C48.6634 29.25 47.4792 29.6092 46.472 30.2822C45.4647 30.9553 44.6796 31.9119 44.2161 33.0311C43.7525 34.1503 43.6312 35.3818 43.8675 36.5699C44.1038 37.7581 44.6872 38.8494 45.5438 39.706C46.4004 40.5626 47.4918 41.146 48.6799 41.3823C49.868 41.6186 51.0996 41.4973 52.2188 41.0338C53.338 40.5702 54.2946 39.7851 54.9676 38.7779C55.6406 37.7706 55.9998 36.5864 55.9998 35.375C55.998 33.7511 55.3521 32.1943 54.2038 31.046C53.0556 29.8977 51.4987 29.2518 49.8748 29.25ZM49.8748 39.75C49.0095 39.75 48.1637 39.4934 47.4442 39.0127C46.7247 38.5319 46.164 37.8487 45.8329 37.0492C45.5017 36.2498 45.4151 35.3701 45.5839 34.5215C45.7527 33.6728 46.1694 32.8933 46.7812 32.2814C47.3931 31.6696 48.1726 31.2529 49.0213 31.0841C49.87 30.9153 50.7496 31.0019 51.5491 31.333C52.3485 31.6642 53.0318 32.2249 53.5125 32.9444C53.9932 33.6638 54.2498 34.5097 54.2498 35.375C54.2485 36.5349 53.7872 37.647 52.967 38.4672C52.1468 39.2873 51.0347 39.7487 49.8748 39.75Z" fill="black"/>
<path d="M49.8748 15.25C48.6634 15.25 47.4792 15.6092 46.472 16.2822C45.4647 16.9553 44.6796 17.9119 44.2161 19.0311C43.7525 20.1503 43.6312 21.3818 43.8675 22.5699C44.1038 23.7581 44.6872 24.8494 45.5438 25.706C46.4004 26.5626 47.4918 27.146 48.6799 27.3823C49.868 27.6186 51.0996 27.4974 52.2188 27.0338C53.338 26.5702 54.2946 25.7851 54.9676 24.7779C55.6406 23.7706 55.9998 22.5864 55.9998 21.375C55.998 19.7511 55.3521 18.1943 54.2038 17.046C53.0556 15.8977 51.4987 15.2518 49.8748 15.25ZM49.8748 25.75C49.0095 25.75 48.1637 25.4934 47.4442 25.0127C46.7247 24.5319 46.164 23.8487 45.8329 23.0492C45.5017 22.2498 45.4151 21.3701 45.5839 20.5215C45.7527 19.6728 46.1694 18.8933 46.7812 18.2814C47.3931 17.6696 48.1726 17.2529 49.0213 17.0841C49.87 16.9153 50.7496 17.0019 51.5491 17.333C52.3485 17.6642 53.0318 18.2249 53.5125 18.9444C53.9932 19.6638 54.2498 20.5097 54.2498 21.375C54.2485 22.5349 53.7872 23.647 52.967 24.4672C52.1468 25.2873 51.0347 25.7487 49.8748 25.75Z" fill="black"/>
<path d="M49.8748 43.25C48.6634 43.25 47.4792 43.6092 46.472 44.2822C45.4647 44.9553 44.6796 45.9119 44.2161 47.0311C43.7525 48.1503 43.6312 49.3818 43.8675 50.5699C44.1038 51.7581 44.6872 52.8494 45.5438 53.706C46.4004 54.5626 47.4918 55.146 48.6799 55.3823C49.868 55.6186 51.0996 55.4973 52.2188 55.0338C53.338 54.5702 54.2946 53.7851 54.9676 52.7779C55.6406 51.7706 55.9998 50.5864 55.9998 49.375C55.998 47.7511 55.3521 46.1943 54.2038 45.046C53.0556 43.8977 51.4987 43.2518 49.8748 43.25ZM49.8748 53.75C49.0095 53.75 48.1637 53.4934 47.4442 53.0127C46.7247 52.5319 46.164 51.8487 45.8329 51.0492C45.5017 50.2498 45.4151 49.3701 45.5839 48.5215C45.7527 47.6728 46.1694 46.8933 46.7812 46.2814C47.3931 45.6696 48.1726 45.2529 49.0213 45.0841C49.87 44.9153 50.7496 45.0019 51.5491 45.333C52.3485 45.6642 53.0318 46.2249 53.5125 46.9444C53.9932 47.6638 54.2498 48.5097 54.2498 49.375C54.2485 50.5349 53.7872 51.647 52.967 52.4672C52.1468 53.2873 51.0347 53.7487 49.8748 53.75Z" fill="black"/>
<path d="M62.1248 42.375C62.3319 42.375 62.5322 42.3016 62.6902 42.1678C62.8482 42.034 62.9536 41.8486 62.9878 41.6444L64.7378 31.1444C64.7586 31.019 64.7519 30.8906 64.7182 30.7681C64.6844 30.6456 64.6244 30.5319 64.5423 30.4349C64.4602 30.3379 64.3579 30.26 64.2427 30.2064C64.1274 30.1529 64.0019 30.1251 63.8748 30.125H60.3748V27.5H62.1248C62.3319 27.5 62.5322 27.4266 62.6902 27.2928C62.8482 27.159 62.9536 26.9736 62.9878 26.7694L64.7378 16.2694C64.7586 16.144 64.7519 16.0156 64.7182 15.8931C64.6844 15.7706 64.6244 15.6569 64.5423 15.5599C64.4602 15.4629 64.3579 15.385 64.2427 15.3314C64.1274 15.2779 64.0019 15.2501 63.8748 15.25H60.3748V13.5C60.3748 13.2679 60.2826 13.0454 60.1185 12.8813C59.9544 12.7172 59.7319 12.625 59.4998 12.625H56.8431C56.737 11.8966 56.3724 11.2306 55.816 10.7487C55.2596 10.2668 54.5484 10.0011 53.8123 10H45.9373C45.2012 10.0011 44.49 10.2668 43.9336 10.7487C43.3772 11.2306 43.0127 11.8966 42.9065 12.625H40.2498C40.0178 12.625 39.7952 12.7172 39.6311 12.8813C39.467 13.0454 39.3748 13.2679 39.3748 13.5V15.25H35.8748C35.7477 15.2501 35.6222 15.2779 35.507 15.3314C35.3917 15.385 35.2895 15.4629 35.2074 15.5599C35.1252 15.6569 35.0652 15.7706 35.0315 15.8931C34.9977 16.0156 34.991 16.144 35.0119 16.2694L36.7619 26.7694C36.796 26.9736 36.9015 27.159 37.0595 27.2928C37.2175 27.4266 37.4178 27.5 37.6248 27.5H39.3748V30.125H35.8748C35.7477 30.1251 35.6222 30.1529 35.507 30.2064C35.3917 30.26 35.2895 30.3379 35.2074 30.4349C35.1252 30.5319 35.0652 30.6456 35.0315 30.7681C34.9977 30.8906 34.991 31.019 35.0119 31.1444L36.7619 41.6444C36.796 41.8486 36.9015 42.034 37.0595 42.1678C37.2175 42.3016 37.4178 42.375 37.6248 42.375H39.3748V44.125H35.8748C35.7477 44.1251 35.6222 44.1529 35.507 44.2064C35.3917 44.26 35.2895 44.3379 35.2074 44.4349C35.1252 44.5319 35.0652 44.6456 35.0315 44.7681C34.9977 44.8906 34.991 45.019 35.0119 45.1444L36.7619 55.6444C36.796 55.8486 36.9015 56.034 37.0595 56.1678C37.2175 56.3016 37.4178 56.375 37.6248 56.375H39.3748V57.25C39.3748 57.4821 39.467 57.7046 39.6311 57.8687C39.7952 58.0328 40.0178 58.125 40.2498 58.125H45.4998V63.375C45.4998 63.6071 45.592 63.8296 45.7561 63.9937C45.9202 64.1578 46.1428 64.25 46.3748 64.25H53.3748C53.6069 64.25 53.8294 64.1578 53.9935 63.9937C54.1576 63.8296 54.2498 63.6071 54.2498 63.375V58.125H59.4998C59.7319 58.125 59.9544 58.0328 60.1185 57.8687C60.2826 57.7046 60.3748 57.4821 60.3748 57.25V56.375H62.1248C62.3319 56.375 62.5322 56.3016 62.6902 56.1678C62.8482 56.034 62.9536 55.8486 62.9878 55.6444L64.7378 45.1444C64.7586 45.019 64.7519 44.8906 64.7182 44.7681C64.6844 44.6456 64.6244 44.5319 64.5423 44.4349C64.4602 44.3379 64.3579 44.26 64.2427 44.2064C64.1274 44.1529 64.0019 44.1251 63.8748 44.125H60.3748V42.375H62.1248ZM60.3748 17H62.8423L61.3833 25.75H60.3748V17ZM60.3748 31.875H62.8423L61.3833 40.625H60.3748V31.875ZM39.3748 54.625H38.3664L36.9073 45.875H39.3748V54.625ZM39.3748 40.625H38.3664L36.9073 31.875H39.3748V40.625ZM39.3748 25.75H38.3664L36.9073 17H39.3748V25.75ZM45.9373 11.75H53.8123C54.0836 11.7503 54.3482 11.8346 54.5697 11.9912C54.7911 12.1479 54.9587 12.3693 55.0494 12.625H44.7003C44.7909 12.3693 44.9585 12.1479 45.18 11.9912C45.4015 11.8346 45.666 11.7503 45.9373 11.75ZM52.4998 62.5H47.2498V58.125H52.4998V62.5ZM58.6248 56.375H41.1248V14.375H58.6248V56.375ZM62.8423 45.875L61.3833 54.625H60.3748V45.875H62.8423Z" fill="black"/>
</svg>
