<svg width="98" height="93" viewBox="0 0 98 93" fill="none" xmlns="http://www.w3.org/2000/svg">
<rect width="97.0965" height="72.4779" rx="15" fill="#FAFAFA"/>
<path d="M47.2207 92.4002L56.072 71.85H38.3693L47.2207 92.4002Z" fill="#FAFAFA"/>
<path d="M71.5227 35.3563C71.5227 31.5524 69.2094 28.2887 65.913 26.8954C66.4951 25.77 66.8259 24.4936 66.8259 23.1392C66.8259 18.6167 63.1597 14.9503 58.637 14.9503C57.3485 14.9503 56.13 15.2488 55.0455 15.7791C54.0818 12.3289 50.9175 9.79701 47.1599 9.79701C43.4022 9.79701 40.238 12.3289 39.2742 15.7792C38.1898 15.2489 36.9712 14.9504 35.6827 14.9504C31.1602 14.9504 27.4938 18.6167 27.4938 23.1393C27.4938 24.4937 27.8247 25.7701 28.4067 26.8955C25.1103 28.2888 22.797 31.5525 22.797 35.3564C22.797 40.2863 26.6837 44.3032 31.5593 44.5231C32.239 46.9853 34.864 48.8207 38.001 48.8207C39.779 48.8207 41.3917 48.2302 42.5804 47.2713C43.769 48.2302 45.3819 48.8207 47.1599 48.8207C48.9379 48.8207 50.5506 48.2302 51.7393 47.2713C52.9279 48.2302 54.5407 48.8207 56.3187 48.8207C59.4558 48.8207 62.0808 46.9852 62.7605 44.5231C67.6361 44.3031 71.5227 40.2862 71.5227 35.3563Z" fill="#129B12"/>
<path d="M46.6688 9.8132C46.5679 9.81922 46.4675 9.82654 46.3678 9.83628C46.3372 9.83923 46.3068 9.84262 46.2763 9.8459C46.1691 9.8575 46.0625 9.87084 45.9565 9.88659C45.9367 9.88954 45.9168 9.89239 45.897 9.89545C45.7709 9.91514 45.6457 9.93701 45.5215 9.96228C45.5213 9.96228 45.5211 9.96239 45.5209 9.96239C47.6705 10.3996 49.6832 11.8968 50.9583 13.7841C51.8613 15.1205 53.4042 15.8908 55.0133 15.7815C55.024 15.7807 55.0347 15.78 55.0455 15.7793C54.0819 12.3289 50.9177 9.79701 47.16 9.79701C47.0283 9.79701 46.8975 9.80084 46.7672 9.80707C46.7343 9.80861 46.7016 9.81123 46.6688 9.8132Z" fill="#097C09"/>
<path d="M65.9129 26.8954C66.4951 25.77 66.8258 24.4936 66.8258 23.1392C66.8258 18.6167 63.1596 14.9503 58.6369 14.9503C58.0757 14.9503 57.5277 15.0071 56.9984 15.1148C60.7352 15.8743 63.5476 19.1782 63.5476 23.1392C63.5476 24.4936 63.2168 25.77 62.6347 26.8954C65.9311 28.2887 68.2444 31.5523 68.2444 35.3563C68.2444 40.2862 64.3578 44.3031 59.4823 44.5229C58.9251 46.5409 57.0608 48.1371 54.6793 48.6477C55.2035 48.7602 55.7526 48.8206 56.3186 48.8206C59.4556 48.8206 62.0807 46.9851 62.7603 44.523C67.6359 44.3032 71.5225 40.2863 71.5225 35.3564C71.5227 31.5524 69.2095 28.2888 65.9129 26.8954Z" fill="#097C09"/>
<path d="M41.2964 45.9148C40.5579 47.1674 37.4972 48.5681 36.3622 48.6477C36.4871 48.6745 36.6137 48.6979 36.7412 48.7187C36.7515 48.7203 36.7617 48.7222 36.772 48.7238C36.9014 48.7444 37.0319 48.762 37.1639 48.7761C37.1672 48.7764 37.1706 48.7766 37.174 48.7771C37.2927 48.7896 37.4127 48.7986 37.5333 48.8058C37.5627 48.8076 37.5921 48.8092 37.6216 48.8106C37.7473 48.8167 37.8736 48.8207 38.0011 48.8207C39.6227 48.8207 41.1057 48.3284 42.256 47.5146L42.4577 47.3679L41.4306 45.6826L41.2964 45.9148Z" fill="#009000"/>
<path d="M51.2545 48.0059L54.7629 42.4697C55.0404 42.0318 54.9565 41.4569 54.5653 41.1167C54.1476 40.7533 53.5195 40.777 53.1304 41.1709L50.5467 43.7867C50.204 44.1337 49.6169 43.8451 49.6822 43.3619L50.442 37.7326C50.5231 37.1311 50.0785 36.5865 49.473 36.5455L48.7612 36.4974C48.2263 36.4613 47.7502 36.8343 47.6573 37.3623L46.3011 45.0676C46.2257 45.4961 45.6815 45.6376 45.407 45.2999L41.1595 40.0763C40.8657 39.7148 40.3685 39.5904 39.9391 39.771L39.1955 40.0836C38.6067 40.3311 38.3738 41.0428 38.7023 41.5905L43.0672 48.8659C43.6992 49.9195 43.9599 51.1555 43.8018 52.374C43.2361 56.7367 42.5335 60.8513 39.6579 64.203H54.6625C51.5843 60.6149 50.825 56.1529 50.4176 51.4479C50.3127 50.2397 50.6054 49.0302 51.2545 48.0059Z" fill="#BF6101"/>
<path d="M54.7627 42.4697C55.0402 42.0318 54.9563 41.4569 54.5651 41.1167C54.1474 40.7533 53.5193 40.7771 53.1302 41.1709L51.9763 42.339L50.5464 43.7867C50.2038 44.1337 49.6168 43.8451 49.6819 43.3619L50.4418 37.7326C50.521 37.1464 50.1 36.6154 49.5179 36.551L47.3815 49.83C47.3456 50.0015 47.3175 50.1747 47.298 50.349C47.2573 50.7119 47.2518 51.08 47.2837 51.4478C47.6911 56.1529 48.4504 60.6149 51.5286 64.2029H54.6621C51.5839 60.6148 50.8246 56.1528 50.4172 51.4478C50.3126 50.2396 50.6052 49.0301 51.2543 48.0058L54.7627 42.4697Z" fill="#9A4D01"/>
<path d="M45.6015 16.2259C43.3041 16.2259 41.3263 17.5894 40.4298 19.5508C39.5036 18.8963 38.374 18.5105 37.1537 18.5105C34.014 18.5105 31.4687 21.0558 31.4687 24.1955C31.4687 25.2315 31.7472 26.2017 32.2313 27.0382C29.505 27.4574 27.4172 29.8132 27.4172 32.6568C27.4172 35.7965 29.9625 38.3418 33.1022 38.3418C36.2419 38.3418 51.2865 25.0506 51.2865 21.9108C51.2865 18.7711 48.7411 16.2259 45.6015 16.2259Z" fill="#28A528"/>
<path d="M66.9669 26.5119C67.4027 25.4425 67.6229 24.3115 67.6229 23.1393C67.6229 22.9017 67.6135 22.6615 67.5949 22.4258C67.5604 21.987 67.1764 21.6596 66.7379 21.6938C66.2992 21.7284 65.9714 22.1121 66.0059 22.5509C66.0211 22.7453 66.029 22.9432 66.029 23.1393C66.029 24.332 65.7519 25.4725 65.2052 26.5293C65.103 26.7265 65.0881 26.9574 65.1635 27.1663C65.239 27.3752 65.3983 27.5431 65.6028 27.6295C68.7149 28.945 70.7259 31.9779 70.7259 35.3563C70.7259 39.8477 67.2114 43.5244 62.7247 43.7268C62.3798 43.7423 62.0842 43.9781 61.9924 44.3108C61.3985 46.4621 59.0124 48.0236 56.3189 48.0236C55.0355 48.0236 53.8114 47.682 52.8031 47.0513L55.4362 42.8962C55.6207 42.605 55.7154 42.2823 55.7252 41.9607C55.7415 41.4248 55.5219 40.8923 55.0886 40.5153C54.3554 39.8774 53.2464 39.9195 52.5635 40.6108L50.5877 42.6112L51.2319 37.8391C51.2999 37.3346 51.1543 36.8191 50.8325 36.4248C50.5508 36.0797 50.1513 35.8485 49.7155 35.773C49.6533 35.7623 49.5903 35.7547 49.5268 35.7504L48.815 35.7023C48.4609 35.6782 48.1221 35.7553 47.8286 35.9101C47.3392 36.168 46.9749 36.642 46.8724 37.2241L46.2492 40.7651L45.626 44.306L41.778 39.5737C41.6503 39.4168 41.4998 39.2852 41.3343 39.1809C41.3333 39.1803 41.3324 39.1795 41.3314 39.1789C41.3135 39.1677 41.2948 39.1581 41.2767 39.1475C41.0399 39.01 40.7759 38.9252 40.5043 38.9012C40.4956 38.9004 40.4868 38.9005 40.4781 38.8998C40.4381 38.8969 40.3981 38.8944 40.3578 38.8939C40.1126 38.8915 39.865 38.9378 39.6305 39.0365L38.8868 39.349C38.393 39.5565 38.0142 39.9676 37.8476 40.4766C37.6809 40.9857 37.7433 41.5411 38.019 42.0006L41.1687 47.2506C40.2292 47.7524 39.1292 48.0237 38.0015 48.0237C35.3079 48.0237 32.9219 46.4622 32.328 44.3111C32.2361 43.9782 31.9404 43.7425 31.5957 43.727C27.109 43.5247 23.5945 39.8479 23.5945 35.3564C23.5945 31.9779 25.6054 28.945 28.7176 27.6296C28.9221 27.5432 29.0814 27.3753 29.1568 27.1664C29.2323 26.9575 29.2172 26.7266 29.1152 26.5294C28.5685 25.4726 28.2914 24.3321 28.2914 23.1395C28.2914 19.0636 31.6074 15.7476 35.6833 15.7476C36.8193 15.7476 37.91 15.9991 38.9248 16.4952C39.1373 16.5993 39.3852 16.6033 39.6012 16.5064C39.817 16.4095 39.9787 16.2217 40.0424 15.9938C40.9303 12.8146 43.8574 10.5941 47.1604 10.5941C50.4634 10.5941 53.3905 12.8146 54.2784 15.9938C54.3422 16.2217 54.5038 16.4096 54.7196 16.5064C54.9355 16.6034 55.1835 16.5994 55.396 16.4952C56.4108 15.9991 57.5015 15.7476 58.6376 15.7476C61.3622 15.7476 63.858 17.2393 65.151 19.6409C65.3595 20.0284 65.843 20.1734 66.2305 19.9647C66.6181 19.7562 66.763 19.2727 66.5543 18.8852C64.983 15.9666 61.9494 14.1536 58.6376 14.1536C57.5614 14.1536 56.5186 14.3395 55.5265 14.7072C54.1918 11.306 50.8711 9 47.1599 9C43.4487 9 40.1279 11.306 38.7938 14.7071C37.8016 14.3394 36.7588 14.1535 35.6827 14.1535C30.7278 14.1535 26.6968 18.1845 26.6968 23.1393C26.6968 24.3115 26.9171 25.4426 27.3528 26.5119C24.0757 28.224 22 31.6118 22 35.3563C22 40.5165 25.8971 44.7732 30.9708 45.2791C31.9683 47.8598 34.7716 49.6175 38.0009 49.6175C39.4167 49.6175 40.8031 49.266 41.9884 48.6176L42.3833 49.2758C42.9221 50.174 43.1451 51.2378 43.0112 52.2715C42.8952 53.1652 42.7525 54.2176 42.5715 55.2477C42.4953 55.6812 42.7851 56.0944 43.2185 56.1705C43.6526 56.2467 44.0652 55.9569 44.1413 55.5234C44.3278 54.4622 44.4737 53.3877 44.5918 52.4762C44.7718 51.0882 44.473 49.6603 43.7502 48.4557L39.3854 41.1804C39.3337 41.0945 39.3485 41.0131 39.362 40.9722C39.3753 40.9313 39.4116 40.857 39.5039 40.8182L40.2477 40.5056C40.3501 40.4625 40.4708 40.4927 40.5409 40.579L44.7885 45.8027C44.7998 45.8165 44.8117 45.8294 44.8234 45.8426C44.9812 46.022 45.1775 46.151 45.3933 46.2217C45.6226 46.297 45.8731 46.3068 46.1208 46.2442C46.1235 46.2435 46.1263 46.2431 46.1291 46.2423C46.1291 46.2423 46.1291 46.2423 46.1292 46.2423C46.37 46.1797 46.5794 46.0548 46.7423 45.8858C46.7486 45.8792 46.7555 45.8729 46.7617 45.8663C46.7674 45.86 46.7727 45.8534 46.7782 45.847C46.9344 45.6708 47.0427 45.4516 47.0859 45.2059L48.4421 37.5005C48.4645 37.3732 48.5814 37.2843 48.7074 37.2926L49.4193 37.3407C49.5142 37.3472 49.5718 37.4012 49.5976 37.4329C49.6234 37.4645 49.6649 37.5317 49.6521 37.6261L48.8922 43.2555C48.8828 43.3252 48.8791 43.3945 48.8809 43.4631C48.8927 43.9431 49.1688 44.3842 49.6101 44.601C49.6416 44.6165 49.6735 44.6307 49.7058 44.6433C49.8669 44.7072 50.036 44.7372 50.2034 44.7349C50.5383 44.7303 50.867 44.5967 51.1138 44.3468L53.6974 41.731C53.742 41.6858 53.8001 41.6615 53.8594 41.6574C53.862 41.6572 53.8645 41.6565 53.8672 41.6564C53.8685 41.6564 53.8698 41.6566 53.8711 41.6566C53.9164 41.6557 53.9619 41.6664 54.0025 41.6897C54.0164 41.6977 54.0297 41.7071 54.0423 41.718C54.1369 41.8004 54.1568 41.9372 54.0897 42.0432L50.5813 47.5793C49.8445 48.7422 49.5042 50.1405 49.6234 51.5167C49.9572 55.372 50.5357 59.7192 53.0495 63.4061H41.265C42.1645 62.0721 42.8634 60.5546 43.386 58.8076C43.5121 58.386 43.2726 57.9418 42.8508 57.8157C42.429 57.6896 41.9849 57.9291 41.8589 58.3509C41.2215 60.4817 40.3036 62.2264 39.0527 63.6841C38.85 63.9204 38.8034 64.2531 38.9334 64.5359C39.0635 64.8188 39.3462 65 39.6575 65H54.6621C54.9734 65 55.2562 64.8188 55.3862 64.5359C55.5162 64.2531 55.4696 63.9204 55.267 63.6842C52.198 60.107 51.5643 55.4569 51.2111 51.3792C51.122 50.3488 51.3763 49.3022 51.9274 48.4325L51.9497 48.3972C53.2122 49.1884 54.733 49.6176 56.3186 49.6176C59.5479 49.6176 62.3512 47.86 63.3487 45.2791C68.4224 44.7732 72.3195 40.5165 72.3195 35.3564C72.3197 31.6118 70.2439 28.224 66.9669 26.5119Z" fill="#121419"/>
</svg>
