<svg width="98" height="91" viewBox="0 0 98 91" fill="none" xmlns="http://www.w3.org/2000/svg">
<rect width="97.0965" height="72.4779" rx="15" fill="#FAFAFA"/>
<path d="M49.2207 90.4002L58.072 69.85H40.3693L49.2207 90.4002Z" fill="#FAFAFA"/>
<path d="M68.3366 17.1054V31.7306H53.2193C52.6958 31.7306 52.2819 31.2776 52.3288 30.7619L52.6725 27.0431C52.7114 26.5744 52.1335 26.3165 51.8208 26.6759L49.7271 29.051C49.6333 29.1524 49.5005 29.215 49.3599 29.215H46.9927C46.813 29.215 46.649 29.3165 46.563 29.4729L45.6177 31.254C45.4615 31.551 45.1645 31.7306 44.8286 31.7306H29.1721V17.1054H68.3366Z" fill="#108BE1"/>
<path d="M68.3366 24.4179V31.7306H53.2193C52.6958 31.7306 52.2819 31.2776 52.3288 30.7619L52.6725 27.0431C52.7114 26.5744 52.1335 26.3165 51.8208 26.6759L49.7271 29.051C49.6333 29.1524 49.5005 29.215 49.3599 29.215H46.9927C46.813 29.215 46.649 29.3165 46.563 29.4729L45.6177 31.254C45.4615 31.551 45.1645 31.7306 44.8286 31.7306H29.1721V24.4179H68.3366Z" fill="#0C6BC3"/>
<path d="M29.1723 17.109H33.7583V31.7264H29.1723V17.109Z" fill="#085BB6"/>
<path d="M32.1956 17.1016V32.5392C32.1956 34.805 30.3674 36.6408 28.1016 36.6408C25.836 36.6408 24 34.805 24 32.5392V17.1016C24 14.8359 25.836 13 28.1016 13C29.2346 13 30.2581 13.4608 31.0003 14.203C31.7424 14.9451 32.1956 15.9686 32.1956 17.1016Z" fill="#108BE1"/>
<path d="M31.0003 14.203C30.3449 13.5476 29.4643 13.1322 28.4885 13.0391V36.6019C30.569 36.4041 32.1957 34.6724 32.1957 32.5392V17.1016C32.1957 15.9686 31.7425 14.9451 31.0003 14.203Z" fill="#0C6BC3"/>
<path d="M64.2432 17.109H68.337V31.7264H64.2432V17.109Z" fill="#085BB6"/>
<path d="M73.9999 17.1016V32.5392C73.9999 34.805 72.1717 36.6408 69.9059 36.6408C67.6403 36.6408 65.8043 34.805 65.8043 32.5392V17.1016C65.8043 14.8359 67.6403 13 69.9059 13C71.0389 13 72.0624 13.4608 72.8046 14.203C73.5467 14.9451 73.9999 15.9686 73.9999 17.1016Z" fill="#108BE1"/>
<path d="M72.8046 14.203C72.0624 13.4608 71.0389 13 69.906 13C69.9023 13 69.8989 13.0011 69.8953 13.0011V36.6397C69.8989 36.6397 69.9023 36.6408 69.906 36.6408C72.1717 36.6408 74 34.805 74 32.5392V17.1016C74 15.9686 73.5468 14.9451 72.8046 14.203Z" fill="#0C6BC3"/>
<path d="M55.2787 44.1354C55.2787 47.6011 52.4661 50.4067 49.0004 50.4067C45.5349 50.4067 42.7221 47.6011 42.7221 44.1354C42.7221 41.7964 45.5708 37.3979 47.4291 34.7719C48.1969 33.6884 49.7969 33.6884 50.5647 34.7719C52.4303 37.3979 55.2787 41.7964 55.2787 44.1354Z" fill="#E8EDF2"/>
<path d="M46.2434 48.1068C45.947 48.1068 45.6506 47.995 45.4225 47.7711C44.4368 46.8037 43.8939 45.5124 43.8939 44.1353C43.8939 43.4879 44.4185 42.9634 45.0658 42.9634C45.7132 42.9634 46.2377 43.4879 46.2377 44.1353C46.2377 44.878 46.5315 45.5753 47.0644 46.0987C47.5263 46.5519 47.5332 47.2939 47.0796 47.7559C46.8504 47.9897 46.5471 48.1068 46.2434 48.1068Z" fill="white"/>
<path d="M50.5648 34.772C50.2021 34.26 49.6529 33.9987 49.0943 33.9705V50.402C52.5163 50.3514 55.2787 47.5695 55.2787 44.1355C55.2787 41.7964 52.4304 37.398 50.5648 34.772Z" fill="#C4D3E4"/>
<path d="M43.3315 53.7777C43.3315 56.1896 41.3741 58.1422 38.9622 58.1422C36.5504 58.1422 34.5928 56.1896 34.5928 53.7777C34.5928 52.1499 36.5754 49.0888 37.8686 47.2613C38.403 46.5072 39.5165 46.5072 40.0508 47.2613C41.3492 49.0888 43.3315 52.1499 43.3315 53.7777Z" fill="#E8EDF2"/>
<path d="M40.0509 47.2613C39.8108 46.9225 39.4531 46.7446 39.0843 46.71V58.136C41.4393 58.071 43.3316 56.1483 43.3316 53.7778C43.3316 52.1499 41.3493 49.0887 40.0509 47.2613Z" fill="#C4D3E4"/>
<path d="M61.348 55.626C61.348 57.9024 59.5006 59.7452 57.2242 59.7452C54.9479 59.7452 53.1003 57.9024 53.1003 55.626C53.1003 54.0896 54.9715 51.2005 56.1921 49.4756C56.6964 48.7639 57.7474 48.7639 58.2517 49.4756C59.4771 51.2005 61.348 54.0896 61.348 55.626Z" fill="#E8EDF2"/>
<path d="M58.2517 49.4755C58.0267 49.158 57.6919 48.9903 57.3463 48.9562V59.7329C59.565 59.6669 61.348 57.8606 61.348 55.6259C61.348 54.0897 59.4772 51.2006 58.2517 49.4755Z" fill="#C4D3E4"/>
<path d="M53.2437 20.2841H46.6499C46.0014 20.2841 45.478 19.7605 45.478 19.1122C45.478 18.4637 46.0014 17.9403 46.6499 17.9403H53.2361C53.8842 17.9403 54.408 18.4637 54.408 19.1122C54.4156 19.7605 53.8842 20.2841 53.2437 20.2841Z" fill="#4DB6FF"/>
<path d="M42.4154 20.2841H41.2512C40.9387 20.2841 40.6419 20.1589 40.431 19.948C40.22 19.737 40.0793 19.4402 40.0793 19.1122C40.0793 18.4637 40.6107 17.9403 41.2512 17.9403H42.4154C43.0639 17.9403 43.5873 18.4637 43.5873 19.1122C43.5873 19.7605 43.0639 20.2841 42.4154 20.2841Z" fill="#4DB6FF"/>
</svg>
