<svg width="348" height="135" viewBox="0 0 348 135" fill="none" xmlns="http://www.w3.org/2000/svg">
<path d="M4.8291 36.4346H19.0381L34.0527 73.0923H34.6753L49.7266 36.4346H64.0454V91H52.7295V55.4775H52.3267L38.1543 90.7437H30.5005L16.4746 55.4043H15.9985V91H4.8291V36.4346ZM96.9678 50.9854H105.4V76.9277C105.4 79.846 104.711 82.4062 103.333 84.6084C101.954 86.7926 100.02 88.4935 97.5317 89.7109C95.0431 90.9284 92.1427 91.5371 88.8306 91.5371C85.5005 91.5371 82.5911 90.9284 80.1025 89.7109C77.6318 88.4935 75.7072 86.7926 74.3286 84.6084C72.95 82.4062 72.2607 79.846 72.2607 76.9277V50.9854H80.6934V76.2295C80.6934 78.5212 81.4364 80.41 82.9224 81.896C84.4084 83.3641 86.3778 84.0981 88.8306 84.0981C91.2834 84.0981 93.2528 83.3641 94.7388 81.896C96.2248 80.41 96.9678 78.5212 96.9678 76.2295V50.9854ZM145.845 50.9854V91H138.513L121.138 65.8364H120.815V91H112.383V50.9854H119.795L137.063 76.1489H137.412V50.9854H145.845ZM164.01 50.9854V91H155.577V50.9854H164.01ZM188.905 91.5371C185.342 91.5371 182.155 90.7314 179.344 89.1201C176.533 87.5088 174.313 85.1724 172.684 82.1108C171.073 79.0493 170.267 75.3522 170.267 71.0195C170.267 66.651 171.082 62.936 172.711 59.8745C174.358 56.813 176.587 54.4766 179.398 52.8652C182.227 51.2539 185.396 50.4482 188.905 50.4482C192.002 50.4482 194.786 51.0212 197.257 52.167C199.745 53.3128 201.778 54.9689 203.353 57.1353C204.929 59.3016 205.895 61.9245 206.253 65.0039H197.713C197.391 62.8018 196.451 61.0741 194.894 59.8208C193.336 58.5496 191.402 57.9141 189.093 57.9141C186.013 57.9141 183.534 59.0599 181.654 61.3516C179.774 63.6253 178.834 66.848 178.834 71.0195C178.834 75.2806 179.774 78.5212 181.654 80.7412C183.552 82.9613 186.022 84.0713 189.066 84.0713C191.304 84.0713 193.202 83.4805 194.759 82.2988C196.335 81.1172 197.319 79.4611 197.713 77.3306H206.253C205.949 79.7834 205.072 82.0929 203.622 84.2593C202.189 86.4256 200.229 88.1802 197.74 89.5229C195.27 90.8657 192.324 91.5371 188.905 91.5371ZM220.782 50.9854V91H212.35V50.9854H220.782ZM231.784 91V36.4346H253.244C257.395 36.4346 260.922 37.228 263.828 38.8149C266.757 40.4019 268.991 42.5869 270.529 45.3701C272.067 48.1533 272.836 51.3516 272.836 54.9648C272.836 58.5781 272.055 61.7642 270.493 64.5229C268.93 67.2817 266.672 69.4424 263.718 71.0049C260.764 72.543 257.187 73.312 252.988 73.312H243.283V91H231.784ZM243.283 64.0835H251.083C254.428 64.0835 256.906 63.2412 258.518 61.5566C260.153 59.8477 260.971 57.6504 260.971 54.9648C260.971 52.2305 260.153 50.0332 258.518 48.373C256.882 46.7129 254.392 45.8828 251.047 45.8828H243.283V64.0835ZM285.949 91H276.872L290.703 50.9854H301.579L315.383 91H306.333L303.352 81.8691H288.903L285.949 91ZM291.052 75.2627H301.203L296.289 60.1162H295.966L291.052 75.2627ZM320.163 91V50.9854H328.596V84.0176H345.756V91H320.163Z" fill="#0B2E60"/>
<rect x="148.75" y="51" width="4" height="9" fill="#0B2E60"/>
<rect x="148.75" y="67" width="4" height="8" fill="#0B2E60"/>
<rect x="148.75" y="82" width="4" height="9" fill="#0B2E60"/>
<path d="M224.25 51H228.25V60H224.25V51Z" fill="#0B2E60"/>
<rect x="224.25" y="67" width="4" height="8" fill="#0B2E60"/>
<rect x="224.25" y="82" width="4" height="9" fill="#0B2E60"/>
</svg>
